M48
; DRILL file {KiCad 5.1.6} date 01/07/21 05:04:45
; FORMAT={-:-/ absolute / metric / decimal}
; #@! TF.CreationDate,2021-01-07T05:04:45+01:00
; #@! TF.GenerationSoftware,Kicad,Pcbnew,5.1.6
FMAT,2
METRIC
T1C0.300
T2C0.400
T3C0.500
T4C0.600
T5C0.890
T6C1.000
T7C1.100
T8C1.570
T9C3.200
T10C0.600
T11C3.250
%
G90
G05
T1
X47.5Y-144.0
X50.75Y-61.5
X54.25Y-110.5
X54.25Y-114.5
X54.25Y-121.25
X54.25Y-125.25
X54.25Y-129.0
X54.25Y-133.0
X54.5Y-61.5
X54.5Y-93.0
X54.5Y-97.25
X55.25Y-110.5
X55.25Y-114.5
X55.25Y-121.25
X55.25Y-125.25
X55.25Y-129.0
X55.25Y-133.0
X55.5Y-93.0
X55.5Y-97.25
X55.869Y-136.0
X56.0Y-106.25
X56.0Y-107.75
X56.0Y-109.25
X56.232Y-132.982
X56.25Y-110.5
X56.25Y-114.5
X56.25Y-121.25
X56.25Y-125.25
X56.25Y-129.0
X56.5Y-93.0
X56.5Y-97.25
X58.0Y-83.0
X58.0Y-87.5
X58.0Y-130.5
X59.0Y-83.0
X59.55Y-138.7
X61.0Y-133.75
X61.75Y-122.0
X62.45Y-137.7
X63.0Y-132.0
X64.24Y-112.25
X64.27Y-109.85
X64.75Y-123.25
X64.75Y-125.75
X65.75Y-125.75
X65.951Y-123.183
X66.0Y-134.0
X66.75Y-86.75
X66.75Y-88.0
X66.75Y-89.5
X66.75Y-90.75
X66.75Y-92.25
X66.75Y-93.5
X67.4Y-105.1
X68.4Y-105.1
X68.5Y-121.5
X68.5Y-110.25
X68.75Y-140.25
X69.25Y-127.0
X69.25Y-72.45
X69.25Y-78.95
X70.0Y-119.5
X70.0Y-120.75
X70.482Y-110.076
X70.75Y-107.5
X70.75Y-100.5
X70.75Y-104.25
X70.75Y-102.25
X70.75Y-105.1
X70.75Y-147.0
X71.0Y-111.95
X71.6Y-72.5
X71.6Y-78.9
X71.75Y-101.5
X72.0Y-136.0
X72.0Y-104.25
X72.0Y-105.75
X72.0Y-107.25
X72.0Y-111.95
X72.25Y-144.0
X72.4Y-110.521
X72.5Y-100.5
X73.0Y-107.25
X73.0Y-111.75
X73.0Y-135.0
X73.75Y-144.0
X74.0Y-111.75
X74.0Y-134.0
X74.1Y-74.0
X74.11Y-76.5
X74.5Y-100.5
X74.75Y-77.5
X74.75Y-82.5
X74.75Y-105.25
X75.0Y-133.0
X75.32Y-106.0
X75.507Y-110.244
X75.75Y-146.0
X76.0Y-116.5
X76.0Y-148.5
X76.25Y-83.25
X76.25Y-100.5
X76.25Y-104.75
X76.25Y-106.0
X76.5Y-74.0
X76.5Y-75.25
X76.5Y-76.5
X76.5Y-79.5
X76.5Y-78.65
X76.594Y-77.35
X76.6Y-72.78
X76.6Y-80.55
X76.6Y-81.55
X76.947Y-113.126
X77.15Y-113.9
X77.25Y-104.0
X77.25Y-107.5
X77.25Y-145.5
X78.0Y-105.75
X78.0Y-114.25
X78.25Y-100.5
X78.25Y-104.75
X78.25Y-102.25
X78.75Y-115.5
X79.0Y-77.5
X79.0Y-78.5
X79.0Y-79.5
X79.0Y-80.5
X79.0Y-81.5
X79.5Y-128.679
X79.5Y-123.0
X80.194Y-112.25
X80.25Y-115.0
X80.25Y-89.0
X80.25Y-91.5
X80.25Y-114.0
X80.25Y-86.25
X80.625Y-124.375
X81.232Y-94.982
X81.5Y-75.0
X81.5Y-76.866
X81.505Y-78.066
X82.112Y-79.474
X82.5Y-77.75
X82.5Y-84.75
X82.934Y-79.5
X83.0Y-124.5
X83.5Y-84.75
X83.75Y-79.5
X84.5Y-84.75
X84.5Y-110.0
X84.5Y-110.96
X85.5Y-68.75
X85.5Y-82.25
X85.5Y-84.75
X86.5Y-68.75
X87.25Y-82.25
X87.5Y-68.75
X87.51Y-145.49
X88.0Y-88.5
X88.25Y-147.25
X89.0Y-88.5
X89.6Y-119.5
X89.69Y-83.121
X89.75Y-112.25
X89.77Y-102.23
X89.875Y-79.5
X90.0Y-87.5
X91.48Y-73.27
X91.5Y-74.25
X92.0Y-119.5
X92.75Y-75.5
X92.75Y-76.491
X92.75Y-77.5
X93.0Y-78.55
X93.0Y-79.5
X93.0Y-119.25
X94.0Y-80.0
X94.25Y-122.5
X95.0Y-123.75
X96.5Y-99.0
X97.0Y-137.25
X97.0Y-139.0
X97.0Y-141.0
X97.3Y-100.5
X97.3Y-103.5
X97.5Y-95.0
X97.5Y-99.0
X98.0Y-134.0
X98.0Y-136.25
X98.0Y-138.25
X98.0Y-143.25
X98.0Y-108.5
X98.0Y-140.0
X98.0Y-142.0
X98.5Y-69.5
X98.5Y-73.5
X98.5Y-86.5
X98.5Y-90.5
X98.5Y-99.0
X98.5Y-109.5
X98.5Y-111.0
X98.5Y-115.0
X98.5Y-122.5
X98.5Y-123.75
X98.5Y-125.0
X98.5Y-129.0
X99.0Y-132.25
X99.0Y-136.25
X99.0Y-143.25
X99.0Y-145.5
X99.5Y-69.5
X99.5Y-73.5
X99.5Y-86.5
X99.5Y-90.5
X99.5Y-111.0
X99.5Y-115.0
X99.5Y-125.0
X99.5Y-129.0
X100.0Y-134.0
X100.0Y-136.25
X100.0Y-143.25
X100.5Y-69.5
X100.5Y-73.5
X100.5Y-86.5
X100.5Y-90.5
X100.5Y-111.0
X100.5Y-115.0
X100.5Y-125.0
X100.5Y-129.0
T2
X56.0Y-150.0
X56.0Y-151.5
X56.0Y-153.0
X56.0Y-154.5
X57.5Y-150.0
X57.5Y-151.5
X59.0Y-150.0
X59.0Y-151.5
X60.5Y-150.0
X60.5Y-151.5
X62.0Y-150.0
X62.0Y-151.5
X62.0Y-153.0
X62.0Y-154.5
X66.0Y-103.5
X69.0Y-149.75
X74.5Y-149.75
X75.75Y-149.75
X83.75Y-103.5
X83.75Y-108.5
X90.75Y-67.25
X90.75Y-72.5
T3
X59.5Y-66.75
X59.5Y-67.75
X59.5Y-87.0
X59.5Y-88.0
X63.5Y-141.0
X63.5Y-144.0
X63.75Y-146.75
X63.75Y-153.0
X65.0Y-66.75
X65.0Y-67.75
X65.0Y-87.0
X65.0Y-88.0
X65.25Y-141.0
X65.25Y-144.0
X65.25Y-146.75
X65.25Y-153.0
X107.6Y-62.0
X108.303Y-60.303
X108.303Y-63.697
X110.0Y-59.6
X110.0Y-64.4
X111.697Y-60.303
X111.697Y-63.697
X112.4Y-62.0
X42.6Y-62.0
X43.303Y-60.303
X43.303Y-63.697
X45.0Y-59.6
X45.0Y-64.4
X46.697Y-60.303
X46.697Y-63.697
X47.4Y-62.0
X42.6Y-152.0
X43.303Y-150.303
X43.303Y-153.697
X45.0Y-149.6
X45.0Y-154.4
X46.697Y-150.303
X46.697Y-153.697
X47.4Y-152.0
X107.6Y-152.0
X108.303Y-150.303
X108.303Y-153.697
X110.0Y-149.6
X110.0Y-154.4
X111.697Y-150.303
X111.697Y-153.697
X112.4Y-152.0
T5
X48.5Y-74.904
X48.5Y-76.936
X48.5Y-78.968
X48.5Y-81.0
X50.28Y-73.888
X50.28Y-75.92
X50.28Y-77.952
X50.28Y-79.984
X55.1Y-70.58
X55.1Y-72.87
X55.1Y-82.01
X55.1Y-84.3
T6
X46.99Y-133.35
X46.99Y-135.89
X46.99Y-138.43
X46.99Y-140.97
X49.53Y-133.35
X49.53Y-135.89
X49.53Y-138.43
X49.53Y-140.97
X105.41Y-123.19
X105.41Y-125.73
X105.41Y-128.27
X105.41Y-130.81
X107.95Y-123.19
X107.95Y-125.73
X107.95Y-128.27
X107.95Y-130.81
X105.41Y-109.22
X105.41Y-111.76
X105.41Y-114.3
X105.41Y-116.84
X107.95Y-109.22
X107.95Y-111.76
X107.95Y-114.3
X107.95Y-116.84
X46.99Y-119.38
X46.99Y-121.92
X46.99Y-124.46
X46.99Y-127.0
X49.53Y-119.38
X49.53Y-121.92
X49.53Y-124.46
X49.53Y-127.0
X46.99Y-95.25
X46.99Y-97.79
X46.99Y-100.33
X46.99Y-102.87
X46.99Y-105.41
X46.99Y-107.95
X46.99Y-110.49
X46.99Y-113.03
X49.53Y-95.25
X49.53Y-97.79
X49.53Y-100.33
X49.53Y-102.87
X49.53Y-105.41
X49.53Y-107.95
X49.53Y-110.49
X49.53Y-113.03
X105.41Y-95.25
X105.41Y-97.79
X105.41Y-100.33
X105.41Y-102.87
X107.95Y-95.25
X107.95Y-97.79
X107.95Y-100.33
X107.95Y-102.87
X50.98Y-150.75
X53.52Y-150.75
X91.465Y-151.545
X91.465Y-154.085
X94.005Y-151.545
X94.005Y-154.085
X96.545Y-151.545
X96.545Y-154.085
X99.085Y-151.545
X99.085Y-154.085
X101.625Y-151.545
X101.625Y-154.085
X107.95Y-137.16
X107.95Y-139.7
X107.95Y-142.24
X107.95Y-144.78
X105.41Y-137.16
X105.41Y-139.7
X105.41Y-142.24
X105.41Y-144.78
X102.87Y-137.16
X102.87Y-139.7
X102.87Y-142.24
X102.87Y-144.78
X105.41Y-71.12
X105.41Y-73.66
X105.41Y-76.2
X105.41Y-78.74
X105.41Y-81.28
X105.41Y-83.82
X105.41Y-86.36
X105.41Y-88.9
X107.95Y-71.12
X107.95Y-73.66
X107.95Y-76.2
X107.95Y-78.74
X107.95Y-81.28
X107.95Y-83.82
X107.95Y-86.36
X107.95Y-88.9
X71.0Y-92.58
X73.54Y-92.58
X76.08Y-92.58
X82.5Y-90.0
X82.5Y-92.54
X71.0Y-87.5
X73.54Y-87.5
X76.08Y-87.5
X88.46Y-104.64
X88.46Y-107.18
X88.46Y-109.72
X91.0Y-104.64
X91.0Y-107.18
X91.0Y-109.72
X71.0Y-90.04
X73.54Y-90.04
X76.08Y-90.04
T7
X80.0Y-150.0
X80.0Y-154.5
X86.5Y-150.0
X86.5Y-154.5
T8
X49.39Y-69.31
X49.39Y-85.57
T9
X110.0Y-62.0
X45.0Y-62.0
X45.0Y-152.0
X110.0Y-152.0
T11
X45.96Y-71.09
X45.96Y-83.79
T4
G00X67.93Y-151.775
M15
G01X67.93Y-150.775
M16
G05
G00X67.93Y-154.45
M15
G01X67.93Y-155.75
M16
G05
G00X76.57Y-151.775
M15
G01X76.57Y-150.775
M16
G05
G00X76.57Y-155.75
M15
G01X76.57Y-154.45
M16
G05
T10
G00X69.25Y-152.0
M15
G01X69.25Y-152.0
M16
G05
G00X75.125Y-152.0
M15
G01X75.375Y-152.0
M16
G05
T0
M30
