%TF.GenerationSoftware,KiCad,Pcbnew,5.1.6*%
%TF.CreationDate,2021-01-07T05:04:38+01:00*%
%TF.ProjectId,DP83848C-EvalBoard,44503833-3834-4384-932d-4576616c426f,rev?*%
%TF.SameCoordinates,Original*%
%TF.FileFunction,Paste,Top*%
%TF.FilePolarity,Positive*%
%FSLAX46Y46*%
G04 Gerber Fmt 4.6, Leading zero omitted, Abs format (unit mm)*
G04 Created by KiCad (PCBNEW 5.1.6) date 2021-01-07 05:04:38*
%MOMM*%
%LPD*%
G01*
G04 APERTURE LIST*
%ADD10R,1.500000X2.000000*%
%ADD11R,3.800000X2.000000*%
%ADD12R,0.650000X1.060000*%
%ADD13R,1.000000X2.000000*%
%ADD14R,0.520000X1.000000*%
%ADD15R,0.270000X1.000000*%
%ADD16R,1.400000X1.200000*%
%ADD17R,0.900000X1.000000*%
%ADD18R,0.900000X0.800000*%
%ADD19R,0.800000X0.900000*%
G04 APERTURE END LIST*
%TO.C,C21*%
G36*
G01*
X79243750Y-127350000D02*
X79756250Y-127350000D01*
G75*
G02*
X79975000Y-127568750I0J-218750D01*
G01*
X79975000Y-128006250D01*
G75*
G02*
X79756250Y-128225000I-218750J0D01*
G01*
X79243750Y-128225000D01*
G75*
G02*
X79025000Y-128006250I0J218750D01*
G01*
X79025000Y-127568750D01*
G75*
G02*
X79243750Y-127350000I218750J0D01*
G01*
G37*
G36*
G01*
X79243750Y-125775000D02*
X79756250Y-125775000D01*
G75*
G02*
X79975000Y-125993750I0J-218750D01*
G01*
X79975000Y-126431250D01*
G75*
G02*
X79756250Y-126650000I-218750J0D01*
G01*
X79243750Y-126650000D01*
G75*
G02*
X79025000Y-126431250I0J218750D01*
G01*
X79025000Y-125993750D01*
G75*
G02*
X79243750Y-125775000I218750J0D01*
G01*
G37*
%TD*%
%TO.C,C18*%
G36*
G01*
X63150000Y-121743750D02*
X63150000Y-122256250D01*
G75*
G02*
X62931250Y-122475000I-218750J0D01*
G01*
X62493750Y-122475000D01*
G75*
G02*
X62275000Y-122256250I0J218750D01*
G01*
X62275000Y-121743750D01*
G75*
G02*
X62493750Y-121525000I218750J0D01*
G01*
X62931250Y-121525000D01*
G75*
G02*
X63150000Y-121743750I0J-218750D01*
G01*
G37*
G36*
G01*
X64725000Y-121743750D02*
X64725000Y-122256250D01*
G75*
G02*
X64506250Y-122475000I-218750J0D01*
G01*
X64068750Y-122475000D01*
G75*
G02*
X63850000Y-122256250I0J218750D01*
G01*
X63850000Y-121743750D01*
G75*
G02*
X64068750Y-121525000I218750J0D01*
G01*
X64506250Y-121525000D01*
G75*
G02*
X64725000Y-121743750I0J-218750D01*
G01*
G37*
%TD*%
%TO.C,C1*%
G36*
G01*
X62625000Y-143050000D02*
X62625000Y-141950000D01*
G75*
G02*
X62875000Y-141700000I250000J0D01*
G01*
X65700000Y-141700000D01*
G75*
G02*
X65950000Y-141950000I0J-250000D01*
G01*
X65950000Y-143050000D01*
G75*
G02*
X65700000Y-143300000I-250000J0D01*
G01*
X62875000Y-143300000D01*
G75*
G02*
X62625000Y-143050000I0J250000D01*
G01*
G37*
G36*
G01*
X57550000Y-143050000D02*
X57550000Y-141950000D01*
G75*
G02*
X57800000Y-141700000I250000J0D01*
G01*
X60625000Y-141700000D01*
G75*
G02*
X60875000Y-141950000I0J-250000D01*
G01*
X60875000Y-143050000D01*
G75*
G02*
X60625000Y-143300000I-250000J0D01*
G01*
X57800000Y-143300000D01*
G75*
G02*
X57550000Y-143050000I0J250000D01*
G01*
G37*
%TD*%
D10*
%TO.C,U1*%
X61050000Y-147850000D03*
X56450000Y-147850000D03*
X58750000Y-147850000D03*
D11*
X58750000Y-154150000D03*
%TD*%
%TO.C,R14*%
G36*
G01*
X83315000Y-83740000D02*
X83685000Y-83740000D01*
G75*
G02*
X83820000Y-83875000I0J-135000D01*
G01*
X83820000Y-84145000D01*
G75*
G02*
X83685000Y-84280000I-135000J0D01*
G01*
X83315000Y-84280000D01*
G75*
G02*
X83180000Y-84145000I0J135000D01*
G01*
X83180000Y-83875000D01*
G75*
G02*
X83315000Y-83740000I135000J0D01*
G01*
G37*
G36*
G01*
X83315000Y-82720000D02*
X83685000Y-82720000D01*
G75*
G02*
X83820000Y-82855000I0J-135000D01*
G01*
X83820000Y-83125000D01*
G75*
G02*
X83685000Y-83260000I-135000J0D01*
G01*
X83315000Y-83260000D01*
G75*
G02*
X83180000Y-83125000I0J135000D01*
G01*
X83180000Y-82855000D01*
G75*
G02*
X83315000Y-82720000I135000J0D01*
G01*
G37*
%TD*%
%TO.C,R13*%
G36*
G01*
X84315000Y-83740000D02*
X84685000Y-83740000D01*
G75*
G02*
X84820000Y-83875000I0J-135000D01*
G01*
X84820000Y-84145000D01*
G75*
G02*
X84685000Y-84280000I-135000J0D01*
G01*
X84315000Y-84280000D01*
G75*
G02*
X84180000Y-84145000I0J135000D01*
G01*
X84180000Y-83875000D01*
G75*
G02*
X84315000Y-83740000I135000J0D01*
G01*
G37*
G36*
G01*
X84315000Y-82720000D02*
X84685000Y-82720000D01*
G75*
G02*
X84820000Y-82855000I0J-135000D01*
G01*
X84820000Y-83125000D01*
G75*
G02*
X84685000Y-83260000I-135000J0D01*
G01*
X84315000Y-83260000D01*
G75*
G02*
X84180000Y-83125000I0J135000D01*
G01*
X84180000Y-82855000D01*
G75*
G02*
X84315000Y-82720000I135000J0D01*
G01*
G37*
%TD*%
%TO.C,R101*%
G36*
G01*
X98740000Y-100685000D02*
X98740000Y-100315000D01*
G75*
G02*
X98875000Y-100180000I135000J0D01*
G01*
X99145000Y-100180000D01*
G75*
G02*
X99280000Y-100315000I0J-135000D01*
G01*
X99280000Y-100685000D01*
G75*
G02*
X99145000Y-100820000I-135000J0D01*
G01*
X98875000Y-100820000D01*
G75*
G02*
X98740000Y-100685000I0J135000D01*
G01*
G37*
G36*
G01*
X97720000Y-100685000D02*
X97720000Y-100315000D01*
G75*
G02*
X97855000Y-100180000I135000J0D01*
G01*
X98125000Y-100180000D01*
G75*
G02*
X98260000Y-100315000I0J-135000D01*
G01*
X98260000Y-100685000D01*
G75*
G02*
X98125000Y-100820000I-135000J0D01*
G01*
X97855000Y-100820000D01*
G75*
G02*
X97720000Y-100685000I0J135000D01*
G01*
G37*
%TD*%
%TO.C,R100*%
G36*
G01*
X98740000Y-103685000D02*
X98740000Y-103315000D01*
G75*
G02*
X98875000Y-103180000I135000J0D01*
G01*
X99145000Y-103180000D01*
G75*
G02*
X99280000Y-103315000I0J-135000D01*
G01*
X99280000Y-103685000D01*
G75*
G02*
X99145000Y-103820000I-135000J0D01*
G01*
X98875000Y-103820000D01*
G75*
G02*
X98740000Y-103685000I0J135000D01*
G01*
G37*
G36*
G01*
X97720000Y-103685000D02*
X97720000Y-103315000D01*
G75*
G02*
X97855000Y-103180000I135000J0D01*
G01*
X98125000Y-103180000D01*
G75*
G02*
X98260000Y-103315000I0J-135000D01*
G01*
X98260000Y-103685000D01*
G75*
G02*
X98125000Y-103820000I-135000J0D01*
G01*
X97855000Y-103820000D01*
G75*
G02*
X97720000Y-103685000I0J135000D01*
G01*
G37*
%TD*%
%TO.C,R69*%
G36*
G01*
X100740000Y-74935000D02*
X100740000Y-74565000D01*
G75*
G02*
X100875000Y-74430000I135000J0D01*
G01*
X101145000Y-74430000D01*
G75*
G02*
X101280000Y-74565000I0J-135000D01*
G01*
X101280000Y-74935000D01*
G75*
G02*
X101145000Y-75070000I-135000J0D01*
G01*
X100875000Y-75070000D01*
G75*
G02*
X100740000Y-74935000I0J135000D01*
G01*
G37*
G36*
G01*
X99720000Y-74935000D02*
X99720000Y-74565000D01*
G75*
G02*
X99855000Y-74430000I135000J0D01*
G01*
X100125000Y-74430000D01*
G75*
G02*
X100260000Y-74565000I0J-135000D01*
G01*
X100260000Y-74935000D01*
G75*
G02*
X100125000Y-75070000I-135000J0D01*
G01*
X99855000Y-75070000D01*
G75*
G02*
X99720000Y-74935000I0J135000D01*
G01*
G37*
%TD*%
%TO.C,R68*%
G36*
G01*
X100740000Y-76385000D02*
X100740000Y-76015000D01*
G75*
G02*
X100875000Y-75880000I135000J0D01*
G01*
X101145000Y-75880000D01*
G75*
G02*
X101280000Y-76015000I0J-135000D01*
G01*
X101280000Y-76385000D01*
G75*
G02*
X101145000Y-76520000I-135000J0D01*
G01*
X100875000Y-76520000D01*
G75*
G02*
X100740000Y-76385000I0J135000D01*
G01*
G37*
G36*
G01*
X99720000Y-76385000D02*
X99720000Y-76015000D01*
G75*
G02*
X99855000Y-75880000I135000J0D01*
G01*
X100125000Y-75880000D01*
G75*
G02*
X100260000Y-76015000I0J-135000D01*
G01*
X100260000Y-76385000D01*
G75*
G02*
X100125000Y-76520000I-135000J0D01*
G01*
X99855000Y-76520000D01*
G75*
G02*
X99720000Y-76385000I0J135000D01*
G01*
G37*
%TD*%
%TO.C,R67*%
G36*
G01*
X100740000Y-77935000D02*
X100740000Y-77565000D01*
G75*
G02*
X100875000Y-77430000I135000J0D01*
G01*
X101145000Y-77430000D01*
G75*
G02*
X101280000Y-77565000I0J-135000D01*
G01*
X101280000Y-77935000D01*
G75*
G02*
X101145000Y-78070000I-135000J0D01*
G01*
X100875000Y-78070000D01*
G75*
G02*
X100740000Y-77935000I0J135000D01*
G01*
G37*
G36*
G01*
X99720000Y-77935000D02*
X99720000Y-77565000D01*
G75*
G02*
X99855000Y-77430000I135000J0D01*
G01*
X100125000Y-77430000D01*
G75*
G02*
X100260000Y-77565000I0J-135000D01*
G01*
X100260000Y-77935000D01*
G75*
G02*
X100125000Y-78070000I-135000J0D01*
G01*
X99855000Y-78070000D01*
G75*
G02*
X99720000Y-77935000I0J135000D01*
G01*
G37*
%TD*%
%TO.C,R66*%
G36*
G01*
X100740000Y-79435000D02*
X100740000Y-79065000D01*
G75*
G02*
X100875000Y-78930000I135000J0D01*
G01*
X101145000Y-78930000D01*
G75*
G02*
X101280000Y-79065000I0J-135000D01*
G01*
X101280000Y-79435000D01*
G75*
G02*
X101145000Y-79570000I-135000J0D01*
G01*
X100875000Y-79570000D01*
G75*
G02*
X100740000Y-79435000I0J135000D01*
G01*
G37*
G36*
G01*
X99720000Y-79435000D02*
X99720000Y-79065000D01*
G75*
G02*
X99855000Y-78930000I135000J0D01*
G01*
X100125000Y-78930000D01*
G75*
G02*
X100260000Y-79065000I0J-135000D01*
G01*
X100260000Y-79435000D01*
G75*
G02*
X100125000Y-79570000I-135000J0D01*
G01*
X99855000Y-79570000D01*
G75*
G02*
X99720000Y-79435000I0J135000D01*
G01*
G37*
%TD*%
%TO.C,R65*%
G36*
G01*
X100740000Y-80935000D02*
X100740000Y-80565000D01*
G75*
G02*
X100875000Y-80430000I135000J0D01*
G01*
X101145000Y-80430000D01*
G75*
G02*
X101280000Y-80565000I0J-135000D01*
G01*
X101280000Y-80935000D01*
G75*
G02*
X101145000Y-81070000I-135000J0D01*
G01*
X100875000Y-81070000D01*
G75*
G02*
X100740000Y-80935000I0J135000D01*
G01*
G37*
G36*
G01*
X99720000Y-80935000D02*
X99720000Y-80565000D01*
G75*
G02*
X99855000Y-80430000I135000J0D01*
G01*
X100125000Y-80430000D01*
G75*
G02*
X100260000Y-80565000I0J-135000D01*
G01*
X100260000Y-80935000D01*
G75*
G02*
X100125000Y-81070000I-135000J0D01*
G01*
X99855000Y-81070000D01*
G75*
G02*
X99720000Y-80935000I0J135000D01*
G01*
G37*
%TD*%
%TO.C,R64*%
G36*
G01*
X100740000Y-82435000D02*
X100740000Y-82065000D01*
G75*
G02*
X100875000Y-81930000I135000J0D01*
G01*
X101145000Y-81930000D01*
G75*
G02*
X101280000Y-82065000I0J-135000D01*
G01*
X101280000Y-82435000D01*
G75*
G02*
X101145000Y-82570000I-135000J0D01*
G01*
X100875000Y-82570000D01*
G75*
G02*
X100740000Y-82435000I0J135000D01*
G01*
G37*
G36*
G01*
X99720000Y-82435000D02*
X99720000Y-82065000D01*
G75*
G02*
X99855000Y-81930000I135000J0D01*
G01*
X100125000Y-81930000D01*
G75*
G02*
X100260000Y-82065000I0J-135000D01*
G01*
X100260000Y-82435000D01*
G75*
G02*
X100125000Y-82570000I-135000J0D01*
G01*
X99855000Y-82570000D01*
G75*
G02*
X99720000Y-82435000I0J135000D01*
G01*
G37*
%TD*%
%TO.C,R63*%
G36*
G01*
X100740000Y-83935000D02*
X100740000Y-83565000D01*
G75*
G02*
X100875000Y-83430000I135000J0D01*
G01*
X101145000Y-83430000D01*
G75*
G02*
X101280000Y-83565000I0J-135000D01*
G01*
X101280000Y-83935000D01*
G75*
G02*
X101145000Y-84070000I-135000J0D01*
G01*
X100875000Y-84070000D01*
G75*
G02*
X100740000Y-83935000I0J135000D01*
G01*
G37*
G36*
G01*
X99720000Y-83935000D02*
X99720000Y-83565000D01*
G75*
G02*
X99855000Y-83430000I135000J0D01*
G01*
X100125000Y-83430000D01*
G75*
G02*
X100260000Y-83565000I0J-135000D01*
G01*
X100260000Y-83935000D01*
G75*
G02*
X100125000Y-84070000I-135000J0D01*
G01*
X99855000Y-84070000D01*
G75*
G02*
X99720000Y-83935000I0J135000D01*
G01*
G37*
%TD*%
%TO.C,R62*%
G36*
G01*
X100740000Y-85435000D02*
X100740000Y-85065000D01*
G75*
G02*
X100875000Y-84930000I135000J0D01*
G01*
X101145000Y-84930000D01*
G75*
G02*
X101280000Y-85065000I0J-135000D01*
G01*
X101280000Y-85435000D01*
G75*
G02*
X101145000Y-85570000I-135000J0D01*
G01*
X100875000Y-85570000D01*
G75*
G02*
X100740000Y-85435000I0J135000D01*
G01*
G37*
G36*
G01*
X99720000Y-85435000D02*
X99720000Y-85065000D01*
G75*
G02*
X99855000Y-84930000I135000J0D01*
G01*
X100125000Y-84930000D01*
G75*
G02*
X100260000Y-85065000I0J-135000D01*
G01*
X100260000Y-85435000D01*
G75*
G02*
X100125000Y-85570000I-135000J0D01*
G01*
X99855000Y-85570000D01*
G75*
G02*
X99720000Y-85435000I0J135000D01*
G01*
G37*
%TD*%
D12*
%TO.C,U15*%
X55250000Y-113600000D03*
X56200000Y-113600000D03*
X54300000Y-113600000D03*
X54300000Y-111400000D03*
X55250000Y-111400000D03*
X56200000Y-111400000D03*
%TD*%
%TO.C,U14*%
X55250000Y-124350000D03*
X56200000Y-124350000D03*
X54300000Y-124350000D03*
X54300000Y-122150000D03*
X55250000Y-122150000D03*
X56200000Y-122150000D03*
%TD*%
%TO.C,U13*%
X96550000Y-98100000D03*
X97500000Y-98100000D03*
X98450000Y-98100000D03*
X98450000Y-95900000D03*
X96550000Y-95900000D03*
X97500000Y-95900000D03*
%TD*%
%TO.C,U12*%
X99500000Y-125900000D03*
X98550000Y-125900000D03*
X100450000Y-125900000D03*
X100450000Y-128100000D03*
X99500000Y-128100000D03*
X98550000Y-128100000D03*
%TD*%
%TO.C,U11*%
X55500000Y-96250000D03*
X56450000Y-96250000D03*
X54550000Y-96250000D03*
X54550000Y-94050000D03*
X55500000Y-94050000D03*
X56450000Y-94050000D03*
%TD*%
%TO.C,U10*%
X99950000Y-144150000D03*
X99000000Y-144150000D03*
X98050000Y-144150000D03*
X98050000Y-146350000D03*
X99950000Y-146350000D03*
X99000000Y-146350000D03*
%TD*%
%TO.C,U9*%
X55250000Y-132100000D03*
X56200000Y-132100000D03*
X54300000Y-132100000D03*
X54300000Y-129900000D03*
X55250000Y-129900000D03*
X56200000Y-129900000D03*
%TD*%
%TO.C,U8*%
X99500000Y-70400000D03*
X98550000Y-70400000D03*
X100450000Y-70400000D03*
X100450000Y-72600000D03*
X99500000Y-72600000D03*
X98550000Y-72600000D03*
%TD*%
%TO.C,U7*%
X99000000Y-135350000D03*
X99950000Y-135350000D03*
X98050000Y-135350000D03*
X98050000Y-133150000D03*
X99000000Y-133150000D03*
X99950000Y-133150000D03*
%TD*%
%TO.C,U6*%
X99500000Y-111900000D03*
X98550000Y-111900000D03*
X100450000Y-111900000D03*
X100450000Y-114100000D03*
X99500000Y-114100000D03*
X98550000Y-114100000D03*
%TD*%
%TO.C,U5*%
X99500000Y-87400000D03*
X98550000Y-87400000D03*
X100450000Y-87400000D03*
X100450000Y-89600000D03*
X99500000Y-89600000D03*
X98550000Y-89600000D03*
%TD*%
%TO.C,R103*%
G36*
G01*
X98260000Y-101315000D02*
X98260000Y-101685000D01*
G75*
G02*
X98125000Y-101820000I-135000J0D01*
G01*
X97855000Y-101820000D01*
G75*
G02*
X97720000Y-101685000I0J135000D01*
G01*
X97720000Y-101315000D01*
G75*
G02*
X97855000Y-101180000I135000J0D01*
G01*
X98125000Y-101180000D01*
G75*
G02*
X98260000Y-101315000I0J-135000D01*
G01*
G37*
G36*
G01*
X99280000Y-101315000D02*
X99280000Y-101685000D01*
G75*
G02*
X99145000Y-101820000I-135000J0D01*
G01*
X98875000Y-101820000D01*
G75*
G02*
X98740000Y-101685000I0J135000D01*
G01*
X98740000Y-101315000D01*
G75*
G02*
X98875000Y-101180000I135000J0D01*
G01*
X99145000Y-101180000D01*
G75*
G02*
X99280000Y-101315000I0J-135000D01*
G01*
G37*
%TD*%
%TO.C,R102*%
G36*
G01*
X98260000Y-102315000D02*
X98260000Y-102685000D01*
G75*
G02*
X98125000Y-102820000I-135000J0D01*
G01*
X97855000Y-102820000D01*
G75*
G02*
X97720000Y-102685000I0J135000D01*
G01*
X97720000Y-102315000D01*
G75*
G02*
X97855000Y-102180000I135000J0D01*
G01*
X98125000Y-102180000D01*
G75*
G02*
X98260000Y-102315000I0J-135000D01*
G01*
G37*
G36*
G01*
X99280000Y-102315000D02*
X99280000Y-102685000D01*
G75*
G02*
X99145000Y-102820000I-135000J0D01*
G01*
X98875000Y-102820000D01*
G75*
G02*
X98740000Y-102685000I0J135000D01*
G01*
X98740000Y-102315000D01*
G75*
G02*
X98875000Y-102180000I135000J0D01*
G01*
X99145000Y-102180000D01*
G75*
G02*
X99280000Y-102315000I0J-135000D01*
G01*
G37*
%TD*%
%TO.C,R99*%
G36*
G01*
X100240000Y-141435000D02*
X100240000Y-141065000D01*
G75*
G02*
X100375000Y-140930000I135000J0D01*
G01*
X100645000Y-140930000D01*
G75*
G02*
X100780000Y-141065000I0J-135000D01*
G01*
X100780000Y-141435000D01*
G75*
G02*
X100645000Y-141570000I-135000J0D01*
G01*
X100375000Y-141570000D01*
G75*
G02*
X100240000Y-141435000I0J135000D01*
G01*
G37*
G36*
G01*
X99220000Y-141435000D02*
X99220000Y-141065000D01*
G75*
G02*
X99355000Y-140930000I135000J0D01*
G01*
X99625000Y-140930000D01*
G75*
G02*
X99760000Y-141065000I0J-135000D01*
G01*
X99760000Y-141435000D01*
G75*
G02*
X99625000Y-141570000I-135000J0D01*
G01*
X99355000Y-141570000D01*
G75*
G02*
X99220000Y-141435000I0J135000D01*
G01*
G37*
%TD*%
%TO.C,R98*%
G36*
G01*
X100240000Y-142435000D02*
X100240000Y-142065000D01*
G75*
G02*
X100375000Y-141930000I135000J0D01*
G01*
X100645000Y-141930000D01*
G75*
G02*
X100780000Y-142065000I0J-135000D01*
G01*
X100780000Y-142435000D01*
G75*
G02*
X100645000Y-142570000I-135000J0D01*
G01*
X100375000Y-142570000D01*
G75*
G02*
X100240000Y-142435000I0J135000D01*
G01*
G37*
G36*
G01*
X99220000Y-142435000D02*
X99220000Y-142065000D01*
G75*
G02*
X99355000Y-141930000I135000J0D01*
G01*
X99625000Y-141930000D01*
G75*
G02*
X99760000Y-142065000I0J-135000D01*
G01*
X99760000Y-142435000D01*
G75*
G02*
X99625000Y-142570000I-135000J0D01*
G01*
X99355000Y-142570000D01*
G75*
G02*
X99220000Y-142435000I0J135000D01*
G01*
G37*
%TD*%
%TO.C,R97*%
G36*
G01*
X100240000Y-137435000D02*
X100240000Y-137065000D01*
G75*
G02*
X100375000Y-136930000I135000J0D01*
G01*
X100645000Y-136930000D01*
G75*
G02*
X100780000Y-137065000I0J-135000D01*
G01*
X100780000Y-137435000D01*
G75*
G02*
X100645000Y-137570000I-135000J0D01*
G01*
X100375000Y-137570000D01*
G75*
G02*
X100240000Y-137435000I0J135000D01*
G01*
G37*
G36*
G01*
X99220000Y-137435000D02*
X99220000Y-137065000D01*
G75*
G02*
X99355000Y-136930000I135000J0D01*
G01*
X99625000Y-136930000D01*
G75*
G02*
X99760000Y-137065000I0J-135000D01*
G01*
X99760000Y-137435000D01*
G75*
G02*
X99625000Y-137570000I-135000J0D01*
G01*
X99355000Y-137570000D01*
G75*
G02*
X99220000Y-137435000I0J135000D01*
G01*
G37*
%TD*%
%TO.C,R96*%
G36*
G01*
X100230000Y-138435000D02*
X100230000Y-138065000D01*
G75*
G02*
X100365000Y-137930000I135000J0D01*
G01*
X100635000Y-137930000D01*
G75*
G02*
X100770000Y-138065000I0J-135000D01*
G01*
X100770000Y-138435000D01*
G75*
G02*
X100635000Y-138570000I-135000J0D01*
G01*
X100365000Y-138570000D01*
G75*
G02*
X100230000Y-138435000I0J135000D01*
G01*
G37*
G36*
G01*
X99210000Y-138435000D02*
X99210000Y-138065000D01*
G75*
G02*
X99345000Y-137930000I135000J0D01*
G01*
X99615000Y-137930000D01*
G75*
G02*
X99750000Y-138065000I0J-135000D01*
G01*
X99750000Y-138435000D01*
G75*
G02*
X99615000Y-138570000I-135000J0D01*
G01*
X99345000Y-138570000D01*
G75*
G02*
X99210000Y-138435000I0J135000D01*
G01*
G37*
%TD*%
%TO.C,R95*%
G36*
G01*
X100240000Y-139435000D02*
X100240000Y-139065000D01*
G75*
G02*
X100375000Y-138930000I135000J0D01*
G01*
X100645000Y-138930000D01*
G75*
G02*
X100780000Y-139065000I0J-135000D01*
G01*
X100780000Y-139435000D01*
G75*
G02*
X100645000Y-139570000I-135000J0D01*
G01*
X100375000Y-139570000D01*
G75*
G02*
X100240000Y-139435000I0J135000D01*
G01*
G37*
G36*
G01*
X99220000Y-139435000D02*
X99220000Y-139065000D01*
G75*
G02*
X99355000Y-138930000I135000J0D01*
G01*
X99625000Y-138930000D01*
G75*
G02*
X99760000Y-139065000I0J-135000D01*
G01*
X99760000Y-139435000D01*
G75*
G02*
X99625000Y-139570000I-135000J0D01*
G01*
X99355000Y-139570000D01*
G75*
G02*
X99220000Y-139435000I0J135000D01*
G01*
G37*
%TD*%
%TO.C,R94*%
G36*
G01*
X100240000Y-140435000D02*
X100240000Y-140065000D01*
G75*
G02*
X100375000Y-139930000I135000J0D01*
G01*
X100645000Y-139930000D01*
G75*
G02*
X100780000Y-140065000I0J-135000D01*
G01*
X100780000Y-140435000D01*
G75*
G02*
X100645000Y-140570000I-135000J0D01*
G01*
X100375000Y-140570000D01*
G75*
G02*
X100240000Y-140435000I0J135000D01*
G01*
G37*
G36*
G01*
X99220000Y-140435000D02*
X99220000Y-140065000D01*
G75*
G02*
X99355000Y-139930000I135000J0D01*
G01*
X99625000Y-139930000D01*
G75*
G02*
X99760000Y-140065000I0J-135000D01*
G01*
X99760000Y-140435000D01*
G75*
G02*
X99625000Y-140570000I-135000J0D01*
G01*
X99355000Y-140570000D01*
G75*
G02*
X99220000Y-140435000I0J135000D01*
G01*
G37*
%TD*%
%TO.C,R93*%
G36*
G01*
X100260000Y-122315000D02*
X100260000Y-122685000D01*
G75*
G02*
X100125000Y-122820000I-135000J0D01*
G01*
X99855000Y-122820000D01*
G75*
G02*
X99720000Y-122685000I0J135000D01*
G01*
X99720000Y-122315000D01*
G75*
G02*
X99855000Y-122180000I135000J0D01*
G01*
X100125000Y-122180000D01*
G75*
G02*
X100260000Y-122315000I0J-135000D01*
G01*
G37*
G36*
G01*
X101280000Y-122315000D02*
X101280000Y-122685000D01*
G75*
G02*
X101145000Y-122820000I-135000J0D01*
G01*
X100875000Y-122820000D01*
G75*
G02*
X100740000Y-122685000I0J135000D01*
G01*
X100740000Y-122315000D01*
G75*
G02*
X100875000Y-122180000I135000J0D01*
G01*
X101145000Y-122180000D01*
G75*
G02*
X101280000Y-122315000I0J-135000D01*
G01*
G37*
%TD*%
%TO.C,R92*%
G36*
G01*
X100260000Y-123565000D02*
X100260000Y-123935000D01*
G75*
G02*
X100125000Y-124070000I-135000J0D01*
G01*
X99855000Y-124070000D01*
G75*
G02*
X99720000Y-123935000I0J135000D01*
G01*
X99720000Y-123565000D01*
G75*
G02*
X99855000Y-123430000I135000J0D01*
G01*
X100125000Y-123430000D01*
G75*
G02*
X100260000Y-123565000I0J-135000D01*
G01*
G37*
G36*
G01*
X101280000Y-123565000D02*
X101280000Y-123935000D01*
G75*
G02*
X101145000Y-124070000I-135000J0D01*
G01*
X100875000Y-124070000D01*
G75*
G02*
X100740000Y-123935000I0J135000D01*
G01*
X100740000Y-123565000D01*
G75*
G02*
X100875000Y-123430000I135000J0D01*
G01*
X101145000Y-123430000D01*
G75*
G02*
X101280000Y-123565000I0J-135000D01*
G01*
G37*
%TD*%
%TO.C,R91*%
G36*
G01*
X100260000Y-130065000D02*
X100260000Y-130435000D01*
G75*
G02*
X100125000Y-130570000I-135000J0D01*
G01*
X99855000Y-130570000D01*
G75*
G02*
X99720000Y-130435000I0J135000D01*
G01*
X99720000Y-130065000D01*
G75*
G02*
X99855000Y-129930000I135000J0D01*
G01*
X100125000Y-129930000D01*
G75*
G02*
X100260000Y-130065000I0J-135000D01*
G01*
G37*
G36*
G01*
X101280000Y-130065000D02*
X101280000Y-130435000D01*
G75*
G02*
X101145000Y-130570000I-135000J0D01*
G01*
X100875000Y-130570000D01*
G75*
G02*
X100740000Y-130435000I0J135000D01*
G01*
X100740000Y-130065000D01*
G75*
G02*
X100875000Y-129930000I135000J0D01*
G01*
X101145000Y-129930000D01*
G75*
G02*
X101280000Y-130065000I0J-135000D01*
G01*
G37*
%TD*%
%TO.C,R90*%
G36*
G01*
X100260000Y-131315000D02*
X100260000Y-131685000D01*
G75*
G02*
X100125000Y-131820000I-135000J0D01*
G01*
X99855000Y-131820000D01*
G75*
G02*
X99720000Y-131685000I0J135000D01*
G01*
X99720000Y-131315000D01*
G75*
G02*
X99855000Y-131180000I135000J0D01*
G01*
X100125000Y-131180000D01*
G75*
G02*
X100260000Y-131315000I0J-135000D01*
G01*
G37*
G36*
G01*
X101280000Y-131315000D02*
X101280000Y-131685000D01*
G75*
G02*
X101145000Y-131820000I-135000J0D01*
G01*
X100875000Y-131820000D01*
G75*
G02*
X100740000Y-131685000I0J135000D01*
G01*
X100740000Y-131315000D01*
G75*
G02*
X100875000Y-131180000I135000J0D01*
G01*
X101145000Y-131180000D01*
G75*
G02*
X101280000Y-131315000I0J-135000D01*
G01*
G37*
%TD*%
%TO.C,R89*%
G36*
G01*
X54750000Y-137185000D02*
X54750000Y-136815000D01*
G75*
G02*
X54885000Y-136680000I135000J0D01*
G01*
X55155000Y-136680000D01*
G75*
G02*
X55290000Y-136815000I0J-135000D01*
G01*
X55290000Y-137185000D01*
G75*
G02*
X55155000Y-137320000I-135000J0D01*
G01*
X54885000Y-137320000D01*
G75*
G02*
X54750000Y-137185000I0J135000D01*
G01*
G37*
G36*
G01*
X53730000Y-137185000D02*
X53730000Y-136815000D01*
G75*
G02*
X53865000Y-136680000I135000J0D01*
G01*
X54135000Y-136680000D01*
G75*
G02*
X54270000Y-136815000I0J-135000D01*
G01*
X54270000Y-137185000D01*
G75*
G02*
X54135000Y-137320000I-135000J0D01*
G01*
X53865000Y-137320000D01*
G75*
G02*
X53730000Y-137185000I0J135000D01*
G01*
G37*
%TD*%
%TO.C,R88*%
G36*
G01*
X54740000Y-136185000D02*
X54740000Y-135815000D01*
G75*
G02*
X54875000Y-135680000I135000J0D01*
G01*
X55145000Y-135680000D01*
G75*
G02*
X55280000Y-135815000I0J-135000D01*
G01*
X55280000Y-136185000D01*
G75*
G02*
X55145000Y-136320000I-135000J0D01*
G01*
X54875000Y-136320000D01*
G75*
G02*
X54740000Y-136185000I0J135000D01*
G01*
G37*
G36*
G01*
X53720000Y-136185000D02*
X53720000Y-135815000D01*
G75*
G02*
X53855000Y-135680000I135000J0D01*
G01*
X54125000Y-135680000D01*
G75*
G02*
X54260000Y-135815000I0J-135000D01*
G01*
X54260000Y-136185000D01*
G75*
G02*
X54125000Y-136320000I-135000J0D01*
G01*
X53855000Y-136320000D01*
G75*
G02*
X53720000Y-136185000I0J135000D01*
G01*
G37*
%TD*%
%TO.C,R87*%
G36*
G01*
X54740000Y-135185000D02*
X54740000Y-134815000D01*
G75*
G02*
X54875000Y-134680000I135000J0D01*
G01*
X55145000Y-134680000D01*
G75*
G02*
X55280000Y-134815000I0J-135000D01*
G01*
X55280000Y-135185000D01*
G75*
G02*
X55145000Y-135320000I-135000J0D01*
G01*
X54875000Y-135320000D01*
G75*
G02*
X54740000Y-135185000I0J135000D01*
G01*
G37*
G36*
G01*
X53720000Y-135185000D02*
X53720000Y-134815000D01*
G75*
G02*
X53855000Y-134680000I135000J0D01*
G01*
X54125000Y-134680000D01*
G75*
G02*
X54260000Y-134815000I0J-135000D01*
G01*
X54260000Y-135185000D01*
G75*
G02*
X54125000Y-135320000I-135000J0D01*
G01*
X53855000Y-135320000D01*
G75*
G02*
X53720000Y-135185000I0J135000D01*
G01*
G37*
%TD*%
%TO.C,R86*%
G36*
G01*
X54740000Y-134185000D02*
X54740000Y-133815000D01*
G75*
G02*
X54875000Y-133680000I135000J0D01*
G01*
X55145000Y-133680000D01*
G75*
G02*
X55280000Y-133815000I0J-135000D01*
G01*
X55280000Y-134185000D01*
G75*
G02*
X55145000Y-134320000I-135000J0D01*
G01*
X54875000Y-134320000D01*
G75*
G02*
X54740000Y-134185000I0J135000D01*
G01*
G37*
G36*
G01*
X53720000Y-134185000D02*
X53720000Y-133815000D01*
G75*
G02*
X53855000Y-133680000I135000J0D01*
G01*
X54125000Y-133680000D01*
G75*
G02*
X54260000Y-133815000I0J-135000D01*
G01*
X54260000Y-134185000D01*
G75*
G02*
X54125000Y-134320000I-135000J0D01*
G01*
X53855000Y-134320000D01*
G75*
G02*
X53720000Y-134185000I0J135000D01*
G01*
G37*
%TD*%
%TO.C,R85*%
G36*
G01*
X100260000Y-108315000D02*
X100260000Y-108685000D01*
G75*
G02*
X100125000Y-108820000I-135000J0D01*
G01*
X99855000Y-108820000D01*
G75*
G02*
X99720000Y-108685000I0J135000D01*
G01*
X99720000Y-108315000D01*
G75*
G02*
X99855000Y-108180000I135000J0D01*
G01*
X100125000Y-108180000D01*
G75*
G02*
X100260000Y-108315000I0J-135000D01*
G01*
G37*
G36*
G01*
X101280000Y-108315000D02*
X101280000Y-108685000D01*
G75*
G02*
X101145000Y-108820000I-135000J0D01*
G01*
X100875000Y-108820000D01*
G75*
G02*
X100740000Y-108685000I0J135000D01*
G01*
X100740000Y-108315000D01*
G75*
G02*
X100875000Y-108180000I135000J0D01*
G01*
X101145000Y-108180000D01*
G75*
G02*
X101280000Y-108315000I0J-135000D01*
G01*
G37*
%TD*%
%TO.C,R84*%
G36*
G01*
X100260000Y-109315000D02*
X100260000Y-109685000D01*
G75*
G02*
X100125000Y-109820000I-135000J0D01*
G01*
X99855000Y-109820000D01*
G75*
G02*
X99720000Y-109685000I0J135000D01*
G01*
X99720000Y-109315000D01*
G75*
G02*
X99855000Y-109180000I135000J0D01*
G01*
X100125000Y-109180000D01*
G75*
G02*
X100260000Y-109315000I0J-135000D01*
G01*
G37*
G36*
G01*
X101280000Y-109315000D02*
X101280000Y-109685000D01*
G75*
G02*
X101145000Y-109820000I-135000J0D01*
G01*
X100875000Y-109820000D01*
G75*
G02*
X100740000Y-109685000I0J135000D01*
G01*
X100740000Y-109315000D01*
G75*
G02*
X100875000Y-109180000I135000J0D01*
G01*
X101145000Y-109180000D01*
G75*
G02*
X101280000Y-109315000I0J-135000D01*
G01*
G37*
%TD*%
%TO.C,R83*%
G36*
G01*
X100260000Y-116315000D02*
X100260000Y-116685000D01*
G75*
G02*
X100125000Y-116820000I-135000J0D01*
G01*
X99855000Y-116820000D01*
G75*
G02*
X99720000Y-116685000I0J135000D01*
G01*
X99720000Y-116315000D01*
G75*
G02*
X99855000Y-116180000I135000J0D01*
G01*
X100125000Y-116180000D01*
G75*
G02*
X100260000Y-116315000I0J-135000D01*
G01*
G37*
G36*
G01*
X101280000Y-116315000D02*
X101280000Y-116685000D01*
G75*
G02*
X101145000Y-116820000I-135000J0D01*
G01*
X100875000Y-116820000D01*
G75*
G02*
X100740000Y-116685000I0J135000D01*
G01*
X100740000Y-116315000D01*
G75*
G02*
X100875000Y-116180000I135000J0D01*
G01*
X101145000Y-116180000D01*
G75*
G02*
X101280000Y-116315000I0J-135000D01*
G01*
G37*
%TD*%
%TO.C,R82*%
G36*
G01*
X100260000Y-117315000D02*
X100260000Y-117685000D01*
G75*
G02*
X100125000Y-117820000I-135000J0D01*
G01*
X99855000Y-117820000D01*
G75*
G02*
X99720000Y-117685000I0J135000D01*
G01*
X99720000Y-117315000D01*
G75*
G02*
X99855000Y-117180000I135000J0D01*
G01*
X100125000Y-117180000D01*
G75*
G02*
X100260000Y-117315000I0J-135000D01*
G01*
G37*
G36*
G01*
X101280000Y-117315000D02*
X101280000Y-117685000D01*
G75*
G02*
X101145000Y-117820000I-135000J0D01*
G01*
X100875000Y-117820000D01*
G75*
G02*
X100740000Y-117685000I0J135000D01*
G01*
X100740000Y-117315000D01*
G75*
G02*
X100875000Y-117180000I135000J0D01*
G01*
X101145000Y-117180000D01*
G75*
G02*
X101280000Y-117315000I0J-135000D01*
G01*
G37*
%TD*%
%TO.C,R81*%
G36*
G01*
X54260000Y-127565000D02*
X54260000Y-127935000D01*
G75*
G02*
X54125000Y-128070000I-135000J0D01*
G01*
X53855000Y-128070000D01*
G75*
G02*
X53720000Y-127935000I0J135000D01*
G01*
X53720000Y-127565000D01*
G75*
G02*
X53855000Y-127430000I135000J0D01*
G01*
X54125000Y-127430000D01*
G75*
G02*
X54260000Y-127565000I0J-135000D01*
G01*
G37*
G36*
G01*
X55280000Y-127565000D02*
X55280000Y-127935000D01*
G75*
G02*
X55145000Y-128070000I-135000J0D01*
G01*
X54875000Y-128070000D01*
G75*
G02*
X54740000Y-127935000I0J135000D01*
G01*
X54740000Y-127565000D01*
G75*
G02*
X54875000Y-127430000I135000J0D01*
G01*
X55145000Y-127430000D01*
G75*
G02*
X55280000Y-127565000I0J-135000D01*
G01*
G37*
%TD*%
%TO.C,R80*%
G36*
G01*
X54260000Y-126315000D02*
X54260000Y-126685000D01*
G75*
G02*
X54125000Y-126820000I-135000J0D01*
G01*
X53855000Y-126820000D01*
G75*
G02*
X53720000Y-126685000I0J135000D01*
G01*
X53720000Y-126315000D01*
G75*
G02*
X53855000Y-126180000I135000J0D01*
G01*
X54125000Y-126180000D01*
G75*
G02*
X54260000Y-126315000I0J-135000D01*
G01*
G37*
G36*
G01*
X55280000Y-126315000D02*
X55280000Y-126685000D01*
G75*
G02*
X55145000Y-126820000I-135000J0D01*
G01*
X54875000Y-126820000D01*
G75*
G02*
X54740000Y-126685000I0J135000D01*
G01*
X54740000Y-126315000D01*
G75*
G02*
X54875000Y-126180000I135000J0D01*
G01*
X55145000Y-126180000D01*
G75*
G02*
X55280000Y-126315000I0J-135000D01*
G01*
G37*
%TD*%
%TO.C,R79*%
G36*
G01*
X54510000Y-119815000D02*
X54510000Y-120185000D01*
G75*
G02*
X54375000Y-120320000I-135000J0D01*
G01*
X54105000Y-120320000D01*
G75*
G02*
X53970000Y-120185000I0J135000D01*
G01*
X53970000Y-119815000D01*
G75*
G02*
X54105000Y-119680000I135000J0D01*
G01*
X54375000Y-119680000D01*
G75*
G02*
X54510000Y-119815000I0J-135000D01*
G01*
G37*
G36*
G01*
X55530000Y-119815000D02*
X55530000Y-120185000D01*
G75*
G02*
X55395000Y-120320000I-135000J0D01*
G01*
X55125000Y-120320000D01*
G75*
G02*
X54990000Y-120185000I0J135000D01*
G01*
X54990000Y-119815000D01*
G75*
G02*
X55125000Y-119680000I135000J0D01*
G01*
X55395000Y-119680000D01*
G75*
G02*
X55530000Y-119815000I0J-135000D01*
G01*
G37*
%TD*%
%TO.C,R78*%
G36*
G01*
X54510000Y-118565000D02*
X54510000Y-118935000D01*
G75*
G02*
X54375000Y-119070000I-135000J0D01*
G01*
X54105000Y-119070000D01*
G75*
G02*
X53970000Y-118935000I0J135000D01*
G01*
X53970000Y-118565000D01*
G75*
G02*
X54105000Y-118430000I135000J0D01*
G01*
X54375000Y-118430000D01*
G75*
G02*
X54510000Y-118565000I0J-135000D01*
G01*
G37*
G36*
G01*
X55530000Y-118565000D02*
X55530000Y-118935000D01*
G75*
G02*
X55395000Y-119070000I-135000J0D01*
G01*
X55125000Y-119070000D01*
G75*
G02*
X54990000Y-118935000I0J135000D01*
G01*
X54990000Y-118565000D01*
G75*
G02*
X55125000Y-118430000I135000J0D01*
G01*
X55395000Y-118430000D01*
G75*
G02*
X55530000Y-118565000I0J-135000D01*
G01*
G37*
%TD*%
%TO.C,R77*%
G36*
G01*
X54260000Y-109065000D02*
X54260000Y-109435000D01*
G75*
G02*
X54125000Y-109570000I-135000J0D01*
G01*
X53855000Y-109570000D01*
G75*
G02*
X53720000Y-109435000I0J135000D01*
G01*
X53720000Y-109065000D01*
G75*
G02*
X53855000Y-108930000I135000J0D01*
G01*
X54125000Y-108930000D01*
G75*
G02*
X54260000Y-109065000I0J-135000D01*
G01*
G37*
G36*
G01*
X55280000Y-109065000D02*
X55280000Y-109435000D01*
G75*
G02*
X55145000Y-109570000I-135000J0D01*
G01*
X54875000Y-109570000D01*
G75*
G02*
X54740000Y-109435000I0J135000D01*
G01*
X54740000Y-109065000D01*
G75*
G02*
X54875000Y-108930000I135000J0D01*
G01*
X55145000Y-108930000D01*
G75*
G02*
X55280000Y-109065000I0J-135000D01*
G01*
G37*
%TD*%
%TO.C,R76*%
G36*
G01*
X54260000Y-107565000D02*
X54260000Y-107935000D01*
G75*
G02*
X54125000Y-108070000I-135000J0D01*
G01*
X53855000Y-108070000D01*
G75*
G02*
X53720000Y-107935000I0J135000D01*
G01*
X53720000Y-107565000D01*
G75*
G02*
X53855000Y-107430000I135000J0D01*
G01*
X54125000Y-107430000D01*
G75*
G02*
X54260000Y-107565000I0J-135000D01*
G01*
G37*
G36*
G01*
X55280000Y-107565000D02*
X55280000Y-107935000D01*
G75*
G02*
X55145000Y-108070000I-135000J0D01*
G01*
X54875000Y-108070000D01*
G75*
G02*
X54740000Y-107935000I0J135000D01*
G01*
X54740000Y-107565000D01*
G75*
G02*
X54875000Y-107430000I135000J0D01*
G01*
X55145000Y-107430000D01*
G75*
G02*
X55280000Y-107565000I0J-135000D01*
G01*
G37*
%TD*%
%TO.C,R75*%
G36*
G01*
X54260000Y-106065000D02*
X54260000Y-106435000D01*
G75*
G02*
X54125000Y-106570000I-135000J0D01*
G01*
X53855000Y-106570000D01*
G75*
G02*
X53720000Y-106435000I0J135000D01*
G01*
X53720000Y-106065000D01*
G75*
G02*
X53855000Y-105930000I135000J0D01*
G01*
X54125000Y-105930000D01*
G75*
G02*
X54260000Y-106065000I0J-135000D01*
G01*
G37*
G36*
G01*
X55280000Y-106065000D02*
X55280000Y-106435000D01*
G75*
G02*
X55145000Y-106570000I-135000J0D01*
G01*
X54875000Y-106570000D01*
G75*
G02*
X54740000Y-106435000I0J135000D01*
G01*
X54740000Y-106065000D01*
G75*
G02*
X54875000Y-105930000I135000J0D01*
G01*
X55145000Y-105930000D01*
G75*
G02*
X55280000Y-106065000I0J-135000D01*
G01*
G37*
%TD*%
%TO.C,R74*%
G36*
G01*
X54260000Y-104565000D02*
X54260000Y-104935000D01*
G75*
G02*
X54125000Y-105070000I-135000J0D01*
G01*
X53855000Y-105070000D01*
G75*
G02*
X53720000Y-104935000I0J135000D01*
G01*
X53720000Y-104565000D01*
G75*
G02*
X53855000Y-104430000I135000J0D01*
G01*
X54125000Y-104430000D01*
G75*
G02*
X54260000Y-104565000I0J-135000D01*
G01*
G37*
G36*
G01*
X55280000Y-104565000D02*
X55280000Y-104935000D01*
G75*
G02*
X55145000Y-105070000I-135000J0D01*
G01*
X54875000Y-105070000D01*
G75*
G02*
X54740000Y-104935000I0J135000D01*
G01*
X54740000Y-104565000D01*
G75*
G02*
X54875000Y-104430000I135000J0D01*
G01*
X55145000Y-104430000D01*
G75*
G02*
X55280000Y-104565000I0J-135000D01*
G01*
G37*
%TD*%
%TO.C,R73*%
G36*
G01*
X54260000Y-103065000D02*
X54260000Y-103435000D01*
G75*
G02*
X54125000Y-103570000I-135000J0D01*
G01*
X53855000Y-103570000D01*
G75*
G02*
X53720000Y-103435000I0J135000D01*
G01*
X53720000Y-103065000D01*
G75*
G02*
X53855000Y-102930000I135000J0D01*
G01*
X54125000Y-102930000D01*
G75*
G02*
X54260000Y-103065000I0J-135000D01*
G01*
G37*
G36*
G01*
X55280000Y-103065000D02*
X55280000Y-103435000D01*
G75*
G02*
X55145000Y-103570000I-135000J0D01*
G01*
X54875000Y-103570000D01*
G75*
G02*
X54740000Y-103435000I0J135000D01*
G01*
X54740000Y-103065000D01*
G75*
G02*
X54875000Y-102930000I135000J0D01*
G01*
X55145000Y-102930000D01*
G75*
G02*
X55280000Y-103065000I0J-135000D01*
G01*
G37*
%TD*%
%TO.C,R72*%
G36*
G01*
X54260000Y-101565000D02*
X54260000Y-101935000D01*
G75*
G02*
X54125000Y-102070000I-135000J0D01*
G01*
X53855000Y-102070000D01*
G75*
G02*
X53720000Y-101935000I0J135000D01*
G01*
X53720000Y-101565000D01*
G75*
G02*
X53855000Y-101430000I135000J0D01*
G01*
X54125000Y-101430000D01*
G75*
G02*
X54260000Y-101565000I0J-135000D01*
G01*
G37*
G36*
G01*
X55280000Y-101565000D02*
X55280000Y-101935000D01*
G75*
G02*
X55145000Y-102070000I-135000J0D01*
G01*
X54875000Y-102070000D01*
G75*
G02*
X54740000Y-101935000I0J135000D01*
G01*
X54740000Y-101565000D01*
G75*
G02*
X54875000Y-101430000I135000J0D01*
G01*
X55145000Y-101430000D01*
G75*
G02*
X55280000Y-101565000I0J-135000D01*
G01*
G37*
%TD*%
%TO.C,R71*%
G36*
G01*
X54260000Y-100065000D02*
X54260000Y-100435000D01*
G75*
G02*
X54125000Y-100570000I-135000J0D01*
G01*
X53855000Y-100570000D01*
G75*
G02*
X53720000Y-100435000I0J135000D01*
G01*
X53720000Y-100065000D01*
G75*
G02*
X53855000Y-99930000I135000J0D01*
G01*
X54125000Y-99930000D01*
G75*
G02*
X54260000Y-100065000I0J-135000D01*
G01*
G37*
G36*
G01*
X55280000Y-100065000D02*
X55280000Y-100435000D01*
G75*
G02*
X55145000Y-100570000I-135000J0D01*
G01*
X54875000Y-100570000D01*
G75*
G02*
X54740000Y-100435000I0J135000D01*
G01*
X54740000Y-100065000D01*
G75*
G02*
X54875000Y-99930000I135000J0D01*
G01*
X55145000Y-99930000D01*
G75*
G02*
X55280000Y-100065000I0J-135000D01*
G01*
G37*
%TD*%
%TO.C,R70*%
G36*
G01*
X54260000Y-98565000D02*
X54260000Y-98935000D01*
G75*
G02*
X54125000Y-99070000I-135000J0D01*
G01*
X53855000Y-99070000D01*
G75*
G02*
X53720000Y-98935000I0J135000D01*
G01*
X53720000Y-98565000D01*
G75*
G02*
X53855000Y-98430000I135000J0D01*
G01*
X54125000Y-98430000D01*
G75*
G02*
X54260000Y-98565000I0J-135000D01*
G01*
G37*
G36*
G01*
X55280000Y-98565000D02*
X55280000Y-98935000D01*
G75*
G02*
X55145000Y-99070000I-135000J0D01*
G01*
X54875000Y-99070000D01*
G75*
G02*
X54740000Y-98935000I0J135000D01*
G01*
X54740000Y-98565000D01*
G75*
G02*
X54875000Y-98430000I135000J0D01*
G01*
X55145000Y-98430000D01*
G75*
G02*
X55280000Y-98565000I0J-135000D01*
G01*
G37*
%TD*%
%TO.C,C19*%
G36*
G01*
X64580000Y-124700000D02*
X64920000Y-124700000D01*
G75*
G02*
X65060000Y-124840000I0J-140000D01*
G01*
X65060000Y-125120000D01*
G75*
G02*
X64920000Y-125260000I-140000J0D01*
G01*
X64580000Y-125260000D01*
G75*
G02*
X64440000Y-125120000I0J140000D01*
G01*
X64440000Y-124840000D01*
G75*
G02*
X64580000Y-124700000I140000J0D01*
G01*
G37*
G36*
G01*
X64580000Y-123740000D02*
X64920000Y-123740000D01*
G75*
G02*
X65060000Y-123880000I0J-140000D01*
G01*
X65060000Y-124160000D01*
G75*
G02*
X64920000Y-124300000I-140000J0D01*
G01*
X64580000Y-124300000D01*
G75*
G02*
X64440000Y-124160000I0J140000D01*
G01*
X64440000Y-123880000D01*
G75*
G02*
X64580000Y-123740000I140000J0D01*
G01*
G37*
%TD*%
%TO.C,C17*%
G36*
G01*
X84175001Y-105350000D02*
X83324999Y-105350000D01*
G75*
G02*
X83075000Y-105100001I0J249999D01*
G01*
X83075000Y-104199999D01*
G75*
G02*
X83324999Y-103950000I249999J0D01*
G01*
X84175001Y-103950000D01*
G75*
G02*
X84425000Y-104199999I0J-249999D01*
G01*
X84425000Y-105100001D01*
G75*
G02*
X84175001Y-105350000I-249999J0D01*
G01*
G37*
G36*
G01*
X84175001Y-108050000D02*
X83324999Y-108050000D01*
G75*
G02*
X83075000Y-107800001I0J249999D01*
G01*
X83075000Y-106899999D01*
G75*
G02*
X83324999Y-106650000I249999J0D01*
G01*
X84175001Y-106650000D01*
G75*
G02*
X84425000Y-106899999I0J-249999D01*
G01*
X84425000Y-107800001D01*
G75*
G02*
X84175001Y-108050000I-249999J0D01*
G01*
G37*
%TD*%
D13*
%TO.C,J3*%
X73650000Y-155100000D03*
X70850000Y-155100000D03*
D14*
X69150000Y-150900000D03*
X75350000Y-150900000D03*
X74600000Y-150900000D03*
X69900000Y-150900000D03*
D15*
X70500000Y-150900000D03*
X74000000Y-150900000D03*
X71000000Y-150900000D03*
X71500000Y-150900000D03*
X72000000Y-150900000D03*
X72500000Y-150900000D03*
X73000000Y-150900000D03*
X73500000Y-150900000D03*
%TD*%
%TO.C,R36*%
G36*
G01*
X57815000Y-84590000D02*
X58185000Y-84590000D01*
G75*
G02*
X58320000Y-84725000I0J-135000D01*
G01*
X58320000Y-84995000D01*
G75*
G02*
X58185000Y-85130000I-135000J0D01*
G01*
X57815000Y-85130000D01*
G75*
G02*
X57680000Y-84995000I0J135000D01*
G01*
X57680000Y-84725000D01*
G75*
G02*
X57815000Y-84590000I135000J0D01*
G01*
G37*
G36*
G01*
X57815000Y-83570000D02*
X58185000Y-83570000D01*
G75*
G02*
X58320000Y-83705000I0J-135000D01*
G01*
X58320000Y-83975000D01*
G75*
G02*
X58185000Y-84110000I-135000J0D01*
G01*
X57815000Y-84110000D01*
G75*
G02*
X57680000Y-83975000I0J135000D01*
G01*
X57680000Y-83705000D01*
G75*
G02*
X57815000Y-83570000I135000J0D01*
G01*
G37*
%TD*%
%TO.C,R37*%
G36*
G01*
X58815000Y-84590000D02*
X59185000Y-84590000D01*
G75*
G02*
X59320000Y-84725000I0J-135000D01*
G01*
X59320000Y-84995000D01*
G75*
G02*
X59185000Y-85130000I-135000J0D01*
G01*
X58815000Y-85130000D01*
G75*
G02*
X58680000Y-84995000I0J135000D01*
G01*
X58680000Y-84725000D01*
G75*
G02*
X58815000Y-84590000I135000J0D01*
G01*
G37*
G36*
G01*
X58815000Y-83570000D02*
X59185000Y-83570000D01*
G75*
G02*
X59320000Y-83705000I0J-135000D01*
G01*
X59320000Y-83975000D01*
G75*
G02*
X59185000Y-84110000I-135000J0D01*
G01*
X58815000Y-84110000D01*
G75*
G02*
X58680000Y-83975000I0J135000D01*
G01*
X58680000Y-83705000D01*
G75*
G02*
X58815000Y-83570000I135000J0D01*
G01*
G37*
%TD*%
%TO.C,R60*%
G36*
G01*
X92565000Y-146240000D02*
X92935000Y-146240000D01*
G75*
G02*
X93070000Y-146375000I0J-135000D01*
G01*
X93070000Y-146645000D01*
G75*
G02*
X92935000Y-146780000I-135000J0D01*
G01*
X92565000Y-146780000D01*
G75*
G02*
X92430000Y-146645000I0J135000D01*
G01*
X92430000Y-146375000D01*
G75*
G02*
X92565000Y-146240000I135000J0D01*
G01*
G37*
G36*
G01*
X92565000Y-145220000D02*
X92935000Y-145220000D01*
G75*
G02*
X93070000Y-145355000I0J-135000D01*
G01*
X93070000Y-145625000D01*
G75*
G02*
X92935000Y-145760000I-135000J0D01*
G01*
X92565000Y-145760000D01*
G75*
G02*
X92430000Y-145625000I0J135000D01*
G01*
X92430000Y-145355000D01*
G75*
G02*
X92565000Y-145220000I135000J0D01*
G01*
G37*
%TD*%
%TO.C,R61*%
G36*
G01*
X90565000Y-146240000D02*
X90935000Y-146240000D01*
G75*
G02*
X91070000Y-146375000I0J-135000D01*
G01*
X91070000Y-146645000D01*
G75*
G02*
X90935000Y-146780000I-135000J0D01*
G01*
X90565000Y-146780000D01*
G75*
G02*
X90430000Y-146645000I0J135000D01*
G01*
X90430000Y-146375000D01*
G75*
G02*
X90565000Y-146240000I135000J0D01*
G01*
G37*
G36*
G01*
X90565000Y-145220000D02*
X90935000Y-145220000D01*
G75*
G02*
X91070000Y-145355000I0J-135000D01*
G01*
X91070000Y-145625000D01*
G75*
G02*
X90935000Y-145760000I-135000J0D01*
G01*
X90565000Y-145760000D01*
G75*
G02*
X90430000Y-145625000I0J135000D01*
G01*
X90430000Y-145355000D01*
G75*
G02*
X90565000Y-145220000I135000J0D01*
G01*
G37*
%TD*%
%TO.C,R40*%
G36*
G01*
X61350000Y-66624999D02*
X61350000Y-67875001D01*
G75*
G02*
X61100001Y-68125000I-249999J0D01*
G01*
X60474999Y-68125000D01*
G75*
G02*
X60225000Y-67875001I0J249999D01*
G01*
X60225000Y-66624999D01*
G75*
G02*
X60474999Y-66375000I249999J0D01*
G01*
X61100001Y-66375000D01*
G75*
G02*
X61350000Y-66624999I0J-249999D01*
G01*
G37*
G36*
G01*
X64275000Y-66624999D02*
X64275000Y-67875001D01*
G75*
G02*
X64025001Y-68125000I-249999J0D01*
G01*
X63399999Y-68125000D01*
G75*
G02*
X63150000Y-67875001I0J249999D01*
G01*
X63150000Y-66624999D01*
G75*
G02*
X63399999Y-66375000I249999J0D01*
G01*
X64025001Y-66375000D01*
G75*
G02*
X64275000Y-66624999I0J-249999D01*
G01*
G37*
%TD*%
%TO.C,R41*%
G36*
G01*
X61350000Y-86874999D02*
X61350000Y-88125001D01*
G75*
G02*
X61100001Y-88375000I-249999J0D01*
G01*
X60474999Y-88375000D01*
G75*
G02*
X60225000Y-88125001I0J249999D01*
G01*
X60225000Y-86874999D01*
G75*
G02*
X60474999Y-86625000I249999J0D01*
G01*
X61100001Y-86625000D01*
G75*
G02*
X61350000Y-86874999I0J-249999D01*
G01*
G37*
G36*
G01*
X64275000Y-86874999D02*
X64275000Y-88125001D01*
G75*
G02*
X64025001Y-88375000I-249999J0D01*
G01*
X63399999Y-88375000D01*
G75*
G02*
X63150000Y-88125001I0J249999D01*
G01*
X63150000Y-86874999D01*
G75*
G02*
X63399999Y-86625000I249999J0D01*
G01*
X64025001Y-86625000D01*
G75*
G02*
X64275000Y-86874999I0J-249999D01*
G01*
G37*
%TD*%
%TO.C,R46*%
G36*
G01*
X68240000Y-89685000D02*
X68240000Y-89315000D01*
G75*
G02*
X68375000Y-89180000I135000J0D01*
G01*
X68645000Y-89180000D01*
G75*
G02*
X68780000Y-89315000I0J-135000D01*
G01*
X68780000Y-89685000D01*
G75*
G02*
X68645000Y-89820000I-135000J0D01*
G01*
X68375000Y-89820000D01*
G75*
G02*
X68240000Y-89685000I0J135000D01*
G01*
G37*
G36*
G01*
X67220000Y-89685000D02*
X67220000Y-89315000D01*
G75*
G02*
X67355000Y-89180000I135000J0D01*
G01*
X67625000Y-89180000D01*
G75*
G02*
X67760000Y-89315000I0J-135000D01*
G01*
X67760000Y-89685000D01*
G75*
G02*
X67625000Y-89820000I-135000J0D01*
G01*
X67355000Y-89820000D01*
G75*
G02*
X67220000Y-89685000I0J135000D01*
G01*
G37*
%TD*%
%TO.C,R45*%
G36*
G01*
X68240000Y-86935000D02*
X68240000Y-86565000D01*
G75*
G02*
X68375000Y-86430000I135000J0D01*
G01*
X68645000Y-86430000D01*
G75*
G02*
X68780000Y-86565000I0J-135000D01*
G01*
X68780000Y-86935000D01*
G75*
G02*
X68645000Y-87070000I-135000J0D01*
G01*
X68375000Y-87070000D01*
G75*
G02*
X68240000Y-86935000I0J135000D01*
G01*
G37*
G36*
G01*
X67220000Y-86935000D02*
X67220000Y-86565000D01*
G75*
G02*
X67355000Y-86430000I135000J0D01*
G01*
X67625000Y-86430000D01*
G75*
G02*
X67760000Y-86565000I0J-135000D01*
G01*
X67760000Y-86935000D01*
G75*
G02*
X67625000Y-87070000I-135000J0D01*
G01*
X67355000Y-87070000D01*
G75*
G02*
X67220000Y-86935000I0J135000D01*
G01*
G37*
%TD*%
%TO.C,R42*%
G36*
G01*
X67760000Y-92065000D02*
X67760000Y-92435000D01*
G75*
G02*
X67625000Y-92570000I-135000J0D01*
G01*
X67355000Y-92570000D01*
G75*
G02*
X67220000Y-92435000I0J135000D01*
G01*
X67220000Y-92065000D01*
G75*
G02*
X67355000Y-91930000I135000J0D01*
G01*
X67625000Y-91930000D01*
G75*
G02*
X67760000Y-92065000I0J-135000D01*
G01*
G37*
G36*
G01*
X68780000Y-92065000D02*
X68780000Y-92435000D01*
G75*
G02*
X68645000Y-92570000I-135000J0D01*
G01*
X68375000Y-92570000D01*
G75*
G02*
X68240000Y-92435000I0J135000D01*
G01*
X68240000Y-92065000D01*
G75*
G02*
X68375000Y-91930000I135000J0D01*
G01*
X68645000Y-91930000D01*
G75*
G02*
X68780000Y-92065000I0J-135000D01*
G01*
G37*
%TD*%
%TO.C,R3*%
G36*
G01*
X77435000Y-143760000D02*
X77065000Y-143760000D01*
G75*
G02*
X76930000Y-143625000I0J135000D01*
G01*
X76930000Y-143355000D01*
G75*
G02*
X77065000Y-143220000I135000J0D01*
G01*
X77435000Y-143220000D01*
G75*
G02*
X77570000Y-143355000I0J-135000D01*
G01*
X77570000Y-143625000D01*
G75*
G02*
X77435000Y-143760000I-135000J0D01*
G01*
G37*
G36*
G01*
X77435000Y-144780000D02*
X77065000Y-144780000D01*
G75*
G02*
X76930000Y-144645000I0J135000D01*
G01*
X76930000Y-144375000D01*
G75*
G02*
X77065000Y-144240000I135000J0D01*
G01*
X77435000Y-144240000D01*
G75*
G02*
X77570000Y-144375000I0J-135000D01*
G01*
X77570000Y-144645000D01*
G75*
G02*
X77435000Y-144780000I-135000J0D01*
G01*
G37*
%TD*%
%TO.C,R1*%
G36*
G01*
X48815000Y-146240000D02*
X49185000Y-146240000D01*
G75*
G02*
X49320000Y-146375000I0J-135000D01*
G01*
X49320000Y-146645000D01*
G75*
G02*
X49185000Y-146780000I-135000J0D01*
G01*
X48815000Y-146780000D01*
G75*
G02*
X48680000Y-146645000I0J135000D01*
G01*
X48680000Y-146375000D01*
G75*
G02*
X48815000Y-146240000I135000J0D01*
G01*
G37*
G36*
G01*
X48815000Y-145220000D02*
X49185000Y-145220000D01*
G75*
G02*
X49320000Y-145355000I0J-135000D01*
G01*
X49320000Y-145625000D01*
G75*
G02*
X49185000Y-145760000I-135000J0D01*
G01*
X48815000Y-145760000D01*
G75*
G02*
X48680000Y-145625000I0J135000D01*
G01*
X48680000Y-145355000D01*
G75*
G02*
X48815000Y-145220000I135000J0D01*
G01*
G37*
%TD*%
%TO.C,C2*%
G36*
G01*
X65425001Y-148875000D02*
X63574999Y-148875000D01*
G75*
G02*
X63325000Y-148625001I0J249999D01*
G01*
X63325000Y-147799999D01*
G75*
G02*
X63574999Y-147550000I249999J0D01*
G01*
X65425001Y-147550000D01*
G75*
G02*
X65675000Y-147799999I0J-249999D01*
G01*
X65675000Y-148625001D01*
G75*
G02*
X65425001Y-148875000I-249999J0D01*
G01*
G37*
G36*
G01*
X65425001Y-151950000D02*
X63574999Y-151950000D01*
G75*
G02*
X63325000Y-151700001I0J249999D01*
G01*
X63325000Y-150874999D01*
G75*
G02*
X63574999Y-150625000I249999J0D01*
G01*
X65425001Y-150625000D01*
G75*
G02*
X65675000Y-150874999I0J-249999D01*
G01*
X65675000Y-151700001D01*
G75*
G02*
X65425001Y-151950000I-249999J0D01*
G01*
G37*
%TD*%
%TO.C,C4*%
G36*
G01*
X91175001Y-69100000D02*
X90324999Y-69100000D01*
G75*
G02*
X90075000Y-68850001I0J249999D01*
G01*
X90075000Y-67949999D01*
G75*
G02*
X90324999Y-67700000I249999J0D01*
G01*
X91175001Y-67700000D01*
G75*
G02*
X91425000Y-67949999I0J-249999D01*
G01*
X91425000Y-68850001D01*
G75*
G02*
X91175001Y-69100000I-249999J0D01*
G01*
G37*
G36*
G01*
X91175001Y-71800000D02*
X90324999Y-71800000D01*
G75*
G02*
X90075000Y-71550001I0J249999D01*
G01*
X90075000Y-70649999D01*
G75*
G02*
X90324999Y-70400000I249999J0D01*
G01*
X91175001Y-70400000D01*
G75*
G02*
X91425000Y-70649999I0J-249999D01*
G01*
X91425000Y-71550001D01*
G75*
G02*
X91175001Y-71800000I-249999J0D01*
G01*
G37*
%TD*%
%TO.C,C10*%
G36*
G01*
X74324999Y-80650000D02*
X75175001Y-80650000D01*
G75*
G02*
X75425000Y-80899999I0J-249999D01*
G01*
X75425000Y-81800001D01*
G75*
G02*
X75175001Y-82050000I-249999J0D01*
G01*
X74324999Y-82050000D01*
G75*
G02*
X74075000Y-81800001I0J249999D01*
G01*
X74075000Y-80899999D01*
G75*
G02*
X74324999Y-80650000I249999J0D01*
G01*
G37*
G36*
G01*
X74324999Y-77950000D02*
X75175001Y-77950000D01*
G75*
G02*
X75425000Y-78199999I0J-249999D01*
G01*
X75425000Y-79100001D01*
G75*
G02*
X75175001Y-79350000I-249999J0D01*
G01*
X74324999Y-79350000D01*
G75*
G02*
X74075000Y-79100001I0J249999D01*
G01*
X74075000Y-78199999D01*
G75*
G02*
X74324999Y-77950000I249999J0D01*
G01*
G37*
%TD*%
D16*
%TO.C,Y1*%
X75600000Y-103600000D03*
X73400000Y-103600000D03*
X73400000Y-101900000D03*
X75600000Y-101900000D03*
%TD*%
D17*
%TO.C,X1*%
X88140000Y-86250000D03*
X88140000Y-84100000D03*
X89690000Y-84100000D03*
X89690000Y-86250000D03*
%TD*%
D12*
%TO.C,U4*%
X73000000Y-145100000D03*
X73950000Y-145100000D03*
X72050000Y-145100000D03*
X72050000Y-142900000D03*
X73000000Y-142900000D03*
X73950000Y-142900000D03*
%TD*%
%TO.C,U3*%
G36*
G01*
X79925000Y-108025000D02*
X80075000Y-108025000D01*
G75*
G02*
X80150000Y-108100000I0J-75000D01*
G01*
X80150000Y-109550000D01*
G75*
G02*
X80075000Y-109625000I-75000J0D01*
G01*
X79925000Y-109625000D01*
G75*
G02*
X79850000Y-109550000I0J75000D01*
G01*
X79850000Y-108100000D01*
G75*
G02*
X79925000Y-108025000I75000J0D01*
G01*
G37*
G36*
G01*
X79425000Y-108025000D02*
X79575000Y-108025000D01*
G75*
G02*
X79650000Y-108100000I0J-75000D01*
G01*
X79650000Y-109550000D01*
G75*
G02*
X79575000Y-109625000I-75000J0D01*
G01*
X79425000Y-109625000D01*
G75*
G02*
X79350000Y-109550000I0J75000D01*
G01*
X79350000Y-108100000D01*
G75*
G02*
X79425000Y-108025000I75000J0D01*
G01*
G37*
G36*
G01*
X78925000Y-108025000D02*
X79075000Y-108025000D01*
G75*
G02*
X79150000Y-108100000I0J-75000D01*
G01*
X79150000Y-109550000D01*
G75*
G02*
X79075000Y-109625000I-75000J0D01*
G01*
X78925000Y-109625000D01*
G75*
G02*
X78850000Y-109550000I0J75000D01*
G01*
X78850000Y-108100000D01*
G75*
G02*
X78925000Y-108025000I75000J0D01*
G01*
G37*
G36*
G01*
X78425000Y-108025000D02*
X78575000Y-108025000D01*
G75*
G02*
X78650000Y-108100000I0J-75000D01*
G01*
X78650000Y-109550000D01*
G75*
G02*
X78575000Y-109625000I-75000J0D01*
G01*
X78425000Y-109625000D01*
G75*
G02*
X78350000Y-109550000I0J75000D01*
G01*
X78350000Y-108100000D01*
G75*
G02*
X78425000Y-108025000I75000J0D01*
G01*
G37*
G36*
G01*
X77925000Y-108025000D02*
X78075000Y-108025000D01*
G75*
G02*
X78150000Y-108100000I0J-75000D01*
G01*
X78150000Y-109550000D01*
G75*
G02*
X78075000Y-109625000I-75000J0D01*
G01*
X77925000Y-109625000D01*
G75*
G02*
X77850000Y-109550000I0J75000D01*
G01*
X77850000Y-108100000D01*
G75*
G02*
X77925000Y-108025000I75000J0D01*
G01*
G37*
G36*
G01*
X77425000Y-108025000D02*
X77575000Y-108025000D01*
G75*
G02*
X77650000Y-108100000I0J-75000D01*
G01*
X77650000Y-109550000D01*
G75*
G02*
X77575000Y-109625000I-75000J0D01*
G01*
X77425000Y-109625000D01*
G75*
G02*
X77350000Y-109550000I0J75000D01*
G01*
X77350000Y-108100000D01*
G75*
G02*
X77425000Y-108025000I75000J0D01*
G01*
G37*
G36*
G01*
X76925000Y-108025000D02*
X77075000Y-108025000D01*
G75*
G02*
X77150000Y-108100000I0J-75000D01*
G01*
X77150000Y-109550000D01*
G75*
G02*
X77075000Y-109625000I-75000J0D01*
G01*
X76925000Y-109625000D01*
G75*
G02*
X76850000Y-109550000I0J75000D01*
G01*
X76850000Y-108100000D01*
G75*
G02*
X76925000Y-108025000I75000J0D01*
G01*
G37*
G36*
G01*
X76425000Y-108025000D02*
X76575000Y-108025000D01*
G75*
G02*
X76650000Y-108100000I0J-75000D01*
G01*
X76650000Y-109550000D01*
G75*
G02*
X76575000Y-109625000I-75000J0D01*
G01*
X76425000Y-109625000D01*
G75*
G02*
X76350000Y-109550000I0J75000D01*
G01*
X76350000Y-108100000D01*
G75*
G02*
X76425000Y-108025000I75000J0D01*
G01*
G37*
G36*
G01*
X75925000Y-108025000D02*
X76075000Y-108025000D01*
G75*
G02*
X76150000Y-108100000I0J-75000D01*
G01*
X76150000Y-109550000D01*
G75*
G02*
X76075000Y-109625000I-75000J0D01*
G01*
X75925000Y-109625000D01*
G75*
G02*
X75850000Y-109550000I0J75000D01*
G01*
X75850000Y-108100000D01*
G75*
G02*
X75925000Y-108025000I75000J0D01*
G01*
G37*
G36*
G01*
X75425000Y-108025000D02*
X75575000Y-108025000D01*
G75*
G02*
X75650000Y-108100000I0J-75000D01*
G01*
X75650000Y-109550000D01*
G75*
G02*
X75575000Y-109625000I-75000J0D01*
G01*
X75425000Y-109625000D01*
G75*
G02*
X75350000Y-109550000I0J75000D01*
G01*
X75350000Y-108100000D01*
G75*
G02*
X75425000Y-108025000I75000J0D01*
G01*
G37*
G36*
G01*
X74925000Y-108025000D02*
X75075000Y-108025000D01*
G75*
G02*
X75150000Y-108100000I0J-75000D01*
G01*
X75150000Y-109550000D01*
G75*
G02*
X75075000Y-109625000I-75000J0D01*
G01*
X74925000Y-109625000D01*
G75*
G02*
X74850000Y-109550000I0J75000D01*
G01*
X74850000Y-108100000D01*
G75*
G02*
X74925000Y-108025000I75000J0D01*
G01*
G37*
G36*
G01*
X74425000Y-108025000D02*
X74575000Y-108025000D01*
G75*
G02*
X74650000Y-108100000I0J-75000D01*
G01*
X74650000Y-109550000D01*
G75*
G02*
X74575000Y-109625000I-75000J0D01*
G01*
X74425000Y-109625000D01*
G75*
G02*
X74350000Y-109550000I0J75000D01*
G01*
X74350000Y-108100000D01*
G75*
G02*
X74425000Y-108025000I75000J0D01*
G01*
G37*
G36*
G01*
X73925000Y-108025000D02*
X74075000Y-108025000D01*
G75*
G02*
X74150000Y-108100000I0J-75000D01*
G01*
X74150000Y-109550000D01*
G75*
G02*
X74075000Y-109625000I-75000J0D01*
G01*
X73925000Y-109625000D01*
G75*
G02*
X73850000Y-109550000I0J75000D01*
G01*
X73850000Y-108100000D01*
G75*
G02*
X73925000Y-108025000I75000J0D01*
G01*
G37*
G36*
G01*
X73425000Y-108025000D02*
X73575000Y-108025000D01*
G75*
G02*
X73650000Y-108100000I0J-75000D01*
G01*
X73650000Y-109550000D01*
G75*
G02*
X73575000Y-109625000I-75000J0D01*
G01*
X73425000Y-109625000D01*
G75*
G02*
X73350000Y-109550000I0J75000D01*
G01*
X73350000Y-108100000D01*
G75*
G02*
X73425000Y-108025000I75000J0D01*
G01*
G37*
G36*
G01*
X72925000Y-108025000D02*
X73075000Y-108025000D01*
G75*
G02*
X73150000Y-108100000I0J-75000D01*
G01*
X73150000Y-109550000D01*
G75*
G02*
X73075000Y-109625000I-75000J0D01*
G01*
X72925000Y-109625000D01*
G75*
G02*
X72850000Y-109550000I0J75000D01*
G01*
X72850000Y-108100000D01*
G75*
G02*
X72925000Y-108025000I75000J0D01*
G01*
G37*
G36*
G01*
X72425000Y-108025000D02*
X72575000Y-108025000D01*
G75*
G02*
X72650000Y-108100000I0J-75000D01*
G01*
X72650000Y-109550000D01*
G75*
G02*
X72575000Y-109625000I-75000J0D01*
G01*
X72425000Y-109625000D01*
G75*
G02*
X72350000Y-109550000I0J75000D01*
G01*
X72350000Y-108100000D01*
G75*
G02*
X72425000Y-108025000I75000J0D01*
G01*
G37*
G36*
G01*
X71925000Y-108025000D02*
X72075000Y-108025000D01*
G75*
G02*
X72150000Y-108100000I0J-75000D01*
G01*
X72150000Y-109550000D01*
G75*
G02*
X72075000Y-109625000I-75000J0D01*
G01*
X71925000Y-109625000D01*
G75*
G02*
X71850000Y-109550000I0J75000D01*
G01*
X71850000Y-108100000D01*
G75*
G02*
X71925000Y-108025000I75000J0D01*
G01*
G37*
G36*
G01*
X71425000Y-108025000D02*
X71575000Y-108025000D01*
G75*
G02*
X71650000Y-108100000I0J-75000D01*
G01*
X71650000Y-109550000D01*
G75*
G02*
X71575000Y-109625000I-75000J0D01*
G01*
X71425000Y-109625000D01*
G75*
G02*
X71350000Y-109550000I0J75000D01*
G01*
X71350000Y-108100000D01*
G75*
G02*
X71425000Y-108025000I75000J0D01*
G01*
G37*
G36*
G01*
X70925000Y-108025000D02*
X71075000Y-108025000D01*
G75*
G02*
X71150000Y-108100000I0J-75000D01*
G01*
X71150000Y-109550000D01*
G75*
G02*
X71075000Y-109625000I-75000J0D01*
G01*
X70925000Y-109625000D01*
G75*
G02*
X70850000Y-109550000I0J75000D01*
G01*
X70850000Y-108100000D01*
G75*
G02*
X70925000Y-108025000I75000J0D01*
G01*
G37*
G36*
G01*
X70425000Y-108025000D02*
X70575000Y-108025000D01*
G75*
G02*
X70650000Y-108100000I0J-75000D01*
G01*
X70650000Y-109550000D01*
G75*
G02*
X70575000Y-109625000I-75000J0D01*
G01*
X70425000Y-109625000D01*
G75*
G02*
X70350000Y-109550000I0J75000D01*
G01*
X70350000Y-108100000D01*
G75*
G02*
X70425000Y-108025000I75000J0D01*
G01*
G37*
G36*
G01*
X69925000Y-108025000D02*
X70075000Y-108025000D01*
G75*
G02*
X70150000Y-108100000I0J-75000D01*
G01*
X70150000Y-109550000D01*
G75*
G02*
X70075000Y-109625000I-75000J0D01*
G01*
X69925000Y-109625000D01*
G75*
G02*
X69850000Y-109550000I0J75000D01*
G01*
X69850000Y-108100000D01*
G75*
G02*
X69925000Y-108025000I75000J0D01*
G01*
G37*
G36*
G01*
X69425000Y-108025000D02*
X69575000Y-108025000D01*
G75*
G02*
X69650000Y-108100000I0J-75000D01*
G01*
X69650000Y-109550000D01*
G75*
G02*
X69575000Y-109625000I-75000J0D01*
G01*
X69425000Y-109625000D01*
G75*
G02*
X69350000Y-109550000I0J75000D01*
G01*
X69350000Y-108100000D01*
G75*
G02*
X69425000Y-108025000I75000J0D01*
G01*
G37*
G36*
G01*
X68925000Y-108025000D02*
X69075000Y-108025000D01*
G75*
G02*
X69150000Y-108100000I0J-75000D01*
G01*
X69150000Y-109550000D01*
G75*
G02*
X69075000Y-109625000I-75000J0D01*
G01*
X68925000Y-109625000D01*
G75*
G02*
X68850000Y-109550000I0J75000D01*
G01*
X68850000Y-108100000D01*
G75*
G02*
X68925000Y-108025000I75000J0D01*
G01*
G37*
G36*
G01*
X68425000Y-108025000D02*
X68575000Y-108025000D01*
G75*
G02*
X68650000Y-108100000I0J-75000D01*
G01*
X68650000Y-109550000D01*
G75*
G02*
X68575000Y-109625000I-75000J0D01*
G01*
X68425000Y-109625000D01*
G75*
G02*
X68350000Y-109550000I0J75000D01*
G01*
X68350000Y-108100000D01*
G75*
G02*
X68425000Y-108025000I75000J0D01*
G01*
G37*
G36*
G01*
X67925000Y-108025000D02*
X68075000Y-108025000D01*
G75*
G02*
X68150000Y-108100000I0J-75000D01*
G01*
X68150000Y-109550000D01*
G75*
G02*
X68075000Y-109625000I-75000J0D01*
G01*
X67925000Y-109625000D01*
G75*
G02*
X67850000Y-109550000I0J75000D01*
G01*
X67850000Y-108100000D01*
G75*
G02*
X67925000Y-108025000I75000J0D01*
G01*
G37*
G36*
G01*
X65600000Y-110350000D02*
X67050000Y-110350000D01*
G75*
G02*
X67125000Y-110425000I0J-75000D01*
G01*
X67125000Y-110575000D01*
G75*
G02*
X67050000Y-110650000I-75000J0D01*
G01*
X65600000Y-110650000D01*
G75*
G02*
X65525000Y-110575000I0J75000D01*
G01*
X65525000Y-110425000D01*
G75*
G02*
X65600000Y-110350000I75000J0D01*
G01*
G37*
G36*
G01*
X65600000Y-110850000D02*
X67050000Y-110850000D01*
G75*
G02*
X67125000Y-110925000I0J-75000D01*
G01*
X67125000Y-111075000D01*
G75*
G02*
X67050000Y-111150000I-75000J0D01*
G01*
X65600000Y-111150000D01*
G75*
G02*
X65525000Y-111075000I0J75000D01*
G01*
X65525000Y-110925000D01*
G75*
G02*
X65600000Y-110850000I75000J0D01*
G01*
G37*
G36*
G01*
X65600000Y-111350000D02*
X67050000Y-111350000D01*
G75*
G02*
X67125000Y-111425000I0J-75000D01*
G01*
X67125000Y-111575000D01*
G75*
G02*
X67050000Y-111650000I-75000J0D01*
G01*
X65600000Y-111650000D01*
G75*
G02*
X65525000Y-111575000I0J75000D01*
G01*
X65525000Y-111425000D01*
G75*
G02*
X65600000Y-111350000I75000J0D01*
G01*
G37*
G36*
G01*
X65600000Y-111850000D02*
X67050000Y-111850000D01*
G75*
G02*
X67125000Y-111925000I0J-75000D01*
G01*
X67125000Y-112075000D01*
G75*
G02*
X67050000Y-112150000I-75000J0D01*
G01*
X65600000Y-112150000D01*
G75*
G02*
X65525000Y-112075000I0J75000D01*
G01*
X65525000Y-111925000D01*
G75*
G02*
X65600000Y-111850000I75000J0D01*
G01*
G37*
G36*
G01*
X65600000Y-112350000D02*
X67050000Y-112350000D01*
G75*
G02*
X67125000Y-112425000I0J-75000D01*
G01*
X67125000Y-112575000D01*
G75*
G02*
X67050000Y-112650000I-75000J0D01*
G01*
X65600000Y-112650000D01*
G75*
G02*
X65525000Y-112575000I0J75000D01*
G01*
X65525000Y-112425000D01*
G75*
G02*
X65600000Y-112350000I75000J0D01*
G01*
G37*
G36*
G01*
X65600000Y-112850000D02*
X67050000Y-112850000D01*
G75*
G02*
X67125000Y-112925000I0J-75000D01*
G01*
X67125000Y-113075000D01*
G75*
G02*
X67050000Y-113150000I-75000J0D01*
G01*
X65600000Y-113150000D01*
G75*
G02*
X65525000Y-113075000I0J75000D01*
G01*
X65525000Y-112925000D01*
G75*
G02*
X65600000Y-112850000I75000J0D01*
G01*
G37*
G36*
G01*
X65600000Y-113350000D02*
X67050000Y-113350000D01*
G75*
G02*
X67125000Y-113425000I0J-75000D01*
G01*
X67125000Y-113575000D01*
G75*
G02*
X67050000Y-113650000I-75000J0D01*
G01*
X65600000Y-113650000D01*
G75*
G02*
X65525000Y-113575000I0J75000D01*
G01*
X65525000Y-113425000D01*
G75*
G02*
X65600000Y-113350000I75000J0D01*
G01*
G37*
G36*
G01*
X65600000Y-113850000D02*
X67050000Y-113850000D01*
G75*
G02*
X67125000Y-113925000I0J-75000D01*
G01*
X67125000Y-114075000D01*
G75*
G02*
X67050000Y-114150000I-75000J0D01*
G01*
X65600000Y-114150000D01*
G75*
G02*
X65525000Y-114075000I0J75000D01*
G01*
X65525000Y-113925000D01*
G75*
G02*
X65600000Y-113850000I75000J0D01*
G01*
G37*
G36*
G01*
X65600000Y-114350000D02*
X67050000Y-114350000D01*
G75*
G02*
X67125000Y-114425000I0J-75000D01*
G01*
X67125000Y-114575000D01*
G75*
G02*
X67050000Y-114650000I-75000J0D01*
G01*
X65600000Y-114650000D01*
G75*
G02*
X65525000Y-114575000I0J75000D01*
G01*
X65525000Y-114425000D01*
G75*
G02*
X65600000Y-114350000I75000J0D01*
G01*
G37*
G36*
G01*
X65600000Y-114850000D02*
X67050000Y-114850000D01*
G75*
G02*
X67125000Y-114925000I0J-75000D01*
G01*
X67125000Y-115075000D01*
G75*
G02*
X67050000Y-115150000I-75000J0D01*
G01*
X65600000Y-115150000D01*
G75*
G02*
X65525000Y-115075000I0J75000D01*
G01*
X65525000Y-114925000D01*
G75*
G02*
X65600000Y-114850000I75000J0D01*
G01*
G37*
G36*
G01*
X65600000Y-115350000D02*
X67050000Y-115350000D01*
G75*
G02*
X67125000Y-115425000I0J-75000D01*
G01*
X67125000Y-115575000D01*
G75*
G02*
X67050000Y-115650000I-75000J0D01*
G01*
X65600000Y-115650000D01*
G75*
G02*
X65525000Y-115575000I0J75000D01*
G01*
X65525000Y-115425000D01*
G75*
G02*
X65600000Y-115350000I75000J0D01*
G01*
G37*
G36*
G01*
X65600000Y-115850000D02*
X67050000Y-115850000D01*
G75*
G02*
X67125000Y-115925000I0J-75000D01*
G01*
X67125000Y-116075000D01*
G75*
G02*
X67050000Y-116150000I-75000J0D01*
G01*
X65600000Y-116150000D01*
G75*
G02*
X65525000Y-116075000I0J75000D01*
G01*
X65525000Y-115925000D01*
G75*
G02*
X65600000Y-115850000I75000J0D01*
G01*
G37*
G36*
G01*
X65600000Y-116350000D02*
X67050000Y-116350000D01*
G75*
G02*
X67125000Y-116425000I0J-75000D01*
G01*
X67125000Y-116575000D01*
G75*
G02*
X67050000Y-116650000I-75000J0D01*
G01*
X65600000Y-116650000D01*
G75*
G02*
X65525000Y-116575000I0J75000D01*
G01*
X65525000Y-116425000D01*
G75*
G02*
X65600000Y-116350000I75000J0D01*
G01*
G37*
G36*
G01*
X65600000Y-116850000D02*
X67050000Y-116850000D01*
G75*
G02*
X67125000Y-116925000I0J-75000D01*
G01*
X67125000Y-117075000D01*
G75*
G02*
X67050000Y-117150000I-75000J0D01*
G01*
X65600000Y-117150000D01*
G75*
G02*
X65525000Y-117075000I0J75000D01*
G01*
X65525000Y-116925000D01*
G75*
G02*
X65600000Y-116850000I75000J0D01*
G01*
G37*
G36*
G01*
X65600000Y-117350000D02*
X67050000Y-117350000D01*
G75*
G02*
X67125000Y-117425000I0J-75000D01*
G01*
X67125000Y-117575000D01*
G75*
G02*
X67050000Y-117650000I-75000J0D01*
G01*
X65600000Y-117650000D01*
G75*
G02*
X65525000Y-117575000I0J75000D01*
G01*
X65525000Y-117425000D01*
G75*
G02*
X65600000Y-117350000I75000J0D01*
G01*
G37*
G36*
G01*
X65600000Y-117850000D02*
X67050000Y-117850000D01*
G75*
G02*
X67125000Y-117925000I0J-75000D01*
G01*
X67125000Y-118075000D01*
G75*
G02*
X67050000Y-118150000I-75000J0D01*
G01*
X65600000Y-118150000D01*
G75*
G02*
X65525000Y-118075000I0J75000D01*
G01*
X65525000Y-117925000D01*
G75*
G02*
X65600000Y-117850000I75000J0D01*
G01*
G37*
G36*
G01*
X65600000Y-118350000D02*
X67050000Y-118350000D01*
G75*
G02*
X67125000Y-118425000I0J-75000D01*
G01*
X67125000Y-118575000D01*
G75*
G02*
X67050000Y-118650000I-75000J0D01*
G01*
X65600000Y-118650000D01*
G75*
G02*
X65525000Y-118575000I0J75000D01*
G01*
X65525000Y-118425000D01*
G75*
G02*
X65600000Y-118350000I75000J0D01*
G01*
G37*
G36*
G01*
X65600000Y-118850000D02*
X67050000Y-118850000D01*
G75*
G02*
X67125000Y-118925000I0J-75000D01*
G01*
X67125000Y-119075000D01*
G75*
G02*
X67050000Y-119150000I-75000J0D01*
G01*
X65600000Y-119150000D01*
G75*
G02*
X65525000Y-119075000I0J75000D01*
G01*
X65525000Y-118925000D01*
G75*
G02*
X65600000Y-118850000I75000J0D01*
G01*
G37*
G36*
G01*
X65600000Y-119350000D02*
X67050000Y-119350000D01*
G75*
G02*
X67125000Y-119425000I0J-75000D01*
G01*
X67125000Y-119575000D01*
G75*
G02*
X67050000Y-119650000I-75000J0D01*
G01*
X65600000Y-119650000D01*
G75*
G02*
X65525000Y-119575000I0J75000D01*
G01*
X65525000Y-119425000D01*
G75*
G02*
X65600000Y-119350000I75000J0D01*
G01*
G37*
G36*
G01*
X65600000Y-119850000D02*
X67050000Y-119850000D01*
G75*
G02*
X67125000Y-119925000I0J-75000D01*
G01*
X67125000Y-120075000D01*
G75*
G02*
X67050000Y-120150000I-75000J0D01*
G01*
X65600000Y-120150000D01*
G75*
G02*
X65525000Y-120075000I0J75000D01*
G01*
X65525000Y-119925000D01*
G75*
G02*
X65600000Y-119850000I75000J0D01*
G01*
G37*
G36*
G01*
X65600000Y-120350000D02*
X67050000Y-120350000D01*
G75*
G02*
X67125000Y-120425000I0J-75000D01*
G01*
X67125000Y-120575000D01*
G75*
G02*
X67050000Y-120650000I-75000J0D01*
G01*
X65600000Y-120650000D01*
G75*
G02*
X65525000Y-120575000I0J75000D01*
G01*
X65525000Y-120425000D01*
G75*
G02*
X65600000Y-120350000I75000J0D01*
G01*
G37*
G36*
G01*
X65600000Y-120850000D02*
X67050000Y-120850000D01*
G75*
G02*
X67125000Y-120925000I0J-75000D01*
G01*
X67125000Y-121075000D01*
G75*
G02*
X67050000Y-121150000I-75000J0D01*
G01*
X65600000Y-121150000D01*
G75*
G02*
X65525000Y-121075000I0J75000D01*
G01*
X65525000Y-120925000D01*
G75*
G02*
X65600000Y-120850000I75000J0D01*
G01*
G37*
G36*
G01*
X65600000Y-121350000D02*
X67050000Y-121350000D01*
G75*
G02*
X67125000Y-121425000I0J-75000D01*
G01*
X67125000Y-121575000D01*
G75*
G02*
X67050000Y-121650000I-75000J0D01*
G01*
X65600000Y-121650000D01*
G75*
G02*
X65525000Y-121575000I0J75000D01*
G01*
X65525000Y-121425000D01*
G75*
G02*
X65600000Y-121350000I75000J0D01*
G01*
G37*
G36*
G01*
X65600000Y-121850000D02*
X67050000Y-121850000D01*
G75*
G02*
X67125000Y-121925000I0J-75000D01*
G01*
X67125000Y-122075000D01*
G75*
G02*
X67050000Y-122150000I-75000J0D01*
G01*
X65600000Y-122150000D01*
G75*
G02*
X65525000Y-122075000I0J75000D01*
G01*
X65525000Y-121925000D01*
G75*
G02*
X65600000Y-121850000I75000J0D01*
G01*
G37*
G36*
G01*
X65600000Y-122350000D02*
X67050000Y-122350000D01*
G75*
G02*
X67125000Y-122425000I0J-75000D01*
G01*
X67125000Y-122575000D01*
G75*
G02*
X67050000Y-122650000I-75000J0D01*
G01*
X65600000Y-122650000D01*
G75*
G02*
X65525000Y-122575000I0J75000D01*
G01*
X65525000Y-122425000D01*
G75*
G02*
X65600000Y-122350000I75000J0D01*
G01*
G37*
G36*
G01*
X67925000Y-123375000D02*
X68075000Y-123375000D01*
G75*
G02*
X68150000Y-123450000I0J-75000D01*
G01*
X68150000Y-124900000D01*
G75*
G02*
X68075000Y-124975000I-75000J0D01*
G01*
X67925000Y-124975000D01*
G75*
G02*
X67850000Y-124900000I0J75000D01*
G01*
X67850000Y-123450000D01*
G75*
G02*
X67925000Y-123375000I75000J0D01*
G01*
G37*
G36*
G01*
X68425000Y-123375000D02*
X68575000Y-123375000D01*
G75*
G02*
X68650000Y-123450000I0J-75000D01*
G01*
X68650000Y-124900000D01*
G75*
G02*
X68575000Y-124975000I-75000J0D01*
G01*
X68425000Y-124975000D01*
G75*
G02*
X68350000Y-124900000I0J75000D01*
G01*
X68350000Y-123450000D01*
G75*
G02*
X68425000Y-123375000I75000J0D01*
G01*
G37*
G36*
G01*
X68925000Y-123375000D02*
X69075000Y-123375000D01*
G75*
G02*
X69150000Y-123450000I0J-75000D01*
G01*
X69150000Y-124900000D01*
G75*
G02*
X69075000Y-124975000I-75000J0D01*
G01*
X68925000Y-124975000D01*
G75*
G02*
X68850000Y-124900000I0J75000D01*
G01*
X68850000Y-123450000D01*
G75*
G02*
X68925000Y-123375000I75000J0D01*
G01*
G37*
G36*
G01*
X69425000Y-123375000D02*
X69575000Y-123375000D01*
G75*
G02*
X69650000Y-123450000I0J-75000D01*
G01*
X69650000Y-124900000D01*
G75*
G02*
X69575000Y-124975000I-75000J0D01*
G01*
X69425000Y-124975000D01*
G75*
G02*
X69350000Y-124900000I0J75000D01*
G01*
X69350000Y-123450000D01*
G75*
G02*
X69425000Y-123375000I75000J0D01*
G01*
G37*
G36*
G01*
X69925000Y-123375000D02*
X70075000Y-123375000D01*
G75*
G02*
X70150000Y-123450000I0J-75000D01*
G01*
X70150000Y-124900000D01*
G75*
G02*
X70075000Y-124975000I-75000J0D01*
G01*
X69925000Y-124975000D01*
G75*
G02*
X69850000Y-124900000I0J75000D01*
G01*
X69850000Y-123450000D01*
G75*
G02*
X69925000Y-123375000I75000J0D01*
G01*
G37*
G36*
G01*
X70425000Y-123375000D02*
X70575000Y-123375000D01*
G75*
G02*
X70650000Y-123450000I0J-75000D01*
G01*
X70650000Y-124900000D01*
G75*
G02*
X70575000Y-124975000I-75000J0D01*
G01*
X70425000Y-124975000D01*
G75*
G02*
X70350000Y-124900000I0J75000D01*
G01*
X70350000Y-123450000D01*
G75*
G02*
X70425000Y-123375000I75000J0D01*
G01*
G37*
G36*
G01*
X70925000Y-123375000D02*
X71075000Y-123375000D01*
G75*
G02*
X71150000Y-123450000I0J-75000D01*
G01*
X71150000Y-124900000D01*
G75*
G02*
X71075000Y-124975000I-75000J0D01*
G01*
X70925000Y-124975000D01*
G75*
G02*
X70850000Y-124900000I0J75000D01*
G01*
X70850000Y-123450000D01*
G75*
G02*
X70925000Y-123375000I75000J0D01*
G01*
G37*
G36*
G01*
X71425000Y-123375000D02*
X71575000Y-123375000D01*
G75*
G02*
X71650000Y-123450000I0J-75000D01*
G01*
X71650000Y-124900000D01*
G75*
G02*
X71575000Y-124975000I-75000J0D01*
G01*
X71425000Y-124975000D01*
G75*
G02*
X71350000Y-124900000I0J75000D01*
G01*
X71350000Y-123450000D01*
G75*
G02*
X71425000Y-123375000I75000J0D01*
G01*
G37*
G36*
G01*
X71925000Y-123375000D02*
X72075000Y-123375000D01*
G75*
G02*
X72150000Y-123450000I0J-75000D01*
G01*
X72150000Y-124900000D01*
G75*
G02*
X72075000Y-124975000I-75000J0D01*
G01*
X71925000Y-124975000D01*
G75*
G02*
X71850000Y-124900000I0J75000D01*
G01*
X71850000Y-123450000D01*
G75*
G02*
X71925000Y-123375000I75000J0D01*
G01*
G37*
G36*
G01*
X72425000Y-123375000D02*
X72575000Y-123375000D01*
G75*
G02*
X72650000Y-123450000I0J-75000D01*
G01*
X72650000Y-124900000D01*
G75*
G02*
X72575000Y-124975000I-75000J0D01*
G01*
X72425000Y-124975000D01*
G75*
G02*
X72350000Y-124900000I0J75000D01*
G01*
X72350000Y-123450000D01*
G75*
G02*
X72425000Y-123375000I75000J0D01*
G01*
G37*
G36*
G01*
X72925000Y-123375000D02*
X73075000Y-123375000D01*
G75*
G02*
X73150000Y-123450000I0J-75000D01*
G01*
X73150000Y-124900000D01*
G75*
G02*
X73075000Y-124975000I-75000J0D01*
G01*
X72925000Y-124975000D01*
G75*
G02*
X72850000Y-124900000I0J75000D01*
G01*
X72850000Y-123450000D01*
G75*
G02*
X72925000Y-123375000I75000J0D01*
G01*
G37*
G36*
G01*
X73425000Y-123375000D02*
X73575000Y-123375000D01*
G75*
G02*
X73650000Y-123450000I0J-75000D01*
G01*
X73650000Y-124900000D01*
G75*
G02*
X73575000Y-124975000I-75000J0D01*
G01*
X73425000Y-124975000D01*
G75*
G02*
X73350000Y-124900000I0J75000D01*
G01*
X73350000Y-123450000D01*
G75*
G02*
X73425000Y-123375000I75000J0D01*
G01*
G37*
G36*
G01*
X73925000Y-123375000D02*
X74075000Y-123375000D01*
G75*
G02*
X74150000Y-123450000I0J-75000D01*
G01*
X74150000Y-124900000D01*
G75*
G02*
X74075000Y-124975000I-75000J0D01*
G01*
X73925000Y-124975000D01*
G75*
G02*
X73850000Y-124900000I0J75000D01*
G01*
X73850000Y-123450000D01*
G75*
G02*
X73925000Y-123375000I75000J0D01*
G01*
G37*
G36*
G01*
X74425000Y-123375000D02*
X74575000Y-123375000D01*
G75*
G02*
X74650000Y-123450000I0J-75000D01*
G01*
X74650000Y-124900000D01*
G75*
G02*
X74575000Y-124975000I-75000J0D01*
G01*
X74425000Y-124975000D01*
G75*
G02*
X74350000Y-124900000I0J75000D01*
G01*
X74350000Y-123450000D01*
G75*
G02*
X74425000Y-123375000I75000J0D01*
G01*
G37*
G36*
G01*
X74925000Y-123375000D02*
X75075000Y-123375000D01*
G75*
G02*
X75150000Y-123450000I0J-75000D01*
G01*
X75150000Y-124900000D01*
G75*
G02*
X75075000Y-124975000I-75000J0D01*
G01*
X74925000Y-124975000D01*
G75*
G02*
X74850000Y-124900000I0J75000D01*
G01*
X74850000Y-123450000D01*
G75*
G02*
X74925000Y-123375000I75000J0D01*
G01*
G37*
G36*
G01*
X75425000Y-123375000D02*
X75575000Y-123375000D01*
G75*
G02*
X75650000Y-123450000I0J-75000D01*
G01*
X75650000Y-124900000D01*
G75*
G02*
X75575000Y-124975000I-75000J0D01*
G01*
X75425000Y-124975000D01*
G75*
G02*
X75350000Y-124900000I0J75000D01*
G01*
X75350000Y-123450000D01*
G75*
G02*
X75425000Y-123375000I75000J0D01*
G01*
G37*
G36*
G01*
X75925000Y-123375000D02*
X76075000Y-123375000D01*
G75*
G02*
X76150000Y-123450000I0J-75000D01*
G01*
X76150000Y-124900000D01*
G75*
G02*
X76075000Y-124975000I-75000J0D01*
G01*
X75925000Y-124975000D01*
G75*
G02*
X75850000Y-124900000I0J75000D01*
G01*
X75850000Y-123450000D01*
G75*
G02*
X75925000Y-123375000I75000J0D01*
G01*
G37*
G36*
G01*
X76425000Y-123375000D02*
X76575000Y-123375000D01*
G75*
G02*
X76650000Y-123450000I0J-75000D01*
G01*
X76650000Y-124900000D01*
G75*
G02*
X76575000Y-124975000I-75000J0D01*
G01*
X76425000Y-124975000D01*
G75*
G02*
X76350000Y-124900000I0J75000D01*
G01*
X76350000Y-123450000D01*
G75*
G02*
X76425000Y-123375000I75000J0D01*
G01*
G37*
G36*
G01*
X76925000Y-123375000D02*
X77075000Y-123375000D01*
G75*
G02*
X77150000Y-123450000I0J-75000D01*
G01*
X77150000Y-124900000D01*
G75*
G02*
X77075000Y-124975000I-75000J0D01*
G01*
X76925000Y-124975000D01*
G75*
G02*
X76850000Y-124900000I0J75000D01*
G01*
X76850000Y-123450000D01*
G75*
G02*
X76925000Y-123375000I75000J0D01*
G01*
G37*
G36*
G01*
X77425000Y-123375000D02*
X77575000Y-123375000D01*
G75*
G02*
X77650000Y-123450000I0J-75000D01*
G01*
X77650000Y-124900000D01*
G75*
G02*
X77575000Y-124975000I-75000J0D01*
G01*
X77425000Y-124975000D01*
G75*
G02*
X77350000Y-124900000I0J75000D01*
G01*
X77350000Y-123450000D01*
G75*
G02*
X77425000Y-123375000I75000J0D01*
G01*
G37*
G36*
G01*
X77925000Y-123375000D02*
X78075000Y-123375000D01*
G75*
G02*
X78150000Y-123450000I0J-75000D01*
G01*
X78150000Y-124900000D01*
G75*
G02*
X78075000Y-124975000I-75000J0D01*
G01*
X77925000Y-124975000D01*
G75*
G02*
X77850000Y-124900000I0J75000D01*
G01*
X77850000Y-123450000D01*
G75*
G02*
X77925000Y-123375000I75000J0D01*
G01*
G37*
G36*
G01*
X78425000Y-123375000D02*
X78575000Y-123375000D01*
G75*
G02*
X78650000Y-123450000I0J-75000D01*
G01*
X78650000Y-124900000D01*
G75*
G02*
X78575000Y-124975000I-75000J0D01*
G01*
X78425000Y-124975000D01*
G75*
G02*
X78350000Y-124900000I0J75000D01*
G01*
X78350000Y-123450000D01*
G75*
G02*
X78425000Y-123375000I75000J0D01*
G01*
G37*
G36*
G01*
X78925000Y-123375000D02*
X79075000Y-123375000D01*
G75*
G02*
X79150000Y-123450000I0J-75000D01*
G01*
X79150000Y-124900000D01*
G75*
G02*
X79075000Y-124975000I-75000J0D01*
G01*
X78925000Y-124975000D01*
G75*
G02*
X78850000Y-124900000I0J75000D01*
G01*
X78850000Y-123450000D01*
G75*
G02*
X78925000Y-123375000I75000J0D01*
G01*
G37*
G36*
G01*
X79425000Y-123375000D02*
X79575000Y-123375000D01*
G75*
G02*
X79650000Y-123450000I0J-75000D01*
G01*
X79650000Y-124900000D01*
G75*
G02*
X79575000Y-124975000I-75000J0D01*
G01*
X79425000Y-124975000D01*
G75*
G02*
X79350000Y-124900000I0J75000D01*
G01*
X79350000Y-123450000D01*
G75*
G02*
X79425000Y-123375000I75000J0D01*
G01*
G37*
G36*
G01*
X79925000Y-123375000D02*
X80075000Y-123375000D01*
G75*
G02*
X80150000Y-123450000I0J-75000D01*
G01*
X80150000Y-124900000D01*
G75*
G02*
X80075000Y-124975000I-75000J0D01*
G01*
X79925000Y-124975000D01*
G75*
G02*
X79850000Y-124900000I0J75000D01*
G01*
X79850000Y-123450000D01*
G75*
G02*
X79925000Y-123375000I75000J0D01*
G01*
G37*
G36*
G01*
X80950000Y-122350000D02*
X82400000Y-122350000D01*
G75*
G02*
X82475000Y-122425000I0J-75000D01*
G01*
X82475000Y-122575000D01*
G75*
G02*
X82400000Y-122650000I-75000J0D01*
G01*
X80950000Y-122650000D01*
G75*
G02*
X80875000Y-122575000I0J75000D01*
G01*
X80875000Y-122425000D01*
G75*
G02*
X80950000Y-122350000I75000J0D01*
G01*
G37*
G36*
G01*
X80950000Y-121850000D02*
X82400000Y-121850000D01*
G75*
G02*
X82475000Y-121925000I0J-75000D01*
G01*
X82475000Y-122075000D01*
G75*
G02*
X82400000Y-122150000I-75000J0D01*
G01*
X80950000Y-122150000D01*
G75*
G02*
X80875000Y-122075000I0J75000D01*
G01*
X80875000Y-121925000D01*
G75*
G02*
X80950000Y-121850000I75000J0D01*
G01*
G37*
G36*
G01*
X80950000Y-121350000D02*
X82400000Y-121350000D01*
G75*
G02*
X82475000Y-121425000I0J-75000D01*
G01*
X82475000Y-121575000D01*
G75*
G02*
X82400000Y-121650000I-75000J0D01*
G01*
X80950000Y-121650000D01*
G75*
G02*
X80875000Y-121575000I0J75000D01*
G01*
X80875000Y-121425000D01*
G75*
G02*
X80950000Y-121350000I75000J0D01*
G01*
G37*
G36*
G01*
X80950000Y-120850000D02*
X82400000Y-120850000D01*
G75*
G02*
X82475000Y-120925000I0J-75000D01*
G01*
X82475000Y-121075000D01*
G75*
G02*
X82400000Y-121150000I-75000J0D01*
G01*
X80950000Y-121150000D01*
G75*
G02*
X80875000Y-121075000I0J75000D01*
G01*
X80875000Y-120925000D01*
G75*
G02*
X80950000Y-120850000I75000J0D01*
G01*
G37*
G36*
G01*
X80950000Y-120350000D02*
X82400000Y-120350000D01*
G75*
G02*
X82475000Y-120425000I0J-75000D01*
G01*
X82475000Y-120575000D01*
G75*
G02*
X82400000Y-120650000I-75000J0D01*
G01*
X80950000Y-120650000D01*
G75*
G02*
X80875000Y-120575000I0J75000D01*
G01*
X80875000Y-120425000D01*
G75*
G02*
X80950000Y-120350000I75000J0D01*
G01*
G37*
G36*
G01*
X80950000Y-119850000D02*
X82400000Y-119850000D01*
G75*
G02*
X82475000Y-119925000I0J-75000D01*
G01*
X82475000Y-120075000D01*
G75*
G02*
X82400000Y-120150000I-75000J0D01*
G01*
X80950000Y-120150000D01*
G75*
G02*
X80875000Y-120075000I0J75000D01*
G01*
X80875000Y-119925000D01*
G75*
G02*
X80950000Y-119850000I75000J0D01*
G01*
G37*
G36*
G01*
X80950000Y-119350000D02*
X82400000Y-119350000D01*
G75*
G02*
X82475000Y-119425000I0J-75000D01*
G01*
X82475000Y-119575000D01*
G75*
G02*
X82400000Y-119650000I-75000J0D01*
G01*
X80950000Y-119650000D01*
G75*
G02*
X80875000Y-119575000I0J75000D01*
G01*
X80875000Y-119425000D01*
G75*
G02*
X80950000Y-119350000I75000J0D01*
G01*
G37*
G36*
G01*
X80950000Y-118850000D02*
X82400000Y-118850000D01*
G75*
G02*
X82475000Y-118925000I0J-75000D01*
G01*
X82475000Y-119075000D01*
G75*
G02*
X82400000Y-119150000I-75000J0D01*
G01*
X80950000Y-119150000D01*
G75*
G02*
X80875000Y-119075000I0J75000D01*
G01*
X80875000Y-118925000D01*
G75*
G02*
X80950000Y-118850000I75000J0D01*
G01*
G37*
G36*
G01*
X80950000Y-118350000D02*
X82400000Y-118350000D01*
G75*
G02*
X82475000Y-118425000I0J-75000D01*
G01*
X82475000Y-118575000D01*
G75*
G02*
X82400000Y-118650000I-75000J0D01*
G01*
X80950000Y-118650000D01*
G75*
G02*
X80875000Y-118575000I0J75000D01*
G01*
X80875000Y-118425000D01*
G75*
G02*
X80950000Y-118350000I75000J0D01*
G01*
G37*
G36*
G01*
X80950000Y-117850000D02*
X82400000Y-117850000D01*
G75*
G02*
X82475000Y-117925000I0J-75000D01*
G01*
X82475000Y-118075000D01*
G75*
G02*
X82400000Y-118150000I-75000J0D01*
G01*
X80950000Y-118150000D01*
G75*
G02*
X80875000Y-118075000I0J75000D01*
G01*
X80875000Y-117925000D01*
G75*
G02*
X80950000Y-117850000I75000J0D01*
G01*
G37*
G36*
G01*
X80950000Y-117350000D02*
X82400000Y-117350000D01*
G75*
G02*
X82475000Y-117425000I0J-75000D01*
G01*
X82475000Y-117575000D01*
G75*
G02*
X82400000Y-117650000I-75000J0D01*
G01*
X80950000Y-117650000D01*
G75*
G02*
X80875000Y-117575000I0J75000D01*
G01*
X80875000Y-117425000D01*
G75*
G02*
X80950000Y-117350000I75000J0D01*
G01*
G37*
G36*
G01*
X80950000Y-116850000D02*
X82400000Y-116850000D01*
G75*
G02*
X82475000Y-116925000I0J-75000D01*
G01*
X82475000Y-117075000D01*
G75*
G02*
X82400000Y-117150000I-75000J0D01*
G01*
X80950000Y-117150000D01*
G75*
G02*
X80875000Y-117075000I0J75000D01*
G01*
X80875000Y-116925000D01*
G75*
G02*
X80950000Y-116850000I75000J0D01*
G01*
G37*
G36*
G01*
X80950000Y-116350000D02*
X82400000Y-116350000D01*
G75*
G02*
X82475000Y-116425000I0J-75000D01*
G01*
X82475000Y-116575000D01*
G75*
G02*
X82400000Y-116650000I-75000J0D01*
G01*
X80950000Y-116650000D01*
G75*
G02*
X80875000Y-116575000I0J75000D01*
G01*
X80875000Y-116425000D01*
G75*
G02*
X80950000Y-116350000I75000J0D01*
G01*
G37*
G36*
G01*
X80950000Y-115850000D02*
X82400000Y-115850000D01*
G75*
G02*
X82475000Y-115925000I0J-75000D01*
G01*
X82475000Y-116075000D01*
G75*
G02*
X82400000Y-116150000I-75000J0D01*
G01*
X80950000Y-116150000D01*
G75*
G02*
X80875000Y-116075000I0J75000D01*
G01*
X80875000Y-115925000D01*
G75*
G02*
X80950000Y-115850000I75000J0D01*
G01*
G37*
G36*
G01*
X80950000Y-115350000D02*
X82400000Y-115350000D01*
G75*
G02*
X82475000Y-115425000I0J-75000D01*
G01*
X82475000Y-115575000D01*
G75*
G02*
X82400000Y-115650000I-75000J0D01*
G01*
X80950000Y-115650000D01*
G75*
G02*
X80875000Y-115575000I0J75000D01*
G01*
X80875000Y-115425000D01*
G75*
G02*
X80950000Y-115350000I75000J0D01*
G01*
G37*
G36*
G01*
X80950000Y-114850000D02*
X82400000Y-114850000D01*
G75*
G02*
X82475000Y-114925000I0J-75000D01*
G01*
X82475000Y-115075000D01*
G75*
G02*
X82400000Y-115150000I-75000J0D01*
G01*
X80950000Y-115150000D01*
G75*
G02*
X80875000Y-115075000I0J75000D01*
G01*
X80875000Y-114925000D01*
G75*
G02*
X80950000Y-114850000I75000J0D01*
G01*
G37*
G36*
G01*
X80950000Y-114350000D02*
X82400000Y-114350000D01*
G75*
G02*
X82475000Y-114425000I0J-75000D01*
G01*
X82475000Y-114575000D01*
G75*
G02*
X82400000Y-114650000I-75000J0D01*
G01*
X80950000Y-114650000D01*
G75*
G02*
X80875000Y-114575000I0J75000D01*
G01*
X80875000Y-114425000D01*
G75*
G02*
X80950000Y-114350000I75000J0D01*
G01*
G37*
G36*
G01*
X80950000Y-113850000D02*
X82400000Y-113850000D01*
G75*
G02*
X82475000Y-113925000I0J-75000D01*
G01*
X82475000Y-114075000D01*
G75*
G02*
X82400000Y-114150000I-75000J0D01*
G01*
X80950000Y-114150000D01*
G75*
G02*
X80875000Y-114075000I0J75000D01*
G01*
X80875000Y-113925000D01*
G75*
G02*
X80950000Y-113850000I75000J0D01*
G01*
G37*
G36*
G01*
X80950000Y-113350000D02*
X82400000Y-113350000D01*
G75*
G02*
X82475000Y-113425000I0J-75000D01*
G01*
X82475000Y-113575000D01*
G75*
G02*
X82400000Y-113650000I-75000J0D01*
G01*
X80950000Y-113650000D01*
G75*
G02*
X80875000Y-113575000I0J75000D01*
G01*
X80875000Y-113425000D01*
G75*
G02*
X80950000Y-113350000I75000J0D01*
G01*
G37*
G36*
G01*
X80950000Y-112850000D02*
X82400000Y-112850000D01*
G75*
G02*
X82475000Y-112925000I0J-75000D01*
G01*
X82475000Y-113075000D01*
G75*
G02*
X82400000Y-113150000I-75000J0D01*
G01*
X80950000Y-113150000D01*
G75*
G02*
X80875000Y-113075000I0J75000D01*
G01*
X80875000Y-112925000D01*
G75*
G02*
X80950000Y-112850000I75000J0D01*
G01*
G37*
G36*
G01*
X80950000Y-112350000D02*
X82400000Y-112350000D01*
G75*
G02*
X82475000Y-112425000I0J-75000D01*
G01*
X82475000Y-112575000D01*
G75*
G02*
X82400000Y-112650000I-75000J0D01*
G01*
X80950000Y-112650000D01*
G75*
G02*
X80875000Y-112575000I0J75000D01*
G01*
X80875000Y-112425000D01*
G75*
G02*
X80950000Y-112350000I75000J0D01*
G01*
G37*
G36*
G01*
X80950000Y-111850000D02*
X82400000Y-111850000D01*
G75*
G02*
X82475000Y-111925000I0J-75000D01*
G01*
X82475000Y-112075000D01*
G75*
G02*
X82400000Y-112150000I-75000J0D01*
G01*
X80950000Y-112150000D01*
G75*
G02*
X80875000Y-112075000I0J75000D01*
G01*
X80875000Y-111925000D01*
G75*
G02*
X80950000Y-111850000I75000J0D01*
G01*
G37*
G36*
G01*
X80950000Y-111350000D02*
X82400000Y-111350000D01*
G75*
G02*
X82475000Y-111425000I0J-75000D01*
G01*
X82475000Y-111575000D01*
G75*
G02*
X82400000Y-111650000I-75000J0D01*
G01*
X80950000Y-111650000D01*
G75*
G02*
X80875000Y-111575000I0J75000D01*
G01*
X80875000Y-111425000D01*
G75*
G02*
X80950000Y-111350000I75000J0D01*
G01*
G37*
G36*
G01*
X80950000Y-110850000D02*
X82400000Y-110850000D01*
G75*
G02*
X82475000Y-110925000I0J-75000D01*
G01*
X82475000Y-111075000D01*
G75*
G02*
X82400000Y-111150000I-75000J0D01*
G01*
X80950000Y-111150000D01*
G75*
G02*
X80875000Y-111075000I0J75000D01*
G01*
X80875000Y-110925000D01*
G75*
G02*
X80950000Y-110850000I75000J0D01*
G01*
G37*
G36*
G01*
X80950000Y-110350000D02*
X82400000Y-110350000D01*
G75*
G02*
X82475000Y-110425000I0J-75000D01*
G01*
X82475000Y-110575000D01*
G75*
G02*
X82400000Y-110650000I-75000J0D01*
G01*
X80950000Y-110650000D01*
G75*
G02*
X80875000Y-110575000I0J75000D01*
G01*
X80875000Y-110425000D01*
G75*
G02*
X80950000Y-110350000I75000J0D01*
G01*
G37*
%TD*%
%TO.C,U2*%
G36*
G01*
X87175000Y-71850000D02*
X87325000Y-71850000D01*
G75*
G02*
X87400000Y-71925000I0J-75000D01*
G01*
X87400000Y-73250000D01*
G75*
G02*
X87325000Y-73325000I-75000J0D01*
G01*
X87175000Y-73325000D01*
G75*
G02*
X87100000Y-73250000I0J75000D01*
G01*
X87100000Y-71925000D01*
G75*
G02*
X87175000Y-71850000I75000J0D01*
G01*
G37*
G36*
G01*
X86675000Y-71850000D02*
X86825000Y-71850000D01*
G75*
G02*
X86900000Y-71925000I0J-75000D01*
G01*
X86900000Y-73250000D01*
G75*
G02*
X86825000Y-73325000I-75000J0D01*
G01*
X86675000Y-73325000D01*
G75*
G02*
X86600000Y-73250000I0J75000D01*
G01*
X86600000Y-71925000D01*
G75*
G02*
X86675000Y-71850000I75000J0D01*
G01*
G37*
G36*
G01*
X86175000Y-71850000D02*
X86325000Y-71850000D01*
G75*
G02*
X86400000Y-71925000I0J-75000D01*
G01*
X86400000Y-73250000D01*
G75*
G02*
X86325000Y-73325000I-75000J0D01*
G01*
X86175000Y-73325000D01*
G75*
G02*
X86100000Y-73250000I0J75000D01*
G01*
X86100000Y-71925000D01*
G75*
G02*
X86175000Y-71850000I75000J0D01*
G01*
G37*
G36*
G01*
X85675000Y-71850000D02*
X85825000Y-71850000D01*
G75*
G02*
X85900000Y-71925000I0J-75000D01*
G01*
X85900000Y-73250000D01*
G75*
G02*
X85825000Y-73325000I-75000J0D01*
G01*
X85675000Y-73325000D01*
G75*
G02*
X85600000Y-73250000I0J75000D01*
G01*
X85600000Y-71925000D01*
G75*
G02*
X85675000Y-71850000I75000J0D01*
G01*
G37*
G36*
G01*
X85175000Y-71850000D02*
X85325000Y-71850000D01*
G75*
G02*
X85400000Y-71925000I0J-75000D01*
G01*
X85400000Y-73250000D01*
G75*
G02*
X85325000Y-73325000I-75000J0D01*
G01*
X85175000Y-73325000D01*
G75*
G02*
X85100000Y-73250000I0J75000D01*
G01*
X85100000Y-71925000D01*
G75*
G02*
X85175000Y-71850000I75000J0D01*
G01*
G37*
G36*
G01*
X84675000Y-71850000D02*
X84825000Y-71850000D01*
G75*
G02*
X84900000Y-71925000I0J-75000D01*
G01*
X84900000Y-73250000D01*
G75*
G02*
X84825000Y-73325000I-75000J0D01*
G01*
X84675000Y-73325000D01*
G75*
G02*
X84600000Y-73250000I0J75000D01*
G01*
X84600000Y-71925000D01*
G75*
G02*
X84675000Y-71850000I75000J0D01*
G01*
G37*
G36*
G01*
X84175000Y-71850000D02*
X84325000Y-71850000D01*
G75*
G02*
X84400000Y-71925000I0J-75000D01*
G01*
X84400000Y-73250000D01*
G75*
G02*
X84325000Y-73325000I-75000J0D01*
G01*
X84175000Y-73325000D01*
G75*
G02*
X84100000Y-73250000I0J75000D01*
G01*
X84100000Y-71925000D01*
G75*
G02*
X84175000Y-71850000I75000J0D01*
G01*
G37*
G36*
G01*
X83675000Y-71850000D02*
X83825000Y-71850000D01*
G75*
G02*
X83900000Y-71925000I0J-75000D01*
G01*
X83900000Y-73250000D01*
G75*
G02*
X83825000Y-73325000I-75000J0D01*
G01*
X83675000Y-73325000D01*
G75*
G02*
X83600000Y-73250000I0J75000D01*
G01*
X83600000Y-71925000D01*
G75*
G02*
X83675000Y-71850000I75000J0D01*
G01*
G37*
G36*
G01*
X83175000Y-71850000D02*
X83325000Y-71850000D01*
G75*
G02*
X83400000Y-71925000I0J-75000D01*
G01*
X83400000Y-73250000D01*
G75*
G02*
X83325000Y-73325000I-75000J0D01*
G01*
X83175000Y-73325000D01*
G75*
G02*
X83100000Y-73250000I0J75000D01*
G01*
X83100000Y-71925000D01*
G75*
G02*
X83175000Y-71850000I75000J0D01*
G01*
G37*
G36*
G01*
X82675000Y-71850000D02*
X82825000Y-71850000D01*
G75*
G02*
X82900000Y-71925000I0J-75000D01*
G01*
X82900000Y-73250000D01*
G75*
G02*
X82825000Y-73325000I-75000J0D01*
G01*
X82675000Y-73325000D01*
G75*
G02*
X82600000Y-73250000I0J75000D01*
G01*
X82600000Y-71925000D01*
G75*
G02*
X82675000Y-71850000I75000J0D01*
G01*
G37*
G36*
G01*
X82175000Y-71850000D02*
X82325000Y-71850000D01*
G75*
G02*
X82400000Y-71925000I0J-75000D01*
G01*
X82400000Y-73250000D01*
G75*
G02*
X82325000Y-73325000I-75000J0D01*
G01*
X82175000Y-73325000D01*
G75*
G02*
X82100000Y-73250000I0J75000D01*
G01*
X82100000Y-71925000D01*
G75*
G02*
X82175000Y-71850000I75000J0D01*
G01*
G37*
G36*
G01*
X81675000Y-71850000D02*
X81825000Y-71850000D01*
G75*
G02*
X81900000Y-71925000I0J-75000D01*
G01*
X81900000Y-73250000D01*
G75*
G02*
X81825000Y-73325000I-75000J0D01*
G01*
X81675000Y-73325000D01*
G75*
G02*
X81600000Y-73250000I0J75000D01*
G01*
X81600000Y-71925000D01*
G75*
G02*
X81675000Y-71850000I75000J0D01*
G01*
G37*
G36*
G01*
X79675000Y-73850000D02*
X81000000Y-73850000D01*
G75*
G02*
X81075000Y-73925000I0J-75000D01*
G01*
X81075000Y-74075000D01*
G75*
G02*
X81000000Y-74150000I-75000J0D01*
G01*
X79675000Y-74150000D01*
G75*
G02*
X79600000Y-74075000I0J75000D01*
G01*
X79600000Y-73925000D01*
G75*
G02*
X79675000Y-73850000I75000J0D01*
G01*
G37*
G36*
G01*
X79675000Y-74350000D02*
X81000000Y-74350000D01*
G75*
G02*
X81075000Y-74425000I0J-75000D01*
G01*
X81075000Y-74575000D01*
G75*
G02*
X81000000Y-74650000I-75000J0D01*
G01*
X79675000Y-74650000D01*
G75*
G02*
X79600000Y-74575000I0J75000D01*
G01*
X79600000Y-74425000D01*
G75*
G02*
X79675000Y-74350000I75000J0D01*
G01*
G37*
G36*
G01*
X79675000Y-74850000D02*
X81000000Y-74850000D01*
G75*
G02*
X81075000Y-74925000I0J-75000D01*
G01*
X81075000Y-75075000D01*
G75*
G02*
X81000000Y-75150000I-75000J0D01*
G01*
X79675000Y-75150000D01*
G75*
G02*
X79600000Y-75075000I0J75000D01*
G01*
X79600000Y-74925000D01*
G75*
G02*
X79675000Y-74850000I75000J0D01*
G01*
G37*
G36*
G01*
X79675000Y-75350000D02*
X81000000Y-75350000D01*
G75*
G02*
X81075000Y-75425000I0J-75000D01*
G01*
X81075000Y-75575000D01*
G75*
G02*
X81000000Y-75650000I-75000J0D01*
G01*
X79675000Y-75650000D01*
G75*
G02*
X79600000Y-75575000I0J75000D01*
G01*
X79600000Y-75425000D01*
G75*
G02*
X79675000Y-75350000I75000J0D01*
G01*
G37*
G36*
G01*
X79675000Y-75850000D02*
X81000000Y-75850000D01*
G75*
G02*
X81075000Y-75925000I0J-75000D01*
G01*
X81075000Y-76075000D01*
G75*
G02*
X81000000Y-76150000I-75000J0D01*
G01*
X79675000Y-76150000D01*
G75*
G02*
X79600000Y-76075000I0J75000D01*
G01*
X79600000Y-75925000D01*
G75*
G02*
X79675000Y-75850000I75000J0D01*
G01*
G37*
G36*
G01*
X79675000Y-76350000D02*
X81000000Y-76350000D01*
G75*
G02*
X81075000Y-76425000I0J-75000D01*
G01*
X81075000Y-76575000D01*
G75*
G02*
X81000000Y-76650000I-75000J0D01*
G01*
X79675000Y-76650000D01*
G75*
G02*
X79600000Y-76575000I0J75000D01*
G01*
X79600000Y-76425000D01*
G75*
G02*
X79675000Y-76350000I75000J0D01*
G01*
G37*
G36*
G01*
X79675000Y-76850000D02*
X81000000Y-76850000D01*
G75*
G02*
X81075000Y-76925000I0J-75000D01*
G01*
X81075000Y-77075000D01*
G75*
G02*
X81000000Y-77150000I-75000J0D01*
G01*
X79675000Y-77150000D01*
G75*
G02*
X79600000Y-77075000I0J75000D01*
G01*
X79600000Y-76925000D01*
G75*
G02*
X79675000Y-76850000I75000J0D01*
G01*
G37*
G36*
G01*
X79675000Y-77350000D02*
X81000000Y-77350000D01*
G75*
G02*
X81075000Y-77425000I0J-75000D01*
G01*
X81075000Y-77575000D01*
G75*
G02*
X81000000Y-77650000I-75000J0D01*
G01*
X79675000Y-77650000D01*
G75*
G02*
X79600000Y-77575000I0J75000D01*
G01*
X79600000Y-77425000D01*
G75*
G02*
X79675000Y-77350000I75000J0D01*
G01*
G37*
G36*
G01*
X79675000Y-77850000D02*
X81000000Y-77850000D01*
G75*
G02*
X81075000Y-77925000I0J-75000D01*
G01*
X81075000Y-78075000D01*
G75*
G02*
X81000000Y-78150000I-75000J0D01*
G01*
X79675000Y-78150000D01*
G75*
G02*
X79600000Y-78075000I0J75000D01*
G01*
X79600000Y-77925000D01*
G75*
G02*
X79675000Y-77850000I75000J0D01*
G01*
G37*
G36*
G01*
X79675000Y-78350000D02*
X81000000Y-78350000D01*
G75*
G02*
X81075000Y-78425000I0J-75000D01*
G01*
X81075000Y-78575000D01*
G75*
G02*
X81000000Y-78650000I-75000J0D01*
G01*
X79675000Y-78650000D01*
G75*
G02*
X79600000Y-78575000I0J75000D01*
G01*
X79600000Y-78425000D01*
G75*
G02*
X79675000Y-78350000I75000J0D01*
G01*
G37*
G36*
G01*
X79675000Y-78850000D02*
X81000000Y-78850000D01*
G75*
G02*
X81075000Y-78925000I0J-75000D01*
G01*
X81075000Y-79075000D01*
G75*
G02*
X81000000Y-79150000I-75000J0D01*
G01*
X79675000Y-79150000D01*
G75*
G02*
X79600000Y-79075000I0J75000D01*
G01*
X79600000Y-78925000D01*
G75*
G02*
X79675000Y-78850000I75000J0D01*
G01*
G37*
G36*
G01*
X79675000Y-79350000D02*
X81000000Y-79350000D01*
G75*
G02*
X81075000Y-79425000I0J-75000D01*
G01*
X81075000Y-79575000D01*
G75*
G02*
X81000000Y-79650000I-75000J0D01*
G01*
X79675000Y-79650000D01*
G75*
G02*
X79600000Y-79575000I0J75000D01*
G01*
X79600000Y-79425000D01*
G75*
G02*
X79675000Y-79350000I75000J0D01*
G01*
G37*
G36*
G01*
X81675000Y-80175000D02*
X81825000Y-80175000D01*
G75*
G02*
X81900000Y-80250000I0J-75000D01*
G01*
X81900000Y-81575000D01*
G75*
G02*
X81825000Y-81650000I-75000J0D01*
G01*
X81675000Y-81650000D01*
G75*
G02*
X81600000Y-81575000I0J75000D01*
G01*
X81600000Y-80250000D01*
G75*
G02*
X81675000Y-80175000I75000J0D01*
G01*
G37*
G36*
G01*
X82175000Y-80175000D02*
X82325000Y-80175000D01*
G75*
G02*
X82400000Y-80250000I0J-75000D01*
G01*
X82400000Y-81575000D01*
G75*
G02*
X82325000Y-81650000I-75000J0D01*
G01*
X82175000Y-81650000D01*
G75*
G02*
X82100000Y-81575000I0J75000D01*
G01*
X82100000Y-80250000D01*
G75*
G02*
X82175000Y-80175000I75000J0D01*
G01*
G37*
G36*
G01*
X82675000Y-80175000D02*
X82825000Y-80175000D01*
G75*
G02*
X82900000Y-80250000I0J-75000D01*
G01*
X82900000Y-81575000D01*
G75*
G02*
X82825000Y-81650000I-75000J0D01*
G01*
X82675000Y-81650000D01*
G75*
G02*
X82600000Y-81575000I0J75000D01*
G01*
X82600000Y-80250000D01*
G75*
G02*
X82675000Y-80175000I75000J0D01*
G01*
G37*
G36*
G01*
X83175000Y-80175000D02*
X83325000Y-80175000D01*
G75*
G02*
X83400000Y-80250000I0J-75000D01*
G01*
X83400000Y-81575000D01*
G75*
G02*
X83325000Y-81650000I-75000J0D01*
G01*
X83175000Y-81650000D01*
G75*
G02*
X83100000Y-81575000I0J75000D01*
G01*
X83100000Y-80250000D01*
G75*
G02*
X83175000Y-80175000I75000J0D01*
G01*
G37*
G36*
G01*
X83675000Y-80175000D02*
X83825000Y-80175000D01*
G75*
G02*
X83900000Y-80250000I0J-75000D01*
G01*
X83900000Y-81575000D01*
G75*
G02*
X83825000Y-81650000I-75000J0D01*
G01*
X83675000Y-81650000D01*
G75*
G02*
X83600000Y-81575000I0J75000D01*
G01*
X83600000Y-80250000D01*
G75*
G02*
X83675000Y-80175000I75000J0D01*
G01*
G37*
G36*
G01*
X84175000Y-80175000D02*
X84325000Y-80175000D01*
G75*
G02*
X84400000Y-80250000I0J-75000D01*
G01*
X84400000Y-81575000D01*
G75*
G02*
X84325000Y-81650000I-75000J0D01*
G01*
X84175000Y-81650000D01*
G75*
G02*
X84100000Y-81575000I0J75000D01*
G01*
X84100000Y-80250000D01*
G75*
G02*
X84175000Y-80175000I75000J0D01*
G01*
G37*
G36*
G01*
X84675000Y-80175000D02*
X84825000Y-80175000D01*
G75*
G02*
X84900000Y-80250000I0J-75000D01*
G01*
X84900000Y-81575000D01*
G75*
G02*
X84825000Y-81650000I-75000J0D01*
G01*
X84675000Y-81650000D01*
G75*
G02*
X84600000Y-81575000I0J75000D01*
G01*
X84600000Y-80250000D01*
G75*
G02*
X84675000Y-80175000I75000J0D01*
G01*
G37*
G36*
G01*
X85175000Y-80175000D02*
X85325000Y-80175000D01*
G75*
G02*
X85400000Y-80250000I0J-75000D01*
G01*
X85400000Y-81575000D01*
G75*
G02*
X85325000Y-81650000I-75000J0D01*
G01*
X85175000Y-81650000D01*
G75*
G02*
X85100000Y-81575000I0J75000D01*
G01*
X85100000Y-80250000D01*
G75*
G02*
X85175000Y-80175000I75000J0D01*
G01*
G37*
G36*
G01*
X85675000Y-80175000D02*
X85825000Y-80175000D01*
G75*
G02*
X85900000Y-80250000I0J-75000D01*
G01*
X85900000Y-81575000D01*
G75*
G02*
X85825000Y-81650000I-75000J0D01*
G01*
X85675000Y-81650000D01*
G75*
G02*
X85600000Y-81575000I0J75000D01*
G01*
X85600000Y-80250000D01*
G75*
G02*
X85675000Y-80175000I75000J0D01*
G01*
G37*
G36*
G01*
X86175000Y-80175000D02*
X86325000Y-80175000D01*
G75*
G02*
X86400000Y-80250000I0J-75000D01*
G01*
X86400000Y-81575000D01*
G75*
G02*
X86325000Y-81650000I-75000J0D01*
G01*
X86175000Y-81650000D01*
G75*
G02*
X86100000Y-81575000I0J75000D01*
G01*
X86100000Y-80250000D01*
G75*
G02*
X86175000Y-80175000I75000J0D01*
G01*
G37*
G36*
G01*
X86675000Y-80175000D02*
X86825000Y-80175000D01*
G75*
G02*
X86900000Y-80250000I0J-75000D01*
G01*
X86900000Y-81575000D01*
G75*
G02*
X86825000Y-81650000I-75000J0D01*
G01*
X86675000Y-81650000D01*
G75*
G02*
X86600000Y-81575000I0J75000D01*
G01*
X86600000Y-80250000D01*
G75*
G02*
X86675000Y-80175000I75000J0D01*
G01*
G37*
G36*
G01*
X87175000Y-80175000D02*
X87325000Y-80175000D01*
G75*
G02*
X87400000Y-80250000I0J-75000D01*
G01*
X87400000Y-81575000D01*
G75*
G02*
X87325000Y-81650000I-75000J0D01*
G01*
X87175000Y-81650000D01*
G75*
G02*
X87100000Y-81575000I0J75000D01*
G01*
X87100000Y-80250000D01*
G75*
G02*
X87175000Y-80175000I75000J0D01*
G01*
G37*
G36*
G01*
X88000000Y-79350000D02*
X89325000Y-79350000D01*
G75*
G02*
X89400000Y-79425000I0J-75000D01*
G01*
X89400000Y-79575000D01*
G75*
G02*
X89325000Y-79650000I-75000J0D01*
G01*
X88000000Y-79650000D01*
G75*
G02*
X87925000Y-79575000I0J75000D01*
G01*
X87925000Y-79425000D01*
G75*
G02*
X88000000Y-79350000I75000J0D01*
G01*
G37*
G36*
G01*
X88000000Y-78850000D02*
X89325000Y-78850000D01*
G75*
G02*
X89400000Y-78925000I0J-75000D01*
G01*
X89400000Y-79075000D01*
G75*
G02*
X89325000Y-79150000I-75000J0D01*
G01*
X88000000Y-79150000D01*
G75*
G02*
X87925000Y-79075000I0J75000D01*
G01*
X87925000Y-78925000D01*
G75*
G02*
X88000000Y-78850000I75000J0D01*
G01*
G37*
G36*
G01*
X88000000Y-78350000D02*
X89325000Y-78350000D01*
G75*
G02*
X89400000Y-78425000I0J-75000D01*
G01*
X89400000Y-78575000D01*
G75*
G02*
X89325000Y-78650000I-75000J0D01*
G01*
X88000000Y-78650000D01*
G75*
G02*
X87925000Y-78575000I0J75000D01*
G01*
X87925000Y-78425000D01*
G75*
G02*
X88000000Y-78350000I75000J0D01*
G01*
G37*
G36*
G01*
X88000000Y-77850000D02*
X89325000Y-77850000D01*
G75*
G02*
X89400000Y-77925000I0J-75000D01*
G01*
X89400000Y-78075000D01*
G75*
G02*
X89325000Y-78150000I-75000J0D01*
G01*
X88000000Y-78150000D01*
G75*
G02*
X87925000Y-78075000I0J75000D01*
G01*
X87925000Y-77925000D01*
G75*
G02*
X88000000Y-77850000I75000J0D01*
G01*
G37*
G36*
G01*
X88000000Y-77350000D02*
X89325000Y-77350000D01*
G75*
G02*
X89400000Y-77425000I0J-75000D01*
G01*
X89400000Y-77575000D01*
G75*
G02*
X89325000Y-77650000I-75000J0D01*
G01*
X88000000Y-77650000D01*
G75*
G02*
X87925000Y-77575000I0J75000D01*
G01*
X87925000Y-77425000D01*
G75*
G02*
X88000000Y-77350000I75000J0D01*
G01*
G37*
G36*
G01*
X88000000Y-76850000D02*
X89325000Y-76850000D01*
G75*
G02*
X89400000Y-76925000I0J-75000D01*
G01*
X89400000Y-77075000D01*
G75*
G02*
X89325000Y-77150000I-75000J0D01*
G01*
X88000000Y-77150000D01*
G75*
G02*
X87925000Y-77075000I0J75000D01*
G01*
X87925000Y-76925000D01*
G75*
G02*
X88000000Y-76850000I75000J0D01*
G01*
G37*
G36*
G01*
X88000000Y-76350000D02*
X89325000Y-76350000D01*
G75*
G02*
X89400000Y-76425000I0J-75000D01*
G01*
X89400000Y-76575000D01*
G75*
G02*
X89325000Y-76650000I-75000J0D01*
G01*
X88000000Y-76650000D01*
G75*
G02*
X87925000Y-76575000I0J75000D01*
G01*
X87925000Y-76425000D01*
G75*
G02*
X88000000Y-76350000I75000J0D01*
G01*
G37*
G36*
G01*
X88000000Y-75850000D02*
X89325000Y-75850000D01*
G75*
G02*
X89400000Y-75925000I0J-75000D01*
G01*
X89400000Y-76075000D01*
G75*
G02*
X89325000Y-76150000I-75000J0D01*
G01*
X88000000Y-76150000D01*
G75*
G02*
X87925000Y-76075000I0J75000D01*
G01*
X87925000Y-75925000D01*
G75*
G02*
X88000000Y-75850000I75000J0D01*
G01*
G37*
G36*
G01*
X88000000Y-75350000D02*
X89325000Y-75350000D01*
G75*
G02*
X89400000Y-75425000I0J-75000D01*
G01*
X89400000Y-75575000D01*
G75*
G02*
X89325000Y-75650000I-75000J0D01*
G01*
X88000000Y-75650000D01*
G75*
G02*
X87925000Y-75575000I0J75000D01*
G01*
X87925000Y-75425000D01*
G75*
G02*
X88000000Y-75350000I75000J0D01*
G01*
G37*
G36*
G01*
X88000000Y-74850000D02*
X89325000Y-74850000D01*
G75*
G02*
X89400000Y-74925000I0J-75000D01*
G01*
X89400000Y-75075000D01*
G75*
G02*
X89325000Y-75150000I-75000J0D01*
G01*
X88000000Y-75150000D01*
G75*
G02*
X87925000Y-75075000I0J75000D01*
G01*
X87925000Y-74925000D01*
G75*
G02*
X88000000Y-74850000I75000J0D01*
G01*
G37*
G36*
G01*
X88000000Y-74350000D02*
X89325000Y-74350000D01*
G75*
G02*
X89400000Y-74425000I0J-75000D01*
G01*
X89400000Y-74575000D01*
G75*
G02*
X89325000Y-74650000I-75000J0D01*
G01*
X88000000Y-74650000D01*
G75*
G02*
X87925000Y-74575000I0J75000D01*
G01*
X87925000Y-74425000D01*
G75*
G02*
X88000000Y-74350000I75000J0D01*
G01*
G37*
G36*
G01*
X88000000Y-73850000D02*
X89325000Y-73850000D01*
G75*
G02*
X89400000Y-73925000I0J-75000D01*
G01*
X89400000Y-74075000D01*
G75*
G02*
X89325000Y-74150000I-75000J0D01*
G01*
X88000000Y-74150000D01*
G75*
G02*
X87925000Y-74075000I0J75000D01*
G01*
X87925000Y-73925000D01*
G75*
G02*
X88000000Y-73850000I75000J0D01*
G01*
G37*
%TD*%
%TO.C,T1*%
G36*
G01*
X68580000Y-79955000D02*
X68580000Y-80335000D01*
G75*
G02*
X68390000Y-80525000I-190000J0D01*
G01*
X67120000Y-80525000D01*
G75*
G02*
X66930000Y-80335000I0J190000D01*
G01*
X66930000Y-79955000D01*
G75*
G02*
X67120000Y-79765000I190000J0D01*
G01*
X68390000Y-79765000D01*
G75*
G02*
X68580000Y-79955000I0J-190000D01*
G01*
G37*
G36*
G01*
X68580000Y-78685000D02*
X68580000Y-79065000D01*
G75*
G02*
X68390000Y-79255000I-190000J0D01*
G01*
X67120000Y-79255000D01*
G75*
G02*
X66930000Y-79065000I0J190000D01*
G01*
X66930000Y-78685000D01*
G75*
G02*
X67120000Y-78495000I190000J0D01*
G01*
X68390000Y-78495000D01*
G75*
G02*
X68580000Y-78685000I0J-190000D01*
G01*
G37*
G36*
G01*
X68580000Y-77415000D02*
X68580000Y-77795000D01*
G75*
G02*
X68390000Y-77985000I-190000J0D01*
G01*
X67120000Y-77985000D01*
G75*
G02*
X66930000Y-77795000I0J190000D01*
G01*
X66930000Y-77415000D01*
G75*
G02*
X67120000Y-77225000I190000J0D01*
G01*
X68390000Y-77225000D01*
G75*
G02*
X68580000Y-77415000I0J-190000D01*
G01*
G37*
G36*
G01*
X68580000Y-76145000D02*
X68580000Y-76525000D01*
G75*
G02*
X68390000Y-76715000I-190000J0D01*
G01*
X67120000Y-76715000D01*
G75*
G02*
X66930000Y-76525000I0J190000D01*
G01*
X66930000Y-76145000D01*
G75*
G02*
X67120000Y-75955000I190000J0D01*
G01*
X68390000Y-75955000D01*
G75*
G02*
X68580000Y-76145000I0J-190000D01*
G01*
G37*
G36*
G01*
X68580000Y-74875000D02*
X68580000Y-75255000D01*
G75*
G02*
X68390000Y-75445000I-190000J0D01*
G01*
X67120000Y-75445000D01*
G75*
G02*
X66930000Y-75255000I0J190000D01*
G01*
X66930000Y-74875000D01*
G75*
G02*
X67120000Y-74685000I190000J0D01*
G01*
X68390000Y-74685000D01*
G75*
G02*
X68580000Y-74875000I0J-190000D01*
G01*
G37*
G36*
G01*
X68580000Y-73605000D02*
X68580000Y-73985000D01*
G75*
G02*
X68390000Y-74175000I-190000J0D01*
G01*
X67120000Y-74175000D01*
G75*
G02*
X66930000Y-73985000I0J190000D01*
G01*
X66930000Y-73605000D01*
G75*
G02*
X67120000Y-73415000I190000J0D01*
G01*
X68390000Y-73415000D01*
G75*
G02*
X68580000Y-73605000I0J-190000D01*
G01*
G37*
G36*
G01*
X68580000Y-72335000D02*
X68580000Y-72715000D01*
G75*
G02*
X68390000Y-72905000I-190000J0D01*
G01*
X67120000Y-72905000D01*
G75*
G02*
X66930000Y-72715000I0J190000D01*
G01*
X66930000Y-72335000D01*
G75*
G02*
X67120000Y-72145000I190000J0D01*
G01*
X68390000Y-72145000D01*
G75*
G02*
X68580000Y-72335000I0J-190000D01*
G01*
G37*
G36*
G01*
X68580000Y-71065000D02*
X68580000Y-71445000D01*
G75*
G02*
X68390000Y-71635000I-190000J0D01*
G01*
X67120000Y-71635000D01*
G75*
G02*
X66930000Y-71445000I0J190000D01*
G01*
X66930000Y-71065000D01*
G75*
G02*
X67120000Y-70875000I190000J0D01*
G01*
X68390000Y-70875000D01*
G75*
G02*
X68580000Y-71065000I0J-190000D01*
G01*
G37*
G36*
G01*
X60070000Y-71065000D02*
X60070000Y-71445000D01*
G75*
G02*
X59880000Y-71635000I-190000J0D01*
G01*
X58610000Y-71635000D01*
G75*
G02*
X58420000Y-71445000I0J190000D01*
G01*
X58420000Y-71065000D01*
G75*
G02*
X58610000Y-70875000I190000J0D01*
G01*
X59880000Y-70875000D01*
G75*
G02*
X60070000Y-71065000I0J-190000D01*
G01*
G37*
G36*
G01*
X60070000Y-72335000D02*
X60070000Y-72715000D01*
G75*
G02*
X59880000Y-72905000I-190000J0D01*
G01*
X58610000Y-72905000D01*
G75*
G02*
X58420000Y-72715000I0J190000D01*
G01*
X58420000Y-72335000D01*
G75*
G02*
X58610000Y-72145000I190000J0D01*
G01*
X59880000Y-72145000D01*
G75*
G02*
X60070000Y-72335000I0J-190000D01*
G01*
G37*
G36*
G01*
X60070000Y-73605000D02*
X60070000Y-73985000D01*
G75*
G02*
X59880000Y-74175000I-190000J0D01*
G01*
X58610000Y-74175000D01*
G75*
G02*
X58420000Y-73985000I0J190000D01*
G01*
X58420000Y-73605000D01*
G75*
G02*
X58610000Y-73415000I190000J0D01*
G01*
X59880000Y-73415000D01*
G75*
G02*
X60070000Y-73605000I0J-190000D01*
G01*
G37*
G36*
G01*
X60070000Y-74875000D02*
X60070000Y-75255000D01*
G75*
G02*
X59880000Y-75445000I-190000J0D01*
G01*
X58610000Y-75445000D01*
G75*
G02*
X58420000Y-75255000I0J190000D01*
G01*
X58420000Y-74875000D01*
G75*
G02*
X58610000Y-74685000I190000J0D01*
G01*
X59880000Y-74685000D01*
G75*
G02*
X60070000Y-74875000I0J-190000D01*
G01*
G37*
G36*
G01*
X60070000Y-76145000D02*
X60070000Y-76525000D01*
G75*
G02*
X59880000Y-76715000I-190000J0D01*
G01*
X58610000Y-76715000D01*
G75*
G02*
X58420000Y-76525000I0J190000D01*
G01*
X58420000Y-76145000D01*
G75*
G02*
X58610000Y-75955000I190000J0D01*
G01*
X59880000Y-75955000D01*
G75*
G02*
X60070000Y-76145000I0J-190000D01*
G01*
G37*
G36*
G01*
X60070000Y-77415000D02*
X60070000Y-77795000D01*
G75*
G02*
X59880000Y-77985000I-190000J0D01*
G01*
X58610000Y-77985000D01*
G75*
G02*
X58420000Y-77795000I0J190000D01*
G01*
X58420000Y-77415000D01*
G75*
G02*
X58610000Y-77225000I190000J0D01*
G01*
X59880000Y-77225000D01*
G75*
G02*
X60070000Y-77415000I0J-190000D01*
G01*
G37*
G36*
G01*
X60070000Y-78685000D02*
X60070000Y-79065000D01*
G75*
G02*
X59880000Y-79255000I-190000J0D01*
G01*
X58610000Y-79255000D01*
G75*
G02*
X58420000Y-79065000I0J190000D01*
G01*
X58420000Y-78685000D01*
G75*
G02*
X58610000Y-78495000I190000J0D01*
G01*
X59880000Y-78495000D01*
G75*
G02*
X60070000Y-78685000I0J-190000D01*
G01*
G37*
G36*
G01*
X60070000Y-79955000D02*
X60070000Y-80335000D01*
G75*
G02*
X59880000Y-80525000I-190000J0D01*
G01*
X58610000Y-80525000D01*
G75*
G02*
X58420000Y-80335000I0J190000D01*
G01*
X58420000Y-79955000D01*
G75*
G02*
X58610000Y-79765000I190000J0D01*
G01*
X59880000Y-79765000D01*
G75*
G02*
X60070000Y-79955000I0J-190000D01*
G01*
G37*
%TD*%
%TO.C,R59*%
G36*
G01*
X93565000Y-146230000D02*
X93935000Y-146230000D01*
G75*
G02*
X94070000Y-146365000I0J-135000D01*
G01*
X94070000Y-146635000D01*
G75*
G02*
X93935000Y-146770000I-135000J0D01*
G01*
X93565000Y-146770000D01*
G75*
G02*
X93430000Y-146635000I0J135000D01*
G01*
X93430000Y-146365000D01*
G75*
G02*
X93565000Y-146230000I135000J0D01*
G01*
G37*
G36*
G01*
X93565000Y-145210000D02*
X93935000Y-145210000D01*
G75*
G02*
X94070000Y-145345000I0J-135000D01*
G01*
X94070000Y-145615000D01*
G75*
G02*
X93935000Y-145750000I-135000J0D01*
G01*
X93565000Y-145750000D01*
G75*
G02*
X93430000Y-145615000I0J135000D01*
G01*
X93430000Y-145345000D01*
G75*
G02*
X93565000Y-145210000I135000J0D01*
G01*
G37*
%TD*%
%TO.C,R58*%
G36*
G01*
X91565000Y-146240000D02*
X91935000Y-146240000D01*
G75*
G02*
X92070000Y-146375000I0J-135000D01*
G01*
X92070000Y-146645000D01*
G75*
G02*
X91935000Y-146780000I-135000J0D01*
G01*
X91565000Y-146780000D01*
G75*
G02*
X91430000Y-146645000I0J135000D01*
G01*
X91430000Y-146375000D01*
G75*
G02*
X91565000Y-146240000I135000J0D01*
G01*
G37*
G36*
G01*
X91565000Y-145220000D02*
X91935000Y-145220000D01*
G75*
G02*
X92070000Y-145355000I0J-135000D01*
G01*
X92070000Y-145625000D01*
G75*
G02*
X91935000Y-145760000I-135000J0D01*
G01*
X91565000Y-145760000D01*
G75*
G02*
X91430000Y-145625000I0J135000D01*
G01*
X91430000Y-145355000D01*
G75*
G02*
X91565000Y-145220000I135000J0D01*
G01*
G37*
%TD*%
%TO.C,R57*%
G36*
G01*
X72815000Y-105990000D02*
X73185000Y-105990000D01*
G75*
G02*
X73320000Y-106125000I0J-135000D01*
G01*
X73320000Y-106395000D01*
G75*
G02*
X73185000Y-106530000I-135000J0D01*
G01*
X72815000Y-106530000D01*
G75*
G02*
X72680000Y-106395000I0J135000D01*
G01*
X72680000Y-106125000D01*
G75*
G02*
X72815000Y-105990000I135000J0D01*
G01*
G37*
G36*
G01*
X72815000Y-104970000D02*
X73185000Y-104970000D01*
G75*
G02*
X73320000Y-105105000I0J-135000D01*
G01*
X73320000Y-105375000D01*
G75*
G02*
X73185000Y-105510000I-135000J0D01*
G01*
X72815000Y-105510000D01*
G75*
G02*
X72680000Y-105375000I0J135000D01*
G01*
X72680000Y-105105000D01*
G75*
G02*
X72815000Y-104970000I135000J0D01*
G01*
G37*
%TD*%
%TO.C,R56*%
G36*
G01*
X74510000Y-148315000D02*
X74510000Y-148685000D01*
G75*
G02*
X74375000Y-148820000I-135000J0D01*
G01*
X74105000Y-148820000D01*
G75*
G02*
X73970000Y-148685000I0J135000D01*
G01*
X73970000Y-148315000D01*
G75*
G02*
X74105000Y-148180000I135000J0D01*
G01*
X74375000Y-148180000D01*
G75*
G02*
X74510000Y-148315000I0J-135000D01*
G01*
G37*
G36*
G01*
X75530000Y-148315000D02*
X75530000Y-148685000D01*
G75*
G02*
X75395000Y-148820000I-135000J0D01*
G01*
X75125000Y-148820000D01*
G75*
G02*
X74990000Y-148685000I0J135000D01*
G01*
X74990000Y-148315000D01*
G75*
G02*
X75125000Y-148180000I135000J0D01*
G01*
X75395000Y-148180000D01*
G75*
G02*
X75530000Y-148315000I0J-135000D01*
G01*
G37*
%TD*%
%TO.C,R55*%
G36*
G01*
X70565000Y-148490000D02*
X70935000Y-148490000D01*
G75*
G02*
X71070000Y-148625000I0J-135000D01*
G01*
X71070000Y-148895000D01*
G75*
G02*
X70935000Y-149030000I-135000J0D01*
G01*
X70565000Y-149030000D01*
G75*
G02*
X70430000Y-148895000I0J135000D01*
G01*
X70430000Y-148625000D01*
G75*
G02*
X70565000Y-148490000I135000J0D01*
G01*
G37*
G36*
G01*
X70565000Y-147470000D02*
X70935000Y-147470000D01*
G75*
G02*
X71070000Y-147605000I0J-135000D01*
G01*
X71070000Y-147875000D01*
G75*
G02*
X70935000Y-148010000I-135000J0D01*
G01*
X70565000Y-148010000D01*
G75*
G02*
X70430000Y-147875000I0J135000D01*
G01*
X70430000Y-147605000D01*
G75*
G02*
X70565000Y-147470000I135000J0D01*
G01*
G37*
%TD*%
%TO.C,R54*%
G36*
G01*
X88490000Y-102415000D02*
X88490000Y-102045000D01*
G75*
G02*
X88625000Y-101910000I135000J0D01*
G01*
X88895000Y-101910000D01*
G75*
G02*
X89030000Y-102045000I0J-135000D01*
G01*
X89030000Y-102415000D01*
G75*
G02*
X88895000Y-102550000I-135000J0D01*
G01*
X88625000Y-102550000D01*
G75*
G02*
X88490000Y-102415000I0J135000D01*
G01*
G37*
G36*
G01*
X87470000Y-102415000D02*
X87470000Y-102045000D01*
G75*
G02*
X87605000Y-101910000I135000J0D01*
G01*
X87875000Y-101910000D01*
G75*
G02*
X88010000Y-102045000I0J-135000D01*
G01*
X88010000Y-102415000D01*
G75*
G02*
X87875000Y-102550000I-135000J0D01*
G01*
X87605000Y-102550000D01*
G75*
G02*
X87470000Y-102415000I0J135000D01*
G01*
G37*
%TD*%
%TO.C,R53*%
G36*
G01*
X88490000Y-112435000D02*
X88490000Y-112065000D01*
G75*
G02*
X88625000Y-111930000I135000J0D01*
G01*
X88895000Y-111930000D01*
G75*
G02*
X89030000Y-112065000I0J-135000D01*
G01*
X89030000Y-112435000D01*
G75*
G02*
X88895000Y-112570000I-135000J0D01*
G01*
X88625000Y-112570000D01*
G75*
G02*
X88490000Y-112435000I0J135000D01*
G01*
G37*
G36*
G01*
X87470000Y-112435000D02*
X87470000Y-112065000D01*
G75*
G02*
X87605000Y-111930000I135000J0D01*
G01*
X87875000Y-111930000D01*
G75*
G02*
X88010000Y-112065000I0J-135000D01*
G01*
X88010000Y-112435000D01*
G75*
G02*
X87875000Y-112570000I-135000J0D01*
G01*
X87605000Y-112570000D01*
G75*
G02*
X87470000Y-112435000I0J135000D01*
G01*
G37*
%TD*%
%TO.C,R52*%
G36*
G01*
X91490000Y-102435000D02*
X91490000Y-102065000D01*
G75*
G02*
X91625000Y-101930000I135000J0D01*
G01*
X91895000Y-101930000D01*
G75*
G02*
X92030000Y-102065000I0J-135000D01*
G01*
X92030000Y-102435000D01*
G75*
G02*
X91895000Y-102570000I-135000J0D01*
G01*
X91625000Y-102570000D01*
G75*
G02*
X91490000Y-102435000I0J135000D01*
G01*
G37*
G36*
G01*
X90470000Y-102435000D02*
X90470000Y-102065000D01*
G75*
G02*
X90605000Y-101930000I135000J0D01*
G01*
X90875000Y-101930000D01*
G75*
G02*
X91010000Y-102065000I0J-135000D01*
G01*
X91010000Y-102435000D01*
G75*
G02*
X90875000Y-102570000I-135000J0D01*
G01*
X90605000Y-102570000D01*
G75*
G02*
X90470000Y-102435000I0J135000D01*
G01*
G37*
%TD*%
%TO.C,R51*%
G36*
G01*
X91490000Y-112435000D02*
X91490000Y-112065000D01*
G75*
G02*
X91625000Y-111930000I135000J0D01*
G01*
X91895000Y-111930000D01*
G75*
G02*
X92030000Y-112065000I0J-135000D01*
G01*
X92030000Y-112435000D01*
G75*
G02*
X91895000Y-112570000I-135000J0D01*
G01*
X91625000Y-112570000D01*
G75*
G02*
X91490000Y-112435000I0J135000D01*
G01*
G37*
G36*
G01*
X90470000Y-112435000D02*
X90470000Y-112065000D01*
G75*
G02*
X90605000Y-111930000I135000J0D01*
G01*
X90875000Y-111930000D01*
G75*
G02*
X91010000Y-112065000I0J-135000D01*
G01*
X91010000Y-112435000D01*
G75*
G02*
X90875000Y-112570000I-135000J0D01*
G01*
X90605000Y-112570000D01*
G75*
G02*
X90470000Y-112435000I0J135000D01*
G01*
G37*
%TD*%
%TO.C,R50*%
G36*
G01*
X85010000Y-119315000D02*
X85010000Y-119685000D01*
G75*
G02*
X84875000Y-119820000I-135000J0D01*
G01*
X84605000Y-119820000D01*
G75*
G02*
X84470000Y-119685000I0J135000D01*
G01*
X84470000Y-119315000D01*
G75*
G02*
X84605000Y-119180000I135000J0D01*
G01*
X84875000Y-119180000D01*
G75*
G02*
X85010000Y-119315000I0J-135000D01*
G01*
G37*
G36*
G01*
X86030000Y-119315000D02*
X86030000Y-119685000D01*
G75*
G02*
X85895000Y-119820000I-135000J0D01*
G01*
X85625000Y-119820000D01*
G75*
G02*
X85490000Y-119685000I0J135000D01*
G01*
X85490000Y-119315000D01*
G75*
G02*
X85625000Y-119180000I135000J0D01*
G01*
X85895000Y-119180000D01*
G75*
G02*
X86030000Y-119315000I0J-135000D01*
G01*
G37*
%TD*%
%TO.C,R49*%
G36*
G01*
X69215000Y-106490000D02*
X69585000Y-106490000D01*
G75*
G02*
X69720000Y-106625000I0J-135000D01*
G01*
X69720000Y-106895000D01*
G75*
G02*
X69585000Y-107030000I-135000J0D01*
G01*
X69215000Y-107030000D01*
G75*
G02*
X69080000Y-106895000I0J135000D01*
G01*
X69080000Y-106625000D01*
G75*
G02*
X69215000Y-106490000I135000J0D01*
G01*
G37*
G36*
G01*
X69215000Y-105470000D02*
X69585000Y-105470000D01*
G75*
G02*
X69720000Y-105605000I0J-135000D01*
G01*
X69720000Y-105875000D01*
G75*
G02*
X69585000Y-106010000I-135000J0D01*
G01*
X69215000Y-106010000D01*
G75*
G02*
X69080000Y-105875000I0J135000D01*
G01*
X69080000Y-105605000D01*
G75*
G02*
X69215000Y-105470000I135000J0D01*
G01*
G37*
%TD*%
%TO.C,R48*%
G36*
G01*
X78760000Y-86065000D02*
X78760000Y-86435000D01*
G75*
G02*
X78625000Y-86570000I-135000J0D01*
G01*
X78355000Y-86570000D01*
G75*
G02*
X78220000Y-86435000I0J135000D01*
G01*
X78220000Y-86065000D01*
G75*
G02*
X78355000Y-85930000I135000J0D01*
G01*
X78625000Y-85930000D01*
G75*
G02*
X78760000Y-86065000I0J-135000D01*
G01*
G37*
G36*
G01*
X79780000Y-86065000D02*
X79780000Y-86435000D01*
G75*
G02*
X79645000Y-86570000I-135000J0D01*
G01*
X79375000Y-86570000D01*
G75*
G02*
X79240000Y-86435000I0J135000D01*
G01*
X79240000Y-86065000D01*
G75*
G02*
X79375000Y-85930000I135000J0D01*
G01*
X79645000Y-85930000D01*
G75*
G02*
X79780000Y-86065000I0J-135000D01*
G01*
G37*
%TD*%
%TO.C,R47*%
G36*
G01*
X68240000Y-88185000D02*
X68240000Y-87815000D01*
G75*
G02*
X68375000Y-87680000I135000J0D01*
G01*
X68645000Y-87680000D01*
G75*
G02*
X68780000Y-87815000I0J-135000D01*
G01*
X68780000Y-88185000D01*
G75*
G02*
X68645000Y-88320000I-135000J0D01*
G01*
X68375000Y-88320000D01*
G75*
G02*
X68240000Y-88185000I0J135000D01*
G01*
G37*
G36*
G01*
X67220000Y-88185000D02*
X67220000Y-87815000D01*
G75*
G02*
X67355000Y-87680000I135000J0D01*
G01*
X67625000Y-87680000D01*
G75*
G02*
X67760000Y-87815000I0J-135000D01*
G01*
X67760000Y-88185000D01*
G75*
G02*
X67625000Y-88320000I-135000J0D01*
G01*
X67355000Y-88320000D01*
G75*
G02*
X67220000Y-88185000I0J135000D01*
G01*
G37*
%TD*%
%TO.C,R44*%
G36*
G01*
X78760000Y-88815000D02*
X78760000Y-89185000D01*
G75*
G02*
X78625000Y-89320000I-135000J0D01*
G01*
X78355000Y-89320000D01*
G75*
G02*
X78220000Y-89185000I0J135000D01*
G01*
X78220000Y-88815000D01*
G75*
G02*
X78355000Y-88680000I135000J0D01*
G01*
X78625000Y-88680000D01*
G75*
G02*
X78760000Y-88815000I0J-135000D01*
G01*
G37*
G36*
G01*
X79780000Y-88815000D02*
X79780000Y-89185000D01*
G75*
G02*
X79645000Y-89320000I-135000J0D01*
G01*
X79375000Y-89320000D01*
G75*
G02*
X79240000Y-89185000I0J135000D01*
G01*
X79240000Y-88815000D01*
G75*
G02*
X79375000Y-88680000I135000J0D01*
G01*
X79645000Y-88680000D01*
G75*
G02*
X79780000Y-88815000I0J-135000D01*
G01*
G37*
%TD*%
%TO.C,R43*%
G36*
G01*
X68240000Y-90935000D02*
X68240000Y-90565000D01*
G75*
G02*
X68375000Y-90430000I135000J0D01*
G01*
X68645000Y-90430000D01*
G75*
G02*
X68780000Y-90565000I0J-135000D01*
G01*
X68780000Y-90935000D01*
G75*
G02*
X68645000Y-91070000I-135000J0D01*
G01*
X68375000Y-91070000D01*
G75*
G02*
X68240000Y-90935000I0J135000D01*
G01*
G37*
G36*
G01*
X67220000Y-90935000D02*
X67220000Y-90565000D01*
G75*
G02*
X67355000Y-90430000I135000J0D01*
G01*
X67625000Y-90430000D01*
G75*
G02*
X67760000Y-90565000I0J-135000D01*
G01*
X67760000Y-90935000D01*
G75*
G02*
X67625000Y-91070000I-135000J0D01*
G01*
X67355000Y-91070000D01*
G75*
G02*
X67220000Y-90935000I0J135000D01*
G01*
G37*
%TD*%
%TO.C,R39*%
G36*
G01*
X78760000Y-91315000D02*
X78760000Y-91685000D01*
G75*
G02*
X78625000Y-91820000I-135000J0D01*
G01*
X78355000Y-91820000D01*
G75*
G02*
X78220000Y-91685000I0J135000D01*
G01*
X78220000Y-91315000D01*
G75*
G02*
X78355000Y-91180000I135000J0D01*
G01*
X78625000Y-91180000D01*
G75*
G02*
X78760000Y-91315000I0J-135000D01*
G01*
G37*
G36*
G01*
X79780000Y-91315000D02*
X79780000Y-91685000D01*
G75*
G02*
X79645000Y-91820000I-135000J0D01*
G01*
X79375000Y-91820000D01*
G75*
G02*
X79240000Y-91685000I0J135000D01*
G01*
X79240000Y-91315000D01*
G75*
G02*
X79375000Y-91180000I135000J0D01*
G01*
X79645000Y-91180000D01*
G75*
G02*
X79780000Y-91315000I0J-135000D01*
G01*
G37*
%TD*%
%TO.C,R38*%
G36*
G01*
X68230000Y-93685000D02*
X68230000Y-93315000D01*
G75*
G02*
X68365000Y-93180000I135000J0D01*
G01*
X68635000Y-93180000D01*
G75*
G02*
X68770000Y-93315000I0J-135000D01*
G01*
X68770000Y-93685000D01*
G75*
G02*
X68635000Y-93820000I-135000J0D01*
G01*
X68365000Y-93820000D01*
G75*
G02*
X68230000Y-93685000I0J135000D01*
G01*
G37*
G36*
G01*
X67210000Y-93685000D02*
X67210000Y-93315000D01*
G75*
G02*
X67345000Y-93180000I135000J0D01*
G01*
X67615000Y-93180000D01*
G75*
G02*
X67750000Y-93315000I0J-135000D01*
G01*
X67750000Y-93685000D01*
G75*
G02*
X67615000Y-93820000I-135000J0D01*
G01*
X67345000Y-93820000D01*
G75*
G02*
X67210000Y-93685000I0J135000D01*
G01*
G37*
%TD*%
%TO.C,R35*%
G36*
G01*
X59815000Y-84590000D02*
X60185000Y-84590000D01*
G75*
G02*
X60320000Y-84725000I0J-135000D01*
G01*
X60320000Y-84995000D01*
G75*
G02*
X60185000Y-85130000I-135000J0D01*
G01*
X59815000Y-85130000D01*
G75*
G02*
X59680000Y-84995000I0J135000D01*
G01*
X59680000Y-84725000D01*
G75*
G02*
X59815000Y-84590000I135000J0D01*
G01*
G37*
G36*
G01*
X59815000Y-83570000D02*
X60185000Y-83570000D01*
G75*
G02*
X60320000Y-83705000I0J-135000D01*
G01*
X60320000Y-83975000D01*
G75*
G02*
X60185000Y-84110000I-135000J0D01*
G01*
X59815000Y-84110000D01*
G75*
G02*
X59680000Y-83975000I0J135000D01*
G01*
X59680000Y-83705000D01*
G75*
G02*
X59815000Y-83570000I135000J0D01*
G01*
G37*
%TD*%
%TO.C,R34*%
G36*
G01*
X60815000Y-84590000D02*
X61185000Y-84590000D01*
G75*
G02*
X61320000Y-84725000I0J-135000D01*
G01*
X61320000Y-84995000D01*
G75*
G02*
X61185000Y-85130000I-135000J0D01*
G01*
X60815000Y-85130000D01*
G75*
G02*
X60680000Y-84995000I0J135000D01*
G01*
X60680000Y-84725000D01*
G75*
G02*
X60815000Y-84590000I135000J0D01*
G01*
G37*
G36*
G01*
X60815000Y-83570000D02*
X61185000Y-83570000D01*
G75*
G02*
X61320000Y-83705000I0J-135000D01*
G01*
X61320000Y-83975000D01*
G75*
G02*
X61185000Y-84110000I-135000J0D01*
G01*
X60815000Y-84110000D01*
G75*
G02*
X60680000Y-83975000I0J135000D01*
G01*
X60680000Y-83705000D01*
G75*
G02*
X60815000Y-83570000I135000J0D01*
G01*
G37*
%TD*%
%TO.C,R30*%
G36*
G01*
X92030000Y-78315000D02*
X92030000Y-78685000D01*
G75*
G02*
X91895000Y-78820000I-135000J0D01*
G01*
X91625000Y-78820000D01*
G75*
G02*
X91490000Y-78685000I0J135000D01*
G01*
X91490000Y-78315000D01*
G75*
G02*
X91625000Y-78180000I135000J0D01*
G01*
X91895000Y-78180000D01*
G75*
G02*
X92030000Y-78315000I0J-135000D01*
G01*
G37*
G36*
G01*
X91010000Y-78315000D02*
X91010000Y-78685000D01*
G75*
G02*
X90875000Y-78820000I-135000J0D01*
G01*
X90605000Y-78820000D01*
G75*
G02*
X90470000Y-78685000I0J135000D01*
G01*
X90470000Y-78315000D01*
G75*
G02*
X90605000Y-78180000I135000J0D01*
G01*
X90875000Y-78180000D01*
G75*
G02*
X91010000Y-78315000I0J-135000D01*
G01*
G37*
%TD*%
%TO.C,R29*%
G36*
G01*
X77740000Y-83435000D02*
X77740000Y-83065000D01*
G75*
G02*
X77875000Y-82930000I135000J0D01*
G01*
X78145000Y-82930000D01*
G75*
G02*
X78280000Y-83065000I0J-135000D01*
G01*
X78280000Y-83435000D01*
G75*
G02*
X78145000Y-83570000I-135000J0D01*
G01*
X77875000Y-83570000D01*
G75*
G02*
X77740000Y-83435000I0J135000D01*
G01*
G37*
G36*
G01*
X76720000Y-83435000D02*
X76720000Y-83065000D01*
G75*
G02*
X76855000Y-82930000I135000J0D01*
G01*
X77125000Y-82930000D01*
G75*
G02*
X77260000Y-83065000I0J-135000D01*
G01*
X77260000Y-83435000D01*
G75*
G02*
X77125000Y-83570000I-135000J0D01*
G01*
X76855000Y-83570000D01*
G75*
G02*
X76720000Y-83435000I0J135000D01*
G01*
G37*
%TD*%
%TO.C,R28*%
G36*
G01*
X79740000Y-83435000D02*
X79740000Y-83065000D01*
G75*
G02*
X79875000Y-82930000I135000J0D01*
G01*
X80145000Y-82930000D01*
G75*
G02*
X80280000Y-83065000I0J-135000D01*
G01*
X80280000Y-83435000D01*
G75*
G02*
X80145000Y-83570000I-135000J0D01*
G01*
X79875000Y-83570000D01*
G75*
G02*
X79740000Y-83435000I0J135000D01*
G01*
G37*
G36*
G01*
X78720000Y-83435000D02*
X78720000Y-83065000D01*
G75*
G02*
X78855000Y-82930000I135000J0D01*
G01*
X79125000Y-82930000D01*
G75*
G02*
X79260000Y-83065000I0J-135000D01*
G01*
X79260000Y-83435000D01*
G75*
G02*
X79125000Y-83570000I-135000J0D01*
G01*
X78855000Y-83570000D01*
G75*
G02*
X78720000Y-83435000I0J135000D01*
G01*
G37*
%TD*%
%TO.C,R27*%
G36*
G01*
X80185000Y-81510000D02*
X79815000Y-81510000D01*
G75*
G02*
X79680000Y-81375000I0J135000D01*
G01*
X79680000Y-81105000D01*
G75*
G02*
X79815000Y-80970000I135000J0D01*
G01*
X80185000Y-80970000D01*
G75*
G02*
X80320000Y-81105000I0J-135000D01*
G01*
X80320000Y-81375000D01*
G75*
G02*
X80185000Y-81510000I-135000J0D01*
G01*
G37*
G36*
G01*
X80185000Y-82530000D02*
X79815000Y-82530000D01*
G75*
G02*
X79680000Y-82395000I0J135000D01*
G01*
X79680000Y-82125000D01*
G75*
G02*
X79815000Y-81990000I135000J0D01*
G01*
X80185000Y-81990000D01*
G75*
G02*
X80320000Y-82125000I0J-135000D01*
G01*
X80320000Y-82395000D01*
G75*
G02*
X80185000Y-82530000I-135000J0D01*
G01*
G37*
%TD*%
%TO.C,R26*%
G36*
G01*
X77990000Y-72935000D02*
X77990000Y-72565000D01*
G75*
G02*
X78125000Y-72430000I135000J0D01*
G01*
X78395000Y-72430000D01*
G75*
G02*
X78530000Y-72565000I0J-135000D01*
G01*
X78530000Y-72935000D01*
G75*
G02*
X78395000Y-73070000I-135000J0D01*
G01*
X78125000Y-73070000D01*
G75*
G02*
X77990000Y-72935000I0J135000D01*
G01*
G37*
G36*
G01*
X76970000Y-72935000D02*
X76970000Y-72565000D01*
G75*
G02*
X77105000Y-72430000I135000J0D01*
G01*
X77375000Y-72430000D01*
G75*
G02*
X77510000Y-72565000I0J-135000D01*
G01*
X77510000Y-72935000D01*
G75*
G02*
X77375000Y-73070000I-135000J0D01*
G01*
X77105000Y-73070000D01*
G75*
G02*
X76970000Y-72935000I0J135000D01*
G01*
G37*
%TD*%
%TO.C,R25*%
G36*
G01*
X78530000Y-73815000D02*
X78530000Y-74185000D01*
G75*
G02*
X78395000Y-74320000I-135000J0D01*
G01*
X78125000Y-74320000D01*
G75*
G02*
X77990000Y-74185000I0J135000D01*
G01*
X77990000Y-73815000D01*
G75*
G02*
X78125000Y-73680000I135000J0D01*
G01*
X78395000Y-73680000D01*
G75*
G02*
X78530000Y-73815000I0J-135000D01*
G01*
G37*
G36*
G01*
X77510000Y-73815000D02*
X77510000Y-74185000D01*
G75*
G02*
X77375000Y-74320000I-135000J0D01*
G01*
X77105000Y-74320000D01*
G75*
G02*
X76970000Y-74185000I0J135000D01*
G01*
X76970000Y-73815000D01*
G75*
G02*
X77105000Y-73680000I135000J0D01*
G01*
X77375000Y-73680000D01*
G75*
G02*
X77510000Y-73815000I0J-135000D01*
G01*
G37*
%TD*%
%TO.C,R24*%
G36*
G01*
X77990000Y-75435000D02*
X77990000Y-75065000D01*
G75*
G02*
X78125000Y-74930000I135000J0D01*
G01*
X78395000Y-74930000D01*
G75*
G02*
X78530000Y-75065000I0J-135000D01*
G01*
X78530000Y-75435000D01*
G75*
G02*
X78395000Y-75570000I-135000J0D01*
G01*
X78125000Y-75570000D01*
G75*
G02*
X77990000Y-75435000I0J135000D01*
G01*
G37*
G36*
G01*
X76970000Y-75435000D02*
X76970000Y-75065000D01*
G75*
G02*
X77105000Y-74930000I135000J0D01*
G01*
X77375000Y-74930000D01*
G75*
G02*
X77510000Y-75065000I0J-135000D01*
G01*
X77510000Y-75435000D01*
G75*
G02*
X77375000Y-75570000I-135000J0D01*
G01*
X77105000Y-75570000D01*
G75*
G02*
X76970000Y-75435000I0J135000D01*
G01*
G37*
%TD*%
%TO.C,R23*%
G36*
G01*
X77510000Y-76315000D02*
X77510000Y-76685000D01*
G75*
G02*
X77375000Y-76820000I-135000J0D01*
G01*
X77105000Y-76820000D01*
G75*
G02*
X76970000Y-76685000I0J135000D01*
G01*
X76970000Y-76315000D01*
G75*
G02*
X77105000Y-76180000I135000J0D01*
G01*
X77375000Y-76180000D01*
G75*
G02*
X77510000Y-76315000I0J-135000D01*
G01*
G37*
G36*
G01*
X78530000Y-76315000D02*
X78530000Y-76685000D01*
G75*
G02*
X78395000Y-76820000I-135000J0D01*
G01*
X78125000Y-76820000D01*
G75*
G02*
X77990000Y-76685000I0J135000D01*
G01*
X77990000Y-76315000D01*
G75*
G02*
X78125000Y-76180000I135000J0D01*
G01*
X78395000Y-76180000D01*
G75*
G02*
X78530000Y-76315000I0J-135000D01*
G01*
G37*
%TD*%
%TO.C,R22*%
G36*
G01*
X77990000Y-80685000D02*
X77990000Y-80315000D01*
G75*
G02*
X78125000Y-80180000I135000J0D01*
G01*
X78395000Y-80180000D01*
G75*
G02*
X78530000Y-80315000I0J-135000D01*
G01*
X78530000Y-80685000D01*
G75*
G02*
X78395000Y-80820000I-135000J0D01*
G01*
X78125000Y-80820000D01*
G75*
G02*
X77990000Y-80685000I0J135000D01*
G01*
G37*
G36*
G01*
X76970000Y-80685000D02*
X76970000Y-80315000D01*
G75*
G02*
X77105000Y-80180000I135000J0D01*
G01*
X77375000Y-80180000D01*
G75*
G02*
X77510000Y-80315000I0J-135000D01*
G01*
X77510000Y-80685000D01*
G75*
G02*
X77375000Y-80820000I-135000J0D01*
G01*
X77105000Y-80820000D01*
G75*
G02*
X76970000Y-80685000I0J135000D01*
G01*
G37*
%TD*%
%TO.C,R21*%
G36*
G01*
X77990000Y-81685000D02*
X77990000Y-81315000D01*
G75*
G02*
X78125000Y-81180000I135000J0D01*
G01*
X78395000Y-81180000D01*
G75*
G02*
X78530000Y-81315000I0J-135000D01*
G01*
X78530000Y-81685000D01*
G75*
G02*
X78395000Y-81820000I-135000J0D01*
G01*
X78125000Y-81820000D01*
G75*
G02*
X77990000Y-81685000I0J135000D01*
G01*
G37*
G36*
G01*
X76970000Y-81685000D02*
X76970000Y-81315000D01*
G75*
G02*
X77105000Y-81180000I135000J0D01*
G01*
X77375000Y-81180000D01*
G75*
G02*
X77510000Y-81315000I0J-135000D01*
G01*
X77510000Y-81685000D01*
G75*
G02*
X77375000Y-81820000I-135000J0D01*
G01*
X77105000Y-81820000D01*
G75*
G02*
X76970000Y-81685000I0J135000D01*
G01*
G37*
%TD*%
%TO.C,R20*%
G36*
G01*
X86315000Y-83740000D02*
X86685000Y-83740000D01*
G75*
G02*
X86820000Y-83875000I0J-135000D01*
G01*
X86820000Y-84145000D01*
G75*
G02*
X86685000Y-84280000I-135000J0D01*
G01*
X86315000Y-84280000D01*
G75*
G02*
X86180000Y-84145000I0J135000D01*
G01*
X86180000Y-83875000D01*
G75*
G02*
X86315000Y-83740000I135000J0D01*
G01*
G37*
G36*
G01*
X86315000Y-82720000D02*
X86685000Y-82720000D01*
G75*
G02*
X86820000Y-82855000I0J-135000D01*
G01*
X86820000Y-83125000D01*
G75*
G02*
X86685000Y-83260000I-135000J0D01*
G01*
X86315000Y-83260000D01*
G75*
G02*
X86180000Y-83125000I0J135000D01*
G01*
X86180000Y-82855000D01*
G75*
G02*
X86315000Y-82720000I135000J0D01*
G01*
G37*
%TD*%
%TO.C,R19*%
G36*
G01*
X82315000Y-83740000D02*
X82685000Y-83740000D01*
G75*
G02*
X82820000Y-83875000I0J-135000D01*
G01*
X82820000Y-84145000D01*
G75*
G02*
X82685000Y-84280000I-135000J0D01*
G01*
X82315000Y-84280000D01*
G75*
G02*
X82180000Y-84145000I0J135000D01*
G01*
X82180000Y-83875000D01*
G75*
G02*
X82315000Y-83740000I135000J0D01*
G01*
G37*
G36*
G01*
X82315000Y-82720000D02*
X82685000Y-82720000D01*
G75*
G02*
X82820000Y-82855000I0J-135000D01*
G01*
X82820000Y-83125000D01*
G75*
G02*
X82685000Y-83260000I-135000J0D01*
G01*
X82315000Y-83260000D01*
G75*
G02*
X82180000Y-83125000I0J135000D01*
G01*
X82180000Y-82855000D01*
G75*
G02*
X82315000Y-82720000I135000J0D01*
G01*
G37*
%TD*%
%TO.C,R18*%
G36*
G01*
X91490000Y-77685000D02*
X91490000Y-77315000D01*
G75*
G02*
X91625000Y-77180000I135000J0D01*
G01*
X91895000Y-77180000D01*
G75*
G02*
X92030000Y-77315000I0J-135000D01*
G01*
X92030000Y-77685000D01*
G75*
G02*
X91895000Y-77820000I-135000J0D01*
G01*
X91625000Y-77820000D01*
G75*
G02*
X91490000Y-77685000I0J135000D01*
G01*
G37*
G36*
G01*
X90470000Y-77685000D02*
X90470000Y-77315000D01*
G75*
G02*
X90605000Y-77180000I135000J0D01*
G01*
X90875000Y-77180000D01*
G75*
G02*
X91010000Y-77315000I0J-135000D01*
G01*
X91010000Y-77685000D01*
G75*
G02*
X90875000Y-77820000I-135000J0D01*
G01*
X90605000Y-77820000D01*
G75*
G02*
X90470000Y-77685000I0J135000D01*
G01*
G37*
%TD*%
%TO.C,R12*%
G36*
G01*
X91490000Y-75685000D02*
X91490000Y-75315000D01*
G75*
G02*
X91625000Y-75180000I135000J0D01*
G01*
X91895000Y-75180000D01*
G75*
G02*
X92030000Y-75315000I0J-135000D01*
G01*
X92030000Y-75685000D01*
G75*
G02*
X91895000Y-75820000I-135000J0D01*
G01*
X91625000Y-75820000D01*
G75*
G02*
X91490000Y-75685000I0J135000D01*
G01*
G37*
G36*
G01*
X90470000Y-75685000D02*
X90470000Y-75315000D01*
G75*
G02*
X90605000Y-75180000I135000J0D01*
G01*
X90875000Y-75180000D01*
G75*
G02*
X91010000Y-75315000I0J-135000D01*
G01*
X91010000Y-75685000D01*
G75*
G02*
X90875000Y-75820000I-135000J0D01*
G01*
X90605000Y-75820000D01*
G75*
G02*
X90470000Y-75685000I0J135000D01*
G01*
G37*
%TD*%
%TO.C,R11*%
G36*
G01*
X91490000Y-76685000D02*
X91490000Y-76315000D01*
G75*
G02*
X91625000Y-76180000I135000J0D01*
G01*
X91895000Y-76180000D01*
G75*
G02*
X92030000Y-76315000I0J-135000D01*
G01*
X92030000Y-76685000D01*
G75*
G02*
X91895000Y-76820000I-135000J0D01*
G01*
X91625000Y-76820000D01*
G75*
G02*
X91490000Y-76685000I0J135000D01*
G01*
G37*
G36*
G01*
X90470000Y-76685000D02*
X90470000Y-76315000D01*
G75*
G02*
X90605000Y-76180000I135000J0D01*
G01*
X90875000Y-76180000D01*
G75*
G02*
X91010000Y-76315000I0J-135000D01*
G01*
X91010000Y-76685000D01*
G75*
G02*
X90875000Y-76820000I-135000J0D01*
G01*
X90605000Y-76820000D01*
G75*
G02*
X90470000Y-76685000I0J135000D01*
G01*
G37*
%TD*%
%TO.C,R10*%
G36*
G01*
X87685000Y-69760000D02*
X87315000Y-69760000D01*
G75*
G02*
X87180000Y-69625000I0J135000D01*
G01*
X87180000Y-69355000D01*
G75*
G02*
X87315000Y-69220000I135000J0D01*
G01*
X87685000Y-69220000D01*
G75*
G02*
X87820000Y-69355000I0J-135000D01*
G01*
X87820000Y-69625000D01*
G75*
G02*
X87685000Y-69760000I-135000J0D01*
G01*
G37*
G36*
G01*
X87685000Y-70780000D02*
X87315000Y-70780000D01*
G75*
G02*
X87180000Y-70645000I0J135000D01*
G01*
X87180000Y-70375000D01*
G75*
G02*
X87315000Y-70240000I135000J0D01*
G01*
X87685000Y-70240000D01*
G75*
G02*
X87820000Y-70375000I0J-135000D01*
G01*
X87820000Y-70645000D01*
G75*
G02*
X87685000Y-70780000I-135000J0D01*
G01*
G37*
%TD*%
%TO.C,R6*%
G36*
G01*
X85685000Y-69750000D02*
X85315000Y-69750000D01*
G75*
G02*
X85180000Y-69615000I0J135000D01*
G01*
X85180000Y-69345000D01*
G75*
G02*
X85315000Y-69210000I135000J0D01*
G01*
X85685000Y-69210000D01*
G75*
G02*
X85820000Y-69345000I0J-135000D01*
G01*
X85820000Y-69615000D01*
G75*
G02*
X85685000Y-69750000I-135000J0D01*
G01*
G37*
G36*
G01*
X85685000Y-70770000D02*
X85315000Y-70770000D01*
G75*
G02*
X85180000Y-70635000I0J135000D01*
G01*
X85180000Y-70365000D01*
G75*
G02*
X85315000Y-70230000I135000J0D01*
G01*
X85685000Y-70230000D01*
G75*
G02*
X85820000Y-70365000I0J-135000D01*
G01*
X85820000Y-70635000D01*
G75*
G02*
X85685000Y-70770000I-135000J0D01*
G01*
G37*
%TD*%
%TO.C,R5*%
G36*
G01*
X86685000Y-69760000D02*
X86315000Y-69760000D01*
G75*
G02*
X86180000Y-69625000I0J135000D01*
G01*
X86180000Y-69355000D01*
G75*
G02*
X86315000Y-69220000I135000J0D01*
G01*
X86685000Y-69220000D01*
G75*
G02*
X86820000Y-69355000I0J-135000D01*
G01*
X86820000Y-69625000D01*
G75*
G02*
X86685000Y-69760000I-135000J0D01*
G01*
G37*
G36*
G01*
X86685000Y-70780000D02*
X86315000Y-70780000D01*
G75*
G02*
X86180000Y-70645000I0J135000D01*
G01*
X86180000Y-70375000D01*
G75*
G02*
X86315000Y-70240000I135000J0D01*
G01*
X86685000Y-70240000D01*
G75*
G02*
X86820000Y-70375000I0J-135000D01*
G01*
X86820000Y-70645000D01*
G75*
G02*
X86685000Y-70780000I-135000J0D01*
G01*
G37*
%TD*%
%TO.C,R4*%
G36*
G01*
X82740000Y-95185000D02*
X82740000Y-94815000D01*
G75*
G02*
X82875000Y-94680000I135000J0D01*
G01*
X83145000Y-94680000D01*
G75*
G02*
X83280000Y-94815000I0J-135000D01*
G01*
X83280000Y-95185000D01*
G75*
G02*
X83145000Y-95320000I-135000J0D01*
G01*
X82875000Y-95320000D01*
G75*
G02*
X82740000Y-95185000I0J135000D01*
G01*
G37*
G36*
G01*
X81720000Y-95185000D02*
X81720000Y-94815000D01*
G75*
G02*
X81855000Y-94680000I135000J0D01*
G01*
X82125000Y-94680000D01*
G75*
G02*
X82260000Y-94815000I0J-135000D01*
G01*
X82260000Y-95185000D01*
G75*
G02*
X82125000Y-95320000I-135000J0D01*
G01*
X81855000Y-95320000D01*
G75*
G02*
X81720000Y-95185000I0J135000D01*
G01*
G37*
%TD*%
%TO.C,R2*%
G36*
G01*
X61935000Y-133010000D02*
X61565000Y-133010000D01*
G75*
G02*
X61430000Y-132875000I0J135000D01*
G01*
X61430000Y-132605000D01*
G75*
G02*
X61565000Y-132470000I135000J0D01*
G01*
X61935000Y-132470000D01*
G75*
G02*
X62070000Y-132605000I0J-135000D01*
G01*
X62070000Y-132875000D01*
G75*
G02*
X61935000Y-133010000I-135000J0D01*
G01*
G37*
G36*
G01*
X61935000Y-134030000D02*
X61565000Y-134030000D01*
G75*
G02*
X61430000Y-133895000I0J135000D01*
G01*
X61430000Y-133625000D01*
G75*
G02*
X61565000Y-133490000I135000J0D01*
G01*
X61935000Y-133490000D01*
G75*
G02*
X62070000Y-133625000I0J-135000D01*
G01*
X62070000Y-133895000D01*
G75*
G02*
X61935000Y-134030000I-135000J0D01*
G01*
G37*
%TD*%
D18*
%TO.C,Q3*%
X65250000Y-136750000D03*
X63250000Y-137700000D03*
X63250000Y-135800000D03*
%TD*%
D19*
%TO.C,Q2*%
X64250000Y-132000000D03*
X65200000Y-134000000D03*
X63300000Y-134000000D03*
%TD*%
%TO.C,Q1*%
X60500000Y-135750000D03*
X61450000Y-137750000D03*
X59550000Y-137750000D03*
%TD*%
%TO.C,L2*%
G36*
G01*
X69375000Y-145631250D02*
X69375000Y-144868750D01*
G75*
G02*
X69593750Y-144650000I218750J0D01*
G01*
X70031250Y-144650000D01*
G75*
G02*
X70250000Y-144868750I0J-218750D01*
G01*
X70250000Y-145631250D01*
G75*
G02*
X70031250Y-145850000I-218750J0D01*
G01*
X69593750Y-145850000D01*
G75*
G02*
X69375000Y-145631250I0J218750D01*
G01*
G37*
G36*
G01*
X67250000Y-145631250D02*
X67250000Y-144868750D01*
G75*
G02*
X67468750Y-144650000I218750J0D01*
G01*
X67906250Y-144650000D01*
G75*
G02*
X68125000Y-144868750I0J-218750D01*
G01*
X68125000Y-145631250D01*
G75*
G02*
X67906250Y-145850000I-218750J0D01*
G01*
X67468750Y-145850000D01*
G75*
G02*
X67250000Y-145631250I0J218750D01*
G01*
G37*
%TD*%
%TO.C,L1*%
G36*
G01*
X65618750Y-106075000D02*
X66381250Y-106075000D01*
G75*
G02*
X66600000Y-106293750I0J-218750D01*
G01*
X66600000Y-106731250D01*
G75*
G02*
X66381250Y-106950000I-218750J0D01*
G01*
X65618750Y-106950000D01*
G75*
G02*
X65400000Y-106731250I0J218750D01*
G01*
X65400000Y-106293750D01*
G75*
G02*
X65618750Y-106075000I218750J0D01*
G01*
G37*
G36*
G01*
X65618750Y-103950000D02*
X66381250Y-103950000D01*
G75*
G02*
X66600000Y-104168750I0J-218750D01*
G01*
X66600000Y-104606250D01*
G75*
G02*
X66381250Y-104825000I-218750J0D01*
G01*
X65618750Y-104825000D01*
G75*
G02*
X65400000Y-104606250I0J218750D01*
G01*
X65400000Y-104168750D01*
G75*
G02*
X65618750Y-103950000I218750J0D01*
G01*
G37*
%TD*%
%TO.C,F1*%
G36*
G01*
X67350000Y-142425000D02*
X70150000Y-142425000D01*
G75*
G02*
X70400000Y-142675000I0J-250000D01*
G01*
X70400000Y-143650000D01*
G75*
G02*
X70150000Y-143900000I-250000J0D01*
G01*
X67350000Y-143900000D01*
G75*
G02*
X67100000Y-143650000I0J250000D01*
G01*
X67100000Y-142675000D01*
G75*
G02*
X67350000Y-142425000I250000J0D01*
G01*
G37*
G36*
G01*
X67350000Y-138100000D02*
X70150000Y-138100000D01*
G75*
G02*
X70400000Y-138350000I0J-250000D01*
G01*
X70400000Y-139325000D01*
G75*
G02*
X70150000Y-139575000I-250000J0D01*
G01*
X67350000Y-139575000D01*
G75*
G02*
X67100000Y-139325000I0J250000D01*
G01*
X67100000Y-138350000D01*
G75*
G02*
X67350000Y-138100000I250000J0D01*
G01*
G37*
%TD*%
%TO.C,D4*%
G36*
G01*
X88350000Y-119756250D02*
X88350000Y-119243750D01*
G75*
G02*
X88568750Y-119025000I218750J0D01*
G01*
X89006250Y-119025000D01*
G75*
G02*
X89225000Y-119243750I0J-218750D01*
G01*
X89225000Y-119756250D01*
G75*
G02*
X89006250Y-119975000I-218750J0D01*
G01*
X88568750Y-119975000D01*
G75*
G02*
X88350000Y-119756250I0J218750D01*
G01*
G37*
G36*
G01*
X86775000Y-119756250D02*
X86775000Y-119243750D01*
G75*
G02*
X86993750Y-119025000I218750J0D01*
G01*
X87431250Y-119025000D01*
G75*
G02*
X87650000Y-119243750I0J-218750D01*
G01*
X87650000Y-119756250D01*
G75*
G02*
X87431250Y-119975000I-218750J0D01*
G01*
X86993750Y-119975000D01*
G75*
G02*
X86775000Y-119756250I0J218750D01*
G01*
G37*
%TD*%
%TO.C,D3*%
G36*
G01*
X52150000Y-61243750D02*
X52150000Y-61756250D01*
G75*
G02*
X51931250Y-61975000I-218750J0D01*
G01*
X51493750Y-61975000D01*
G75*
G02*
X51275000Y-61756250I0J218750D01*
G01*
X51275000Y-61243750D01*
G75*
G02*
X51493750Y-61025000I218750J0D01*
G01*
X51931250Y-61025000D01*
G75*
G02*
X52150000Y-61243750I0J-218750D01*
G01*
G37*
G36*
G01*
X53725000Y-61243750D02*
X53725000Y-61756250D01*
G75*
G02*
X53506250Y-61975000I-218750J0D01*
G01*
X53068750Y-61975000D01*
G75*
G02*
X52850000Y-61756250I0J218750D01*
G01*
X52850000Y-61243750D01*
G75*
G02*
X53068750Y-61025000I218750J0D01*
G01*
X53506250Y-61025000D01*
G75*
G02*
X53725000Y-61243750I0J-218750D01*
G01*
G37*
%TD*%
%TO.C,D2*%
G36*
G01*
X76006250Y-143900000D02*
X75493750Y-143900000D01*
G75*
G02*
X75275000Y-143681250I0J218750D01*
G01*
X75275000Y-143243750D01*
G75*
G02*
X75493750Y-143025000I218750J0D01*
G01*
X76006250Y-143025000D01*
G75*
G02*
X76225000Y-143243750I0J-218750D01*
G01*
X76225000Y-143681250D01*
G75*
G02*
X76006250Y-143900000I-218750J0D01*
G01*
G37*
G36*
G01*
X76006250Y-145475000D02*
X75493750Y-145475000D01*
G75*
G02*
X75275000Y-145256250I0J218750D01*
G01*
X75275000Y-144818750D01*
G75*
G02*
X75493750Y-144600000I218750J0D01*
G01*
X76006250Y-144600000D01*
G75*
G02*
X76225000Y-144818750I0J-218750D01*
G01*
X76225000Y-145256250D01*
G75*
G02*
X76006250Y-145475000I-218750J0D01*
G01*
G37*
%TD*%
%TO.C,D1*%
G36*
G01*
X47243750Y-145850000D02*
X47756250Y-145850000D01*
G75*
G02*
X47975000Y-146068750I0J-218750D01*
G01*
X47975000Y-146506250D01*
G75*
G02*
X47756250Y-146725000I-218750J0D01*
G01*
X47243750Y-146725000D01*
G75*
G02*
X47025000Y-146506250I0J218750D01*
G01*
X47025000Y-146068750D01*
G75*
G02*
X47243750Y-145850000I218750J0D01*
G01*
G37*
G36*
G01*
X47243750Y-144275000D02*
X47756250Y-144275000D01*
G75*
G02*
X47975000Y-144493750I0J-218750D01*
G01*
X47975000Y-144931250D01*
G75*
G02*
X47756250Y-145150000I-218750J0D01*
G01*
X47243750Y-145150000D01*
G75*
G02*
X47025000Y-144931250I0J218750D01*
G01*
X47025000Y-144493750D01*
G75*
G02*
X47243750Y-144275000I218750J0D01*
G01*
G37*
%TD*%
%TO.C,C32*%
G36*
G01*
X71920000Y-102550000D02*
X71580000Y-102550000D01*
G75*
G02*
X71440000Y-102410000I0J140000D01*
G01*
X71440000Y-102130000D01*
G75*
G02*
X71580000Y-101990000I140000J0D01*
G01*
X71920000Y-101990000D01*
G75*
G02*
X72060000Y-102130000I0J-140000D01*
G01*
X72060000Y-102410000D01*
G75*
G02*
X71920000Y-102550000I-140000J0D01*
G01*
G37*
G36*
G01*
X71920000Y-103510000D02*
X71580000Y-103510000D01*
G75*
G02*
X71440000Y-103370000I0J140000D01*
G01*
X71440000Y-103090000D01*
G75*
G02*
X71580000Y-102950000I140000J0D01*
G01*
X71920000Y-102950000D01*
G75*
G02*
X72060000Y-103090000I0J-140000D01*
G01*
X72060000Y-103370000D01*
G75*
G02*
X71920000Y-103510000I-140000J0D01*
G01*
G37*
%TD*%
%TO.C,C31*%
G36*
G01*
X77420000Y-102550000D02*
X77080000Y-102550000D01*
G75*
G02*
X76940000Y-102410000I0J140000D01*
G01*
X76940000Y-102130000D01*
G75*
G02*
X77080000Y-101990000I140000J0D01*
G01*
X77420000Y-101990000D01*
G75*
G02*
X77560000Y-102130000I0J-140000D01*
G01*
X77560000Y-102410000D01*
G75*
G02*
X77420000Y-102550000I-140000J0D01*
G01*
G37*
G36*
G01*
X77420000Y-103510000D02*
X77080000Y-103510000D01*
G75*
G02*
X76940000Y-103370000I0J140000D01*
G01*
X76940000Y-103090000D01*
G75*
G02*
X77080000Y-102950000I140000J0D01*
G01*
X77420000Y-102950000D01*
G75*
G02*
X77560000Y-103090000I0J-140000D01*
G01*
X77560000Y-103370000D01*
G75*
G02*
X77420000Y-103510000I-140000J0D01*
G01*
G37*
%TD*%
%TO.C,C30*%
G36*
G01*
X68570000Y-106050000D02*
X68230000Y-106050000D01*
G75*
G02*
X68090000Y-105910000I0J140000D01*
G01*
X68090000Y-105630000D01*
G75*
G02*
X68230000Y-105490000I140000J0D01*
G01*
X68570000Y-105490000D01*
G75*
G02*
X68710000Y-105630000I0J-140000D01*
G01*
X68710000Y-105910000D01*
G75*
G02*
X68570000Y-106050000I-140000J0D01*
G01*
G37*
G36*
G01*
X68570000Y-107010000D02*
X68230000Y-107010000D01*
G75*
G02*
X68090000Y-106870000I0J140000D01*
G01*
X68090000Y-106590000D01*
G75*
G02*
X68230000Y-106450000I140000J0D01*
G01*
X68570000Y-106450000D01*
G75*
G02*
X68710000Y-106590000I0J-140000D01*
G01*
X68710000Y-106870000D01*
G75*
G02*
X68570000Y-107010000I-140000J0D01*
G01*
G37*
%TD*%
%TO.C,C29*%
G36*
G01*
X67570000Y-106050000D02*
X67230000Y-106050000D01*
G75*
G02*
X67090000Y-105910000I0J140000D01*
G01*
X67090000Y-105630000D01*
G75*
G02*
X67230000Y-105490000I140000J0D01*
G01*
X67570000Y-105490000D01*
G75*
G02*
X67710000Y-105630000I0J-140000D01*
G01*
X67710000Y-105910000D01*
G75*
G02*
X67570000Y-106050000I-140000J0D01*
G01*
G37*
G36*
G01*
X67570000Y-107010000D02*
X67230000Y-107010000D01*
G75*
G02*
X67090000Y-106870000I0J140000D01*
G01*
X67090000Y-106590000D01*
G75*
G02*
X67230000Y-106450000I140000J0D01*
G01*
X67570000Y-106450000D01*
G75*
G02*
X67710000Y-106590000I0J-140000D01*
G01*
X67710000Y-106870000D01*
G75*
G02*
X67570000Y-107010000I-140000J0D01*
G01*
G37*
%TD*%
%TO.C,C28*%
G36*
G01*
X83580000Y-110700000D02*
X83920000Y-110700000D01*
G75*
G02*
X84060000Y-110840000I0J-140000D01*
G01*
X84060000Y-111120000D01*
G75*
G02*
X83920000Y-111260000I-140000J0D01*
G01*
X83580000Y-111260000D01*
G75*
G02*
X83440000Y-111120000I0J140000D01*
G01*
X83440000Y-110840000D01*
G75*
G02*
X83580000Y-110700000I140000J0D01*
G01*
G37*
G36*
G01*
X83580000Y-109740000D02*
X83920000Y-109740000D01*
G75*
G02*
X84060000Y-109880000I0J-140000D01*
G01*
X84060000Y-110160000D01*
G75*
G02*
X83920000Y-110300000I-140000J0D01*
G01*
X83580000Y-110300000D01*
G75*
G02*
X83440000Y-110160000I0J140000D01*
G01*
X83440000Y-109880000D01*
G75*
G02*
X83580000Y-109740000I140000J0D01*
G01*
G37*
%TD*%
%TO.C,C27*%
G36*
G01*
X81950000Y-124670000D02*
X81950000Y-124330000D01*
G75*
G02*
X82090000Y-124190000I140000J0D01*
G01*
X82370000Y-124190000D01*
G75*
G02*
X82510000Y-124330000I0J-140000D01*
G01*
X82510000Y-124670000D01*
G75*
G02*
X82370000Y-124810000I-140000J0D01*
G01*
X82090000Y-124810000D01*
G75*
G02*
X81950000Y-124670000I0J140000D01*
G01*
G37*
G36*
G01*
X80990000Y-124670000D02*
X80990000Y-124330000D01*
G75*
G02*
X81130000Y-124190000I140000J0D01*
G01*
X81410000Y-124190000D01*
G75*
G02*
X81550000Y-124330000I0J-140000D01*
G01*
X81550000Y-124670000D01*
G75*
G02*
X81410000Y-124810000I-140000J0D01*
G01*
X81130000Y-124810000D01*
G75*
G02*
X80990000Y-124670000I0J140000D01*
G01*
G37*
%TD*%
%TO.C,C26*%
G36*
G01*
X65580000Y-124700000D02*
X65920000Y-124700000D01*
G75*
G02*
X66060000Y-124840000I0J-140000D01*
G01*
X66060000Y-125120000D01*
G75*
G02*
X65920000Y-125260000I-140000J0D01*
G01*
X65580000Y-125260000D01*
G75*
G02*
X65440000Y-125120000I0J140000D01*
G01*
X65440000Y-124840000D01*
G75*
G02*
X65580000Y-124700000I140000J0D01*
G01*
G37*
G36*
G01*
X65580000Y-123740000D02*
X65920000Y-123740000D01*
G75*
G02*
X66060000Y-123880000I0J-140000D01*
G01*
X66060000Y-124160000D01*
G75*
G02*
X65920000Y-124300000I-140000J0D01*
G01*
X65580000Y-124300000D01*
G75*
G02*
X65440000Y-124160000I0J140000D01*
G01*
X65440000Y-123880000D01*
G75*
G02*
X65580000Y-123740000I140000J0D01*
G01*
G37*
%TD*%
%TO.C,C25*%
G36*
G01*
X64420000Y-110800000D02*
X64080000Y-110800000D01*
G75*
G02*
X63940000Y-110660000I0J140000D01*
G01*
X63940000Y-110380000D01*
G75*
G02*
X64080000Y-110240000I140000J0D01*
G01*
X64420000Y-110240000D01*
G75*
G02*
X64560000Y-110380000I0J-140000D01*
G01*
X64560000Y-110660000D01*
G75*
G02*
X64420000Y-110800000I-140000J0D01*
G01*
G37*
G36*
G01*
X64420000Y-111760000D02*
X64080000Y-111760000D01*
G75*
G02*
X63940000Y-111620000I0J140000D01*
G01*
X63940000Y-111340000D01*
G75*
G02*
X64080000Y-111200000I140000J0D01*
G01*
X64420000Y-111200000D01*
G75*
G02*
X64560000Y-111340000I0J-140000D01*
G01*
X64560000Y-111620000D01*
G75*
G02*
X64420000Y-111760000I-140000J0D01*
G01*
G37*
%TD*%
%TO.C,C24*%
G36*
G01*
X70920000Y-106070000D02*
X70580000Y-106070000D01*
G75*
G02*
X70440000Y-105930000I0J140000D01*
G01*
X70440000Y-105650000D01*
G75*
G02*
X70580000Y-105510000I140000J0D01*
G01*
X70920000Y-105510000D01*
G75*
G02*
X71060000Y-105650000I0J-140000D01*
G01*
X71060000Y-105930000D01*
G75*
G02*
X70920000Y-106070000I-140000J0D01*
G01*
G37*
G36*
G01*
X70920000Y-107030000D02*
X70580000Y-107030000D01*
G75*
G02*
X70440000Y-106890000I0J140000D01*
G01*
X70440000Y-106610000D01*
G75*
G02*
X70580000Y-106470000I140000J0D01*
G01*
X70920000Y-106470000D01*
G75*
G02*
X71060000Y-106610000I0J-140000D01*
G01*
X71060000Y-106890000D01*
G75*
G02*
X70920000Y-107030000I-140000J0D01*
G01*
G37*
%TD*%
%TO.C,C23*%
G36*
G01*
X76000000Y-106920000D02*
X76000000Y-106580000D01*
G75*
G02*
X76140000Y-106440000I140000J0D01*
G01*
X76420000Y-106440000D01*
G75*
G02*
X76560000Y-106580000I0J-140000D01*
G01*
X76560000Y-106920000D01*
G75*
G02*
X76420000Y-107060000I-140000J0D01*
G01*
X76140000Y-107060000D01*
G75*
G02*
X76000000Y-106920000I0J140000D01*
G01*
G37*
G36*
G01*
X75040000Y-106920000D02*
X75040000Y-106580000D01*
G75*
G02*
X75180000Y-106440000I140000J0D01*
G01*
X75460000Y-106440000D01*
G75*
G02*
X75600000Y-106580000I0J-140000D01*
G01*
X75600000Y-106920000D01*
G75*
G02*
X75460000Y-107060000I-140000J0D01*
G01*
X75180000Y-107060000D01*
G75*
G02*
X75040000Y-106920000I0J140000D01*
G01*
G37*
%TD*%
%TO.C,C22*%
G36*
G01*
X77420000Y-106050000D02*
X77080000Y-106050000D01*
G75*
G02*
X76940000Y-105910000I0J140000D01*
G01*
X76940000Y-105630000D01*
G75*
G02*
X77080000Y-105490000I140000J0D01*
G01*
X77420000Y-105490000D01*
G75*
G02*
X77560000Y-105630000I0J-140000D01*
G01*
X77560000Y-105910000D01*
G75*
G02*
X77420000Y-106050000I-140000J0D01*
G01*
G37*
G36*
G01*
X77420000Y-107010000D02*
X77080000Y-107010000D01*
G75*
G02*
X76940000Y-106870000I0J140000D01*
G01*
X76940000Y-106590000D01*
G75*
G02*
X77080000Y-106450000I140000J0D01*
G01*
X77420000Y-106450000D01*
G75*
G02*
X77560000Y-106590000I0J-140000D01*
G01*
X77560000Y-106870000D01*
G75*
G02*
X77420000Y-107010000I-140000J0D01*
G01*
G37*
%TD*%
%TO.C,C20*%
G36*
G01*
X87200000Y-147420000D02*
X87200000Y-147080000D01*
G75*
G02*
X87340000Y-146940000I140000J0D01*
G01*
X87620000Y-146940000D01*
G75*
G02*
X87760000Y-147080000I0J-140000D01*
G01*
X87760000Y-147420000D01*
G75*
G02*
X87620000Y-147560000I-140000J0D01*
G01*
X87340000Y-147560000D01*
G75*
G02*
X87200000Y-147420000I0J140000D01*
G01*
G37*
G36*
G01*
X86240000Y-147420000D02*
X86240000Y-147080000D01*
G75*
G02*
X86380000Y-146940000I140000J0D01*
G01*
X86660000Y-146940000D01*
G75*
G02*
X86800000Y-147080000I0J-140000D01*
G01*
X86800000Y-147420000D01*
G75*
G02*
X86660000Y-147560000I-140000J0D01*
G01*
X86380000Y-147560000D01*
G75*
G02*
X86240000Y-147420000I0J140000D01*
G01*
G37*
%TD*%
%TO.C,C16*%
G36*
G01*
X57830000Y-85590000D02*
X58170000Y-85590000D01*
G75*
G02*
X58310000Y-85730000I0J-140000D01*
G01*
X58310000Y-86010000D01*
G75*
G02*
X58170000Y-86150000I-140000J0D01*
G01*
X57830000Y-86150000D01*
G75*
G02*
X57690000Y-86010000I0J140000D01*
G01*
X57690000Y-85730000D01*
G75*
G02*
X57830000Y-85590000I140000J0D01*
G01*
G37*
G36*
G01*
X57830000Y-86550000D02*
X58170000Y-86550000D01*
G75*
G02*
X58310000Y-86690000I0J-140000D01*
G01*
X58310000Y-86970000D01*
G75*
G02*
X58170000Y-87110000I-140000J0D01*
G01*
X57830000Y-87110000D01*
G75*
G02*
X57690000Y-86970000I0J140000D01*
G01*
X57690000Y-86690000D01*
G75*
G02*
X57830000Y-86550000I140000J0D01*
G01*
G37*
%TD*%
%TO.C,C15*%
G36*
G01*
X70700000Y-72620000D02*
X70700000Y-72280000D01*
G75*
G02*
X70840000Y-72140000I140000J0D01*
G01*
X71120000Y-72140000D01*
G75*
G02*
X71260000Y-72280000I0J-140000D01*
G01*
X71260000Y-72620000D01*
G75*
G02*
X71120000Y-72760000I-140000J0D01*
G01*
X70840000Y-72760000D01*
G75*
G02*
X70700000Y-72620000I0J140000D01*
G01*
G37*
G36*
G01*
X69740000Y-72620000D02*
X69740000Y-72280000D01*
G75*
G02*
X69880000Y-72140000I140000J0D01*
G01*
X70160000Y-72140000D01*
G75*
G02*
X70300000Y-72280000I0J-140000D01*
G01*
X70300000Y-72620000D01*
G75*
G02*
X70160000Y-72760000I-140000J0D01*
G01*
X69880000Y-72760000D01*
G75*
G02*
X69740000Y-72620000I0J140000D01*
G01*
G37*
%TD*%
%TO.C,C14*%
G36*
G01*
X69740000Y-79120000D02*
X69740000Y-78780000D01*
G75*
G02*
X69880000Y-78640000I140000J0D01*
G01*
X70160000Y-78640000D01*
G75*
G02*
X70300000Y-78780000I0J-140000D01*
G01*
X70300000Y-79120000D01*
G75*
G02*
X70160000Y-79260000I-140000J0D01*
G01*
X69880000Y-79260000D01*
G75*
G02*
X69740000Y-79120000I0J140000D01*
G01*
G37*
G36*
G01*
X70700000Y-79120000D02*
X70700000Y-78780000D01*
G75*
G02*
X70840000Y-78640000I140000J0D01*
G01*
X71120000Y-78640000D01*
G75*
G02*
X71260000Y-78780000I0J-140000D01*
G01*
X71260000Y-79120000D01*
G75*
G02*
X71120000Y-79260000I-140000J0D01*
G01*
X70840000Y-79260000D01*
G75*
G02*
X70700000Y-79120000I0J140000D01*
G01*
G37*
%TD*%
%TO.C,C13*%
G36*
G01*
X77550000Y-79330000D02*
X77550000Y-79670000D01*
G75*
G02*
X77410000Y-79810000I-140000J0D01*
G01*
X77130000Y-79810000D01*
G75*
G02*
X76990000Y-79670000I0J140000D01*
G01*
X76990000Y-79330000D01*
G75*
G02*
X77130000Y-79190000I140000J0D01*
G01*
X77410000Y-79190000D01*
G75*
G02*
X77550000Y-79330000I0J-140000D01*
G01*
G37*
G36*
G01*
X78510000Y-79330000D02*
X78510000Y-79670000D01*
G75*
G02*
X78370000Y-79810000I-140000J0D01*
G01*
X78090000Y-79810000D01*
G75*
G02*
X77950000Y-79670000I0J140000D01*
G01*
X77950000Y-79330000D01*
G75*
G02*
X78090000Y-79190000I140000J0D01*
G01*
X78370000Y-79190000D01*
G75*
G02*
X78510000Y-79330000I0J-140000D01*
G01*
G37*
%TD*%
%TO.C,C12*%
G36*
G01*
X75050000Y-73830000D02*
X75050000Y-74170000D01*
G75*
G02*
X74910000Y-74310000I-140000J0D01*
G01*
X74630000Y-74310000D01*
G75*
G02*
X74490000Y-74170000I0J140000D01*
G01*
X74490000Y-73830000D01*
G75*
G02*
X74630000Y-73690000I140000J0D01*
G01*
X74910000Y-73690000D01*
G75*
G02*
X75050000Y-73830000I0J-140000D01*
G01*
G37*
G36*
G01*
X76010000Y-73830000D02*
X76010000Y-74170000D01*
G75*
G02*
X75870000Y-74310000I-140000J0D01*
G01*
X75590000Y-74310000D01*
G75*
G02*
X75450000Y-74170000I0J140000D01*
G01*
X75450000Y-73830000D01*
G75*
G02*
X75590000Y-73690000I140000J0D01*
G01*
X75870000Y-73690000D01*
G75*
G02*
X76010000Y-73830000I0J-140000D01*
G01*
G37*
%TD*%
%TO.C,C11*%
G36*
G01*
X75050000Y-76330000D02*
X75050000Y-76670000D01*
G75*
G02*
X74910000Y-76810000I-140000J0D01*
G01*
X74630000Y-76810000D01*
G75*
G02*
X74490000Y-76670000I0J140000D01*
G01*
X74490000Y-76330000D01*
G75*
G02*
X74630000Y-76190000I140000J0D01*
G01*
X74910000Y-76190000D01*
G75*
G02*
X75050000Y-76330000I0J-140000D01*
G01*
G37*
G36*
G01*
X76010000Y-76330000D02*
X76010000Y-76670000D01*
G75*
G02*
X75870000Y-76810000I-140000J0D01*
G01*
X75590000Y-76810000D01*
G75*
G02*
X75450000Y-76670000I0J140000D01*
G01*
X75450000Y-76330000D01*
G75*
G02*
X75590000Y-76190000I140000J0D01*
G01*
X75870000Y-76190000D01*
G75*
G02*
X76010000Y-76330000I0J-140000D01*
G01*
G37*
%TD*%
%TO.C,C9*%
G36*
G01*
X77550000Y-77330000D02*
X77550000Y-77670000D01*
G75*
G02*
X77410000Y-77810000I-140000J0D01*
G01*
X77130000Y-77810000D01*
G75*
G02*
X76990000Y-77670000I0J140000D01*
G01*
X76990000Y-77330000D01*
G75*
G02*
X77130000Y-77190000I140000J0D01*
G01*
X77410000Y-77190000D01*
G75*
G02*
X77550000Y-77330000I0J-140000D01*
G01*
G37*
G36*
G01*
X78510000Y-77330000D02*
X78510000Y-77670000D01*
G75*
G02*
X78370000Y-77810000I-140000J0D01*
G01*
X78090000Y-77810000D01*
G75*
G02*
X77950000Y-77670000I0J140000D01*
G01*
X77950000Y-77330000D01*
G75*
G02*
X78090000Y-77190000I140000J0D01*
G01*
X78370000Y-77190000D01*
G75*
G02*
X78510000Y-77330000I0J-140000D01*
G01*
G37*
%TD*%
%TO.C,C8*%
G36*
G01*
X91450000Y-79670000D02*
X91450000Y-79330000D01*
G75*
G02*
X91590000Y-79190000I140000J0D01*
G01*
X91870000Y-79190000D01*
G75*
G02*
X92010000Y-79330000I0J-140000D01*
G01*
X92010000Y-79670000D01*
G75*
G02*
X91870000Y-79810000I-140000J0D01*
G01*
X91590000Y-79810000D01*
G75*
G02*
X91450000Y-79670000I0J140000D01*
G01*
G37*
G36*
G01*
X90490000Y-79670000D02*
X90490000Y-79330000D01*
G75*
G02*
X90630000Y-79190000I140000J0D01*
G01*
X90910000Y-79190000D01*
G75*
G02*
X91050000Y-79330000I0J-140000D01*
G01*
X91050000Y-79670000D01*
G75*
G02*
X90910000Y-79810000I-140000J0D01*
G01*
X90630000Y-79810000D01*
G75*
G02*
X90490000Y-79670000I0J140000D01*
G01*
G37*
%TD*%
%TO.C,C7*%
G36*
G01*
X85330000Y-83700000D02*
X85670000Y-83700000D01*
G75*
G02*
X85810000Y-83840000I0J-140000D01*
G01*
X85810000Y-84120000D01*
G75*
G02*
X85670000Y-84260000I-140000J0D01*
G01*
X85330000Y-84260000D01*
G75*
G02*
X85190000Y-84120000I0J140000D01*
G01*
X85190000Y-83840000D01*
G75*
G02*
X85330000Y-83700000I140000J0D01*
G01*
G37*
G36*
G01*
X85330000Y-82740000D02*
X85670000Y-82740000D01*
G75*
G02*
X85810000Y-82880000I0J-140000D01*
G01*
X85810000Y-83160000D01*
G75*
G02*
X85670000Y-83300000I-140000J0D01*
G01*
X85330000Y-83300000D01*
G75*
G02*
X85190000Y-83160000I0J140000D01*
G01*
X85190000Y-82880000D01*
G75*
G02*
X85330000Y-82740000I140000J0D01*
G01*
G37*
%TD*%
%TO.C,C6*%
G36*
G01*
X90580000Y-73950000D02*
X90920000Y-73950000D01*
G75*
G02*
X91060000Y-74090000I0J-140000D01*
G01*
X91060000Y-74370000D01*
G75*
G02*
X90920000Y-74510000I-140000J0D01*
G01*
X90580000Y-74510000D01*
G75*
G02*
X90440000Y-74370000I0J140000D01*
G01*
X90440000Y-74090000D01*
G75*
G02*
X90580000Y-73950000I140000J0D01*
G01*
G37*
G36*
G01*
X90580000Y-72990000D02*
X90920000Y-72990000D01*
G75*
G02*
X91060000Y-73130000I0J-140000D01*
G01*
X91060000Y-73410000D01*
G75*
G02*
X90920000Y-73550000I-140000J0D01*
G01*
X90580000Y-73550000D01*
G75*
G02*
X90440000Y-73410000I0J140000D01*
G01*
X90440000Y-73130000D01*
G75*
G02*
X90580000Y-72990000I140000J0D01*
G01*
G37*
%TD*%
%TO.C,C5*%
G36*
G01*
X77550000Y-78330000D02*
X77550000Y-78670000D01*
G75*
G02*
X77410000Y-78810000I-140000J0D01*
G01*
X77130000Y-78810000D01*
G75*
G02*
X76990000Y-78670000I0J140000D01*
G01*
X76990000Y-78330000D01*
G75*
G02*
X77130000Y-78190000I140000J0D01*
G01*
X77410000Y-78190000D01*
G75*
G02*
X77550000Y-78330000I0J-140000D01*
G01*
G37*
G36*
G01*
X78510000Y-78330000D02*
X78510000Y-78670000D01*
G75*
G02*
X78370000Y-78810000I-140000J0D01*
G01*
X78090000Y-78810000D01*
G75*
G02*
X77950000Y-78670000I0J140000D01*
G01*
X77950000Y-78330000D01*
G75*
G02*
X78090000Y-78190000I140000J0D01*
G01*
X78370000Y-78190000D01*
G75*
G02*
X78510000Y-78330000I0J-140000D01*
G01*
G37*
%TD*%
%TO.C,C3*%
G36*
G01*
X88700000Y-87920000D02*
X88700000Y-87580000D01*
G75*
G02*
X88840000Y-87440000I140000J0D01*
G01*
X89120000Y-87440000D01*
G75*
G02*
X89260000Y-87580000I0J-140000D01*
G01*
X89260000Y-87920000D01*
G75*
G02*
X89120000Y-88060000I-140000J0D01*
G01*
X88840000Y-88060000D01*
G75*
G02*
X88700000Y-87920000I0J140000D01*
G01*
G37*
G36*
G01*
X87740000Y-87920000D02*
X87740000Y-87580000D01*
G75*
G02*
X87880000Y-87440000I140000J0D01*
G01*
X88160000Y-87440000D01*
G75*
G02*
X88300000Y-87580000I0J-140000D01*
G01*
X88300000Y-87920000D01*
G75*
G02*
X88160000Y-88060000I-140000J0D01*
G01*
X87880000Y-88060000D01*
G75*
G02*
X87740000Y-87920000I0J140000D01*
G01*
G37*
%TD*%
M02*
