%TF.GenerationSoftware,KiCad,Pcbnew,(5.1.8)-1*%
%TF.CreationDate,2021-02-22T22:57:58+01:00*%
%TF.ProjectId,DP83848C-EvalBoard,44503833-3834-4384-932d-4576616c426f,rev?*%
%TF.SameCoordinates,Original*%
%TF.FileFunction,Legend,Top*%
%TF.FilePolarity,Positive*%
%FSLAX46Y46*%
G04 Gerber Fmt 4.6, Leading zero omitted, Abs format (unit mm)*
G04 Created by KiCad (PCBNEW (5.1.8)-1) date 2021-02-22 22:57:58*
%MOMM*%
%LPD*%
G01*
G04 APERTURE LIST*
%ADD10C,0.120000*%
%ADD11C,0.250000*%
%ADD12C,0.150000*%
%ADD13C,0.200000*%
%ADD14C,0.300000*%
%ADD15C,0.500000*%
%ADD16C,0.010000*%
%ADD17C,0.100000*%
G04 APERTURE END LIST*
D10*
X58000000Y-142650000D02*
X57500000Y-142650000D01*
X57750000Y-142400000D02*
X57750000Y-142900000D01*
X64750000Y-153650000D02*
X64250000Y-153650000D01*
X64500000Y-153400000D02*
X64500000Y-153900000D01*
D11*
X90800000Y-86300000D02*
G75*
G03*
X90800000Y-86300000I-100000J0D01*
G01*
D10*
X83250000Y-108800000D02*
X82750000Y-108800000D01*
X83000000Y-108550000D02*
X83000000Y-109050000D01*
X74250000Y-77300000D02*
X73750000Y-77300000D01*
X74000000Y-77050000D02*
X74000000Y-77550000D01*
X91850000Y-72500000D02*
X91350000Y-72500000D01*
X91600000Y-72250000D02*
X91600000Y-72750000D01*
X50350000Y-61500000D02*
X49850000Y-61500000D01*
X50100000Y-61250000D02*
X50100000Y-61750000D01*
X76050000Y-142500000D02*
X75550000Y-142500000D01*
X75800000Y-142250000D02*
X75800000Y-142750000D01*
X47750000Y-147400000D02*
X47250000Y-147400000D01*
X47500000Y-147150000D02*
X47500000Y-147650000D01*
D11*
X100700000Y-143100000D02*
G75*
G03*
X100700000Y-143100000I-100000J0D01*
G01*
X74000000Y-141800000D02*
G75*
G03*
X74000000Y-141800000I-100000J0D01*
G01*
X56400000Y-128400000D02*
G75*
G03*
X56400000Y-128400000I-100000J0D01*
G01*
X56400000Y-120700000D02*
G75*
G03*
X56400000Y-120700000I-100000J0D01*
G01*
X56300000Y-110000000D02*
G75*
G03*
X56300000Y-110000000I-100000J0D01*
G01*
X56600000Y-92400000D02*
G75*
G03*
X56600000Y-92400000I-100000J0D01*
G01*
X69200000Y-80100000D02*
G75*
G03*
X69200000Y-80100000I-100000J0D01*
G01*
X87400000Y-71300000D02*
G75*
G03*
X87400000Y-71300000I-100000J0D01*
G01*
X98600000Y-74100000D02*
G75*
G03*
X98600000Y-74100000I-100000J0D01*
G01*
X98600000Y-91100000D02*
G75*
G03*
X98600000Y-91100000I-100000J0D01*
G01*
X96600000Y-99600000D02*
G75*
G03*
X96600000Y-99600000I-100000J0D01*
G01*
X98600000Y-115600000D02*
G75*
G03*
X98600000Y-115600000I-100000J0D01*
G01*
X100100000Y-132200000D02*
G75*
G03*
X100100000Y-132200000I-100000J0D01*
G01*
X98600000Y-129600000D02*
G75*
G03*
X98600000Y-129600000I-100000J0D01*
G01*
D10*
X90550000Y-119500000D02*
X90050000Y-119500000D01*
X90300000Y-119250000D02*
X90300000Y-119750000D01*
D11*
X80100000Y-107250000D02*
G75*
G03*
X80100000Y-107250000I-100000J0D01*
G01*
X75600000Y-99750000D02*
G75*
G03*
X75600000Y-99750000I-100000J0D01*
G01*
D12*
X52321428Y-63952380D02*
X51750000Y-63952380D01*
X52035714Y-63952380D02*
X52035714Y-62952380D01*
X51940476Y-63095238D01*
X51845238Y-63190476D01*
X51750000Y-63238095D01*
X52940476Y-62952380D02*
X53035714Y-62952380D01*
X53130952Y-63000000D01*
X53178571Y-63047619D01*
X53226190Y-63142857D01*
X53273809Y-63333333D01*
X53273809Y-63571428D01*
X53226190Y-63761904D01*
X53178571Y-63857142D01*
X53130952Y-63904761D01*
X53035714Y-63952380D01*
X52940476Y-63952380D01*
X52845238Y-63904761D01*
X52797619Y-63857142D01*
X52750000Y-63761904D01*
X52702380Y-63571428D01*
X52702380Y-63333333D01*
X52750000Y-63142857D01*
X52797619Y-63047619D01*
X52845238Y-63000000D01*
X52940476Y-62952380D01*
X53892857Y-62952380D02*
X53988095Y-62952380D01*
X54083333Y-63000000D01*
X54130952Y-63047619D01*
X54178571Y-63142857D01*
X54226190Y-63333333D01*
X54226190Y-63571428D01*
X54178571Y-63761904D01*
X54130952Y-63857142D01*
X54083333Y-63904761D01*
X53988095Y-63952380D01*
X53892857Y-63952380D01*
X53797619Y-63904761D01*
X53750000Y-63857142D01*
X53702380Y-63761904D01*
X53654761Y-63571428D01*
X53654761Y-63333333D01*
X53702380Y-63142857D01*
X53750000Y-63047619D01*
X53797619Y-63000000D01*
X53892857Y-62952380D01*
X55416666Y-63952380D02*
X55416666Y-62952380D01*
X55749999Y-63666666D01*
X56083333Y-62952380D01*
X56083333Y-63952380D01*
X56559523Y-63952380D02*
X56559523Y-62952380D01*
X56559523Y-63333333D02*
X56654761Y-63285714D01*
X56845238Y-63285714D01*
X56940476Y-63333333D01*
X56988095Y-63380952D01*
X57035714Y-63476190D01*
X57035714Y-63761904D01*
X56988095Y-63857142D01*
X56940476Y-63904761D01*
X56845238Y-63952380D01*
X56654761Y-63952380D01*
X56559523Y-63904761D01*
X57464285Y-63285714D02*
X57464285Y-64285714D01*
X57464285Y-63333333D02*
X57559523Y-63285714D01*
X57749999Y-63285714D01*
X57845238Y-63333333D01*
X57892857Y-63380952D01*
X57940476Y-63476190D01*
X57940476Y-63761904D01*
X57892857Y-63857142D01*
X57845238Y-63904761D01*
X57749999Y-63952380D01*
X57559523Y-63952380D01*
X57464285Y-63904761D01*
X58321428Y-63904761D02*
X58416666Y-63952380D01*
X58607142Y-63952380D01*
X58702380Y-63904761D01*
X58750000Y-63809523D01*
X58750000Y-63761904D01*
X58702380Y-63666666D01*
X58607142Y-63619047D01*
X58464285Y-63619047D01*
X58369047Y-63571428D01*
X58321428Y-63476190D01*
X58321428Y-63428571D01*
X58369047Y-63333333D01*
X58464285Y-63285714D01*
X58607142Y-63285714D01*
X58702380Y-63333333D01*
X69678571Y-66202380D02*
X69678571Y-66392857D01*
X70059523Y-66202380D02*
X70059523Y-66392857D01*
X70964285Y-67202380D02*
X70488095Y-67202380D01*
X70488095Y-66202380D01*
X71440476Y-67202380D02*
X71345238Y-67154761D01*
X71297619Y-67107142D01*
X71250000Y-67011904D01*
X71250000Y-66726190D01*
X71297619Y-66630952D01*
X71345238Y-66583333D01*
X71440476Y-66535714D01*
X71583333Y-66535714D01*
X71678571Y-66583333D01*
X71726190Y-66630952D01*
X71773809Y-66726190D01*
X71773809Y-67011904D01*
X71726190Y-67107142D01*
X71678571Y-67154761D01*
X71583333Y-67202380D01*
X71440476Y-67202380D01*
X72630952Y-67154761D02*
X72535714Y-67202380D01*
X72345238Y-67202380D01*
X72250000Y-67154761D01*
X72202380Y-67107142D01*
X72154761Y-67011904D01*
X72154761Y-66726190D01*
X72202380Y-66630952D01*
X72250000Y-66583333D01*
X72345238Y-66535714D01*
X72535714Y-66535714D01*
X72630952Y-66583333D01*
X73059523Y-67202380D02*
X73059523Y-66202380D01*
X73154761Y-66821428D02*
X73440476Y-67202380D01*
X73440476Y-66535714D02*
X73059523Y-66916666D01*
X74297619Y-67202380D02*
X74297619Y-66202380D01*
X74297619Y-67154761D02*
X74202380Y-67202380D01*
X74011904Y-67202380D01*
X73916666Y-67154761D01*
X73869047Y-67107142D01*
X73821428Y-67011904D01*
X73821428Y-66726190D01*
X73869047Y-66630952D01*
X73916666Y-66583333D01*
X74011904Y-66535714D01*
X74202380Y-66535714D01*
X74297619Y-66583333D01*
X74916666Y-67202380D02*
X74821428Y-67154761D01*
X74773809Y-67107142D01*
X74726190Y-67011904D01*
X74726190Y-66726190D01*
X74773809Y-66630952D01*
X74821428Y-66583333D01*
X74916666Y-66535714D01*
X75059523Y-66535714D01*
X75154761Y-66583333D01*
X75202380Y-66630952D01*
X75250000Y-66726190D01*
X75250000Y-67011904D01*
X75202380Y-67107142D01*
X75154761Y-67154761D01*
X75059523Y-67202380D01*
X74916666Y-67202380D01*
X75583333Y-66535714D02*
X75773809Y-67202380D01*
X75964285Y-66726190D01*
X76154761Y-67202380D01*
X76345238Y-66535714D01*
X76726190Y-66535714D02*
X76726190Y-67202380D01*
X76726190Y-66630952D02*
X76773809Y-66583333D01*
X76869047Y-66535714D01*
X77011904Y-66535714D01*
X77107142Y-66583333D01*
X77154761Y-66678571D01*
X77154761Y-67202380D01*
X78773809Y-67154761D02*
X78678571Y-67202380D01*
X78488095Y-67202380D01*
X78392857Y-67154761D01*
X78345238Y-67059523D01*
X78345238Y-66678571D01*
X78392857Y-66583333D01*
X78488095Y-66535714D01*
X78678571Y-66535714D01*
X78773809Y-66583333D01*
X78821428Y-66678571D01*
X78821428Y-66773809D01*
X78345238Y-66869047D01*
X79678571Y-67202380D02*
X79678571Y-66202380D01*
X79678571Y-67154761D02*
X79583333Y-67202380D01*
X79392857Y-67202380D01*
X79297619Y-67154761D01*
X79250000Y-67107142D01*
X79202380Y-67011904D01*
X79202380Y-66726190D01*
X79250000Y-66630952D01*
X79297619Y-66583333D01*
X79392857Y-66535714D01*
X79583333Y-66535714D01*
X79678571Y-66583333D01*
X80154761Y-67202380D02*
X80154761Y-66535714D01*
X80154761Y-66202380D02*
X80107142Y-66250000D01*
X80154761Y-66297619D01*
X80202380Y-66250000D01*
X80154761Y-66202380D01*
X80154761Y-66297619D01*
X80488095Y-66535714D02*
X80869047Y-66535714D01*
X80630952Y-66202380D02*
X80630952Y-67059523D01*
X80678571Y-67154761D01*
X80773809Y-67202380D01*
X80869047Y-67202380D01*
X81202380Y-67202380D02*
X81202380Y-66535714D01*
X81202380Y-66202380D02*
X81154761Y-66250000D01*
X81202380Y-66297619D01*
X81250000Y-66250000D01*
X81202380Y-66202380D01*
X81202380Y-66297619D01*
X81821428Y-67202380D02*
X81726190Y-67154761D01*
X81678571Y-67107142D01*
X81630952Y-67011904D01*
X81630952Y-66726190D01*
X81678571Y-66630952D01*
X81726190Y-66583333D01*
X81821428Y-66535714D01*
X81964285Y-66535714D01*
X82059523Y-66583333D01*
X82107142Y-66630952D01*
X82154761Y-66726190D01*
X82154761Y-67011904D01*
X82107142Y-67107142D01*
X82059523Y-67154761D01*
X81964285Y-67202380D01*
X81821428Y-67202380D01*
X82583333Y-66535714D02*
X82583333Y-67202380D01*
X82583333Y-66630952D02*
X82630952Y-66583333D01*
X82726190Y-66535714D01*
X82869047Y-66535714D01*
X82964285Y-66583333D01*
X83011904Y-66678571D01*
X83011904Y-67202380D01*
X83440476Y-66202380D02*
X83440476Y-66392857D01*
X83821428Y-66202380D02*
X83821428Y-66392857D01*
D13*
X65635714Y-61042857D02*
X65635714Y-59842857D01*
X65921428Y-59842857D01*
X66092857Y-59900000D01*
X66207142Y-60014285D01*
X66264285Y-60128571D01*
X66321428Y-60357142D01*
X66321428Y-60528571D01*
X66264285Y-60757142D01*
X66207142Y-60871428D01*
X66092857Y-60985714D01*
X65921428Y-61042857D01*
X65635714Y-61042857D01*
X66835714Y-61042857D02*
X66835714Y-59842857D01*
X67292857Y-59842857D01*
X67407142Y-59900000D01*
X67464285Y-59957142D01*
X67521428Y-60071428D01*
X67521428Y-60242857D01*
X67464285Y-60357142D01*
X67407142Y-60414285D01*
X67292857Y-60471428D01*
X66835714Y-60471428D01*
X68207142Y-60357142D02*
X68092857Y-60300000D01*
X68035714Y-60242857D01*
X67978571Y-60128571D01*
X67978571Y-60071428D01*
X68035714Y-59957142D01*
X68092857Y-59900000D01*
X68207142Y-59842857D01*
X68435714Y-59842857D01*
X68550000Y-59900000D01*
X68607142Y-59957142D01*
X68664285Y-60071428D01*
X68664285Y-60128571D01*
X68607142Y-60242857D01*
X68550000Y-60300000D01*
X68435714Y-60357142D01*
X68207142Y-60357142D01*
X68092857Y-60414285D01*
X68035714Y-60471428D01*
X67978571Y-60585714D01*
X67978571Y-60814285D01*
X68035714Y-60928571D01*
X68092857Y-60985714D01*
X68207142Y-61042857D01*
X68435714Y-61042857D01*
X68550000Y-60985714D01*
X68607142Y-60928571D01*
X68664285Y-60814285D01*
X68664285Y-60585714D01*
X68607142Y-60471428D01*
X68550000Y-60414285D01*
X68435714Y-60357142D01*
X69064285Y-59842857D02*
X69807142Y-59842857D01*
X69407142Y-60300000D01*
X69578571Y-60300000D01*
X69692857Y-60357142D01*
X69750000Y-60414285D01*
X69807142Y-60528571D01*
X69807142Y-60814285D01*
X69750000Y-60928571D01*
X69692857Y-60985714D01*
X69578571Y-61042857D01*
X69235714Y-61042857D01*
X69121428Y-60985714D01*
X69064285Y-60928571D01*
X70492857Y-60357142D02*
X70378571Y-60300000D01*
X70321428Y-60242857D01*
X70264285Y-60128571D01*
X70264285Y-60071428D01*
X70321428Y-59957142D01*
X70378571Y-59900000D01*
X70492857Y-59842857D01*
X70721428Y-59842857D01*
X70835714Y-59900000D01*
X70892857Y-59957142D01*
X70950000Y-60071428D01*
X70950000Y-60128571D01*
X70892857Y-60242857D01*
X70835714Y-60300000D01*
X70721428Y-60357142D01*
X70492857Y-60357142D01*
X70378571Y-60414285D01*
X70321428Y-60471428D01*
X70264285Y-60585714D01*
X70264285Y-60814285D01*
X70321428Y-60928571D01*
X70378571Y-60985714D01*
X70492857Y-61042857D01*
X70721428Y-61042857D01*
X70835714Y-60985714D01*
X70892857Y-60928571D01*
X70950000Y-60814285D01*
X70950000Y-60585714D01*
X70892857Y-60471428D01*
X70835714Y-60414285D01*
X70721428Y-60357142D01*
X71978571Y-60242857D02*
X71978571Y-61042857D01*
X71692857Y-59785714D02*
X71407142Y-60642857D01*
X72150000Y-60642857D01*
X72778571Y-60357142D02*
X72664285Y-60300000D01*
X72607142Y-60242857D01*
X72550000Y-60128571D01*
X72550000Y-60071428D01*
X72607142Y-59957142D01*
X72664285Y-59900000D01*
X72778571Y-59842857D01*
X73007142Y-59842857D01*
X73121428Y-59900000D01*
X73178571Y-59957142D01*
X73235714Y-60071428D01*
X73235714Y-60128571D01*
X73178571Y-60242857D01*
X73121428Y-60300000D01*
X73007142Y-60357142D01*
X72778571Y-60357142D01*
X72664285Y-60414285D01*
X72607142Y-60471428D01*
X72550000Y-60585714D01*
X72550000Y-60814285D01*
X72607142Y-60928571D01*
X72664285Y-60985714D01*
X72778571Y-61042857D01*
X73007142Y-61042857D01*
X73121428Y-60985714D01*
X73178571Y-60928571D01*
X73235714Y-60814285D01*
X73235714Y-60585714D01*
X73178571Y-60471428D01*
X73121428Y-60414285D01*
X73007142Y-60357142D01*
X74435714Y-60928571D02*
X74378571Y-60985714D01*
X74207142Y-61042857D01*
X74092857Y-61042857D01*
X73921428Y-60985714D01*
X73807142Y-60871428D01*
X73750000Y-60757142D01*
X73692857Y-60528571D01*
X73692857Y-60357142D01*
X73750000Y-60128571D01*
X73807142Y-60014285D01*
X73921428Y-59900000D01*
X74092857Y-59842857D01*
X74207142Y-59842857D01*
X74378571Y-59900000D01*
X74435714Y-59957142D01*
X75864285Y-60585714D02*
X76778571Y-60585714D01*
X76321428Y-61042857D02*
X76321428Y-60128571D01*
X78207142Y-60985714D02*
X78378571Y-61042857D01*
X78664285Y-61042857D01*
X78778571Y-60985714D01*
X78835714Y-60928571D01*
X78892857Y-60814285D01*
X78892857Y-60700000D01*
X78835714Y-60585714D01*
X78778571Y-60528571D01*
X78664285Y-60471428D01*
X78435714Y-60414285D01*
X78321428Y-60357142D01*
X78264285Y-60300000D01*
X78207142Y-60185714D01*
X78207142Y-60071428D01*
X78264285Y-59957142D01*
X78321428Y-59900000D01*
X78435714Y-59842857D01*
X78721428Y-59842857D01*
X78892857Y-59900000D01*
X79235714Y-59842857D02*
X79921428Y-59842857D01*
X79578571Y-61042857D02*
X79578571Y-59842857D01*
X80321428Y-61042857D02*
X80321428Y-59842857D01*
X80721428Y-60700000D01*
X81121428Y-59842857D01*
X81121428Y-61042857D01*
X81578571Y-59842857D02*
X82321428Y-59842857D01*
X81921428Y-60300000D01*
X82092857Y-60300000D01*
X82207142Y-60357142D01*
X82264285Y-60414285D01*
X82321428Y-60528571D01*
X82321428Y-60814285D01*
X82264285Y-60928571D01*
X82207142Y-60985714D01*
X82092857Y-61042857D01*
X81750000Y-61042857D01*
X81635714Y-60985714D01*
X81578571Y-60928571D01*
X82778571Y-59957142D02*
X82835714Y-59900000D01*
X82950000Y-59842857D01*
X83235714Y-59842857D01*
X83350000Y-59900000D01*
X83407142Y-59957142D01*
X83464285Y-60071428D01*
X83464285Y-60185714D01*
X83407142Y-60357142D01*
X82721428Y-61042857D01*
X83464285Y-61042857D01*
X84378571Y-60414285D02*
X83978571Y-60414285D01*
X83978571Y-61042857D02*
X83978571Y-59842857D01*
X84550000Y-59842857D01*
X85521428Y-60242857D02*
X85521428Y-61042857D01*
X85235714Y-59785714D02*
X84950000Y-60642857D01*
X85692857Y-60642857D01*
X86378571Y-59842857D02*
X86492857Y-59842857D01*
X86607142Y-59900000D01*
X86664285Y-59957142D01*
X86721428Y-60071428D01*
X86778571Y-60300000D01*
X86778571Y-60585714D01*
X86721428Y-60814285D01*
X86664285Y-60928571D01*
X86607142Y-60985714D01*
X86492857Y-61042857D01*
X86378571Y-61042857D01*
X86264285Y-60985714D01*
X86207142Y-60928571D01*
X86150000Y-60814285D01*
X86092857Y-60585714D01*
X86092857Y-60300000D01*
X86150000Y-60071428D01*
X86207142Y-59957142D01*
X86264285Y-59900000D01*
X86378571Y-59842857D01*
X87178571Y-59842857D02*
X87978571Y-59842857D01*
X87464285Y-61042857D01*
X69321428Y-62414285D02*
X69721428Y-62414285D01*
X69892857Y-63042857D02*
X69321428Y-63042857D01*
X69321428Y-61842857D01*
X69892857Y-61842857D01*
X70292857Y-62242857D02*
X70578571Y-63042857D01*
X70864285Y-62242857D01*
X71835714Y-63042857D02*
X71835714Y-62414285D01*
X71778571Y-62300000D01*
X71664285Y-62242857D01*
X71435714Y-62242857D01*
X71321428Y-62300000D01*
X71835714Y-62985714D02*
X71721428Y-63042857D01*
X71435714Y-63042857D01*
X71321428Y-62985714D01*
X71264285Y-62871428D01*
X71264285Y-62757142D01*
X71321428Y-62642857D01*
X71435714Y-62585714D01*
X71721428Y-62585714D01*
X71835714Y-62528571D01*
X72578571Y-63042857D02*
X72464285Y-62985714D01*
X72407142Y-62871428D01*
X72407142Y-61842857D01*
X73550000Y-62242857D02*
X73550000Y-63042857D01*
X73035714Y-62242857D02*
X73035714Y-62871428D01*
X73092857Y-62985714D01*
X73207142Y-63042857D01*
X73378571Y-63042857D01*
X73492857Y-62985714D01*
X73550000Y-62928571D01*
X74635714Y-63042857D02*
X74635714Y-62414285D01*
X74578571Y-62300000D01*
X74464285Y-62242857D01*
X74235714Y-62242857D01*
X74121428Y-62300000D01*
X74635714Y-62985714D02*
X74521428Y-63042857D01*
X74235714Y-63042857D01*
X74121428Y-62985714D01*
X74064285Y-62871428D01*
X74064285Y-62757142D01*
X74121428Y-62642857D01*
X74235714Y-62585714D01*
X74521428Y-62585714D01*
X74635714Y-62528571D01*
X75035714Y-62242857D02*
X75492857Y-62242857D01*
X75207142Y-61842857D02*
X75207142Y-62871428D01*
X75264285Y-62985714D01*
X75378571Y-63042857D01*
X75492857Y-63042857D01*
X75892857Y-63042857D02*
X75892857Y-62242857D01*
X75892857Y-61842857D02*
X75835714Y-61900000D01*
X75892857Y-61957142D01*
X75950000Y-61900000D01*
X75892857Y-61842857D01*
X75892857Y-61957142D01*
X76635714Y-63042857D02*
X76521428Y-62985714D01*
X76464285Y-62928571D01*
X76407142Y-62814285D01*
X76407142Y-62471428D01*
X76464285Y-62357142D01*
X76521428Y-62300000D01*
X76635714Y-62242857D01*
X76807142Y-62242857D01*
X76921428Y-62300000D01*
X76978571Y-62357142D01*
X77035714Y-62471428D01*
X77035714Y-62814285D01*
X76978571Y-62928571D01*
X76921428Y-62985714D01*
X76807142Y-63042857D01*
X76635714Y-63042857D01*
X77550000Y-62242857D02*
X77550000Y-63042857D01*
X77550000Y-62357142D02*
X77607142Y-62300000D01*
X77721428Y-62242857D01*
X77892857Y-62242857D01*
X78007142Y-62300000D01*
X78064285Y-62414285D01*
X78064285Y-63042857D01*
X79950000Y-62414285D02*
X80121428Y-62471428D01*
X80178571Y-62528571D01*
X80235714Y-62642857D01*
X80235714Y-62814285D01*
X80178571Y-62928571D01*
X80121428Y-62985714D01*
X80007142Y-63042857D01*
X79550000Y-63042857D01*
X79550000Y-61842857D01*
X79950000Y-61842857D01*
X80064285Y-61900000D01*
X80121428Y-61957142D01*
X80178571Y-62071428D01*
X80178571Y-62185714D01*
X80121428Y-62300000D01*
X80064285Y-62357142D01*
X79950000Y-62414285D01*
X79550000Y-62414285D01*
X80921428Y-63042857D02*
X80807142Y-62985714D01*
X80750000Y-62928571D01*
X80692857Y-62814285D01*
X80692857Y-62471428D01*
X80750000Y-62357142D01*
X80807142Y-62300000D01*
X80921428Y-62242857D01*
X81092857Y-62242857D01*
X81207142Y-62300000D01*
X81264285Y-62357142D01*
X81321428Y-62471428D01*
X81321428Y-62814285D01*
X81264285Y-62928571D01*
X81207142Y-62985714D01*
X81092857Y-63042857D01*
X80921428Y-63042857D01*
X82350000Y-63042857D02*
X82350000Y-62414285D01*
X82292857Y-62300000D01*
X82178571Y-62242857D01*
X81950000Y-62242857D01*
X81835714Y-62300000D01*
X82350000Y-62985714D02*
X82235714Y-63042857D01*
X81950000Y-63042857D01*
X81835714Y-62985714D01*
X81778571Y-62871428D01*
X81778571Y-62757142D01*
X81835714Y-62642857D01*
X81950000Y-62585714D01*
X82235714Y-62585714D01*
X82350000Y-62528571D01*
X82921428Y-63042857D02*
X82921428Y-62242857D01*
X82921428Y-62471428D02*
X82978571Y-62357142D01*
X83035714Y-62300000D01*
X83150000Y-62242857D01*
X83264285Y-62242857D01*
X84178571Y-63042857D02*
X84178571Y-61842857D01*
X84178571Y-62985714D02*
X84064285Y-63042857D01*
X83835714Y-63042857D01*
X83721428Y-62985714D01*
X83664285Y-62928571D01*
X83607142Y-62814285D01*
X83607142Y-62471428D01*
X83664285Y-62357142D01*
X83721428Y-62300000D01*
X83835714Y-62242857D01*
X84064285Y-62242857D01*
X84178571Y-62300000D01*
X69121428Y-65042857D02*
X68435714Y-65042857D01*
X68778571Y-65042857D02*
X68778571Y-63842857D01*
X68664285Y-64014285D01*
X68550000Y-64128571D01*
X68435714Y-64185714D01*
X69578571Y-63957142D02*
X69635714Y-63900000D01*
X69750000Y-63842857D01*
X70035714Y-63842857D01*
X70150000Y-63900000D01*
X70207142Y-63957142D01*
X70264285Y-64071428D01*
X70264285Y-64185714D01*
X70207142Y-64357142D01*
X69521428Y-65042857D01*
X70264285Y-65042857D01*
X71635714Y-63785714D02*
X70607142Y-65328571D01*
X71978571Y-63957142D02*
X72035714Y-63900000D01*
X72150000Y-63842857D01*
X72435714Y-63842857D01*
X72550000Y-63900000D01*
X72607142Y-63957142D01*
X72664285Y-64071428D01*
X72664285Y-64185714D01*
X72607142Y-64357142D01*
X71921428Y-65042857D01*
X72664285Y-65042857D01*
X73407142Y-63842857D02*
X73521428Y-63842857D01*
X73635714Y-63900000D01*
X73692857Y-63957142D01*
X73750000Y-64071428D01*
X73807142Y-64300000D01*
X73807142Y-64585714D01*
X73750000Y-64814285D01*
X73692857Y-64928571D01*
X73635714Y-64985714D01*
X73521428Y-65042857D01*
X73407142Y-65042857D01*
X73292857Y-64985714D01*
X73235714Y-64928571D01*
X73178571Y-64814285D01*
X73121428Y-64585714D01*
X73121428Y-64300000D01*
X73178571Y-64071428D01*
X73235714Y-63957142D01*
X73292857Y-63900000D01*
X73407142Y-63842857D01*
X74264285Y-63957142D02*
X74321428Y-63900000D01*
X74435714Y-63842857D01*
X74721428Y-63842857D01*
X74835714Y-63900000D01*
X74892857Y-63957142D01*
X74950000Y-64071428D01*
X74950000Y-64185714D01*
X74892857Y-64357142D01*
X74207142Y-65042857D01*
X74950000Y-65042857D01*
X75692857Y-63842857D02*
X75807142Y-63842857D01*
X75921428Y-63900000D01*
X75978571Y-63957142D01*
X76035714Y-64071428D01*
X76092857Y-64300000D01*
X76092857Y-64585714D01*
X76035714Y-64814285D01*
X75978571Y-64928571D01*
X75921428Y-64985714D01*
X75807142Y-65042857D01*
X75692857Y-65042857D01*
X75578571Y-64985714D01*
X75521428Y-64928571D01*
X75464285Y-64814285D01*
X75407142Y-64585714D01*
X75407142Y-64300000D01*
X75464285Y-64071428D01*
X75521428Y-63957142D01*
X75578571Y-63900000D01*
X75692857Y-63842857D01*
X77521428Y-64585714D02*
X78435714Y-64585714D01*
X80607142Y-65042857D02*
X80207142Y-64471428D01*
X79921428Y-65042857D02*
X79921428Y-63842857D01*
X80378571Y-63842857D01*
X80492857Y-63900000D01*
X80550000Y-63957142D01*
X80607142Y-64071428D01*
X80607142Y-64242857D01*
X80550000Y-64357142D01*
X80492857Y-64414285D01*
X80378571Y-64471428D01*
X79921428Y-64471428D01*
X81578571Y-64985714D02*
X81464285Y-65042857D01*
X81235714Y-65042857D01*
X81121428Y-64985714D01*
X81064285Y-64871428D01*
X81064285Y-64414285D01*
X81121428Y-64300000D01*
X81235714Y-64242857D01*
X81464285Y-64242857D01*
X81578571Y-64300000D01*
X81635714Y-64414285D01*
X81635714Y-64528571D01*
X81064285Y-64642857D01*
X82035714Y-64242857D02*
X82321428Y-65042857D01*
X82607142Y-64242857D01*
X83064285Y-64928571D02*
X83121428Y-64985714D01*
X83064285Y-65042857D01*
X83007142Y-64985714D01*
X83064285Y-64928571D01*
X83064285Y-65042857D01*
X84492857Y-64700000D02*
X85064285Y-64700000D01*
X84378571Y-65042857D02*
X84778571Y-63842857D01*
X85178571Y-65042857D01*
X87482181Y-139371320D02*
X86633653Y-138522791D01*
X87522587Y-138846040D01*
X87199339Y-137957106D01*
X88047867Y-138805634D01*
X88815583Y-138037918D02*
X88371116Y-137593451D01*
X88249897Y-137553045D01*
X88128679Y-137593451D01*
X87967055Y-137755076D01*
X87926648Y-137876294D01*
X88775177Y-137997512D02*
X88734770Y-138118730D01*
X88532740Y-138320761D01*
X88411522Y-138361167D01*
X88290303Y-138320761D01*
X88209491Y-138239949D01*
X88169085Y-138118730D01*
X88209491Y-137997512D01*
X88411522Y-137795482D01*
X88451928Y-137674263D01*
X89583299Y-137270202D02*
X88734770Y-136421674D01*
X89542893Y-137229796D02*
X89502486Y-137351015D01*
X89340862Y-137512639D01*
X89219644Y-137553045D01*
X89138831Y-137553045D01*
X89017613Y-137512639D01*
X88775177Y-137270202D01*
X88734770Y-137148984D01*
X88734770Y-137068172D01*
X88775177Y-136946954D01*
X88936801Y-136785329D01*
X89058019Y-136744923D01*
X90270202Y-136502486D02*
X90229796Y-136623705D01*
X90068172Y-136785329D01*
X89946954Y-136825735D01*
X89825735Y-136785329D01*
X89502486Y-136462080D01*
X89462080Y-136340862D01*
X89502486Y-136219644D01*
X89664111Y-136058019D01*
X89785329Y-136017613D01*
X89906547Y-136058019D01*
X89987360Y-136138831D01*
X89664111Y-136623705D01*
X91361167Y-135492334D02*
X90512639Y-134643806D01*
X90835888Y-134967055D02*
X90876294Y-134845836D01*
X91037918Y-134684212D01*
X91159137Y-134643806D01*
X91239949Y-134643806D01*
X91361167Y-134684212D01*
X91603604Y-134926648D01*
X91644010Y-135047867D01*
X91644010Y-135128679D01*
X91603604Y-135249897D01*
X91441979Y-135411522D01*
X91320761Y-135451928D01*
X91482385Y-134239745D02*
X92250101Y-134603400D01*
X91886446Y-133835684D02*
X92250101Y-134603400D01*
X92371320Y-134886242D01*
X92371320Y-134967055D01*
X92330914Y-135088273D01*
X88391319Y-141290610D02*
X87987258Y-141694671D01*
X87138730Y-140846143D01*
X88957004Y-140644112D02*
X88916598Y-140765331D01*
X88754974Y-140926955D01*
X88633756Y-140967361D01*
X88512537Y-140926955D01*
X88189289Y-140603706D01*
X88148882Y-140482488D01*
X88189289Y-140361270D01*
X88350913Y-140199645D01*
X88472131Y-140159239D01*
X88593350Y-140199645D01*
X88674162Y-140280457D01*
X88350913Y-140765331D01*
X89401472Y-140280457D02*
X88835786Y-139714772D01*
X88916598Y-139795584D02*
X88916598Y-139714772D01*
X88957004Y-139593554D01*
X89078223Y-139472335D01*
X89199441Y-139431929D01*
X89320659Y-139472335D01*
X89765126Y-139916802D01*
X89320659Y-139472335D02*
X89280253Y-139351117D01*
X89320659Y-139229899D01*
X89441878Y-139108680D01*
X89563096Y-139068274D01*
X89684314Y-139108680D01*
X90128781Y-139553148D01*
X90654061Y-139027868D02*
X90532842Y-139068274D01*
X90452030Y-139068274D01*
X90330812Y-139027868D01*
X90088375Y-138785432D01*
X90047969Y-138664213D01*
X90047969Y-138583401D01*
X90088375Y-138462183D01*
X90209594Y-138340964D01*
X90330812Y-138300558D01*
X90411624Y-138300558D01*
X90532842Y-138340964D01*
X90775279Y-138583401D01*
X90815685Y-138704619D01*
X90815685Y-138785432D01*
X90775279Y-138906650D01*
X90654061Y-139027868D01*
X90734873Y-137815685D02*
X91300558Y-138381371D01*
X90815685Y-137896497D02*
X90815685Y-137815685D01*
X90856091Y-137694467D01*
X90977310Y-137573249D01*
X91098528Y-137532842D01*
X91219746Y-137573249D01*
X91664213Y-138017716D01*
X92068274Y-137613655D02*
X91219746Y-136765126D01*
X92431929Y-137250000D02*
X91987462Y-136805533D01*
X91866244Y-136765126D01*
X91745025Y-136805533D01*
X91623807Y-136926751D01*
X91583401Y-137047969D01*
X91583401Y-137128781D01*
X93118833Y-136482284D02*
X93078427Y-136603502D01*
X92916802Y-136765126D01*
X92795584Y-136805533D01*
X92674366Y-136765126D01*
X92351117Y-136441878D01*
X92310711Y-136320659D01*
X92351117Y-136199441D01*
X92512741Y-136037817D01*
X92633960Y-135997411D01*
X92755178Y-136037817D01*
X92835990Y-136118629D01*
X92512741Y-136603502D01*
X93926955Y-135754974D02*
X93482488Y-135310507D01*
X93361270Y-135270101D01*
X93240051Y-135310507D01*
X93078427Y-135472131D01*
X93038021Y-135593350D01*
X93886549Y-135714568D02*
X93846143Y-135835786D01*
X93644112Y-136037817D01*
X93522894Y-136078223D01*
X93401676Y-136037817D01*
X93320863Y-135957004D01*
X93280457Y-135835786D01*
X93320863Y-135714568D01*
X93522894Y-135512537D01*
X93563300Y-135391319D01*
X94694671Y-134987258D02*
X93846143Y-134138730D01*
X94654265Y-134946852D02*
X94613859Y-135068070D01*
X94452234Y-135229695D01*
X94331016Y-135270101D01*
X94250204Y-135270101D01*
X94128985Y-135229695D01*
X93886549Y-134987258D01*
X93846143Y-134866040D01*
X93846143Y-134785228D01*
X93886549Y-134664009D01*
X94048173Y-134502385D01*
X94169392Y-134461979D01*
D12*
X71828571Y-85711904D02*
X71371428Y-85711904D01*
X71600000Y-85711904D02*
X71600000Y-84911904D01*
X71523809Y-85026190D01*
X71447619Y-85102380D01*
X71371428Y-85140476D01*
X75311904Y-84911904D02*
X75388095Y-84911904D01*
X75464285Y-84950000D01*
X75502380Y-84988095D01*
X75540476Y-85064285D01*
X75578571Y-85216666D01*
X75578571Y-85407142D01*
X75540476Y-85559523D01*
X75502380Y-85635714D01*
X75464285Y-85673809D01*
X75388095Y-85711904D01*
X75311904Y-85711904D01*
X75235714Y-85673809D01*
X75197619Y-85635714D01*
X75159523Y-85559523D01*
X75121428Y-85407142D01*
X75121428Y-85216666D01*
X75159523Y-85064285D01*
X75197619Y-84988095D01*
X75235714Y-84950000D01*
X75311904Y-84911904D01*
X69800000Y-84133333D02*
X70180952Y-84133333D01*
X69723809Y-84361904D02*
X69990476Y-83561904D01*
X70257142Y-84361904D01*
X70523809Y-83561904D02*
X70523809Y-84209523D01*
X70561904Y-84285714D01*
X70600000Y-84323809D01*
X70676190Y-84361904D01*
X70828571Y-84361904D01*
X70904761Y-84323809D01*
X70942857Y-84285714D01*
X70980952Y-84209523D01*
X70980952Y-83561904D01*
X71247619Y-83561904D02*
X71704761Y-83561904D01*
X71476190Y-84361904D02*
X71476190Y-83561904D01*
X72123809Y-83561904D02*
X72276190Y-83561904D01*
X72352380Y-83600000D01*
X72428571Y-83676190D01*
X72466666Y-83828571D01*
X72466666Y-84095238D01*
X72428571Y-84247619D01*
X72352380Y-84323809D01*
X72276190Y-84361904D01*
X72123809Y-84361904D01*
X72047619Y-84323809D01*
X71971428Y-84247619D01*
X71933333Y-84095238D01*
X71933333Y-83828571D01*
X71971428Y-83676190D01*
X72047619Y-83600000D01*
X72123809Y-83561904D01*
X72809523Y-84057142D02*
X73419047Y-84057142D01*
X73800000Y-84361904D02*
X73800000Y-83561904D01*
X74257142Y-84361904D01*
X74257142Y-83561904D01*
X74638095Y-83942857D02*
X74904761Y-83942857D01*
X75019047Y-84361904D02*
X74638095Y-84361904D01*
X74638095Y-83561904D01*
X75019047Y-83561904D01*
X75780952Y-83600000D02*
X75704761Y-83561904D01*
X75590476Y-83561904D01*
X75476190Y-83600000D01*
X75400000Y-83676190D01*
X75361904Y-83752380D01*
X75323809Y-83904761D01*
X75323809Y-84019047D01*
X75361904Y-84171428D01*
X75400000Y-84247619D01*
X75476190Y-84323809D01*
X75590476Y-84361904D01*
X75666666Y-84361904D01*
X75780952Y-84323809D01*
X75819047Y-84285714D01*
X75819047Y-84019047D01*
X75666666Y-84019047D01*
X76161904Y-84285714D02*
X76200000Y-84323809D01*
X76161904Y-84361904D01*
X76123809Y-84323809D01*
X76161904Y-84285714D01*
X76161904Y-84361904D01*
D10*
X73600000Y-85850000D02*
X73600000Y-84750000D01*
X77350000Y-85900000D02*
X77350000Y-84750000D01*
X77350000Y-84750000D02*
X69600000Y-84750000D01*
X69600000Y-84750000D02*
X69600000Y-85850000D01*
D12*
X85361904Y-92411904D02*
X84980952Y-92678571D01*
X85361904Y-92869047D02*
X84561904Y-92869047D01*
X84561904Y-92564285D01*
X84600000Y-92488095D01*
X84638095Y-92450000D01*
X84714285Y-92411904D01*
X84828571Y-92411904D01*
X84904761Y-92450000D01*
X84942857Y-92488095D01*
X84980952Y-92564285D01*
X84980952Y-92869047D01*
X84942857Y-92069047D02*
X84942857Y-91802380D01*
X85361904Y-91688095D02*
X85361904Y-92069047D01*
X84561904Y-92069047D01*
X84561904Y-91688095D01*
X85323809Y-91383333D02*
X85361904Y-91269047D01*
X85361904Y-91078571D01*
X85323809Y-91002380D01*
X85285714Y-90964285D01*
X85209523Y-90926190D01*
X85133333Y-90926190D01*
X85057142Y-90964285D01*
X85019047Y-91002380D01*
X84980952Y-91078571D01*
X84942857Y-91230952D01*
X84904761Y-91307142D01*
X84866666Y-91345238D01*
X84790476Y-91383333D01*
X84714285Y-91383333D01*
X84638095Y-91345238D01*
X84600000Y-91307142D01*
X84561904Y-91230952D01*
X84561904Y-91040476D01*
X84600000Y-90926190D01*
X84942857Y-90583333D02*
X84942857Y-90316666D01*
X85361904Y-90202380D02*
X85361904Y-90583333D01*
X84561904Y-90583333D01*
X84561904Y-90202380D01*
X84561904Y-89973809D02*
X84561904Y-89516666D01*
X85361904Y-89745238D02*
X84561904Y-89745238D01*
X77999880Y-87883333D02*
X78380833Y-87883333D01*
X77923690Y-88111904D02*
X78190357Y-87311904D01*
X78457023Y-88111904D01*
X78723690Y-88111904D02*
X78723690Y-87311904D01*
X79180833Y-88111904D01*
X79180833Y-87311904D01*
X79371309Y-88188095D02*
X79980833Y-88188095D01*
X80171309Y-87692857D02*
X80437976Y-87692857D01*
X80552261Y-88111904D02*
X80171309Y-88111904D01*
X80171309Y-87311904D01*
X80552261Y-87311904D01*
X80895119Y-88111904D02*
X80895119Y-87311904D01*
X81352261Y-88111904D01*
X81352261Y-87311904D01*
X77999880Y-90383333D02*
X78380833Y-90383333D01*
X77923690Y-90611904D02*
X78190357Y-89811904D01*
X78457023Y-90611904D01*
X78723690Y-90611904D02*
X78723690Y-89811904D01*
X79180833Y-90611904D01*
X79180833Y-89811904D01*
X79980833Y-90611904D02*
X79523690Y-90611904D01*
X79752261Y-90611904D02*
X79752261Y-89811904D01*
X79676071Y-89926190D01*
X79599880Y-90002380D01*
X79523690Y-90040476D01*
X77999880Y-92883333D02*
X78380833Y-92883333D01*
X77923690Y-93111904D02*
X78190357Y-92311904D01*
X78457023Y-93111904D01*
X78723690Y-93111904D02*
X78723690Y-92311904D01*
X79180833Y-93111904D01*
X79180833Y-92311904D01*
X79714166Y-92311904D02*
X79790357Y-92311904D01*
X79866547Y-92350000D01*
X79904642Y-92388095D01*
X79942738Y-92464285D01*
X79980833Y-92616666D01*
X79980833Y-92807142D01*
X79942738Y-92959523D01*
X79904642Y-93035714D01*
X79866547Y-93073809D01*
X79790357Y-93111904D01*
X79714166Y-93111904D01*
X79637976Y-93073809D01*
X79599880Y-93035714D01*
X79561785Y-92959523D01*
X79523690Y-92807142D01*
X79523690Y-92616666D01*
X79561785Y-92464285D01*
X79599880Y-92388095D01*
X79637976Y-92350000D01*
X79714166Y-92311904D01*
D10*
X85000000Y-106000000D02*
X87000000Y-106000000D01*
X85000000Y-108500000D02*
X87000000Y-108500000D01*
X85000000Y-111000000D02*
X87000000Y-111000000D01*
X85000000Y-103500000D02*
X85000000Y-111000000D01*
X87000000Y-103500000D02*
X85000000Y-103500000D01*
X92500000Y-106000000D02*
X94750000Y-106000000D01*
X92500000Y-108500000D02*
X94750000Y-108500000D01*
X94750000Y-111000000D02*
X92500000Y-111000000D01*
X94750000Y-103500000D02*
X94750000Y-111000000D01*
X92500000Y-103500000D02*
X94750000Y-103500000D01*
D13*
X85952380Y-104202380D02*
X86047619Y-104202380D01*
X86142857Y-104250000D01*
X86190476Y-104297619D01*
X86238095Y-104392857D01*
X86285714Y-104583333D01*
X86285714Y-104821428D01*
X86238095Y-105011904D01*
X86190476Y-105107142D01*
X86142857Y-105154761D01*
X86047619Y-105202380D01*
X85952380Y-105202380D01*
X85857142Y-105154761D01*
X85809523Y-105107142D01*
X85761904Y-105011904D01*
X85714285Y-104821428D01*
X85714285Y-104583333D01*
X85761904Y-104392857D01*
X85809523Y-104297619D01*
X85857142Y-104250000D01*
X85952380Y-104202380D01*
X86285714Y-110202380D02*
X85714285Y-110202380D01*
X86000000Y-110202380D02*
X86000000Y-109202380D01*
X85904761Y-109345238D01*
X85809523Y-109440476D01*
X85714285Y-109488095D01*
X85595238Y-107178571D02*
X85738095Y-107226190D01*
X85785714Y-107273809D01*
X85833333Y-107369047D01*
X85833333Y-107511904D01*
X85785714Y-107607142D01*
X85738095Y-107654761D01*
X85642857Y-107702380D01*
X85261904Y-107702380D01*
X85261904Y-106702380D01*
X85595238Y-106702380D01*
X85690476Y-106750000D01*
X85738095Y-106797619D01*
X85785714Y-106892857D01*
X85785714Y-106988095D01*
X85738095Y-107083333D01*
X85690476Y-107130952D01*
X85595238Y-107178571D01*
X85261904Y-107178571D01*
X86785714Y-107702380D02*
X86214285Y-107702380D01*
X86500000Y-107702380D02*
X86500000Y-106702380D01*
X86404761Y-106845238D01*
X86309523Y-106940476D01*
X86214285Y-106988095D01*
X93785714Y-110202380D02*
X93214285Y-110202380D01*
X93500000Y-110202380D02*
X93500000Y-109202380D01*
X93404761Y-109345238D01*
X93309523Y-109440476D01*
X93214285Y-109488095D01*
X93452380Y-104202380D02*
X93547619Y-104202380D01*
X93642857Y-104250000D01*
X93690476Y-104297619D01*
X93738095Y-104392857D01*
X93785714Y-104583333D01*
X93785714Y-104821428D01*
X93738095Y-105011904D01*
X93690476Y-105107142D01*
X93642857Y-105154761D01*
X93547619Y-105202380D01*
X93452380Y-105202380D01*
X93357142Y-105154761D01*
X93309523Y-105107142D01*
X93261904Y-105011904D01*
X93214285Y-104821428D01*
X93214285Y-104583333D01*
X93261904Y-104392857D01*
X93309523Y-104297619D01*
X93357142Y-104250000D01*
X93452380Y-104202380D01*
D10*
X95200000Y-95500000D02*
X83200000Y-95500000D01*
X95200000Y-101300000D02*
X95200000Y-95500000D01*
X83200000Y-101300000D02*
X95200000Y-101300000D01*
X83200000Y-95500000D02*
X83200000Y-101300000D01*
X87500000Y-95500000D02*
X87450000Y-101300000D01*
X85450000Y-95500000D02*
X85450000Y-101300000D01*
X83200000Y-97100000D02*
X95200000Y-97100000D01*
D12*
X84004642Y-96417857D02*
X84118928Y-96455952D01*
X84157023Y-96494047D01*
X84195119Y-96570238D01*
X84195119Y-96684523D01*
X84157023Y-96760714D01*
X84118928Y-96798809D01*
X84042738Y-96836904D01*
X83737976Y-96836904D01*
X83737976Y-96036904D01*
X84004642Y-96036904D01*
X84080833Y-96075000D01*
X84118928Y-96113095D01*
X84157023Y-96189285D01*
X84157023Y-96265476D01*
X84118928Y-96341666D01*
X84080833Y-96379761D01*
X84004642Y-96417857D01*
X83737976Y-96417857D01*
X84690357Y-96036904D02*
X84766547Y-96036904D01*
X84842738Y-96075000D01*
X84880833Y-96113095D01*
X84918928Y-96189285D01*
X84957023Y-96341666D01*
X84957023Y-96532142D01*
X84918928Y-96684523D01*
X84880833Y-96760714D01*
X84842738Y-96798809D01*
X84766547Y-96836904D01*
X84690357Y-96836904D01*
X84614166Y-96798809D01*
X84576071Y-96760714D01*
X84537976Y-96684523D01*
X84499880Y-96532142D01*
X84499880Y-96341666D01*
X84537976Y-96189285D01*
X84576071Y-96113095D01*
X84614166Y-96075000D01*
X84690357Y-96036904D01*
X86176071Y-96417857D02*
X86290357Y-96455952D01*
X86328452Y-96494047D01*
X86366547Y-96570238D01*
X86366547Y-96684523D01*
X86328452Y-96760714D01*
X86290357Y-96798809D01*
X86214166Y-96836904D01*
X85909404Y-96836904D01*
X85909404Y-96036904D01*
X86176071Y-96036904D01*
X86252261Y-96075000D01*
X86290357Y-96113095D01*
X86328452Y-96189285D01*
X86328452Y-96265476D01*
X86290357Y-96341666D01*
X86252261Y-96379761D01*
X86176071Y-96417857D01*
X85909404Y-96417857D01*
X87128452Y-96836904D02*
X86671309Y-96836904D01*
X86899880Y-96836904D02*
X86899880Y-96036904D01*
X86823690Y-96151190D01*
X86747500Y-96227380D01*
X86671309Y-96265476D01*
X88347500Y-96417857D02*
X88461785Y-96455952D01*
X88499880Y-96494047D01*
X88537976Y-96570238D01*
X88537976Y-96684523D01*
X88499880Y-96760714D01*
X88461785Y-96798809D01*
X88385595Y-96836904D01*
X88080833Y-96836904D01*
X88080833Y-96036904D01*
X88347500Y-96036904D01*
X88423690Y-96075000D01*
X88461785Y-96113095D01*
X88499880Y-96189285D01*
X88499880Y-96265476D01*
X88461785Y-96341666D01*
X88423690Y-96379761D01*
X88347500Y-96417857D01*
X88080833Y-96417857D01*
X88995119Y-96836904D02*
X88918928Y-96798809D01*
X88880833Y-96760714D01*
X88842738Y-96684523D01*
X88842738Y-96455952D01*
X88880833Y-96379761D01*
X88918928Y-96341666D01*
X88995119Y-96303571D01*
X89109404Y-96303571D01*
X89185595Y-96341666D01*
X89223690Y-96379761D01*
X89261785Y-96455952D01*
X89261785Y-96684523D01*
X89223690Y-96760714D01*
X89185595Y-96798809D01*
X89109404Y-96836904D01*
X88995119Y-96836904D01*
X89718928Y-96836904D02*
X89642738Y-96798809D01*
X89604642Y-96760714D01*
X89566547Y-96684523D01*
X89566547Y-96455952D01*
X89604642Y-96379761D01*
X89642738Y-96341666D01*
X89718928Y-96303571D01*
X89833214Y-96303571D01*
X89909404Y-96341666D01*
X89947500Y-96379761D01*
X89985595Y-96455952D01*
X89985595Y-96684523D01*
X89947500Y-96760714D01*
X89909404Y-96798809D01*
X89833214Y-96836904D01*
X89718928Y-96836904D01*
X90214166Y-96303571D02*
X90518928Y-96303571D01*
X90328452Y-96036904D02*
X90328452Y-96722619D01*
X90366547Y-96798809D01*
X90442738Y-96836904D01*
X90518928Y-96836904D01*
X90785595Y-96532142D02*
X91395119Y-96532142D01*
X91776071Y-96836904D02*
X91776071Y-96036904D01*
X92042738Y-96608333D01*
X92309404Y-96036904D01*
X92309404Y-96836904D01*
X92804642Y-96836904D02*
X92728452Y-96798809D01*
X92690357Y-96760714D01*
X92652261Y-96684523D01*
X92652261Y-96455952D01*
X92690357Y-96379761D01*
X92728452Y-96341666D01*
X92804642Y-96303571D01*
X92918928Y-96303571D01*
X92995119Y-96341666D01*
X93033214Y-96379761D01*
X93071309Y-96455952D01*
X93071309Y-96684523D01*
X93033214Y-96760714D01*
X92995119Y-96798809D01*
X92918928Y-96836904D01*
X92804642Y-96836904D01*
X93757023Y-96836904D02*
X93757023Y-96036904D01*
X93757023Y-96798809D02*
X93680833Y-96836904D01*
X93528452Y-96836904D01*
X93452261Y-96798809D01*
X93414166Y-96760714D01*
X93376071Y-96684523D01*
X93376071Y-96455952D01*
X93414166Y-96379761D01*
X93452261Y-96341666D01*
X93528452Y-96303571D01*
X93680833Y-96303571D01*
X93757023Y-96341666D01*
X94442738Y-96798809D02*
X94366547Y-96836904D01*
X94214166Y-96836904D01*
X94137976Y-96798809D01*
X94099880Y-96722619D01*
X94099880Y-96417857D01*
X94137976Y-96341666D01*
X94214166Y-96303571D01*
X94366547Y-96303571D01*
X94442738Y-96341666D01*
X94480833Y-96417857D01*
X94480833Y-96494047D01*
X94099880Y-96570238D01*
X84271309Y-97386904D02*
X84804642Y-98186904D01*
X84804642Y-97386904D02*
X84271309Y-98186904D01*
X86480833Y-97386904D02*
X86557023Y-97386904D01*
X86633214Y-97425000D01*
X86671309Y-97463095D01*
X86709404Y-97539285D01*
X86747500Y-97691666D01*
X86747500Y-97882142D01*
X86709404Y-98034523D01*
X86671309Y-98110714D01*
X86633214Y-98148809D01*
X86557023Y-98186904D01*
X86480833Y-98186904D01*
X86404642Y-98148809D01*
X86366547Y-98110714D01*
X86328452Y-98034523D01*
X86290357Y-97882142D01*
X86290357Y-97691666D01*
X86328452Y-97539285D01*
X86366547Y-97463095D01*
X86404642Y-97425000D01*
X86480833Y-97386904D01*
X88309404Y-98186904D02*
X88309404Y-97386904D01*
X88576071Y-97958333D01*
X88842738Y-97386904D01*
X88842738Y-98186904D01*
X89566547Y-98186904D02*
X89566547Y-97767857D01*
X89528452Y-97691666D01*
X89452261Y-97653571D01*
X89299880Y-97653571D01*
X89223690Y-97691666D01*
X89566547Y-98148809D02*
X89490357Y-98186904D01*
X89299880Y-98186904D01*
X89223690Y-98148809D01*
X89185595Y-98072619D01*
X89185595Y-97996428D01*
X89223690Y-97920238D01*
X89299880Y-97882142D01*
X89490357Y-97882142D01*
X89566547Y-97844047D01*
X89947500Y-98186904D02*
X89947500Y-97653571D01*
X89947500Y-97386904D02*
X89909404Y-97425000D01*
X89947500Y-97463095D01*
X89985595Y-97425000D01*
X89947500Y-97386904D01*
X89947500Y-97463095D01*
X90328452Y-97653571D02*
X90328452Y-98186904D01*
X90328452Y-97729761D02*
X90366547Y-97691666D01*
X90442738Y-97653571D01*
X90557023Y-97653571D01*
X90633214Y-97691666D01*
X90671309Y-97767857D01*
X90671309Y-98186904D01*
X91661785Y-98186904D02*
X91661785Y-97653571D01*
X91661785Y-97729761D02*
X91699880Y-97691666D01*
X91776071Y-97653571D01*
X91890357Y-97653571D01*
X91966547Y-97691666D01*
X92004642Y-97767857D01*
X92004642Y-98186904D01*
X92004642Y-97767857D02*
X92042738Y-97691666D01*
X92118928Y-97653571D01*
X92233214Y-97653571D01*
X92309404Y-97691666D01*
X92347500Y-97767857D01*
X92347500Y-98186904D01*
X93033214Y-98148809D02*
X92957023Y-98186904D01*
X92804642Y-98186904D01*
X92728452Y-98148809D01*
X92690357Y-98072619D01*
X92690357Y-97767857D01*
X92728452Y-97691666D01*
X92804642Y-97653571D01*
X92957023Y-97653571D01*
X93033214Y-97691666D01*
X93071309Y-97767857D01*
X93071309Y-97844047D01*
X92690357Y-97920238D01*
X93414166Y-98186904D02*
X93414166Y-97653571D01*
X93414166Y-97729761D02*
X93452261Y-97691666D01*
X93528452Y-97653571D01*
X93642738Y-97653571D01*
X93718928Y-97691666D01*
X93757023Y-97767857D01*
X93757023Y-98186904D01*
X93757023Y-97767857D02*
X93795119Y-97691666D01*
X93871309Y-97653571D01*
X93985595Y-97653571D01*
X94061785Y-97691666D01*
X94099880Y-97767857D01*
X94099880Y-98186904D01*
X94480833Y-98110714D02*
X94518928Y-98148809D01*
X94480833Y-98186904D01*
X94442738Y-98148809D01*
X94480833Y-98110714D01*
X94480833Y-98186904D01*
X84499880Y-98736904D02*
X84576071Y-98736904D01*
X84652261Y-98775000D01*
X84690357Y-98813095D01*
X84728452Y-98889285D01*
X84766547Y-99041666D01*
X84766547Y-99232142D01*
X84728452Y-99384523D01*
X84690357Y-99460714D01*
X84652261Y-99498809D01*
X84576071Y-99536904D01*
X84499880Y-99536904D01*
X84423690Y-99498809D01*
X84385595Y-99460714D01*
X84347500Y-99384523D01*
X84309404Y-99232142D01*
X84309404Y-99041666D01*
X84347500Y-98889285D01*
X84385595Y-98813095D01*
X84423690Y-98775000D01*
X84499880Y-98736904D01*
X86747500Y-99536904D02*
X86290357Y-99536904D01*
X86518928Y-99536904D02*
X86518928Y-98736904D01*
X86442738Y-98851190D01*
X86366547Y-98927380D01*
X86290357Y-98965476D01*
X88271309Y-99498809D02*
X88385595Y-99536904D01*
X88576071Y-99536904D01*
X88652261Y-99498809D01*
X88690357Y-99460714D01*
X88728452Y-99384523D01*
X88728452Y-99308333D01*
X88690357Y-99232142D01*
X88652261Y-99194047D01*
X88576071Y-99155952D01*
X88423690Y-99117857D01*
X88347500Y-99079761D01*
X88309404Y-99041666D01*
X88271309Y-98965476D01*
X88271309Y-98889285D01*
X88309404Y-98813095D01*
X88347500Y-98775000D01*
X88423690Y-98736904D01*
X88614166Y-98736904D01*
X88728452Y-98775000D01*
X88995119Y-99003571D02*
X89185595Y-99536904D01*
X89376071Y-99003571D02*
X89185595Y-99536904D01*
X89109404Y-99727380D01*
X89071309Y-99765476D01*
X88995119Y-99803571D01*
X89642738Y-99498809D02*
X89718928Y-99536904D01*
X89871309Y-99536904D01*
X89947500Y-99498809D01*
X89985595Y-99422619D01*
X89985595Y-99384523D01*
X89947500Y-99308333D01*
X89871309Y-99270238D01*
X89757023Y-99270238D01*
X89680833Y-99232142D01*
X89642738Y-99155952D01*
X89642738Y-99117857D01*
X89680833Y-99041666D01*
X89757023Y-99003571D01*
X89871309Y-99003571D01*
X89947500Y-99041666D01*
X90328452Y-99460714D02*
X90366547Y-99498809D01*
X90328452Y-99536904D01*
X90290357Y-99498809D01*
X90328452Y-99460714D01*
X90328452Y-99536904D01*
X91318928Y-99536904D02*
X91318928Y-99003571D01*
X91318928Y-99079761D02*
X91357023Y-99041666D01*
X91433214Y-99003571D01*
X91547500Y-99003571D01*
X91623690Y-99041666D01*
X91661785Y-99117857D01*
X91661785Y-99536904D01*
X91661785Y-99117857D02*
X91699880Y-99041666D01*
X91776071Y-99003571D01*
X91890357Y-99003571D01*
X91966547Y-99041666D01*
X92004642Y-99117857D01*
X92004642Y-99536904D01*
X92690357Y-99498809D02*
X92614166Y-99536904D01*
X92461785Y-99536904D01*
X92385595Y-99498809D01*
X92347500Y-99422619D01*
X92347500Y-99117857D01*
X92385595Y-99041666D01*
X92461785Y-99003571D01*
X92614166Y-99003571D01*
X92690357Y-99041666D01*
X92728452Y-99117857D01*
X92728452Y-99194047D01*
X92347500Y-99270238D01*
X93071309Y-99536904D02*
X93071309Y-99003571D01*
X93071309Y-99079761D02*
X93109404Y-99041666D01*
X93185595Y-99003571D01*
X93299880Y-99003571D01*
X93376071Y-99041666D01*
X93414166Y-99117857D01*
X93414166Y-99536904D01*
X93414166Y-99117857D02*
X93452261Y-99041666D01*
X93528452Y-99003571D01*
X93642738Y-99003571D01*
X93718928Y-99041666D01*
X93757023Y-99117857D01*
X93757023Y-99536904D01*
X94137976Y-99460714D02*
X94176071Y-99498809D01*
X94137976Y-99536904D01*
X94099880Y-99498809D01*
X94137976Y-99460714D01*
X94137976Y-99536904D01*
X84766547Y-100886904D02*
X84309404Y-100886904D01*
X84537976Y-100886904D02*
X84537976Y-100086904D01*
X84461785Y-100201190D01*
X84385595Y-100277380D01*
X84309404Y-100315476D01*
X86747500Y-100886904D02*
X86290357Y-100886904D01*
X86518928Y-100886904D02*
X86518928Y-100086904D01*
X86442738Y-100201190D01*
X86366547Y-100277380D01*
X86290357Y-100315476D01*
X88309404Y-100467857D02*
X88576071Y-100467857D01*
X88690357Y-100886904D02*
X88309404Y-100886904D01*
X88309404Y-100086904D01*
X88690357Y-100086904D01*
X89033214Y-100886904D02*
X89033214Y-100353571D01*
X89033214Y-100429761D02*
X89071309Y-100391666D01*
X89147500Y-100353571D01*
X89261785Y-100353571D01*
X89337976Y-100391666D01*
X89376071Y-100467857D01*
X89376071Y-100886904D01*
X89376071Y-100467857D02*
X89414166Y-100391666D01*
X89490357Y-100353571D01*
X89604642Y-100353571D01*
X89680833Y-100391666D01*
X89718928Y-100467857D01*
X89718928Y-100886904D01*
X90099880Y-100886904D02*
X90099880Y-100086904D01*
X90099880Y-100391666D02*
X90176071Y-100353571D01*
X90328452Y-100353571D01*
X90404642Y-100391666D01*
X90442738Y-100429761D01*
X90480833Y-100505952D01*
X90480833Y-100734523D01*
X90442738Y-100810714D01*
X90404642Y-100848809D01*
X90328452Y-100886904D01*
X90176071Y-100886904D01*
X90099880Y-100848809D01*
X90823690Y-100810714D02*
X90861785Y-100848809D01*
X90823690Y-100886904D01*
X90785595Y-100848809D01*
X90823690Y-100810714D01*
X90823690Y-100886904D01*
X91776071Y-100848809D02*
X91890357Y-100886904D01*
X92080833Y-100886904D01*
X92157023Y-100848809D01*
X92195119Y-100810714D01*
X92233214Y-100734523D01*
X92233214Y-100658333D01*
X92195119Y-100582142D01*
X92157023Y-100544047D01*
X92080833Y-100505952D01*
X91928452Y-100467857D01*
X91852261Y-100429761D01*
X91814166Y-100391666D01*
X91776071Y-100315476D01*
X91776071Y-100239285D01*
X91814166Y-100163095D01*
X91852261Y-100125000D01*
X91928452Y-100086904D01*
X92118928Y-100086904D01*
X92233214Y-100125000D01*
X93033214Y-100886904D02*
X92766547Y-100505952D01*
X92576071Y-100886904D02*
X92576071Y-100086904D01*
X92880833Y-100086904D01*
X92957023Y-100125000D01*
X92995119Y-100163095D01*
X93033214Y-100239285D01*
X93033214Y-100353571D01*
X92995119Y-100429761D01*
X92957023Y-100467857D01*
X92880833Y-100505952D01*
X92576071Y-100505952D01*
X93337976Y-100658333D02*
X93718928Y-100658333D01*
X93261785Y-100886904D02*
X93528452Y-100086904D01*
X93795119Y-100886904D01*
X94061785Y-100886904D02*
X94061785Y-100086904D01*
X94328452Y-100658333D01*
X94595119Y-100086904D01*
X94595119Y-100886904D01*
D13*
X93095238Y-107178571D02*
X93238095Y-107226190D01*
X93285714Y-107273809D01*
X93333333Y-107369047D01*
X93333333Y-107511904D01*
X93285714Y-107607142D01*
X93238095Y-107654761D01*
X93142857Y-107702380D01*
X92761904Y-107702380D01*
X92761904Y-106702380D01*
X93095238Y-106702380D01*
X93190476Y-106750000D01*
X93238095Y-106797619D01*
X93285714Y-106892857D01*
X93285714Y-106988095D01*
X93238095Y-107083333D01*
X93190476Y-107130952D01*
X93095238Y-107178571D01*
X92761904Y-107178571D01*
X93952380Y-106702380D02*
X94047619Y-106702380D01*
X94142857Y-106750000D01*
X94190476Y-106797619D01*
X94238095Y-106892857D01*
X94285714Y-107083333D01*
X94285714Y-107321428D01*
X94238095Y-107511904D01*
X94190476Y-107607142D01*
X94142857Y-107654761D01*
X94047619Y-107702380D01*
X93952380Y-107702380D01*
X93857142Y-107654761D01*
X93809523Y-107607142D01*
X93761904Y-107511904D01*
X93714285Y-107321428D01*
X93714285Y-107083333D01*
X93761904Y-106892857D01*
X93809523Y-106797619D01*
X93857142Y-106750000D01*
X93952380Y-106702380D01*
D12*
X86514285Y-121361904D02*
X86514285Y-120561904D01*
X86514285Y-120942857D02*
X86971428Y-120942857D01*
X86971428Y-121361904D02*
X86971428Y-120561904D01*
X87657142Y-121323809D02*
X87580952Y-121361904D01*
X87428571Y-121361904D01*
X87352380Y-121323809D01*
X87314285Y-121247619D01*
X87314285Y-120942857D01*
X87352380Y-120866666D01*
X87428571Y-120828571D01*
X87580952Y-120828571D01*
X87657142Y-120866666D01*
X87695238Y-120942857D01*
X87695238Y-121019047D01*
X87314285Y-121095238D01*
X88152380Y-121361904D02*
X88076190Y-121323809D01*
X88038095Y-121247619D01*
X88038095Y-120561904D01*
X88571428Y-121361904D02*
X88495238Y-121323809D01*
X88457142Y-121247619D01*
X88457142Y-120561904D01*
X88990476Y-121361904D02*
X88914285Y-121323809D01*
X88876190Y-121285714D01*
X88838095Y-121209523D01*
X88838095Y-120980952D01*
X88876190Y-120904761D01*
X88914285Y-120866666D01*
X88990476Y-120828571D01*
X89104761Y-120828571D01*
X89180952Y-120866666D01*
X89219047Y-120904761D01*
X89257142Y-120980952D01*
X89257142Y-121209523D01*
X89219047Y-121285714D01*
X89180952Y-121323809D01*
X89104761Y-121361904D01*
X88990476Y-121361904D01*
X90133333Y-120561904D02*
X90323809Y-121361904D01*
X90476190Y-120790476D01*
X90628571Y-121361904D01*
X90819047Y-120561904D01*
X91238095Y-121361904D02*
X91161904Y-121323809D01*
X91123809Y-121285714D01*
X91085714Y-121209523D01*
X91085714Y-120980952D01*
X91123809Y-120904761D01*
X91161904Y-120866666D01*
X91238095Y-120828571D01*
X91352380Y-120828571D01*
X91428571Y-120866666D01*
X91466666Y-120904761D01*
X91504761Y-120980952D01*
X91504761Y-121209523D01*
X91466666Y-121285714D01*
X91428571Y-121323809D01*
X91352380Y-121361904D01*
X91238095Y-121361904D01*
X91847619Y-121361904D02*
X91847619Y-120828571D01*
X91847619Y-120980952D02*
X91885714Y-120904761D01*
X91923809Y-120866666D01*
X92000000Y-120828571D01*
X92076190Y-120828571D01*
X92457142Y-121361904D02*
X92380952Y-121323809D01*
X92342857Y-121247619D01*
X92342857Y-120561904D01*
X93104761Y-121361904D02*
X93104761Y-120561904D01*
X93104761Y-121323809D02*
X93028571Y-121361904D01*
X92876190Y-121361904D01*
X92800000Y-121323809D01*
X92761904Y-121285714D01*
X92723809Y-121209523D01*
X92723809Y-120980952D01*
X92761904Y-120904761D01*
X92800000Y-120866666D01*
X92876190Y-120828571D01*
X93028571Y-120828571D01*
X93104761Y-120866666D01*
X93485714Y-121285714D02*
X93523809Y-121323809D01*
X93485714Y-121361904D01*
X93447619Y-121323809D01*
X93485714Y-121285714D01*
X93485714Y-121361904D01*
X93485714Y-121057142D02*
X93447619Y-120600000D01*
X93485714Y-120561904D01*
X93523809Y-120600000D01*
X93485714Y-121057142D01*
X93485714Y-120561904D01*
D13*
X42857142Y-144578571D02*
X43190476Y-144578571D01*
X43333333Y-145102380D02*
X42857142Y-145102380D01*
X42857142Y-144102380D01*
X43333333Y-144102380D01*
X43666666Y-145102380D02*
X44190476Y-144435714D01*
X43666666Y-144435714D02*
X44190476Y-145102380D01*
X44428571Y-144435714D02*
X44809523Y-144435714D01*
X44571428Y-144102380D02*
X44571428Y-144959523D01*
X44619047Y-145054761D01*
X44714285Y-145102380D01*
X44809523Y-145102380D01*
X45142857Y-145007142D02*
X45190476Y-145054761D01*
X45142857Y-145102380D01*
X45095238Y-145054761D01*
X45142857Y-145007142D01*
X45142857Y-145102380D01*
X42023809Y-146802380D02*
X42023809Y-145802380D01*
X42404761Y-145802380D01*
X42500000Y-145850000D01*
X42547619Y-145897619D01*
X42595238Y-145992857D01*
X42595238Y-146135714D01*
X42547619Y-146230952D01*
X42500000Y-146278571D01*
X42404761Y-146326190D01*
X42023809Y-146326190D01*
X43166666Y-146802380D02*
X43071428Y-146754761D01*
X43023809Y-146707142D01*
X42976190Y-146611904D01*
X42976190Y-146326190D01*
X43023809Y-146230952D01*
X43071428Y-146183333D01*
X43166666Y-146135714D01*
X43309523Y-146135714D01*
X43404761Y-146183333D01*
X43452380Y-146230952D01*
X43500000Y-146326190D01*
X43500000Y-146611904D01*
X43452380Y-146707142D01*
X43404761Y-146754761D01*
X43309523Y-146802380D01*
X43166666Y-146802380D01*
X43833333Y-146135714D02*
X44023809Y-146802380D01*
X44214285Y-146326190D01*
X44404761Y-146802380D01*
X44595238Y-146135714D01*
X45357142Y-146754761D02*
X45261904Y-146802380D01*
X45071428Y-146802380D01*
X44976190Y-146754761D01*
X44928571Y-146659523D01*
X44928571Y-146278571D01*
X44976190Y-146183333D01*
X45071428Y-146135714D01*
X45261904Y-146135714D01*
X45357142Y-146183333D01*
X45404761Y-146278571D01*
X45404761Y-146373809D01*
X44928571Y-146469047D01*
X45833333Y-146802380D02*
X45833333Y-146135714D01*
X45833333Y-146326190D02*
X45880952Y-146230952D01*
X45928571Y-146183333D01*
X46023809Y-146135714D01*
X46119047Y-146135714D01*
X76038095Y-139402380D02*
X76038095Y-140211904D01*
X76085714Y-140307142D01*
X76133333Y-140354761D01*
X76228571Y-140402380D01*
X76419047Y-140402380D01*
X76514285Y-140354761D01*
X76561904Y-140307142D01*
X76609523Y-140211904D01*
X76609523Y-139402380D01*
X77038095Y-140354761D02*
X77180952Y-140402380D01*
X77419047Y-140402380D01*
X77514285Y-140354761D01*
X77561904Y-140307142D01*
X77609523Y-140211904D01*
X77609523Y-140116666D01*
X77561904Y-140021428D01*
X77514285Y-139973809D01*
X77419047Y-139926190D01*
X77228571Y-139878571D01*
X77133333Y-139830952D01*
X77085714Y-139783333D01*
X77038095Y-139688095D01*
X77038095Y-139592857D01*
X77085714Y-139497619D01*
X77133333Y-139450000D01*
X77228571Y-139402380D01*
X77466666Y-139402380D01*
X77609523Y-139450000D01*
X78371428Y-139878571D02*
X78514285Y-139926190D01*
X78561904Y-139973809D01*
X78609523Y-140069047D01*
X78609523Y-140211904D01*
X78561904Y-140307142D01*
X78514285Y-140354761D01*
X78419047Y-140402380D01*
X78038095Y-140402380D01*
X78038095Y-139402380D01*
X78371428Y-139402380D01*
X78466666Y-139450000D01*
X78514285Y-139497619D01*
X78561904Y-139592857D01*
X78561904Y-139688095D01*
X78514285Y-139783333D01*
X78466666Y-139830952D01*
X78371428Y-139878571D01*
X78038095Y-139878571D01*
X75323809Y-142102380D02*
X75323809Y-141102380D01*
X75704761Y-141102380D01*
X75800000Y-141150000D01*
X75847619Y-141197619D01*
X75895238Y-141292857D01*
X75895238Y-141435714D01*
X75847619Y-141530952D01*
X75800000Y-141578571D01*
X75704761Y-141626190D01*
X75323809Y-141626190D01*
X76466666Y-142102380D02*
X76371428Y-142054761D01*
X76323809Y-142007142D01*
X76276190Y-141911904D01*
X76276190Y-141626190D01*
X76323809Y-141530952D01*
X76371428Y-141483333D01*
X76466666Y-141435714D01*
X76609523Y-141435714D01*
X76704761Y-141483333D01*
X76752380Y-141530952D01*
X76800000Y-141626190D01*
X76800000Y-141911904D01*
X76752380Y-142007142D01*
X76704761Y-142054761D01*
X76609523Y-142102380D01*
X76466666Y-142102380D01*
X77133333Y-141435714D02*
X77323809Y-142102380D01*
X77514285Y-141626190D01*
X77704761Y-142102380D01*
X77895238Y-141435714D01*
X78657142Y-142054761D02*
X78561904Y-142102380D01*
X78371428Y-142102380D01*
X78276190Y-142054761D01*
X78228571Y-141959523D01*
X78228571Y-141578571D01*
X78276190Y-141483333D01*
X78371428Y-141435714D01*
X78561904Y-141435714D01*
X78657142Y-141483333D01*
X78704761Y-141578571D01*
X78704761Y-141673809D01*
X78228571Y-141769047D01*
X79133333Y-142102380D02*
X79133333Y-141435714D01*
X79133333Y-141626190D02*
X79180952Y-141530952D01*
X79228571Y-141483333D01*
X79323809Y-141435714D01*
X79419047Y-141435714D01*
D12*
X102370000Y-82319523D02*
X102322380Y-82414761D01*
X102322380Y-82557619D01*
X102370000Y-82700476D01*
X102465238Y-82795714D01*
X102560476Y-82843333D01*
X102750952Y-82890952D01*
X102893809Y-82890952D01*
X103084285Y-82843333D01*
X103179523Y-82795714D01*
X103274761Y-82700476D01*
X103322380Y-82557619D01*
X103322380Y-82462380D01*
X103274761Y-82319523D01*
X103227142Y-82271904D01*
X102893809Y-82271904D01*
X102893809Y-82462380D01*
X103322380Y-81271904D02*
X102846190Y-81605238D01*
X103322380Y-81843333D02*
X102322380Y-81843333D01*
X102322380Y-81462380D01*
X102370000Y-81367142D01*
X102417619Y-81319523D01*
X102512857Y-81271904D01*
X102655714Y-81271904D01*
X102750952Y-81319523D01*
X102798571Y-81367142D01*
X102846190Y-81462380D01*
X102846190Y-81843333D01*
X102322380Y-80652857D02*
X102322380Y-80462380D01*
X102370000Y-80367142D01*
X102465238Y-80271904D01*
X102655714Y-80224285D01*
X102989047Y-80224285D01*
X103179523Y-80271904D01*
X103274761Y-80367142D01*
X103322380Y-80462380D01*
X103322380Y-80652857D01*
X103274761Y-80748095D01*
X103179523Y-80843333D01*
X102989047Y-80890952D01*
X102655714Y-80890952D01*
X102465238Y-80843333D01*
X102370000Y-80748095D01*
X102322380Y-80652857D01*
X102322380Y-79795714D02*
X103131904Y-79795714D01*
X103227142Y-79748095D01*
X103274761Y-79700476D01*
X103322380Y-79605238D01*
X103322380Y-79414761D01*
X103274761Y-79319523D01*
X103227142Y-79271904D01*
X103131904Y-79224285D01*
X102322380Y-79224285D01*
X103322380Y-78748095D02*
X102322380Y-78748095D01*
X103322380Y-78176666D01*
X102322380Y-78176666D01*
X103322380Y-77700476D02*
X102322380Y-77700476D01*
X102322380Y-77462380D01*
X102370000Y-77319523D01*
X102465238Y-77224285D01*
X102560476Y-77176666D01*
X102750952Y-77129047D01*
X102893809Y-77129047D01*
X103084285Y-77176666D01*
X103179523Y-77224285D01*
X103274761Y-77319523D01*
X103322380Y-77462380D01*
X103322380Y-77700476D01*
D10*
X101600000Y-90170000D02*
X101600000Y-69850000D01*
X103505000Y-90170000D02*
X101600000Y-90170000D01*
X109855000Y-69850000D02*
X114300000Y-69850000D01*
X102870000Y-147320000D02*
X102870000Y-149860000D01*
X90170000Y-147320000D02*
X102870000Y-147320000D01*
X90170000Y-149860000D02*
X90170000Y-147320000D01*
D13*
X92957142Y-149235714D02*
X93128571Y-149292857D01*
X93414285Y-149292857D01*
X93528571Y-149235714D01*
X93585714Y-149178571D01*
X93642857Y-149064285D01*
X93642857Y-148950000D01*
X93585714Y-148835714D01*
X93528571Y-148778571D01*
X93414285Y-148721428D01*
X93185714Y-148664285D01*
X93071428Y-148607142D01*
X93014285Y-148550000D01*
X92957142Y-148435714D01*
X92957142Y-148321428D01*
X93014285Y-148207142D01*
X93071428Y-148150000D01*
X93185714Y-148092857D01*
X93471428Y-148092857D01*
X93642857Y-148150000D01*
X93985714Y-148092857D02*
X94671428Y-148092857D01*
X94328571Y-149292857D02*
X94328571Y-148092857D01*
X95071428Y-148835714D02*
X95985714Y-148835714D01*
X97128571Y-149292857D02*
X96557142Y-149292857D01*
X96557142Y-148092857D01*
X97528571Y-149292857D02*
X97528571Y-148092857D01*
X98100000Y-149292857D02*
X98100000Y-148092857D01*
X98785714Y-149292857D01*
X98785714Y-148092857D01*
X99357142Y-149292857D02*
X99357142Y-148092857D01*
X100042857Y-149292857D02*
X99528571Y-148607142D01*
X100042857Y-148092857D02*
X99357142Y-148778571D01*
D10*
X78500000Y-156000000D02*
X88000000Y-156000000D01*
X88000000Y-146500000D02*
X88000000Y-156000000D01*
X78500000Y-146500000D02*
X88000000Y-146500000D01*
X78500000Y-156000000D02*
X78500000Y-146500000D01*
D13*
X81257142Y-148292857D02*
X80857142Y-147721428D01*
X80571428Y-148292857D02*
X80571428Y-147092857D01*
X81028571Y-147092857D01*
X81142857Y-147150000D01*
X81200000Y-147207142D01*
X81257142Y-147321428D01*
X81257142Y-147492857D01*
X81200000Y-147607142D01*
X81142857Y-147664285D01*
X81028571Y-147721428D01*
X80571428Y-147721428D01*
X81771428Y-147664285D02*
X82171428Y-147664285D01*
X82342857Y-148292857D02*
X81771428Y-148292857D01*
X81771428Y-147092857D01*
X82342857Y-147092857D01*
X82800000Y-148235714D02*
X82971428Y-148292857D01*
X83257142Y-148292857D01*
X83371428Y-148235714D01*
X83428571Y-148178571D01*
X83485714Y-148064285D01*
X83485714Y-147950000D01*
X83428571Y-147835714D01*
X83371428Y-147778571D01*
X83257142Y-147721428D01*
X83028571Y-147664285D01*
X82914285Y-147607142D01*
X82857142Y-147550000D01*
X82800000Y-147435714D01*
X82800000Y-147321428D01*
X82857142Y-147207142D01*
X82914285Y-147150000D01*
X83028571Y-147092857D01*
X83314285Y-147092857D01*
X83485714Y-147150000D01*
X84000000Y-147664285D02*
X84400000Y-147664285D01*
X84571428Y-148292857D02*
X84000000Y-148292857D01*
X84000000Y-147092857D01*
X84571428Y-147092857D01*
X84914285Y-147092857D02*
X85600000Y-147092857D01*
X85257142Y-148292857D02*
X85257142Y-147092857D01*
D10*
X54750000Y-145000000D02*
X54750000Y-147250000D01*
X49750000Y-145000000D02*
X54750000Y-145000000D01*
X49750000Y-147250000D02*
X49750000Y-145000000D01*
D13*
X51964285Y-145428571D02*
X51250000Y-145428571D01*
X51178571Y-146142857D01*
X51250000Y-146071428D01*
X51392857Y-146000000D01*
X51750000Y-146000000D01*
X51892857Y-146071428D01*
X51964285Y-146142857D01*
X52035714Y-146285714D01*
X52035714Y-146642857D01*
X51964285Y-146785714D01*
X51892857Y-146857142D01*
X51750000Y-146928571D01*
X51392857Y-146928571D01*
X51250000Y-146857142D01*
X51178571Y-146785714D01*
X52464285Y-145428571D02*
X52964285Y-146928571D01*
X53464285Y-145428571D01*
D14*
X54250000Y-155250000D02*
X52750000Y-155250000D01*
X51000000Y-156000000D02*
X51000000Y-154500000D01*
X50250000Y-155250000D02*
X51750000Y-155250000D01*
D10*
X52250000Y-156500000D02*
X52250000Y-154500000D01*
X54750000Y-156500000D02*
X54750000Y-154250000D01*
X49750000Y-156500000D02*
X54750000Y-156500000D01*
X49750000Y-154250000D02*
X49750000Y-156500000D01*
X106680000Y-133350000D02*
X106680000Y-135255000D01*
X104140000Y-133350000D02*
X104140000Y-135255000D01*
D13*
X107616666Y-134072380D02*
X108235714Y-134072380D01*
X107902380Y-134453333D01*
X108045238Y-134453333D01*
X108140476Y-134500952D01*
X108188095Y-134548571D01*
X108235714Y-134643809D01*
X108235714Y-134881904D01*
X108188095Y-134977142D01*
X108140476Y-135024761D01*
X108045238Y-135072380D01*
X107759523Y-135072380D01*
X107664285Y-135024761D01*
X107616666Y-134977142D01*
X103155714Y-135072380D02*
X102584285Y-135072380D01*
X102870000Y-135072380D02*
X102870000Y-134072380D01*
X102774761Y-134215238D01*
X102679523Y-134310476D01*
X102584285Y-134358095D01*
X105124285Y-134167619D02*
X105171904Y-134120000D01*
X105267142Y-134072380D01*
X105505238Y-134072380D01*
X105600476Y-134120000D01*
X105648095Y-134167619D01*
X105695714Y-134262857D01*
X105695714Y-134358095D01*
X105648095Y-134500952D01*
X105076666Y-135072380D01*
X105695714Y-135072380D01*
D10*
X101600000Y-133350000D02*
X101600000Y-135255000D01*
X109855000Y-140970000D02*
X114300000Y-140970000D01*
D12*
X110998095Y-141692380D02*
X111569523Y-141692380D01*
X111283809Y-142692380D02*
X111283809Y-141692380D01*
X111807619Y-141692380D02*
X112474285Y-142692380D01*
X112474285Y-141692380D02*
X111807619Y-142692380D01*
X111593333Y-140152380D02*
X111260000Y-139676190D01*
X111021904Y-140152380D02*
X111021904Y-139152380D01*
X111402857Y-139152380D01*
X111498095Y-139200000D01*
X111545714Y-139247619D01*
X111593333Y-139342857D01*
X111593333Y-139485714D01*
X111545714Y-139580952D01*
X111498095Y-139628571D01*
X111402857Y-139676190D01*
X111021904Y-139676190D01*
X111926666Y-139152380D02*
X112593333Y-140152380D01*
X112593333Y-139152380D02*
X111926666Y-140152380D01*
D13*
X109688571Y-134072380D02*
X109688571Y-134881904D01*
X109736190Y-134977142D01*
X109783809Y-135024761D01*
X109879047Y-135072380D01*
X110069523Y-135072380D01*
X110164761Y-135024761D01*
X110212380Y-134977142D01*
X110260000Y-134881904D01*
X110260000Y-134072380D01*
X110688571Y-135024761D02*
X110831428Y-135072380D01*
X111069523Y-135072380D01*
X111164761Y-135024761D01*
X111212380Y-134977142D01*
X111260000Y-134881904D01*
X111260000Y-134786666D01*
X111212380Y-134691428D01*
X111164761Y-134643809D01*
X111069523Y-134596190D01*
X110879047Y-134548571D01*
X110783809Y-134500952D01*
X110736190Y-134453333D01*
X110688571Y-134358095D01*
X110688571Y-134262857D01*
X110736190Y-134167619D01*
X110783809Y-134120000D01*
X110879047Y-134072380D01*
X111117142Y-134072380D01*
X111260000Y-134120000D01*
X111640952Y-134786666D02*
X112117142Y-134786666D01*
X111545714Y-135072380D02*
X111879047Y-134072380D01*
X112212380Y-135072380D01*
X113117142Y-135072380D02*
X112783809Y-134596190D01*
X112545714Y-135072380D02*
X112545714Y-134072380D01*
X112926666Y-134072380D01*
X113021904Y-134120000D01*
X113069523Y-134167619D01*
X113117142Y-134262857D01*
X113117142Y-134405714D01*
X113069523Y-134500952D01*
X113021904Y-134548571D01*
X112926666Y-134596190D01*
X112545714Y-134596190D01*
X113402857Y-134072380D02*
X113974285Y-134072380D01*
X113688571Y-135072380D02*
X113688571Y-134072380D01*
D12*
X110521904Y-144232380D02*
X111140952Y-144232380D01*
X110807619Y-144613333D01*
X110950476Y-144613333D01*
X111045714Y-144660952D01*
X111093333Y-144708571D01*
X111140952Y-144803809D01*
X111140952Y-145041904D01*
X111093333Y-145137142D01*
X111045714Y-145184761D01*
X110950476Y-145232380D01*
X110664761Y-145232380D01*
X110569523Y-145184761D01*
X110521904Y-145137142D01*
X111426666Y-144232380D02*
X111760000Y-145232380D01*
X112093333Y-144232380D01*
X112331428Y-144232380D02*
X112950476Y-144232380D01*
X112617142Y-144613333D01*
X112760000Y-144613333D01*
X112855238Y-144660952D01*
X112902857Y-144708571D01*
X112950476Y-144803809D01*
X112950476Y-145041904D01*
X112902857Y-145137142D01*
X112855238Y-145184761D01*
X112760000Y-145232380D01*
X112474285Y-145232380D01*
X112379047Y-145184761D01*
X112331428Y-145137142D01*
D10*
X109855000Y-135890000D02*
X114300000Y-135890000D01*
X109855000Y-138430000D02*
X114300000Y-138430000D01*
X109855000Y-146050000D02*
X114300000Y-146050000D01*
X101600000Y-133350000D02*
X114300000Y-133350000D01*
X109855000Y-143510000D02*
X114300000Y-143510000D01*
X114300000Y-133350000D02*
X114300000Y-135890000D01*
D12*
X110998095Y-136660000D02*
X110902857Y-136612380D01*
X110760000Y-136612380D01*
X110617142Y-136660000D01*
X110521904Y-136755238D01*
X110474285Y-136850476D01*
X110426666Y-137040952D01*
X110426666Y-137183809D01*
X110474285Y-137374285D01*
X110521904Y-137469523D01*
X110617142Y-137564761D01*
X110760000Y-137612380D01*
X110855238Y-137612380D01*
X110998095Y-137564761D01*
X111045714Y-137517142D01*
X111045714Y-137183809D01*
X110855238Y-137183809D01*
X111474285Y-137612380D02*
X111474285Y-136612380D01*
X112045714Y-137612380D01*
X112045714Y-136612380D01*
X112521904Y-137612380D02*
X112521904Y-136612380D01*
X112760000Y-136612380D01*
X112902857Y-136660000D01*
X112998095Y-136755238D01*
X113045714Y-136850476D01*
X113093333Y-137040952D01*
X113093333Y-137183809D01*
X113045714Y-137374285D01*
X112998095Y-137469523D01*
X112902857Y-137564761D01*
X112760000Y-137612380D01*
X112521904Y-137612380D01*
D10*
X114300000Y-135890000D02*
X114300000Y-146050000D01*
X101600000Y-132080000D02*
X103505000Y-132080000D01*
X109855000Y-121920000D02*
X114300000Y-121920000D01*
X101600000Y-127000000D02*
X101600000Y-132080000D01*
X103505000Y-127000000D02*
X101600000Y-127000000D01*
D12*
X110807619Y-122275000D02*
X111760000Y-122275000D01*
X110998095Y-123594761D02*
X111140952Y-123642380D01*
X111379047Y-123642380D01*
X111474285Y-123594761D01*
X111521904Y-123547142D01*
X111569523Y-123451904D01*
X111569523Y-123356666D01*
X111521904Y-123261428D01*
X111474285Y-123213809D01*
X111379047Y-123166190D01*
X111188571Y-123118571D01*
X111093333Y-123070952D01*
X111045714Y-123023333D01*
X110998095Y-122928095D01*
X110998095Y-122832857D01*
X111045714Y-122737619D01*
X111093333Y-122690000D01*
X111188571Y-122642380D01*
X111426666Y-122642380D01*
X111569523Y-122690000D01*
X111760000Y-122275000D02*
X112712380Y-122275000D01*
X111950476Y-123594761D02*
X112093333Y-123642380D01*
X112331428Y-123642380D01*
X112426666Y-123594761D01*
X112474285Y-123547142D01*
X112521904Y-123451904D01*
X112521904Y-123356666D01*
X112474285Y-123261428D01*
X112426666Y-123213809D01*
X112331428Y-123166190D01*
X112140952Y-123118571D01*
X112045714Y-123070952D01*
X111998095Y-123023333D01*
X111950476Y-122928095D01*
X111950476Y-122832857D01*
X111998095Y-122737619D01*
X112045714Y-122690000D01*
X112140952Y-122642380D01*
X112379047Y-122642380D01*
X112521904Y-122690000D01*
D10*
X114300000Y-121920000D02*
X114300000Y-132080000D01*
X109855000Y-124460000D02*
X114300000Y-124460000D01*
X101600000Y-121920000D02*
X103505000Y-121920000D01*
X101600000Y-127000000D02*
X101600000Y-119380000D01*
D12*
X110188571Y-128722380D02*
X110188571Y-127722380D01*
X110521904Y-128436666D01*
X110855238Y-127722380D01*
X110855238Y-128722380D01*
X111521904Y-127722380D02*
X111712380Y-127722380D01*
X111807619Y-127770000D01*
X111902857Y-127865238D01*
X111950476Y-128055714D01*
X111950476Y-128389047D01*
X111902857Y-128579523D01*
X111807619Y-128674761D01*
X111712380Y-128722380D01*
X111521904Y-128722380D01*
X111426666Y-128674761D01*
X111331428Y-128579523D01*
X111283809Y-128389047D01*
X111283809Y-128055714D01*
X111331428Y-127865238D01*
X111426666Y-127770000D01*
X111521904Y-127722380D01*
X112331428Y-128674761D02*
X112474285Y-128722380D01*
X112712380Y-128722380D01*
X112807619Y-128674761D01*
X112855238Y-128627142D01*
X112902857Y-128531904D01*
X112902857Y-128436666D01*
X112855238Y-128341428D01*
X112807619Y-128293809D01*
X112712380Y-128246190D01*
X112521904Y-128198571D01*
X112426666Y-128150952D01*
X112379047Y-128103333D01*
X112331428Y-128008095D01*
X112331428Y-127912857D01*
X112379047Y-127817619D01*
X112426666Y-127770000D01*
X112521904Y-127722380D01*
X112760000Y-127722380D01*
X112902857Y-127770000D01*
X113331428Y-128722380D02*
X113331428Y-127722380D01*
D10*
X114300000Y-119380000D02*
X114300000Y-121920000D01*
D12*
X110474285Y-126134761D02*
X110617142Y-126182380D01*
X110855238Y-126182380D01*
X110950476Y-126134761D01*
X110998095Y-126087142D01*
X111045714Y-125991904D01*
X111045714Y-125896666D01*
X110998095Y-125801428D01*
X110950476Y-125753809D01*
X110855238Y-125706190D01*
X110664761Y-125658571D01*
X110569523Y-125610952D01*
X110521904Y-125563333D01*
X110474285Y-125468095D01*
X110474285Y-125372857D01*
X110521904Y-125277619D01*
X110569523Y-125230000D01*
X110664761Y-125182380D01*
X110902857Y-125182380D01*
X111045714Y-125230000D01*
X112045714Y-126087142D02*
X111998095Y-126134761D01*
X111855238Y-126182380D01*
X111760000Y-126182380D01*
X111617142Y-126134761D01*
X111521904Y-126039523D01*
X111474285Y-125944285D01*
X111426666Y-125753809D01*
X111426666Y-125610952D01*
X111474285Y-125420476D01*
X111521904Y-125325238D01*
X111617142Y-125230000D01*
X111760000Y-125182380D01*
X111855238Y-125182380D01*
X111998095Y-125230000D01*
X112045714Y-125277619D01*
X112474285Y-126182380D02*
X112474285Y-125182380D01*
X113045714Y-126182380D02*
X112617142Y-125610952D01*
X113045714Y-125182380D02*
X112474285Y-125753809D01*
D13*
X105180000Y-121054761D02*
X105322857Y-121102380D01*
X105560952Y-121102380D01*
X105656190Y-121054761D01*
X105703809Y-121007142D01*
X105751428Y-120911904D01*
X105751428Y-120816666D01*
X105703809Y-120721428D01*
X105656190Y-120673809D01*
X105560952Y-120626190D01*
X105370476Y-120578571D01*
X105275238Y-120530952D01*
X105227619Y-120483333D01*
X105180000Y-120388095D01*
X105180000Y-120292857D01*
X105227619Y-120197619D01*
X105275238Y-120150000D01*
X105370476Y-120102380D01*
X105608571Y-120102380D01*
X105751428Y-120150000D01*
X106180000Y-121102380D02*
X106180000Y-120102380D01*
X106560952Y-120102380D01*
X106656190Y-120150000D01*
X106703809Y-120197619D01*
X106751428Y-120292857D01*
X106751428Y-120435714D01*
X106703809Y-120530952D01*
X106656190Y-120578571D01*
X106560952Y-120626190D01*
X106180000Y-120626190D01*
X107180000Y-121102380D02*
X107180000Y-120102380D01*
X107560952Y-120102380D02*
X108180000Y-120102380D01*
X107846666Y-120483333D01*
X107989523Y-120483333D01*
X108084761Y-120530952D01*
X108132380Y-120578571D01*
X108180000Y-120673809D01*
X108180000Y-120911904D01*
X108132380Y-121007142D01*
X108084761Y-121054761D01*
X107989523Y-121102380D01*
X107703809Y-121102380D01*
X107608571Y-121054761D01*
X107560952Y-121007142D01*
D12*
X110188571Y-131262380D02*
X110188571Y-130262380D01*
X110521904Y-130976666D01*
X110855238Y-130262380D01*
X110855238Y-131262380D01*
X111331428Y-131262380D02*
X111331428Y-130262380D01*
X111760000Y-131214761D02*
X111902857Y-131262380D01*
X112140952Y-131262380D01*
X112236190Y-131214761D01*
X112283809Y-131167142D01*
X112331428Y-131071904D01*
X112331428Y-130976666D01*
X112283809Y-130881428D01*
X112236190Y-130833809D01*
X112140952Y-130786190D01*
X111950476Y-130738571D01*
X111855238Y-130690952D01*
X111807619Y-130643333D01*
X111760000Y-130548095D01*
X111760000Y-130452857D01*
X111807619Y-130357619D01*
X111855238Y-130310000D01*
X111950476Y-130262380D01*
X112188571Y-130262380D01*
X112331428Y-130310000D01*
X112950476Y-130262380D02*
X113140952Y-130262380D01*
X113236190Y-130310000D01*
X113331428Y-130405238D01*
X113379047Y-130595714D01*
X113379047Y-130929047D01*
X113331428Y-131119523D01*
X113236190Y-131214761D01*
X113140952Y-131262380D01*
X112950476Y-131262380D01*
X112855238Y-131214761D01*
X112760000Y-131119523D01*
X112712380Y-130929047D01*
X112712380Y-130595714D01*
X112760000Y-130405238D01*
X112855238Y-130310000D01*
X112950476Y-130262380D01*
X102370000Y-125221904D02*
X102322380Y-125317142D01*
X102322380Y-125460000D01*
X102370000Y-125602857D01*
X102465238Y-125698095D01*
X102560476Y-125745714D01*
X102750952Y-125793333D01*
X102893809Y-125793333D01*
X103084285Y-125745714D01*
X103179523Y-125698095D01*
X103274761Y-125602857D01*
X103322380Y-125460000D01*
X103322380Y-125364761D01*
X103274761Y-125221904D01*
X103227142Y-125174285D01*
X102893809Y-125174285D01*
X102893809Y-125364761D01*
X103322380Y-124745714D02*
X102322380Y-124745714D01*
X103322380Y-124174285D01*
X102322380Y-124174285D01*
X103322380Y-123698095D02*
X102322380Y-123698095D01*
X102322380Y-123460000D01*
X102370000Y-123317142D01*
X102465238Y-123221904D01*
X102560476Y-123174285D01*
X102750952Y-123126666D01*
X102893809Y-123126666D01*
X103084285Y-123174285D01*
X103179523Y-123221904D01*
X103274761Y-123317142D01*
X103322380Y-123460000D01*
X103322380Y-123698095D01*
D10*
X109855000Y-132080000D02*
X114300000Y-132080000D01*
X109855000Y-129540000D02*
X114300000Y-129540000D01*
X101600000Y-119380000D02*
X114300000Y-119380000D01*
X109855000Y-127000000D02*
X114300000Y-127000000D01*
D12*
X102322380Y-130778095D02*
X102322380Y-130159047D01*
X102703333Y-130492380D01*
X102703333Y-130349523D01*
X102750952Y-130254285D01*
X102798571Y-130206666D01*
X102893809Y-130159047D01*
X103131904Y-130159047D01*
X103227142Y-130206666D01*
X103274761Y-130254285D01*
X103322380Y-130349523D01*
X103322380Y-130635238D01*
X103274761Y-130730476D01*
X103227142Y-130778095D01*
X102322380Y-129873333D02*
X103322380Y-129540000D01*
X102322380Y-129206666D01*
X102322380Y-128968571D02*
X102322380Y-128349523D01*
X102703333Y-128682857D01*
X102703333Y-128540000D01*
X102750952Y-128444761D01*
X102798571Y-128397142D01*
X102893809Y-128349523D01*
X103131904Y-128349523D01*
X103227142Y-128397142D01*
X103274761Y-128444761D01*
X103322380Y-128540000D01*
X103322380Y-128825714D01*
X103274761Y-128920952D01*
X103227142Y-128968571D01*
X102370000Y-111251904D02*
X102322380Y-111347142D01*
X102322380Y-111490000D01*
X102370000Y-111632857D01*
X102465238Y-111728095D01*
X102560476Y-111775714D01*
X102750952Y-111823333D01*
X102893809Y-111823333D01*
X103084285Y-111775714D01*
X103179523Y-111728095D01*
X103274761Y-111632857D01*
X103322380Y-111490000D01*
X103322380Y-111394761D01*
X103274761Y-111251904D01*
X103227142Y-111204285D01*
X102893809Y-111204285D01*
X102893809Y-111394761D01*
X103322380Y-110775714D02*
X102322380Y-110775714D01*
X103322380Y-110204285D01*
X102322380Y-110204285D01*
X103322380Y-109728095D02*
X102322380Y-109728095D01*
X102322380Y-109490000D01*
X102370000Y-109347142D01*
X102465238Y-109251904D01*
X102560476Y-109204285D01*
X102750952Y-109156666D01*
X102893809Y-109156666D01*
X103084285Y-109204285D01*
X103179523Y-109251904D01*
X103274761Y-109347142D01*
X103322380Y-109490000D01*
X103322380Y-109728095D01*
X102322380Y-116808095D02*
X102322380Y-116189047D01*
X102703333Y-116522380D01*
X102703333Y-116379523D01*
X102750952Y-116284285D01*
X102798571Y-116236666D01*
X102893809Y-116189047D01*
X103131904Y-116189047D01*
X103227142Y-116236666D01*
X103274761Y-116284285D01*
X103322380Y-116379523D01*
X103322380Y-116665238D01*
X103274761Y-116760476D01*
X103227142Y-116808095D01*
X102322380Y-115903333D02*
X103322380Y-115570000D01*
X102322380Y-115236666D01*
X102322380Y-114998571D02*
X102322380Y-114379523D01*
X102703333Y-114712857D01*
X102703333Y-114570000D01*
X102750952Y-114474761D01*
X102798571Y-114427142D01*
X102893809Y-114379523D01*
X103131904Y-114379523D01*
X103227142Y-114427142D01*
X103274761Y-114474761D01*
X103322380Y-114570000D01*
X103322380Y-114855714D01*
X103274761Y-114950952D01*
X103227142Y-114998571D01*
D10*
X101600000Y-107950000D02*
X103920000Y-107890000D01*
X101600000Y-113030000D02*
X101600000Y-118110000D01*
X101600000Y-113030000D02*
X101600000Y-105410000D01*
X101600000Y-118110000D02*
X103505000Y-118110000D01*
X103505000Y-113030000D02*
X101600000Y-113030000D01*
X114300000Y-105410000D02*
X114300000Y-107950000D01*
X101600000Y-105410000D02*
X114300000Y-105410000D01*
X109855000Y-113030000D02*
X114300000Y-113030000D01*
D12*
X110188571Y-114752380D02*
X110188571Y-113752380D01*
X110521904Y-114466666D01*
X110855238Y-113752380D01*
X110855238Y-114752380D01*
X111521904Y-113752380D02*
X111712380Y-113752380D01*
X111807619Y-113800000D01*
X111902857Y-113895238D01*
X111950476Y-114085714D01*
X111950476Y-114419047D01*
X111902857Y-114609523D01*
X111807619Y-114704761D01*
X111712380Y-114752380D01*
X111521904Y-114752380D01*
X111426666Y-114704761D01*
X111331428Y-114609523D01*
X111283809Y-114419047D01*
X111283809Y-114085714D01*
X111331428Y-113895238D01*
X111426666Y-113800000D01*
X111521904Y-113752380D01*
X112331428Y-114704761D02*
X112474285Y-114752380D01*
X112712380Y-114752380D01*
X112807619Y-114704761D01*
X112855238Y-114657142D01*
X112902857Y-114561904D01*
X112902857Y-114466666D01*
X112855238Y-114371428D01*
X112807619Y-114323809D01*
X112712380Y-114276190D01*
X112521904Y-114228571D01*
X112426666Y-114180952D01*
X112379047Y-114133333D01*
X112331428Y-114038095D01*
X112331428Y-113942857D01*
X112379047Y-113847619D01*
X112426666Y-113800000D01*
X112521904Y-113752380D01*
X112760000Y-113752380D01*
X112902857Y-113800000D01*
X113331428Y-114752380D02*
X113331428Y-113752380D01*
D10*
X109855000Y-110490000D02*
X114300000Y-110490000D01*
X109855000Y-107950000D02*
X114300000Y-107950000D01*
D13*
X105180000Y-107084761D02*
X105322857Y-107132380D01*
X105560952Y-107132380D01*
X105656190Y-107084761D01*
X105703809Y-107037142D01*
X105751428Y-106941904D01*
X105751428Y-106846666D01*
X105703809Y-106751428D01*
X105656190Y-106703809D01*
X105560952Y-106656190D01*
X105370476Y-106608571D01*
X105275238Y-106560952D01*
X105227619Y-106513333D01*
X105180000Y-106418095D01*
X105180000Y-106322857D01*
X105227619Y-106227619D01*
X105275238Y-106180000D01*
X105370476Y-106132380D01*
X105608571Y-106132380D01*
X105751428Y-106180000D01*
X106180000Y-107132380D02*
X106180000Y-106132380D01*
X106560952Y-106132380D01*
X106656190Y-106180000D01*
X106703809Y-106227619D01*
X106751428Y-106322857D01*
X106751428Y-106465714D01*
X106703809Y-106560952D01*
X106656190Y-106608571D01*
X106560952Y-106656190D01*
X106180000Y-106656190D01*
X107180000Y-107132380D02*
X107180000Y-106132380D01*
X108180000Y-107132380D02*
X107608571Y-107132380D01*
X107894285Y-107132380D02*
X107894285Y-106132380D01*
X107799047Y-106275238D01*
X107703809Y-106370476D01*
X107608571Y-106418095D01*
D12*
X110188571Y-117292380D02*
X110188571Y-116292380D01*
X110521904Y-117006666D01*
X110855238Y-116292380D01*
X110855238Y-117292380D01*
X111331428Y-117292380D02*
X111331428Y-116292380D01*
X111760000Y-117244761D02*
X111902857Y-117292380D01*
X112140952Y-117292380D01*
X112236190Y-117244761D01*
X112283809Y-117197142D01*
X112331428Y-117101904D01*
X112331428Y-117006666D01*
X112283809Y-116911428D01*
X112236190Y-116863809D01*
X112140952Y-116816190D01*
X111950476Y-116768571D01*
X111855238Y-116720952D01*
X111807619Y-116673333D01*
X111760000Y-116578095D01*
X111760000Y-116482857D01*
X111807619Y-116387619D01*
X111855238Y-116340000D01*
X111950476Y-116292380D01*
X112188571Y-116292380D01*
X112331428Y-116340000D01*
X112950476Y-116292380D02*
X113140952Y-116292380D01*
X113236190Y-116340000D01*
X113331428Y-116435238D01*
X113379047Y-116625714D01*
X113379047Y-116959047D01*
X113331428Y-117149523D01*
X113236190Y-117244761D01*
X113140952Y-117292380D01*
X112950476Y-117292380D01*
X112855238Y-117244761D01*
X112760000Y-117149523D01*
X112712380Y-116959047D01*
X112712380Y-116625714D01*
X112760000Y-116435238D01*
X112855238Y-116340000D01*
X112950476Y-116292380D01*
X110474285Y-112164761D02*
X110617142Y-112212380D01*
X110855238Y-112212380D01*
X110950476Y-112164761D01*
X110998095Y-112117142D01*
X111045714Y-112021904D01*
X111045714Y-111926666D01*
X110998095Y-111831428D01*
X110950476Y-111783809D01*
X110855238Y-111736190D01*
X110664761Y-111688571D01*
X110569523Y-111640952D01*
X110521904Y-111593333D01*
X110474285Y-111498095D01*
X110474285Y-111402857D01*
X110521904Y-111307619D01*
X110569523Y-111260000D01*
X110664761Y-111212380D01*
X110902857Y-111212380D01*
X111045714Y-111260000D01*
X112045714Y-112117142D02*
X111998095Y-112164761D01*
X111855238Y-112212380D01*
X111760000Y-112212380D01*
X111617142Y-112164761D01*
X111521904Y-112069523D01*
X111474285Y-111974285D01*
X111426666Y-111783809D01*
X111426666Y-111640952D01*
X111474285Y-111450476D01*
X111521904Y-111355238D01*
X111617142Y-111260000D01*
X111760000Y-111212380D01*
X111855238Y-111212380D01*
X111998095Y-111260000D01*
X112045714Y-111307619D01*
X112474285Y-112212380D02*
X112474285Y-111212380D01*
X113045714Y-112212380D02*
X112617142Y-111640952D01*
X113045714Y-111212380D02*
X112474285Y-111783809D01*
X110807619Y-108305000D02*
X111760000Y-108305000D01*
X110998095Y-109624761D02*
X111140952Y-109672380D01*
X111379047Y-109672380D01*
X111474285Y-109624761D01*
X111521904Y-109577142D01*
X111569523Y-109481904D01*
X111569523Y-109386666D01*
X111521904Y-109291428D01*
X111474285Y-109243809D01*
X111379047Y-109196190D01*
X111188571Y-109148571D01*
X111093333Y-109100952D01*
X111045714Y-109053333D01*
X110998095Y-108958095D01*
X110998095Y-108862857D01*
X111045714Y-108767619D01*
X111093333Y-108720000D01*
X111188571Y-108672380D01*
X111426666Y-108672380D01*
X111569523Y-108720000D01*
X111760000Y-108305000D02*
X112712380Y-108305000D01*
X111950476Y-109624761D02*
X112093333Y-109672380D01*
X112331428Y-109672380D01*
X112426666Y-109624761D01*
X112474285Y-109577142D01*
X112521904Y-109481904D01*
X112521904Y-109386666D01*
X112474285Y-109291428D01*
X112426666Y-109243809D01*
X112331428Y-109196190D01*
X112140952Y-109148571D01*
X112045714Y-109100952D01*
X111998095Y-109053333D01*
X111950476Y-108958095D01*
X111950476Y-108862857D01*
X111998095Y-108767619D01*
X112045714Y-108720000D01*
X112140952Y-108672380D01*
X112379047Y-108672380D01*
X112521904Y-108720000D01*
D10*
X114300000Y-107950000D02*
X114300000Y-118110000D01*
X109855000Y-118110000D02*
X114300000Y-118110000D01*
X109855000Y-115570000D02*
X114300000Y-115570000D01*
D12*
X100750714Y-103083809D02*
X101417380Y-103083809D01*
X100369761Y-103321904D02*
X101084047Y-103560000D01*
X101084047Y-102940952D01*
X101417380Y-102560000D02*
X100417380Y-102560000D01*
X101036428Y-102464761D02*
X101417380Y-102179047D01*
X100750714Y-102179047D02*
X101131666Y-102560000D01*
X100417380Y-101845714D02*
X100417380Y-101179047D01*
X101417380Y-101607619D01*
X100750714Y-100036190D02*
X101750714Y-100036190D01*
X100798333Y-100036190D02*
X100750714Y-99940952D01*
X100750714Y-99750476D01*
X100798333Y-99655238D01*
X100845952Y-99607619D01*
X100941190Y-99560000D01*
X101226904Y-99560000D01*
X101322142Y-99607619D01*
X101369761Y-99655238D01*
X101417380Y-99750476D01*
X101417380Y-99940952D01*
X101369761Y-100036190D01*
X100750714Y-98702857D02*
X101417380Y-98702857D01*
X100750714Y-99131428D02*
X101274523Y-99131428D01*
X101369761Y-99083809D01*
X101417380Y-98988571D01*
X101417380Y-98845714D01*
X101369761Y-98750476D01*
X101322142Y-98702857D01*
X101417380Y-98083809D02*
X101369761Y-98179047D01*
X101274523Y-98226666D01*
X100417380Y-98226666D01*
X101417380Y-97560000D02*
X101369761Y-97655238D01*
X101274523Y-97702857D01*
X100417380Y-97702857D01*
X101036428Y-97179047D02*
X101036428Y-96417142D01*
X100750714Y-95512380D02*
X101417380Y-95512380D01*
X100750714Y-95940952D02*
X101274523Y-95940952D01*
X101369761Y-95893333D01*
X101417380Y-95798095D01*
X101417380Y-95655238D01*
X101369761Y-95560000D01*
X101322142Y-95512380D01*
X100750714Y-95036190D02*
X101750714Y-95036190D01*
X100798333Y-95036190D02*
X100750714Y-94940952D01*
X100750714Y-94750476D01*
X100798333Y-94655238D01*
X100845952Y-94607619D01*
X100941190Y-94560000D01*
X101226904Y-94560000D01*
X101322142Y-94607619D01*
X101369761Y-94655238D01*
X101417380Y-94750476D01*
X101417380Y-94940952D01*
X101369761Y-95036190D01*
D10*
X101600000Y-93980000D02*
X99695000Y-93980000D01*
D15*
X102870000Y-100330000D02*
X102235000Y-100330000D01*
X102235000Y-100330000D02*
X102235000Y-102870000D01*
X102235000Y-102870000D02*
X102870000Y-102870000D01*
X102235000Y-97790000D02*
X102870000Y-97790000D01*
X102235000Y-95250000D02*
X102235000Y-97790000D01*
X102870000Y-95250000D02*
X102235000Y-95250000D01*
D10*
X99695000Y-104140000D02*
X103345000Y-104140000D01*
X114300000Y-91440000D02*
X114300000Y-93980000D01*
X114300000Y-93980000D02*
X114300000Y-104140000D01*
X109855000Y-101600000D02*
X114300000Y-101600000D01*
X109855000Y-93980000D02*
X114300000Y-93980000D01*
X101600000Y-93980000D02*
X103505000Y-93980000D01*
D12*
X110569523Y-100734761D02*
X110712380Y-100782380D01*
X110950476Y-100782380D01*
X111045714Y-100734761D01*
X111093333Y-100687142D01*
X111140952Y-100591904D01*
X111140952Y-100496666D01*
X111093333Y-100401428D01*
X111045714Y-100353809D01*
X110950476Y-100306190D01*
X110760000Y-100258571D01*
X110664761Y-100210952D01*
X110617142Y-100163333D01*
X110569523Y-100068095D01*
X110569523Y-99972857D01*
X110617142Y-99877619D01*
X110664761Y-99830000D01*
X110760000Y-99782380D01*
X110998095Y-99782380D01*
X111140952Y-99830000D01*
X112140952Y-100687142D02*
X112093333Y-100734761D01*
X111950476Y-100782380D01*
X111855238Y-100782380D01*
X111712380Y-100734761D01*
X111617142Y-100639523D01*
X111569523Y-100544285D01*
X111521904Y-100353809D01*
X111521904Y-100210952D01*
X111569523Y-100020476D01*
X111617142Y-99925238D01*
X111712380Y-99830000D01*
X111855238Y-99782380D01*
X111950476Y-99782380D01*
X112093333Y-99830000D01*
X112140952Y-99877619D01*
X113045714Y-100782380D02*
X112569523Y-100782380D01*
X112569523Y-99782380D01*
X110545714Y-98194761D02*
X110688571Y-98242380D01*
X110926666Y-98242380D01*
X111021904Y-98194761D01*
X111069523Y-98147142D01*
X111117142Y-98051904D01*
X111117142Y-97956666D01*
X111069523Y-97861428D01*
X111021904Y-97813809D01*
X110926666Y-97766190D01*
X110736190Y-97718571D01*
X110640952Y-97670952D01*
X110593333Y-97623333D01*
X110545714Y-97528095D01*
X110545714Y-97432857D01*
X110593333Y-97337619D01*
X110640952Y-97290000D01*
X110736190Y-97242380D01*
X110974285Y-97242380D01*
X111117142Y-97290000D01*
X111545714Y-98242380D02*
X111545714Y-97242380D01*
X111783809Y-97242380D01*
X111926666Y-97290000D01*
X112021904Y-97385238D01*
X112069523Y-97480476D01*
X112117142Y-97670952D01*
X112117142Y-97813809D01*
X112069523Y-98004285D01*
X112021904Y-98099523D01*
X111926666Y-98194761D01*
X111783809Y-98242380D01*
X111545714Y-98242380D01*
X112498095Y-97956666D02*
X112974285Y-97956666D01*
X112402857Y-98242380D02*
X112736190Y-97242380D01*
X113069523Y-98242380D01*
D10*
X99695000Y-104140000D02*
X99695000Y-91440000D01*
X99695000Y-91440000D02*
X114300000Y-91440000D01*
X109855000Y-99060000D02*
X114300000Y-99060000D01*
X109855000Y-104140000D02*
X114300000Y-104140000D01*
D12*
X110998095Y-94750000D02*
X110902857Y-94702380D01*
X110760000Y-94702380D01*
X110617142Y-94750000D01*
X110521904Y-94845238D01*
X110474285Y-94940476D01*
X110426666Y-95130952D01*
X110426666Y-95273809D01*
X110474285Y-95464285D01*
X110521904Y-95559523D01*
X110617142Y-95654761D01*
X110760000Y-95702380D01*
X110855238Y-95702380D01*
X110998095Y-95654761D01*
X111045714Y-95607142D01*
X111045714Y-95273809D01*
X110855238Y-95273809D01*
X111474285Y-95702380D02*
X111474285Y-94702380D01*
X112045714Y-95702380D01*
X112045714Y-94702380D01*
X112521904Y-95702380D02*
X112521904Y-94702380D01*
X112760000Y-94702380D01*
X112902857Y-94750000D01*
X112998095Y-94845238D01*
X113045714Y-94940476D01*
X113093333Y-95130952D01*
X113093333Y-95273809D01*
X113045714Y-95464285D01*
X112998095Y-95559523D01*
X112902857Y-95654761D01*
X112760000Y-95702380D01*
X112521904Y-95702380D01*
D13*
X105703809Y-93162380D02*
X105703809Y-92162380D01*
X106132380Y-92257619D02*
X106180000Y-92210000D01*
X106275238Y-92162380D01*
X106513333Y-92162380D01*
X106608571Y-92210000D01*
X106656190Y-92257619D01*
X106703809Y-92352857D01*
X106703809Y-92448095D01*
X106656190Y-92590952D01*
X106084761Y-93162380D01*
X106703809Y-93162380D01*
X107703809Y-93067142D02*
X107656190Y-93114761D01*
X107513333Y-93162380D01*
X107418095Y-93162380D01*
X107275238Y-93114761D01*
X107180000Y-93019523D01*
X107132380Y-92924285D01*
X107084761Y-92733809D01*
X107084761Y-92590952D01*
X107132380Y-92400476D01*
X107180000Y-92305238D01*
X107275238Y-92210000D01*
X107418095Y-92162380D01*
X107513333Y-92162380D01*
X107656190Y-92210000D01*
X107703809Y-92257619D01*
D12*
X110521904Y-102322380D02*
X111140952Y-102322380D01*
X110807619Y-102703333D01*
X110950476Y-102703333D01*
X111045714Y-102750952D01*
X111093333Y-102798571D01*
X111140952Y-102893809D01*
X111140952Y-103131904D01*
X111093333Y-103227142D01*
X111045714Y-103274761D01*
X110950476Y-103322380D01*
X110664761Y-103322380D01*
X110569523Y-103274761D01*
X110521904Y-103227142D01*
X111426666Y-102322380D02*
X111760000Y-103322380D01*
X112093333Y-102322380D01*
X112331428Y-102322380D02*
X112950476Y-102322380D01*
X112617142Y-102703333D01*
X112760000Y-102703333D01*
X112855238Y-102750952D01*
X112902857Y-102798571D01*
X112950476Y-102893809D01*
X112950476Y-103131904D01*
X112902857Y-103227142D01*
X112855238Y-103274761D01*
X112760000Y-103322380D01*
X112474285Y-103322380D01*
X112379047Y-103274761D01*
X112331428Y-103227142D01*
D10*
X109855000Y-96520000D02*
X114300000Y-96520000D01*
X114300000Y-67310000D02*
X114300000Y-69850000D01*
X101600000Y-67310000D02*
X114300000Y-67310000D01*
X101600000Y-69850000D02*
X101600000Y-67310000D01*
X40640000Y-129540000D02*
X40640000Y-132080000D01*
X53340000Y-129540000D02*
X40640000Y-129540000D01*
X53340000Y-132080000D02*
X53340000Y-129540000D01*
X40640000Y-115570000D02*
X40640000Y-118110000D01*
X53340000Y-115570000D02*
X40640000Y-115570000D01*
X53340000Y-118110000D02*
X53340000Y-115570000D01*
X40640000Y-91440000D02*
X40640000Y-93980000D01*
X53340000Y-91440000D02*
X40640000Y-91440000D01*
X53340000Y-93980000D02*
X53340000Y-91440000D01*
X109855000Y-80010000D02*
X114300000Y-80010000D01*
X109855000Y-87630000D02*
X114300000Y-87630000D01*
X109855000Y-72390000D02*
X114300000Y-72390000D01*
X109855000Y-74930000D02*
X114300000Y-74930000D01*
X101600000Y-69850000D02*
X103505000Y-69850000D01*
X114300000Y-69850000D02*
X114300000Y-80010000D01*
X109855000Y-85090000D02*
X114300000Y-85090000D01*
D12*
X110569523Y-71572380D02*
X110569523Y-70572380D01*
X110950476Y-70572380D01*
X111045714Y-70620000D01*
X111093333Y-70667619D01*
X111140952Y-70762857D01*
X111140952Y-70905714D01*
X111093333Y-71000952D01*
X111045714Y-71048571D01*
X110950476Y-71096190D01*
X110569523Y-71096190D01*
X111569523Y-71048571D02*
X111902857Y-71048571D01*
X112045714Y-71572380D02*
X111569523Y-71572380D01*
X111569523Y-70572380D01*
X112045714Y-70572380D01*
X112664761Y-70572380D02*
X112760000Y-70572380D01*
X112855238Y-70620000D01*
X112902857Y-70667619D01*
X112950476Y-70762857D01*
X112998095Y-70953333D01*
X112998095Y-71191428D01*
X112950476Y-71381904D01*
X112902857Y-71477142D01*
X112855238Y-71524761D01*
X112760000Y-71572380D01*
X112664761Y-71572380D01*
X112569523Y-71524761D01*
X112521904Y-71477142D01*
X112474285Y-71381904D01*
X112426666Y-71191428D01*
X112426666Y-70953333D01*
X112474285Y-70762857D01*
X112521904Y-70667619D01*
X112569523Y-70620000D01*
X112664761Y-70572380D01*
D13*
X105680000Y-68080000D02*
X105584761Y-68032380D01*
X105441904Y-68032380D01*
X105299047Y-68080000D01*
X105203809Y-68175238D01*
X105156190Y-68270476D01*
X105108571Y-68460952D01*
X105108571Y-68603809D01*
X105156190Y-68794285D01*
X105203809Y-68889523D01*
X105299047Y-68984761D01*
X105441904Y-69032380D01*
X105537142Y-69032380D01*
X105680000Y-68984761D01*
X105727619Y-68937142D01*
X105727619Y-68603809D01*
X105537142Y-68603809D01*
X106156190Y-69032380D02*
X106156190Y-68032380D01*
X106537142Y-68032380D01*
X106632380Y-68080000D01*
X106680000Y-68127619D01*
X106727619Y-68222857D01*
X106727619Y-68365714D01*
X106680000Y-68460952D01*
X106632380Y-68508571D01*
X106537142Y-68556190D01*
X106156190Y-68556190D01*
X107156190Y-69032380D02*
X107156190Y-68032380D01*
X107822857Y-68032380D02*
X108013333Y-68032380D01*
X108108571Y-68080000D01*
X108203809Y-68175238D01*
X108251428Y-68365714D01*
X108251428Y-68699047D01*
X108203809Y-68889523D01*
X108108571Y-68984761D01*
X108013333Y-69032380D01*
X107822857Y-69032380D01*
X107727619Y-68984761D01*
X107632380Y-68889523D01*
X107584761Y-68699047D01*
X107584761Y-68365714D01*
X107632380Y-68175238D01*
X107727619Y-68080000D01*
X107822857Y-68032380D01*
D12*
X110569523Y-79192380D02*
X110569523Y-78192380D01*
X110950476Y-78192380D01*
X111045714Y-78240000D01*
X111093333Y-78287619D01*
X111140952Y-78382857D01*
X111140952Y-78525714D01*
X111093333Y-78620952D01*
X111045714Y-78668571D01*
X110950476Y-78716190D01*
X110569523Y-78716190D01*
X111569523Y-78668571D02*
X111902857Y-78668571D01*
X112045714Y-79192380D02*
X111569523Y-79192380D01*
X111569523Y-78192380D01*
X112045714Y-78192380D01*
X112379047Y-78192380D02*
X112998095Y-78192380D01*
X112664761Y-78573333D01*
X112807619Y-78573333D01*
X112902857Y-78620952D01*
X112950476Y-78668571D01*
X112998095Y-78763809D01*
X112998095Y-79001904D01*
X112950476Y-79097142D01*
X112902857Y-79144761D01*
X112807619Y-79192380D01*
X112521904Y-79192380D01*
X112426666Y-79144761D01*
X112379047Y-79097142D01*
X110569523Y-81732380D02*
X110569523Y-80732380D01*
X110950476Y-80732380D01*
X111045714Y-80780000D01*
X111093333Y-80827619D01*
X111140952Y-80922857D01*
X111140952Y-81065714D01*
X111093333Y-81160952D01*
X111045714Y-81208571D01*
X110950476Y-81256190D01*
X110569523Y-81256190D01*
X111569523Y-81208571D02*
X111902857Y-81208571D01*
X112045714Y-81732380D02*
X111569523Y-81732380D01*
X111569523Y-80732380D01*
X112045714Y-80732380D01*
X112902857Y-81065714D02*
X112902857Y-81732380D01*
X112664761Y-80684761D02*
X112426666Y-81399047D01*
X113045714Y-81399047D01*
D10*
X109855000Y-90170000D02*
X114300000Y-90170000D01*
D12*
X110569523Y-76652380D02*
X110569523Y-75652380D01*
X110950476Y-75652380D01*
X111045714Y-75700000D01*
X111093333Y-75747619D01*
X111140952Y-75842857D01*
X111140952Y-75985714D01*
X111093333Y-76080952D01*
X111045714Y-76128571D01*
X110950476Y-76176190D01*
X110569523Y-76176190D01*
X111569523Y-76128571D02*
X111902857Y-76128571D01*
X112045714Y-76652380D02*
X111569523Y-76652380D01*
X111569523Y-75652380D01*
X112045714Y-75652380D01*
X112426666Y-75747619D02*
X112474285Y-75700000D01*
X112569523Y-75652380D01*
X112807619Y-75652380D01*
X112902857Y-75700000D01*
X112950476Y-75747619D01*
X112998095Y-75842857D01*
X112998095Y-75938095D01*
X112950476Y-76080952D01*
X112379047Y-76652380D01*
X112998095Y-76652380D01*
D10*
X109855000Y-77470000D02*
X114300000Y-77470000D01*
D12*
X110569523Y-74112380D02*
X110569523Y-73112380D01*
X110950476Y-73112380D01*
X111045714Y-73160000D01*
X111093333Y-73207619D01*
X111140952Y-73302857D01*
X111140952Y-73445714D01*
X111093333Y-73540952D01*
X111045714Y-73588571D01*
X110950476Y-73636190D01*
X110569523Y-73636190D01*
X111569523Y-73588571D02*
X111902857Y-73588571D01*
X112045714Y-74112380D02*
X111569523Y-74112380D01*
X111569523Y-73112380D01*
X112045714Y-73112380D01*
X112998095Y-74112380D02*
X112426666Y-74112380D01*
X112712380Y-74112380D02*
X112712380Y-73112380D01*
X112617142Y-73255238D01*
X112521904Y-73350476D01*
X112426666Y-73398095D01*
X110569523Y-84272380D02*
X110569523Y-83272380D01*
X110950476Y-83272380D01*
X111045714Y-83320000D01*
X111093333Y-83367619D01*
X111140952Y-83462857D01*
X111140952Y-83605714D01*
X111093333Y-83700952D01*
X111045714Y-83748571D01*
X110950476Y-83796190D01*
X110569523Y-83796190D01*
X111569523Y-83748571D02*
X111902857Y-83748571D01*
X112045714Y-84272380D02*
X111569523Y-84272380D01*
X111569523Y-83272380D01*
X112045714Y-83272380D01*
X112950476Y-83272380D02*
X112474285Y-83272380D01*
X112426666Y-83748571D01*
X112474285Y-83700952D01*
X112569523Y-83653333D01*
X112807619Y-83653333D01*
X112902857Y-83700952D01*
X112950476Y-83748571D01*
X112998095Y-83843809D01*
X112998095Y-84081904D01*
X112950476Y-84177142D01*
X112902857Y-84224761D01*
X112807619Y-84272380D01*
X112569523Y-84272380D01*
X112474285Y-84224761D01*
X112426666Y-84177142D01*
X110569523Y-89352380D02*
X110569523Y-88352380D01*
X110950476Y-88352380D01*
X111045714Y-88400000D01*
X111093333Y-88447619D01*
X111140952Y-88542857D01*
X111140952Y-88685714D01*
X111093333Y-88780952D01*
X111045714Y-88828571D01*
X110950476Y-88876190D01*
X110569523Y-88876190D01*
X111569523Y-88828571D02*
X111902857Y-88828571D01*
X112045714Y-89352380D02*
X111569523Y-89352380D01*
X111569523Y-88352380D01*
X112045714Y-88352380D01*
X112379047Y-88352380D02*
X113045714Y-88352380D01*
X112617142Y-89352380D01*
D10*
X114300000Y-80010000D02*
X114300000Y-90170000D01*
D12*
X110569523Y-86812380D02*
X110569523Y-85812380D01*
X110950476Y-85812380D01*
X111045714Y-85860000D01*
X111093333Y-85907619D01*
X111140952Y-86002857D01*
X111140952Y-86145714D01*
X111093333Y-86240952D01*
X111045714Y-86288571D01*
X110950476Y-86336190D01*
X110569523Y-86336190D01*
X111569523Y-86288571D02*
X111902857Y-86288571D01*
X112045714Y-86812380D02*
X111569523Y-86812380D01*
X111569523Y-85812380D01*
X112045714Y-85812380D01*
X112902857Y-85812380D02*
X112712380Y-85812380D01*
X112617142Y-85860000D01*
X112569523Y-85907619D01*
X112474285Y-86050476D01*
X112426666Y-86240952D01*
X112426666Y-86621904D01*
X112474285Y-86717142D01*
X112521904Y-86764761D01*
X112617142Y-86812380D01*
X112807619Y-86812380D01*
X112902857Y-86764761D01*
X112950476Y-86717142D01*
X112998095Y-86621904D01*
X112998095Y-86383809D01*
X112950476Y-86288571D01*
X112902857Y-86240952D01*
X112807619Y-86193333D01*
X112617142Y-86193333D01*
X112521904Y-86240952D01*
X112474285Y-86288571D01*
X112426666Y-86383809D01*
D10*
X109855000Y-82550000D02*
X114300000Y-82550000D01*
X51435000Y-137160000D02*
X53340000Y-137160000D01*
X53340000Y-137160000D02*
X53340000Y-132080000D01*
D12*
X52570000Y-138938095D02*
X52617619Y-138842857D01*
X52617619Y-138700000D01*
X52570000Y-138557142D01*
X52474761Y-138461904D01*
X52379523Y-138414285D01*
X52189047Y-138366666D01*
X52046190Y-138366666D01*
X51855714Y-138414285D01*
X51760476Y-138461904D01*
X51665238Y-138557142D01*
X51617619Y-138700000D01*
X51617619Y-138795238D01*
X51665238Y-138938095D01*
X51712857Y-138985714D01*
X52046190Y-138985714D01*
X52046190Y-138795238D01*
X51617619Y-139414285D02*
X52617619Y-139414285D01*
X51617619Y-139985714D01*
X52617619Y-139985714D01*
X51617619Y-140461904D02*
X52617619Y-140461904D01*
X52617619Y-140700000D01*
X52570000Y-140842857D01*
X52474761Y-140938095D01*
X52379523Y-140985714D01*
X52189047Y-141033333D01*
X52046190Y-141033333D01*
X51855714Y-140985714D01*
X51760476Y-140938095D01*
X51665238Y-140842857D01*
X51617619Y-140700000D01*
X51617619Y-140461904D01*
D10*
X53340000Y-142240000D02*
X51435000Y-142240000D01*
X53340000Y-132080000D02*
X51435000Y-132080000D01*
D12*
X52617619Y-133381904D02*
X52617619Y-134000952D01*
X52236666Y-133667619D01*
X52236666Y-133810476D01*
X52189047Y-133905714D01*
X52141428Y-133953333D01*
X52046190Y-134000952D01*
X51808095Y-134000952D01*
X51712857Y-133953333D01*
X51665238Y-133905714D01*
X51617619Y-133810476D01*
X51617619Y-133524761D01*
X51665238Y-133429523D01*
X51712857Y-133381904D01*
X52617619Y-134286666D02*
X51617619Y-134620000D01*
X52617619Y-134953333D01*
X52617619Y-135191428D02*
X52617619Y-135810476D01*
X52236666Y-135477142D01*
X52236666Y-135620000D01*
X52189047Y-135715238D01*
X52141428Y-135762857D01*
X52046190Y-135810476D01*
X51808095Y-135810476D01*
X51712857Y-135762857D01*
X51665238Y-135715238D01*
X51617619Y-135620000D01*
X51617619Y-135334285D01*
X51665238Y-135239047D01*
X51712857Y-135191428D01*
D10*
X53340000Y-137160000D02*
X53340000Y-142240000D01*
X40640000Y-142240000D02*
X40640000Y-132080000D01*
X45085000Y-132080000D02*
X40640000Y-132080000D01*
X45085000Y-139700000D02*
X40640000Y-139700000D01*
X45085000Y-134620000D02*
X40640000Y-134620000D01*
X45085000Y-142240000D02*
X40640000Y-142240000D01*
X45085000Y-137160000D02*
X40640000Y-137160000D01*
X40640000Y-114300000D02*
X40640000Y-104140000D01*
X45085000Y-111760000D02*
X40640000Y-111760000D01*
X45085000Y-106680000D02*
X40640000Y-106680000D01*
X45085000Y-114300000D02*
X40640000Y-114300000D01*
X45085000Y-109220000D02*
X40640000Y-109220000D01*
X40640000Y-104140000D02*
X40640000Y-93980000D01*
X45085000Y-93980000D02*
X40640000Y-93980000D01*
X45085000Y-101600000D02*
X40640000Y-101600000D01*
X45085000Y-96520000D02*
X40640000Y-96520000D01*
X45085000Y-104140000D02*
X40640000Y-104140000D01*
X45085000Y-99060000D02*
X40640000Y-99060000D01*
X40640000Y-128270000D02*
X40640000Y-118110000D01*
X45085000Y-128270000D02*
X40640000Y-128270000D01*
X45085000Y-125730000D02*
X40640000Y-125730000D01*
X45085000Y-123190000D02*
X40640000Y-123190000D01*
X45085000Y-120650000D02*
X40640000Y-120650000D01*
X45085000Y-118110000D02*
X40640000Y-118110000D01*
D12*
X52570000Y-101830476D02*
X52617619Y-101735238D01*
X52617619Y-101592380D01*
X52570000Y-101449523D01*
X52474761Y-101354285D01*
X52379523Y-101306666D01*
X52189047Y-101259047D01*
X52046190Y-101259047D01*
X51855714Y-101306666D01*
X51760476Y-101354285D01*
X51665238Y-101449523D01*
X51617619Y-101592380D01*
X51617619Y-101687619D01*
X51665238Y-101830476D01*
X51712857Y-101878095D01*
X52046190Y-101878095D01*
X52046190Y-101687619D01*
X51617619Y-102878095D02*
X52093809Y-102544761D01*
X51617619Y-102306666D02*
X52617619Y-102306666D01*
X52617619Y-102687619D01*
X52570000Y-102782857D01*
X52522380Y-102830476D01*
X52427142Y-102878095D01*
X52284285Y-102878095D01*
X52189047Y-102830476D01*
X52141428Y-102782857D01*
X52093809Y-102687619D01*
X52093809Y-102306666D01*
X52617619Y-103497142D02*
X52617619Y-103687619D01*
X52570000Y-103782857D01*
X52474761Y-103878095D01*
X52284285Y-103925714D01*
X51950952Y-103925714D01*
X51760476Y-103878095D01*
X51665238Y-103782857D01*
X51617619Y-103687619D01*
X51617619Y-103497142D01*
X51665238Y-103401904D01*
X51760476Y-103306666D01*
X51950952Y-103259047D01*
X52284285Y-103259047D01*
X52474761Y-103306666D01*
X52570000Y-103401904D01*
X52617619Y-103497142D01*
X52617619Y-104354285D02*
X51808095Y-104354285D01*
X51712857Y-104401904D01*
X51665238Y-104449523D01*
X51617619Y-104544761D01*
X51617619Y-104735238D01*
X51665238Y-104830476D01*
X51712857Y-104878095D01*
X51808095Y-104925714D01*
X52617619Y-104925714D01*
X51617619Y-105401904D02*
X52617619Y-105401904D01*
X51617619Y-105973333D01*
X52617619Y-105973333D01*
X51617619Y-106449523D02*
X52617619Y-106449523D01*
X52617619Y-106687619D01*
X52570000Y-106830476D01*
X52474761Y-106925714D01*
X52379523Y-106973333D01*
X52189047Y-107020952D01*
X52046190Y-107020952D01*
X51855714Y-106973333D01*
X51760476Y-106925714D01*
X51665238Y-106830476D01*
X51617619Y-106687619D01*
X51617619Y-106449523D01*
D10*
X53340000Y-114300000D02*
X51435000Y-114300000D01*
X53340000Y-93980000D02*
X53340000Y-114300000D01*
X51435000Y-93980000D02*
X53340000Y-93980000D01*
X53340000Y-128270000D02*
X51435000Y-128270000D01*
X53340000Y-123190000D02*
X53340000Y-128270000D01*
X53340000Y-118110000D02*
X51435000Y-118110000D01*
X53340000Y-123190000D02*
X53340000Y-118110000D01*
X51435000Y-123190000D02*
X53340000Y-123190000D01*
D12*
X52570000Y-124968095D02*
X52617619Y-124872857D01*
X52617619Y-124730000D01*
X52570000Y-124587142D01*
X52474761Y-124491904D01*
X52379523Y-124444285D01*
X52189047Y-124396666D01*
X52046190Y-124396666D01*
X51855714Y-124444285D01*
X51760476Y-124491904D01*
X51665238Y-124587142D01*
X51617619Y-124730000D01*
X51617619Y-124825238D01*
X51665238Y-124968095D01*
X51712857Y-125015714D01*
X52046190Y-125015714D01*
X52046190Y-124825238D01*
X51617619Y-125444285D02*
X52617619Y-125444285D01*
X51617619Y-126015714D01*
X52617619Y-126015714D01*
X51617619Y-126491904D02*
X52617619Y-126491904D01*
X52617619Y-126730000D01*
X52570000Y-126872857D01*
X52474761Y-126968095D01*
X52379523Y-127015714D01*
X52189047Y-127063333D01*
X52046190Y-127063333D01*
X51855714Y-127015714D01*
X51760476Y-126968095D01*
X51665238Y-126872857D01*
X51617619Y-126730000D01*
X51617619Y-126491904D01*
X52617619Y-119411904D02*
X52617619Y-120030952D01*
X52236666Y-119697619D01*
X52236666Y-119840476D01*
X52189047Y-119935714D01*
X52141428Y-119983333D01*
X52046190Y-120030952D01*
X51808095Y-120030952D01*
X51712857Y-119983333D01*
X51665238Y-119935714D01*
X51617619Y-119840476D01*
X51617619Y-119554761D01*
X51665238Y-119459523D01*
X51712857Y-119411904D01*
X52617619Y-120316666D02*
X51617619Y-120650000D01*
X52617619Y-120983333D01*
X52617619Y-121221428D02*
X52617619Y-121840476D01*
X52236666Y-121507142D01*
X52236666Y-121650000D01*
X52189047Y-121745238D01*
X52141428Y-121792857D01*
X52046190Y-121840476D01*
X51808095Y-121840476D01*
X51712857Y-121792857D01*
X51665238Y-121745238D01*
X51617619Y-121650000D01*
X51617619Y-121364285D01*
X51665238Y-121269047D01*
X51712857Y-121221428D01*
X42227619Y-140055000D02*
X43180000Y-140055000D01*
X42418095Y-141374761D02*
X42560952Y-141422380D01*
X42799047Y-141422380D01*
X42894285Y-141374761D01*
X42941904Y-141327142D01*
X42989523Y-141231904D01*
X42989523Y-141136666D01*
X42941904Y-141041428D01*
X42894285Y-140993809D01*
X42799047Y-140946190D01*
X42608571Y-140898571D01*
X42513333Y-140850952D01*
X42465714Y-140803333D01*
X42418095Y-140708095D01*
X42418095Y-140612857D01*
X42465714Y-140517619D01*
X42513333Y-140470000D01*
X42608571Y-140422380D01*
X42846666Y-140422380D01*
X42989523Y-140470000D01*
X43180000Y-140055000D02*
X44132380Y-140055000D01*
X43370476Y-141374761D02*
X43513333Y-141422380D01*
X43751428Y-141422380D01*
X43846666Y-141374761D01*
X43894285Y-141327142D01*
X43941904Y-141231904D01*
X43941904Y-141136666D01*
X43894285Y-141041428D01*
X43846666Y-140993809D01*
X43751428Y-140946190D01*
X43560952Y-140898571D01*
X43465714Y-140850952D01*
X43418095Y-140803333D01*
X43370476Y-140708095D01*
X43370476Y-140612857D01*
X43418095Y-140517619D01*
X43465714Y-140470000D01*
X43560952Y-140422380D01*
X43799047Y-140422380D01*
X43941904Y-140470000D01*
X41894285Y-138834761D02*
X42037142Y-138882380D01*
X42275238Y-138882380D01*
X42370476Y-138834761D01*
X42418095Y-138787142D01*
X42465714Y-138691904D01*
X42465714Y-138596666D01*
X42418095Y-138501428D01*
X42370476Y-138453809D01*
X42275238Y-138406190D01*
X42084761Y-138358571D01*
X41989523Y-138310952D01*
X41941904Y-138263333D01*
X41894285Y-138168095D01*
X41894285Y-138072857D01*
X41941904Y-137977619D01*
X41989523Y-137930000D01*
X42084761Y-137882380D01*
X42322857Y-137882380D01*
X42465714Y-137930000D01*
X43465714Y-138787142D02*
X43418095Y-138834761D01*
X43275238Y-138882380D01*
X43180000Y-138882380D01*
X43037142Y-138834761D01*
X42941904Y-138739523D01*
X42894285Y-138644285D01*
X42846666Y-138453809D01*
X42846666Y-138310952D01*
X42894285Y-138120476D01*
X42941904Y-138025238D01*
X43037142Y-137930000D01*
X43180000Y-137882380D01*
X43275238Y-137882380D01*
X43418095Y-137930000D01*
X43465714Y-137977619D01*
X43894285Y-138882380D02*
X43894285Y-137882380D01*
X44465714Y-138882380D02*
X44037142Y-138310952D01*
X44465714Y-137882380D02*
X43894285Y-138453809D01*
X41608571Y-136342380D02*
X41608571Y-135342380D01*
X41941904Y-136056666D01*
X42275238Y-135342380D01*
X42275238Y-136342380D01*
X42941904Y-135342380D02*
X43132380Y-135342380D01*
X43227619Y-135390000D01*
X43322857Y-135485238D01*
X43370476Y-135675714D01*
X43370476Y-136009047D01*
X43322857Y-136199523D01*
X43227619Y-136294761D01*
X43132380Y-136342380D01*
X42941904Y-136342380D01*
X42846666Y-136294761D01*
X42751428Y-136199523D01*
X42703809Y-136009047D01*
X42703809Y-135675714D01*
X42751428Y-135485238D01*
X42846666Y-135390000D01*
X42941904Y-135342380D01*
X43751428Y-136294761D02*
X43894285Y-136342380D01*
X44132380Y-136342380D01*
X44227619Y-136294761D01*
X44275238Y-136247142D01*
X44322857Y-136151904D01*
X44322857Y-136056666D01*
X44275238Y-135961428D01*
X44227619Y-135913809D01*
X44132380Y-135866190D01*
X43941904Y-135818571D01*
X43846666Y-135770952D01*
X43799047Y-135723333D01*
X43751428Y-135628095D01*
X43751428Y-135532857D01*
X43799047Y-135437619D01*
X43846666Y-135390000D01*
X43941904Y-135342380D01*
X44180000Y-135342380D01*
X44322857Y-135390000D01*
X44751428Y-136342380D02*
X44751428Y-135342380D01*
X41608571Y-133802380D02*
X41608571Y-132802380D01*
X41941904Y-133516666D01*
X42275238Y-132802380D01*
X42275238Y-133802380D01*
X42751428Y-133802380D02*
X42751428Y-132802380D01*
X43180000Y-133754761D02*
X43322857Y-133802380D01*
X43560952Y-133802380D01*
X43656190Y-133754761D01*
X43703809Y-133707142D01*
X43751428Y-133611904D01*
X43751428Y-133516666D01*
X43703809Y-133421428D01*
X43656190Y-133373809D01*
X43560952Y-133326190D01*
X43370476Y-133278571D01*
X43275238Y-133230952D01*
X43227619Y-133183333D01*
X43180000Y-133088095D01*
X43180000Y-132992857D01*
X43227619Y-132897619D01*
X43275238Y-132850000D01*
X43370476Y-132802380D01*
X43608571Y-132802380D01*
X43751428Y-132850000D01*
X44370476Y-132802380D02*
X44560952Y-132802380D01*
X44656190Y-132850000D01*
X44751428Y-132945238D01*
X44799047Y-133135714D01*
X44799047Y-133469047D01*
X44751428Y-133659523D01*
X44656190Y-133754761D01*
X44560952Y-133802380D01*
X44370476Y-133802380D01*
X44275238Y-133754761D01*
X44180000Y-133659523D01*
X44132380Y-133469047D01*
X44132380Y-133135714D01*
X44180000Y-132945238D01*
X44275238Y-132850000D01*
X44370476Y-132802380D01*
D13*
X46760000Y-131214761D02*
X46902857Y-131262380D01*
X47140952Y-131262380D01*
X47236190Y-131214761D01*
X47283809Y-131167142D01*
X47331428Y-131071904D01*
X47331428Y-130976666D01*
X47283809Y-130881428D01*
X47236190Y-130833809D01*
X47140952Y-130786190D01*
X46950476Y-130738571D01*
X46855238Y-130690952D01*
X46807619Y-130643333D01*
X46760000Y-130548095D01*
X46760000Y-130452857D01*
X46807619Y-130357619D01*
X46855238Y-130310000D01*
X46950476Y-130262380D01*
X47188571Y-130262380D01*
X47331428Y-130310000D01*
X47760000Y-131262380D02*
X47760000Y-130262380D01*
X48140952Y-130262380D01*
X48236190Y-130310000D01*
X48283809Y-130357619D01*
X48331428Y-130452857D01*
X48331428Y-130595714D01*
X48283809Y-130690952D01*
X48236190Y-130738571D01*
X48140952Y-130786190D01*
X47760000Y-130786190D01*
X48760000Y-131262380D02*
X48760000Y-130262380D01*
X49188571Y-130357619D02*
X49236190Y-130310000D01*
X49331428Y-130262380D01*
X49569523Y-130262380D01*
X49664761Y-130310000D01*
X49712380Y-130357619D01*
X49760000Y-130452857D01*
X49760000Y-130548095D01*
X49712380Y-130690952D01*
X49140952Y-131262380D01*
X49760000Y-131262380D01*
X46212380Y-116292380D02*
X46783809Y-116292380D01*
X46498095Y-117292380D02*
X46498095Y-116292380D01*
X47117142Y-117292380D02*
X47117142Y-116292380D01*
X47593333Y-117292380D02*
X47593333Y-116292380D01*
X47926666Y-117006666D01*
X48260000Y-116292380D01*
X48260000Y-117292380D01*
X48736190Y-116768571D02*
X49069523Y-116768571D01*
X49212380Y-117292380D02*
X48736190Y-117292380D01*
X48736190Y-116292380D01*
X49212380Y-116292380D01*
X50212380Y-117292380D02*
X49879047Y-116816190D01*
X49640952Y-117292380D02*
X49640952Y-116292380D01*
X50021904Y-116292380D01*
X50117142Y-116340000D01*
X50164761Y-116387619D01*
X50212380Y-116482857D01*
X50212380Y-116625714D01*
X50164761Y-116720952D01*
X50117142Y-116768571D01*
X50021904Y-116816190D01*
X49640952Y-116816190D01*
D12*
X41346666Y-126452380D02*
X41918095Y-126452380D01*
X41632380Y-127452380D02*
X41632380Y-126452380D01*
X42251428Y-127452380D02*
X42251428Y-126452380D01*
X42584761Y-127166666D01*
X42918095Y-126452380D01*
X42918095Y-127452380D01*
X43965714Y-127452380D02*
X43632380Y-126976190D01*
X43394285Y-127452380D02*
X43394285Y-126452380D01*
X43775238Y-126452380D01*
X43870476Y-126500000D01*
X43918095Y-126547619D01*
X43965714Y-126642857D01*
X43965714Y-126785714D01*
X43918095Y-126880952D01*
X43870476Y-126928571D01*
X43775238Y-126976190D01*
X43394285Y-126976190D01*
X44822857Y-126785714D02*
X44822857Y-127452380D01*
X44584761Y-126404761D02*
X44346666Y-127119047D01*
X44965714Y-127119047D01*
X41346666Y-123912380D02*
X41918095Y-123912380D01*
X41632380Y-124912380D02*
X41632380Y-123912380D01*
X42251428Y-124912380D02*
X42251428Y-123912380D01*
X42584761Y-124626666D01*
X42918095Y-123912380D01*
X42918095Y-124912380D01*
X43965714Y-124912380D02*
X43632380Y-124436190D01*
X43394285Y-124912380D02*
X43394285Y-123912380D01*
X43775238Y-123912380D01*
X43870476Y-123960000D01*
X43918095Y-124007619D01*
X43965714Y-124102857D01*
X43965714Y-124245714D01*
X43918095Y-124340952D01*
X43870476Y-124388571D01*
X43775238Y-124436190D01*
X43394285Y-124436190D01*
X44299047Y-123912380D02*
X44918095Y-123912380D01*
X44584761Y-124293333D01*
X44727619Y-124293333D01*
X44822857Y-124340952D01*
X44870476Y-124388571D01*
X44918095Y-124483809D01*
X44918095Y-124721904D01*
X44870476Y-124817142D01*
X44822857Y-124864761D01*
X44727619Y-124912380D01*
X44441904Y-124912380D01*
X44346666Y-124864761D01*
X44299047Y-124817142D01*
X41346666Y-121372380D02*
X41918095Y-121372380D01*
X41632380Y-122372380D02*
X41632380Y-121372380D01*
X42251428Y-122372380D02*
X42251428Y-121372380D01*
X42584761Y-122086666D01*
X42918095Y-121372380D01*
X42918095Y-122372380D01*
X43965714Y-122372380D02*
X43632380Y-121896190D01*
X43394285Y-122372380D02*
X43394285Y-121372380D01*
X43775238Y-121372380D01*
X43870476Y-121420000D01*
X43918095Y-121467619D01*
X43965714Y-121562857D01*
X43965714Y-121705714D01*
X43918095Y-121800952D01*
X43870476Y-121848571D01*
X43775238Y-121896190D01*
X43394285Y-121896190D01*
X44346666Y-121467619D02*
X44394285Y-121420000D01*
X44489523Y-121372380D01*
X44727619Y-121372380D01*
X44822857Y-121420000D01*
X44870476Y-121467619D01*
X44918095Y-121562857D01*
X44918095Y-121658095D01*
X44870476Y-121800952D01*
X44299047Y-122372380D01*
X44918095Y-122372380D01*
X41346666Y-118832380D02*
X41918095Y-118832380D01*
X41632380Y-119832380D02*
X41632380Y-118832380D01*
X42251428Y-119832380D02*
X42251428Y-118832380D01*
X42584761Y-119546666D01*
X42918095Y-118832380D01*
X42918095Y-119832380D01*
X43965714Y-119832380D02*
X43632380Y-119356190D01*
X43394285Y-119832380D02*
X43394285Y-118832380D01*
X43775238Y-118832380D01*
X43870476Y-118880000D01*
X43918095Y-118927619D01*
X43965714Y-119022857D01*
X43965714Y-119165714D01*
X43918095Y-119260952D01*
X43870476Y-119308571D01*
X43775238Y-119356190D01*
X43394285Y-119356190D01*
X44918095Y-119832380D02*
X44346666Y-119832380D01*
X44632380Y-119832380D02*
X44632380Y-118832380D01*
X44537142Y-118975238D01*
X44441904Y-119070476D01*
X44346666Y-119118095D01*
X41941904Y-113196666D02*
X42418095Y-113196666D01*
X41846666Y-113482380D02*
X42180000Y-112482380D01*
X42513333Y-113482380D01*
X42846666Y-113482380D02*
X42846666Y-112482380D01*
X43418095Y-113482380D01*
X43418095Y-112482380D01*
X43799047Y-112482380D02*
X44465714Y-112482380D01*
X44037142Y-113482380D01*
X41941904Y-110656666D02*
X42418095Y-110656666D01*
X41846666Y-110942380D02*
X42180000Y-109942380D01*
X42513333Y-110942380D01*
X42846666Y-110942380D02*
X42846666Y-109942380D01*
X43418095Y-110942380D01*
X43418095Y-109942380D01*
X44322857Y-109942380D02*
X44132380Y-109942380D01*
X44037142Y-109990000D01*
X43989523Y-110037619D01*
X43894285Y-110180476D01*
X43846666Y-110370952D01*
X43846666Y-110751904D01*
X43894285Y-110847142D01*
X43941904Y-110894761D01*
X44037142Y-110942380D01*
X44227619Y-110942380D01*
X44322857Y-110894761D01*
X44370476Y-110847142D01*
X44418095Y-110751904D01*
X44418095Y-110513809D01*
X44370476Y-110418571D01*
X44322857Y-110370952D01*
X44227619Y-110323333D01*
X44037142Y-110323333D01*
X43941904Y-110370952D01*
X43894285Y-110418571D01*
X43846666Y-110513809D01*
X41941904Y-108116666D02*
X42418095Y-108116666D01*
X41846666Y-108402380D02*
X42180000Y-107402380D01*
X42513333Y-108402380D01*
X42846666Y-108402380D02*
X42846666Y-107402380D01*
X43418095Y-108402380D01*
X43418095Y-107402380D01*
X44370476Y-107402380D02*
X43894285Y-107402380D01*
X43846666Y-107878571D01*
X43894285Y-107830952D01*
X43989523Y-107783333D01*
X44227619Y-107783333D01*
X44322857Y-107830952D01*
X44370476Y-107878571D01*
X44418095Y-107973809D01*
X44418095Y-108211904D01*
X44370476Y-108307142D01*
X44322857Y-108354761D01*
X44227619Y-108402380D01*
X43989523Y-108402380D01*
X43894285Y-108354761D01*
X43846666Y-108307142D01*
X41941904Y-105576666D02*
X42418095Y-105576666D01*
X41846666Y-105862380D02*
X42180000Y-104862380D01*
X42513333Y-105862380D01*
X42846666Y-105862380D02*
X42846666Y-104862380D01*
X43418095Y-105862380D01*
X43418095Y-104862380D01*
X44322857Y-105195714D02*
X44322857Y-105862380D01*
X44084761Y-104814761D02*
X43846666Y-105529047D01*
X44465714Y-105529047D01*
X41941904Y-103036666D02*
X42418095Y-103036666D01*
X41846666Y-103322380D02*
X42180000Y-102322380D01*
X42513333Y-103322380D01*
X42846666Y-103322380D02*
X42846666Y-102322380D01*
X43418095Y-103322380D01*
X43418095Y-102322380D01*
X43799047Y-102322380D02*
X44418095Y-102322380D01*
X44084761Y-102703333D01*
X44227619Y-102703333D01*
X44322857Y-102750952D01*
X44370476Y-102798571D01*
X44418095Y-102893809D01*
X44418095Y-103131904D01*
X44370476Y-103227142D01*
X44322857Y-103274761D01*
X44227619Y-103322380D01*
X43941904Y-103322380D01*
X43846666Y-103274761D01*
X43799047Y-103227142D01*
X41941904Y-100496666D02*
X42418095Y-100496666D01*
X41846666Y-100782380D02*
X42180000Y-99782380D01*
X42513333Y-100782380D01*
X42846666Y-100782380D02*
X42846666Y-99782380D01*
X43418095Y-100782380D01*
X43418095Y-99782380D01*
X43846666Y-99877619D02*
X43894285Y-99830000D01*
X43989523Y-99782380D01*
X44227619Y-99782380D01*
X44322857Y-99830000D01*
X44370476Y-99877619D01*
X44418095Y-99972857D01*
X44418095Y-100068095D01*
X44370476Y-100210952D01*
X43799047Y-100782380D01*
X44418095Y-100782380D01*
X41941904Y-97956666D02*
X42418095Y-97956666D01*
X41846666Y-98242380D02*
X42180000Y-97242380D01*
X42513333Y-98242380D01*
X42846666Y-98242380D02*
X42846666Y-97242380D01*
X43418095Y-98242380D01*
X43418095Y-97242380D01*
X44418095Y-98242380D02*
X43846666Y-98242380D01*
X44132380Y-98242380D02*
X44132380Y-97242380D01*
X44037142Y-97385238D01*
X43941904Y-97480476D01*
X43846666Y-97528095D01*
X41941904Y-95416666D02*
X42418095Y-95416666D01*
X41846666Y-95702380D02*
X42180000Y-94702380D01*
X42513333Y-95702380D01*
X42846666Y-95702380D02*
X42846666Y-94702380D01*
X43418095Y-95702380D01*
X43418095Y-94702380D01*
X44084761Y-94702380D02*
X44180000Y-94702380D01*
X44275238Y-94750000D01*
X44322857Y-94797619D01*
X44370476Y-94892857D01*
X44418095Y-95083333D01*
X44418095Y-95321428D01*
X44370476Y-95511904D01*
X44322857Y-95607142D01*
X44275238Y-95654761D01*
X44180000Y-95702380D01*
X44084761Y-95702380D01*
X43989523Y-95654761D01*
X43941904Y-95607142D01*
X43894285Y-95511904D01*
X43846666Y-95321428D01*
X43846666Y-95083333D01*
X43894285Y-94892857D01*
X43941904Y-94797619D01*
X43989523Y-94750000D01*
X44084761Y-94702380D01*
D13*
X45640952Y-92876666D02*
X46117142Y-92876666D01*
X45545714Y-93162380D02*
X45879047Y-92162380D01*
X46212380Y-93162380D01*
X46545714Y-93162380D02*
X46545714Y-92162380D01*
X47117142Y-93162380D01*
X47117142Y-92162380D01*
X47545714Y-92876666D02*
X48021904Y-92876666D01*
X47450476Y-93162380D02*
X47783809Y-92162380D01*
X48117142Y-93162380D01*
X48926666Y-93162380D02*
X48450476Y-93162380D01*
X48450476Y-92162380D01*
X49450476Y-92162380D02*
X49640952Y-92162380D01*
X49736190Y-92210000D01*
X49831428Y-92305238D01*
X49879047Y-92495714D01*
X49879047Y-92829047D01*
X49831428Y-93019523D01*
X49736190Y-93114761D01*
X49640952Y-93162380D01*
X49450476Y-93162380D01*
X49355238Y-93114761D01*
X49260000Y-93019523D01*
X49212380Y-92829047D01*
X49212380Y-92495714D01*
X49260000Y-92305238D01*
X49355238Y-92210000D01*
X49450476Y-92162380D01*
X50831428Y-92210000D02*
X50736190Y-92162380D01*
X50593333Y-92162380D01*
X50450476Y-92210000D01*
X50355238Y-92305238D01*
X50307619Y-92400476D01*
X50260000Y-92590952D01*
X50260000Y-92733809D01*
X50307619Y-92924285D01*
X50355238Y-93019523D01*
X50450476Y-93114761D01*
X50593333Y-93162380D01*
X50688571Y-93162380D01*
X50831428Y-93114761D01*
X50879047Y-93067142D01*
X50879047Y-92733809D01*
X50688571Y-92733809D01*
D10*
%TO.C,Q2*%
X65830000Y-132240000D02*
X64900000Y-132240000D01*
X62670000Y-132240000D02*
X63600000Y-132240000D01*
X62670000Y-132240000D02*
X62670000Y-134400000D01*
X65830000Y-132240000D02*
X65830000Y-133700000D01*
%TO.C,C1*%
X62500000Y-140990000D02*
X58290000Y-140990000D01*
X58290000Y-140990000D02*
X58290000Y-144010000D01*
X58290000Y-144010000D02*
X62500000Y-144010000D01*
D16*
%TO.C,G\u002A\u002A\u002A*%
G36*
X85206911Y-128160832D02*
G01*
X85235226Y-128340510D01*
X85144586Y-128616467D01*
X84960027Y-128941608D01*
X84706583Y-129268833D01*
X84515587Y-129461400D01*
X84218665Y-129708172D01*
X84028444Y-129822196D01*
X83956736Y-129800827D01*
X84015353Y-129641417D01*
X84062186Y-129563000D01*
X84230979Y-129317802D01*
X84461530Y-129008835D01*
X84584767Y-128851800D01*
X84754328Y-128617203D01*
X84832279Y-128460381D01*
X84816485Y-128420000D01*
X84707307Y-128497295D01*
X84519595Y-128702434D01*
X84289170Y-128995294D01*
X84227640Y-129079527D01*
X84002148Y-129380073D01*
X83821955Y-129596257D01*
X83717789Y-129691982D01*
X83706173Y-129692040D01*
X83688886Y-129549654D01*
X83751509Y-129293710D01*
X83869970Y-128985228D01*
X84020195Y-128685229D01*
X84178112Y-128454733D01*
X84206144Y-128424686D01*
X84479201Y-128223476D01*
X84782299Y-128104247D01*
X85050916Y-128084010D01*
X85206911Y-128160832D01*
G37*
X85206911Y-128160832D02*
X85235226Y-128340510D01*
X85144586Y-128616467D01*
X84960027Y-128941608D01*
X84706583Y-129268833D01*
X84515587Y-129461400D01*
X84218665Y-129708172D01*
X84028444Y-129822196D01*
X83956736Y-129800827D01*
X84015353Y-129641417D01*
X84062186Y-129563000D01*
X84230979Y-129317802D01*
X84461530Y-129008835D01*
X84584767Y-128851800D01*
X84754328Y-128617203D01*
X84832279Y-128460381D01*
X84816485Y-128420000D01*
X84707307Y-128497295D01*
X84519595Y-128702434D01*
X84289170Y-128995294D01*
X84227640Y-129079527D01*
X84002148Y-129380073D01*
X83821955Y-129596257D01*
X83717789Y-129691982D01*
X83706173Y-129692040D01*
X83688886Y-129549654D01*
X83751509Y-129293710D01*
X83869970Y-128985228D01*
X84020195Y-128685229D01*
X84178112Y-128454733D01*
X84206144Y-128424686D01*
X84479201Y-128223476D01*
X84782299Y-128104247D01*
X85050916Y-128084010D01*
X85206911Y-128160832D01*
G36*
X85564052Y-129656977D02*
G01*
X85771660Y-129786157D01*
X85791760Y-129802114D01*
X86074800Y-130029266D01*
X85799377Y-130135006D01*
X85441276Y-130231030D01*
X85011254Y-130289471D01*
X84598538Y-130302655D01*
X84296800Y-130264253D01*
X84130521Y-130202964D01*
X84146648Y-130152809D01*
X84228909Y-130117122D01*
X84484375Y-130058482D01*
X84654713Y-130045600D01*
X84870491Y-130001253D01*
X84965891Y-129929937D01*
X84956868Y-129876266D01*
X85143466Y-129876266D01*
X85157413Y-129936667D01*
X85211200Y-129944000D01*
X85294828Y-129906826D01*
X85278933Y-129876266D01*
X85158357Y-129864107D01*
X85143466Y-129876266D01*
X84956868Y-129876266D01*
X84954672Y-129863209D01*
X84781318Y-129864468D01*
X84641687Y-129887043D01*
X84399622Y-129921876D01*
X84325371Y-129899111D01*
X84370585Y-129832401D01*
X84539545Y-129745615D01*
X84828925Y-129668357D01*
X85001945Y-129639976D01*
X85337074Y-129614325D01*
X85564052Y-129656977D01*
G37*
X85564052Y-129656977D02*
X85771660Y-129786157D01*
X85791760Y-129802114D01*
X86074800Y-130029266D01*
X85799377Y-130135006D01*
X85441276Y-130231030D01*
X85011254Y-130289471D01*
X84598538Y-130302655D01*
X84296800Y-130264253D01*
X84130521Y-130202964D01*
X84146648Y-130152809D01*
X84228909Y-130117122D01*
X84484375Y-130058482D01*
X84654713Y-130045600D01*
X84870491Y-130001253D01*
X84965891Y-129929937D01*
X84956868Y-129876266D01*
X85143466Y-129876266D01*
X85157413Y-129936667D01*
X85211200Y-129944000D01*
X85294828Y-129906826D01*
X85278933Y-129876266D01*
X85158357Y-129864107D01*
X85143466Y-129876266D01*
X84956868Y-129876266D01*
X84954672Y-129863209D01*
X84781318Y-129864468D01*
X84641687Y-129887043D01*
X84399622Y-129921876D01*
X84325371Y-129899111D01*
X84370585Y-129832401D01*
X84539545Y-129745615D01*
X84828925Y-129668357D01*
X85001945Y-129639976D01*
X85337074Y-129614325D01*
X85564052Y-129656977D01*
G36*
X83329788Y-129761164D02*
G01*
X83329036Y-129782395D01*
X83139645Y-129831335D01*
X83105544Y-129839447D01*
X82837037Y-129929423D01*
X82575723Y-130056995D01*
X82376129Y-130189618D01*
X82292781Y-130294749D01*
X82301481Y-130319348D01*
X82415706Y-130310136D01*
X82647918Y-130226898D01*
X82815912Y-130150921D01*
X83176243Y-130000111D01*
X83406692Y-129949114D01*
X83491976Y-129989866D01*
X83416812Y-130114304D01*
X83165919Y-130314364D01*
X83148324Y-130326317D01*
X82718179Y-130563862D01*
X82332236Y-130653066D01*
X82259706Y-130655200D01*
X82007053Y-130636364D01*
X81867839Y-130589382D01*
X81858400Y-130571310D01*
X81944437Y-130403307D01*
X82164758Y-130201868D01*
X82462674Y-130002979D01*
X82781495Y-129842630D01*
X83064533Y-129756810D01*
X83150225Y-129751199D01*
X83329788Y-129761164D01*
G37*
X83329788Y-129761164D02*
X83329036Y-129782395D01*
X83139645Y-129831335D01*
X83105544Y-129839447D01*
X82837037Y-129929423D01*
X82575723Y-130056995D01*
X82376129Y-130189618D01*
X82292781Y-130294749D01*
X82301481Y-130319348D01*
X82415706Y-130310136D01*
X82647918Y-130226898D01*
X82815912Y-130150921D01*
X83176243Y-130000111D01*
X83406692Y-129949114D01*
X83491976Y-129989866D01*
X83416812Y-130114304D01*
X83165919Y-130314364D01*
X83148324Y-130326317D01*
X82718179Y-130563862D01*
X82332236Y-130653066D01*
X82259706Y-130655200D01*
X82007053Y-130636364D01*
X81867839Y-130589382D01*
X81858400Y-130571310D01*
X81944437Y-130403307D01*
X82164758Y-130201868D01*
X82462674Y-130002979D01*
X82781495Y-129842630D01*
X83064533Y-129756810D01*
X83150225Y-129751199D01*
X83329788Y-129761164D01*
G36*
X83484000Y-138732400D02*
G01*
X83433200Y-138783200D01*
X83382400Y-138732400D01*
X83433200Y-138681600D01*
X83484000Y-138732400D01*
G37*
X83484000Y-138732400D02*
X83433200Y-138783200D01*
X83382400Y-138732400D01*
X83433200Y-138681600D01*
X83484000Y-138732400D01*
G36*
X84014606Y-130293838D02*
G01*
X84278484Y-130406712D01*
X84581428Y-130451999D01*
X84912259Y-130538664D01*
X85308143Y-130780976D01*
X85744110Y-131152415D01*
X86195188Y-131626459D01*
X86636403Y-132176587D01*
X87042784Y-132776279D01*
X87389359Y-133399013D01*
X87424508Y-133471441D01*
X87609175Y-133874734D01*
X87721127Y-134187908D01*
X87778108Y-134491716D01*
X87797864Y-134866910D01*
X87799185Y-135176400D01*
X87790660Y-135640006D01*
X87758965Y-135969529D01*
X87689805Y-136233894D01*
X87568888Y-136502024D01*
X87496045Y-136638149D01*
X87237757Y-137017006D01*
X86851910Y-137462818D01*
X86379248Y-137928683D01*
X86358542Y-137947591D01*
X86028056Y-138259779D01*
X85769055Y-138526325D01*
X85609898Y-138716528D01*
X85574758Y-138796077D01*
X85551655Y-138844485D01*
X85491000Y-138829841D01*
X85335740Y-138861597D01*
X85137209Y-139008801D01*
X85112413Y-139034205D01*
X84801239Y-139250819D01*
X84458353Y-139269021D01*
X84079849Y-139088568D01*
X83916092Y-138959398D01*
X83648760Y-138744022D01*
X83280424Y-138469279D01*
X83149597Y-138376800D01*
X85566800Y-138376800D01*
X85571444Y-138470572D01*
X85605607Y-138478400D01*
X85749237Y-138404257D01*
X85770000Y-138376800D01*
X85765355Y-138283027D01*
X85731192Y-138275200D01*
X85587562Y-138349342D01*
X85566800Y-138376800D01*
X83149597Y-138376800D01*
X82880451Y-138186548D01*
X82784473Y-138121198D01*
X82571581Y-137967211D01*
X85414400Y-137967211D01*
X85488873Y-138023113D01*
X85566800Y-138007141D01*
X85700481Y-137935027D01*
X85719200Y-137908729D01*
X85636235Y-137873213D01*
X85566800Y-137868800D01*
X86024000Y-137868800D01*
X86061173Y-137952428D01*
X86091733Y-137936533D01*
X86103892Y-137815957D01*
X86091733Y-137801066D01*
X86031332Y-137815013D01*
X86024000Y-137868800D01*
X85566800Y-137868800D01*
X85431568Y-137921970D01*
X85414400Y-137967211D01*
X82571581Y-137967211D01*
X82281704Y-137757540D01*
X82014979Y-137513200D01*
X86430400Y-137513200D01*
X86481200Y-137564000D01*
X86532000Y-137513200D01*
X86481200Y-137462400D01*
X86430400Y-137513200D01*
X82014979Y-137513200D01*
X81914606Y-137421252D01*
X81894183Y-137394666D01*
X85854666Y-137394666D01*
X85868613Y-137455067D01*
X85922400Y-137462400D01*
X86006028Y-137425226D01*
X85990133Y-137394666D01*
X85869557Y-137382507D01*
X85854666Y-137394666D01*
X81894183Y-137394666D01*
X81643226Y-137067992D01*
X86328800Y-137067992D01*
X86391398Y-137123076D01*
X86430400Y-137106800D01*
X86528206Y-136972209D01*
X86532000Y-136942407D01*
X86469401Y-136887323D01*
X86430400Y-136903600D01*
X86332593Y-137038190D01*
X86328800Y-137067992D01*
X81643226Y-137067992D01*
X81633809Y-137055735D01*
X81389947Y-136604390D01*
X81311696Y-136432696D01*
X81071199Y-135767914D01*
X80980326Y-135166219D01*
X81031897Y-134561458D01*
X81083681Y-134331310D01*
X81157207Y-134063265D01*
X82782571Y-134063265D01*
X82783172Y-134077520D01*
X82814213Y-134120526D01*
X82879148Y-133991389D01*
X82899469Y-133931800D01*
X83002200Y-133677164D01*
X83080570Y-133619695D01*
X83131354Y-133754463D01*
X83151329Y-134076537D01*
X83148574Y-134312762D01*
X83119508Y-134707561D01*
X83064069Y-134933348D01*
X82989386Y-134980202D01*
X82902588Y-134838201D01*
X82861929Y-134711667D01*
X82811075Y-134554895D01*
X82788868Y-134587454D01*
X82782927Y-134673480D01*
X82851199Y-134939962D01*
X83051371Y-135091313D01*
X83228813Y-135104093D01*
X83348256Y-135056953D01*
X83416704Y-134926195D01*
X83453002Y-134662787D01*
X83463591Y-134493246D01*
X83458981Y-134304696D01*
X84097772Y-134304696D01*
X84136535Y-134480634D01*
X84192011Y-134516000D01*
X84248713Y-134441854D01*
X84233549Y-134367790D01*
X84226720Y-134196656D01*
X84273229Y-133948430D01*
X84350771Y-133700859D01*
X84437040Y-133531689D01*
X84482479Y-133500131D01*
X84515140Y-133593502D01*
X84539299Y-133840362D01*
X84550502Y-134191044D01*
X84550800Y-134262141D01*
X84542640Y-134694786D01*
X84514466Y-134937512D01*
X84460732Y-135003087D01*
X84375894Y-134904276D01*
X84319202Y-134795400D01*
X84237122Y-134657663D01*
X84204280Y-134704139D01*
X84202076Y-134737342D01*
X84257348Y-134916617D01*
X84390387Y-135107942D01*
X84534688Y-135221491D01*
X84564736Y-135227200D01*
X84684223Y-135184785D01*
X84811479Y-135122025D01*
X84938905Y-135001432D01*
X84997555Y-134780913D01*
X85008000Y-134527586D01*
X84972066Y-134045193D01*
X84875823Y-133675071D01*
X84736611Y-133434211D01*
X84571767Y-133339606D01*
X84398631Y-133408246D01*
X84234541Y-133657124D01*
X84201556Y-133737281D01*
X84119700Y-134036208D01*
X84097772Y-134304696D01*
X83458981Y-134304696D01*
X83451931Y-134016448D01*
X83365044Y-133683741D01*
X83210018Y-133516126D01*
X83128399Y-133500000D01*
X82962376Y-133588492D01*
X82831613Y-133802154D01*
X82782571Y-134063265D01*
X81157207Y-134063265D01*
X81216578Y-133846826D01*
X81353963Y-133454158D01*
X81521875Y-133112853D01*
X81746354Y-132782463D01*
X82053442Y-132422537D01*
X82469177Y-131992624D01*
X82731532Y-131733798D01*
X85550523Y-131733798D01*
X85566800Y-131772800D01*
X85701390Y-131870606D01*
X85731192Y-131874400D01*
X85784322Y-131814021D01*
X85952539Y-131814021D01*
X86024000Y-131874400D01*
X86186115Y-131965779D01*
X86207714Y-131931363D01*
X86176400Y-131874400D01*
X86028021Y-131777801D01*
X85992603Y-131774355D01*
X85952539Y-131814021D01*
X85784322Y-131814021D01*
X85786276Y-131811801D01*
X85770000Y-131772800D01*
X85635409Y-131674993D01*
X85605607Y-131671200D01*
X85550523Y-131733798D01*
X82731532Y-131733798D01*
X82798200Y-131668027D01*
X83219697Y-131247125D01*
X83240699Y-131224379D01*
X84952151Y-131224379D01*
X85008000Y-131315600D01*
X85160982Y-131443667D01*
X85236080Y-131468000D01*
X85267048Y-131406820D01*
X85211200Y-131315600D01*
X85087307Y-131211884D01*
X85370150Y-131211884D01*
X85404648Y-131311227D01*
X85440326Y-131370159D01*
X85558912Y-131539728D01*
X85609223Y-131537515D01*
X85617600Y-131428070D01*
X85535710Y-131270887D01*
X85466686Y-131228629D01*
X85370150Y-131211884D01*
X85087307Y-131211884D01*
X85058217Y-131187532D01*
X84983119Y-131163200D01*
X84952151Y-131224379D01*
X83240699Y-131224379D01*
X83508782Y-130934043D01*
X83563362Y-130862837D01*
X84852857Y-130862837D01*
X84886303Y-130939397D01*
X85002003Y-130960000D01*
X85170609Y-130943636D01*
X85211200Y-130920070D01*
X85131047Y-130843175D01*
X84971446Y-130817206D01*
X84853686Y-130861535D01*
X84852857Y-130862837D01*
X83563362Y-130862837D01*
X83686005Y-130702838D01*
X83771921Y-130527569D01*
X83788800Y-130417666D01*
X83801168Y-130224300D01*
X83874461Y-130204260D01*
X84014606Y-130293838D01*
G37*
X84014606Y-130293838D02*
X84278484Y-130406712D01*
X84581428Y-130451999D01*
X84912259Y-130538664D01*
X85308143Y-130780976D01*
X85744110Y-131152415D01*
X86195188Y-131626459D01*
X86636403Y-132176587D01*
X87042784Y-132776279D01*
X87389359Y-133399013D01*
X87424508Y-133471441D01*
X87609175Y-133874734D01*
X87721127Y-134187908D01*
X87778108Y-134491716D01*
X87797864Y-134866910D01*
X87799185Y-135176400D01*
X87790660Y-135640006D01*
X87758965Y-135969529D01*
X87689805Y-136233894D01*
X87568888Y-136502024D01*
X87496045Y-136638149D01*
X87237757Y-137017006D01*
X86851910Y-137462818D01*
X86379248Y-137928683D01*
X86358542Y-137947591D01*
X86028056Y-138259779D01*
X85769055Y-138526325D01*
X85609898Y-138716528D01*
X85574758Y-138796077D01*
X85551655Y-138844485D01*
X85491000Y-138829841D01*
X85335740Y-138861597D01*
X85137209Y-139008801D01*
X85112413Y-139034205D01*
X84801239Y-139250819D01*
X84458353Y-139269021D01*
X84079849Y-139088568D01*
X83916092Y-138959398D01*
X83648760Y-138744022D01*
X83280424Y-138469279D01*
X83149597Y-138376800D01*
X85566800Y-138376800D01*
X85571444Y-138470572D01*
X85605607Y-138478400D01*
X85749237Y-138404257D01*
X85770000Y-138376800D01*
X85765355Y-138283027D01*
X85731192Y-138275200D01*
X85587562Y-138349342D01*
X85566800Y-138376800D01*
X83149597Y-138376800D01*
X82880451Y-138186548D01*
X82784473Y-138121198D01*
X82571581Y-137967211D01*
X85414400Y-137967211D01*
X85488873Y-138023113D01*
X85566800Y-138007141D01*
X85700481Y-137935027D01*
X85719200Y-137908729D01*
X85636235Y-137873213D01*
X85566800Y-137868800D01*
X86024000Y-137868800D01*
X86061173Y-137952428D01*
X86091733Y-137936533D01*
X86103892Y-137815957D01*
X86091733Y-137801066D01*
X86031332Y-137815013D01*
X86024000Y-137868800D01*
X85566800Y-137868800D01*
X85431568Y-137921970D01*
X85414400Y-137967211D01*
X82571581Y-137967211D01*
X82281704Y-137757540D01*
X82014979Y-137513200D01*
X86430400Y-137513200D01*
X86481200Y-137564000D01*
X86532000Y-137513200D01*
X86481200Y-137462400D01*
X86430400Y-137513200D01*
X82014979Y-137513200D01*
X81914606Y-137421252D01*
X81894183Y-137394666D01*
X85854666Y-137394666D01*
X85868613Y-137455067D01*
X85922400Y-137462400D01*
X86006028Y-137425226D01*
X85990133Y-137394666D01*
X85869557Y-137382507D01*
X85854666Y-137394666D01*
X81894183Y-137394666D01*
X81643226Y-137067992D01*
X86328800Y-137067992D01*
X86391398Y-137123076D01*
X86430400Y-137106800D01*
X86528206Y-136972209D01*
X86532000Y-136942407D01*
X86469401Y-136887323D01*
X86430400Y-136903600D01*
X86332593Y-137038190D01*
X86328800Y-137067992D01*
X81643226Y-137067992D01*
X81633809Y-137055735D01*
X81389947Y-136604390D01*
X81311696Y-136432696D01*
X81071199Y-135767914D01*
X80980326Y-135166219D01*
X81031897Y-134561458D01*
X81083681Y-134331310D01*
X81157207Y-134063265D01*
X82782571Y-134063265D01*
X82783172Y-134077520D01*
X82814213Y-134120526D01*
X82879148Y-133991389D01*
X82899469Y-133931800D01*
X83002200Y-133677164D01*
X83080570Y-133619695D01*
X83131354Y-133754463D01*
X83151329Y-134076537D01*
X83148574Y-134312762D01*
X83119508Y-134707561D01*
X83064069Y-134933348D01*
X82989386Y-134980202D01*
X82902588Y-134838201D01*
X82861929Y-134711667D01*
X82811075Y-134554895D01*
X82788868Y-134587454D01*
X82782927Y-134673480D01*
X82851199Y-134939962D01*
X83051371Y-135091313D01*
X83228813Y-135104093D01*
X83348256Y-135056953D01*
X83416704Y-134926195D01*
X83453002Y-134662787D01*
X83463591Y-134493246D01*
X83458981Y-134304696D01*
X84097772Y-134304696D01*
X84136535Y-134480634D01*
X84192011Y-134516000D01*
X84248713Y-134441854D01*
X84233549Y-134367790D01*
X84226720Y-134196656D01*
X84273229Y-133948430D01*
X84350771Y-133700859D01*
X84437040Y-133531689D01*
X84482479Y-133500131D01*
X84515140Y-133593502D01*
X84539299Y-133840362D01*
X84550502Y-134191044D01*
X84550800Y-134262141D01*
X84542640Y-134694786D01*
X84514466Y-134937512D01*
X84460732Y-135003087D01*
X84375894Y-134904276D01*
X84319202Y-134795400D01*
X84237122Y-134657663D01*
X84204280Y-134704139D01*
X84202076Y-134737342D01*
X84257348Y-134916617D01*
X84390387Y-135107942D01*
X84534688Y-135221491D01*
X84564736Y-135227200D01*
X84684223Y-135184785D01*
X84811479Y-135122025D01*
X84938905Y-135001432D01*
X84997555Y-134780913D01*
X85008000Y-134527586D01*
X84972066Y-134045193D01*
X84875823Y-133675071D01*
X84736611Y-133434211D01*
X84571767Y-133339606D01*
X84398631Y-133408246D01*
X84234541Y-133657124D01*
X84201556Y-133737281D01*
X84119700Y-134036208D01*
X84097772Y-134304696D01*
X83458981Y-134304696D01*
X83451931Y-134016448D01*
X83365044Y-133683741D01*
X83210018Y-133516126D01*
X83128399Y-133500000D01*
X82962376Y-133588492D01*
X82831613Y-133802154D01*
X82782571Y-134063265D01*
X81157207Y-134063265D01*
X81216578Y-133846826D01*
X81353963Y-133454158D01*
X81521875Y-133112853D01*
X81746354Y-132782463D01*
X82053442Y-132422537D01*
X82469177Y-131992624D01*
X82731532Y-131733798D01*
X85550523Y-131733798D01*
X85566800Y-131772800D01*
X85701390Y-131870606D01*
X85731192Y-131874400D01*
X85784322Y-131814021D01*
X85952539Y-131814021D01*
X86024000Y-131874400D01*
X86186115Y-131965779D01*
X86207714Y-131931363D01*
X86176400Y-131874400D01*
X86028021Y-131777801D01*
X85992603Y-131774355D01*
X85952539Y-131814021D01*
X85784322Y-131814021D01*
X85786276Y-131811801D01*
X85770000Y-131772800D01*
X85635409Y-131674993D01*
X85605607Y-131671200D01*
X85550523Y-131733798D01*
X82731532Y-131733798D01*
X82798200Y-131668027D01*
X83219697Y-131247125D01*
X83240699Y-131224379D01*
X84952151Y-131224379D01*
X85008000Y-131315600D01*
X85160982Y-131443667D01*
X85236080Y-131468000D01*
X85267048Y-131406820D01*
X85211200Y-131315600D01*
X85087307Y-131211884D01*
X85370150Y-131211884D01*
X85404648Y-131311227D01*
X85440326Y-131370159D01*
X85558912Y-131539728D01*
X85609223Y-131537515D01*
X85617600Y-131428070D01*
X85535710Y-131270887D01*
X85466686Y-131228629D01*
X85370150Y-131211884D01*
X85087307Y-131211884D01*
X85058217Y-131187532D01*
X84983119Y-131163200D01*
X84952151Y-131224379D01*
X83240699Y-131224379D01*
X83508782Y-130934043D01*
X83563362Y-130862837D01*
X84852857Y-130862837D01*
X84886303Y-130939397D01*
X85002003Y-130960000D01*
X85170609Y-130943636D01*
X85211200Y-130920070D01*
X85131047Y-130843175D01*
X84971446Y-130817206D01*
X84853686Y-130861535D01*
X84852857Y-130862837D01*
X83563362Y-130862837D01*
X83686005Y-130702838D01*
X83771921Y-130527569D01*
X83788800Y-130417666D01*
X83801168Y-130224300D01*
X83874461Y-130204260D01*
X84014606Y-130293838D01*
G36*
X84906400Y-139443600D02*
G01*
X84855600Y-139494400D01*
X84804800Y-139443600D01*
X84855600Y-139392800D01*
X84906400Y-139443600D01*
G37*
X84906400Y-139443600D02*
X84855600Y-139494400D01*
X84804800Y-139443600D01*
X84855600Y-139392800D01*
X84906400Y-139443600D01*
G36*
X84452274Y-139368521D02*
G01*
X84641177Y-139418016D01*
X84703200Y-139455444D01*
X84623340Y-139495050D01*
X84452988Y-139486402D01*
X84295985Y-139440613D01*
X84255070Y-139407476D01*
X84296732Y-139359127D01*
X84452274Y-139368521D01*
G37*
X84452274Y-139368521D02*
X84641177Y-139418016D01*
X84703200Y-139455444D01*
X84623340Y-139495050D01*
X84452988Y-139486402D01*
X84295985Y-139440613D01*
X84255070Y-139407476D01*
X84296732Y-139359127D01*
X84452274Y-139368521D01*
D10*
%TO.C,C21*%
X80010000Y-126837221D02*
X80010000Y-127162779D01*
X78990000Y-126837221D02*
X78990000Y-127162779D01*
%TO.C,C18*%
X63662779Y-122510000D02*
X63337221Y-122510000D01*
X63662779Y-121490000D02*
X63337221Y-121490000D01*
%TO.C,U1*%
X62160000Y-146900000D02*
X62160000Y-152910000D01*
X55340000Y-149150000D02*
X55340000Y-152910000D01*
X62160000Y-152910000D02*
X60900000Y-152910000D01*
X55340000Y-152910000D02*
X56600000Y-152910000D01*
%TO.C,J2*%
X47300000Y-86500000D02*
X47800000Y-86000000D01*
X48300000Y-86500000D02*
X47300000Y-86500000D01*
X47800000Y-86000000D02*
X48300000Y-86500000D01*
X56360000Y-69075000D02*
X50800000Y-69075000D01*
X56360000Y-85805000D02*
X50800000Y-85805000D01*
X56360000Y-85805000D02*
X56360000Y-69075000D01*
X40390000Y-69075000D02*
X48000000Y-69075000D01*
X40390000Y-85805000D02*
X48000000Y-85805000D01*
X40390000Y-85805000D02*
X40390000Y-69075000D01*
%TO.C,R14*%
X83120000Y-83346359D02*
X83120000Y-83653641D01*
X83880000Y-83346359D02*
X83880000Y-83653641D01*
%TO.C,R13*%
X84120000Y-83346359D02*
X84120000Y-83653641D01*
X84880000Y-83346359D02*
X84880000Y-83653641D01*
%TO.C,R101*%
X98346359Y-100880000D02*
X98653641Y-100880000D01*
X98346359Y-100120000D02*
X98653641Y-100120000D01*
%TO.C,R100*%
X98346359Y-103880000D02*
X98653641Y-103880000D01*
X98346359Y-103120000D02*
X98653641Y-103120000D01*
%TO.C,R69*%
X100346359Y-75130000D02*
X100653641Y-75130000D01*
X100346359Y-74370000D02*
X100653641Y-74370000D01*
%TO.C,R68*%
X100346359Y-76580000D02*
X100653641Y-76580000D01*
X100346359Y-75820000D02*
X100653641Y-75820000D01*
%TO.C,R67*%
X100346359Y-78130000D02*
X100653641Y-78130000D01*
X100346359Y-77370000D02*
X100653641Y-77370000D01*
%TO.C,R66*%
X100346359Y-79630000D02*
X100653641Y-79630000D01*
X100346359Y-78870000D02*
X100653641Y-78870000D01*
%TO.C,R65*%
X100346359Y-81130000D02*
X100653641Y-81130000D01*
X100346359Y-80370000D02*
X100653641Y-80370000D01*
%TO.C,R64*%
X100346359Y-82630000D02*
X100653641Y-82630000D01*
X100346359Y-81870000D02*
X100653641Y-81870000D01*
%TO.C,R63*%
X100346359Y-84130000D02*
X100653641Y-84130000D01*
X100346359Y-83370000D02*
X100653641Y-83370000D01*
%TO.C,R62*%
X100346359Y-85630000D02*
X100653641Y-85630000D01*
X100346359Y-84870000D02*
X100653641Y-84870000D01*
%TO.C,U15*%
X53640000Y-111600000D02*
X53640000Y-113400000D01*
X56860000Y-113400000D02*
X56860000Y-110950000D01*
%TO.C,U14*%
X53640000Y-122350000D02*
X53640000Y-124150000D01*
X56860000Y-124150000D02*
X56860000Y-121700000D01*
%TO.C,U13*%
X95890000Y-96100000D02*
X95890000Y-98550000D01*
X99110000Y-97900000D02*
X99110000Y-96100000D01*
%TO.C,U12*%
X101110000Y-127900000D02*
X101110000Y-126100000D01*
X97890000Y-126100000D02*
X97890000Y-128550000D01*
%TO.C,U11*%
X53890000Y-94250000D02*
X53890000Y-96050000D01*
X57110000Y-96050000D02*
X57110000Y-93600000D01*
%TO.C,U10*%
X100610000Y-146150000D02*
X100610000Y-143700000D01*
X97390000Y-144350000D02*
X97390000Y-146150000D01*
%TO.C,U9*%
X53640000Y-130100000D02*
X53640000Y-131900000D01*
X56860000Y-131900000D02*
X56860000Y-129450000D01*
%TO.C,U8*%
X101110000Y-72400000D02*
X101110000Y-70600000D01*
X97890000Y-70600000D02*
X97890000Y-73050000D01*
%TO.C,U7*%
X97390000Y-133350000D02*
X97390000Y-135150000D01*
X100610000Y-135150000D02*
X100610000Y-132700000D01*
%TO.C,U6*%
X101110000Y-113900000D02*
X101110000Y-112100000D01*
X97890000Y-112100000D02*
X97890000Y-114550000D01*
%TO.C,U5*%
X101110000Y-89400000D02*
X101110000Y-87600000D01*
X97890000Y-87600000D02*
X97890000Y-90050000D01*
%TO.C,R103*%
X98653641Y-101880000D02*
X98346359Y-101880000D01*
X98653641Y-101120000D02*
X98346359Y-101120000D01*
%TO.C,R102*%
X98653641Y-102880000D02*
X98346359Y-102880000D01*
X98653641Y-102120000D02*
X98346359Y-102120000D01*
%TO.C,R99*%
X99846359Y-140870000D02*
X100153641Y-140870000D01*
X99846359Y-141630000D02*
X100153641Y-141630000D01*
%TO.C,R98*%
X99846359Y-141870000D02*
X100153641Y-141870000D01*
X99846359Y-142630000D02*
X100153641Y-142630000D01*
%TO.C,R97*%
X99846359Y-136870000D02*
X100153641Y-136870000D01*
X99846359Y-137630000D02*
X100153641Y-137630000D01*
%TO.C,R96*%
X99836359Y-137870000D02*
X100143641Y-137870000D01*
X99836359Y-138630000D02*
X100143641Y-138630000D01*
%TO.C,R95*%
X99846359Y-138870000D02*
X100153641Y-138870000D01*
X99846359Y-139630000D02*
X100153641Y-139630000D01*
%TO.C,R94*%
X99846359Y-139870000D02*
X100153641Y-139870000D01*
X99846359Y-140630000D02*
X100153641Y-140630000D01*
%TO.C,R93*%
X100653641Y-122880000D02*
X100346359Y-122880000D01*
X100653641Y-122120000D02*
X100346359Y-122120000D01*
%TO.C,R92*%
X100653641Y-124130000D02*
X100346359Y-124130000D01*
X100653641Y-123370000D02*
X100346359Y-123370000D01*
%TO.C,R91*%
X100653641Y-130630000D02*
X100346359Y-130630000D01*
X100653641Y-129870000D02*
X100346359Y-129870000D01*
%TO.C,R90*%
X100653641Y-131880000D02*
X100346359Y-131880000D01*
X100653641Y-131120000D02*
X100346359Y-131120000D01*
%TO.C,R89*%
X54356359Y-136620000D02*
X54663641Y-136620000D01*
X54356359Y-137380000D02*
X54663641Y-137380000D01*
%TO.C,R88*%
X54346359Y-135620000D02*
X54653641Y-135620000D01*
X54346359Y-136380000D02*
X54653641Y-136380000D01*
%TO.C,R87*%
X54346359Y-134620000D02*
X54653641Y-134620000D01*
X54346359Y-135380000D02*
X54653641Y-135380000D01*
%TO.C,R86*%
X54346359Y-133620000D02*
X54653641Y-133620000D01*
X54346359Y-134380000D02*
X54653641Y-134380000D01*
%TO.C,R85*%
X100653641Y-108880000D02*
X100346359Y-108880000D01*
X100653641Y-108120000D02*
X100346359Y-108120000D01*
%TO.C,R84*%
X100653641Y-109880000D02*
X100346359Y-109880000D01*
X100653641Y-109120000D02*
X100346359Y-109120000D01*
%TO.C,R83*%
X100653641Y-116880000D02*
X100346359Y-116880000D01*
X100653641Y-116120000D02*
X100346359Y-116120000D01*
%TO.C,R82*%
X100653641Y-117880000D02*
X100346359Y-117880000D01*
X100653641Y-117120000D02*
X100346359Y-117120000D01*
%TO.C,R81*%
X54653641Y-128130000D02*
X54346359Y-128130000D01*
X54653641Y-127370000D02*
X54346359Y-127370000D01*
%TO.C,R80*%
X54653641Y-126880000D02*
X54346359Y-126880000D01*
X54653641Y-126120000D02*
X54346359Y-126120000D01*
%TO.C,R79*%
X54903641Y-120380000D02*
X54596359Y-120380000D01*
X54903641Y-119620000D02*
X54596359Y-119620000D01*
%TO.C,R78*%
X54903641Y-119130000D02*
X54596359Y-119130000D01*
X54903641Y-118370000D02*
X54596359Y-118370000D01*
%TO.C,R77*%
X54653641Y-109630000D02*
X54346359Y-109630000D01*
X54653641Y-108870000D02*
X54346359Y-108870000D01*
%TO.C,R76*%
X54653641Y-108130000D02*
X54346359Y-108130000D01*
X54653641Y-107370000D02*
X54346359Y-107370000D01*
%TO.C,R75*%
X54653641Y-106630000D02*
X54346359Y-106630000D01*
X54653641Y-105870000D02*
X54346359Y-105870000D01*
%TO.C,R74*%
X54653641Y-105130000D02*
X54346359Y-105130000D01*
X54653641Y-104370000D02*
X54346359Y-104370000D01*
%TO.C,R73*%
X54653641Y-103630000D02*
X54346359Y-103630000D01*
X54653641Y-102870000D02*
X54346359Y-102870000D01*
%TO.C,R72*%
X54653641Y-102130000D02*
X54346359Y-102130000D01*
X54653641Y-101370000D02*
X54346359Y-101370000D01*
%TO.C,R71*%
X54653641Y-100630000D02*
X54346359Y-100630000D01*
X54653641Y-99870000D02*
X54346359Y-99870000D01*
%TO.C,R70*%
X54653641Y-99130000D02*
X54346359Y-99130000D01*
X54653641Y-98370000D02*
X54346359Y-98370000D01*
%TO.C,J14*%
X109280000Y-93920000D02*
X104080000Y-93920000D01*
X109280000Y-101600000D02*
X109280000Y-93920000D01*
X104080000Y-104200000D02*
X104080000Y-93920000D01*
X109280000Y-101600000D02*
X106680000Y-101600000D01*
X106680000Y-101600000D02*
X106680000Y-104200000D01*
X106680000Y-104200000D02*
X104080000Y-104200000D01*
X109280000Y-102870000D02*
X109280000Y-104200000D01*
X109280000Y-104200000D02*
X107950000Y-104200000D01*
%TO.C,J13*%
X109280000Y-121860000D02*
X104080000Y-121860000D01*
X109280000Y-129540000D02*
X109280000Y-121860000D01*
X104080000Y-132140000D02*
X104080000Y-121860000D01*
X109280000Y-129540000D02*
X106680000Y-129540000D01*
X106680000Y-129540000D02*
X106680000Y-132140000D01*
X106680000Y-132140000D02*
X104080000Y-132140000D01*
X109280000Y-130810000D02*
X109280000Y-132140000D01*
X109280000Y-132140000D02*
X107950000Y-132140000D01*
%TO.C,J12*%
X45660000Y-142300000D02*
X50860000Y-142300000D01*
X45660000Y-134620000D02*
X45660000Y-142300000D01*
X50860000Y-132020000D02*
X50860000Y-142300000D01*
X45660000Y-134620000D02*
X48260000Y-134620000D01*
X48260000Y-134620000D02*
X48260000Y-132020000D01*
X48260000Y-132020000D02*
X50860000Y-132020000D01*
X45660000Y-133350000D02*
X45660000Y-132020000D01*
X45660000Y-132020000D02*
X46990000Y-132020000D01*
%TO.C,J11*%
X109280000Y-107890000D02*
X104080000Y-107890000D01*
X109280000Y-115570000D02*
X109280000Y-107890000D01*
X104080000Y-118170000D02*
X104080000Y-107890000D01*
X109280000Y-115570000D02*
X106680000Y-115570000D01*
X106680000Y-115570000D02*
X106680000Y-118170000D01*
X106680000Y-118170000D02*
X104080000Y-118170000D01*
X109280000Y-116840000D02*
X109280000Y-118170000D01*
X109280000Y-118170000D02*
X107950000Y-118170000D01*
%TO.C,J10*%
X45660000Y-128330000D02*
X50860000Y-128330000D01*
X45660000Y-120650000D02*
X45660000Y-128330000D01*
X50860000Y-118050000D02*
X50860000Y-128330000D01*
X45660000Y-120650000D02*
X48260000Y-120650000D01*
X48260000Y-120650000D02*
X48260000Y-118050000D01*
X48260000Y-118050000D02*
X50860000Y-118050000D01*
X45660000Y-119380000D02*
X45660000Y-118050000D01*
X45660000Y-118050000D02*
X46990000Y-118050000D01*
%TO.C,J9*%
X45660000Y-114360000D02*
X50860000Y-114360000D01*
X45660000Y-96520000D02*
X45660000Y-114360000D01*
X50860000Y-93920000D02*
X50860000Y-114360000D01*
X45660000Y-96520000D02*
X48260000Y-96520000D01*
X48260000Y-96520000D02*
X48260000Y-93920000D01*
X48260000Y-93920000D02*
X50860000Y-93920000D01*
X45660000Y-95250000D02*
X45660000Y-93920000D01*
X45660000Y-93920000D02*
X46990000Y-93920000D01*
%TO.C,J8*%
X109280000Y-69790000D02*
X104080000Y-69790000D01*
X109280000Y-87630000D02*
X109280000Y-69790000D01*
X104080000Y-90230000D02*
X104080000Y-69790000D01*
X109280000Y-87630000D02*
X106680000Y-87630000D01*
X106680000Y-87630000D02*
X106680000Y-90230000D01*
X106680000Y-90230000D02*
X104080000Y-90230000D01*
X109280000Y-88900000D02*
X109280000Y-90230000D01*
X109280000Y-90230000D02*
X107950000Y-90230000D01*
%TO.C,J7*%
X109280000Y-135830000D02*
X106620000Y-135830000D01*
X109280000Y-143510000D02*
X109280000Y-135830000D01*
X106620000Y-143510000D02*
X106620000Y-135830000D01*
X109280000Y-143510000D02*
X106620000Y-143510000D01*
X109280000Y-144780000D02*
X109280000Y-146110000D01*
X109280000Y-146110000D02*
X107950000Y-146110000D01*
%TO.C,J6*%
X106740000Y-135830000D02*
X104080000Y-135830000D01*
X106740000Y-143510000D02*
X106740000Y-135830000D01*
X104080000Y-143510000D02*
X104080000Y-135830000D01*
X106740000Y-143510000D02*
X104080000Y-143510000D01*
X106740000Y-144780000D02*
X106740000Y-146110000D01*
X106740000Y-146110000D02*
X105410000Y-146110000D01*
%TO.C,J5*%
X104200000Y-135830000D02*
X101540000Y-135830000D01*
X104200000Y-143510000D02*
X104200000Y-135830000D01*
X101540000Y-143510000D02*
X101540000Y-135830000D01*
X104200000Y-143510000D02*
X101540000Y-143510000D01*
X104200000Y-144780000D02*
X104200000Y-146110000D01*
X104200000Y-146110000D02*
X102870000Y-146110000D01*
%TO.C,C19*%
X64390000Y-124392164D02*
X64390000Y-124607836D01*
X65110000Y-124392164D02*
X65110000Y-124607836D01*
%TO.C,C17*%
X82815000Y-104400000D02*
X82815000Y-108310000D01*
X82815000Y-108310000D02*
X84685000Y-108310000D01*
X84685000Y-108310000D02*
X84685000Y-104400000D01*
D12*
%TO.C,J1*%
X49750000Y-147500000D02*
X54750000Y-147500000D01*
X54750000Y-154000000D02*
X49750000Y-154000000D01*
D17*
G36*
X53750000Y-148750000D02*
G01*
X51000000Y-148750000D01*
X51000000Y-147500000D01*
X53750000Y-147500000D01*
X53750000Y-148750000D01*
G37*
X53750000Y-148750000D02*
X51000000Y-148750000D01*
X51000000Y-147500000D01*
X53750000Y-147500000D01*
X53750000Y-148750000D01*
D12*
X54750000Y-147500000D02*
X54750000Y-154000000D01*
X49750000Y-154000000D02*
X49750000Y-147500000D01*
%TO.C,J3*%
X74250000Y-160000000D02*
X72250000Y-158000000D01*
X73250000Y-160000000D02*
X74250000Y-160000000D01*
X73250000Y-162000000D02*
X73250000Y-160000000D01*
X71250000Y-162000000D02*
X73250000Y-162000000D01*
X71250000Y-160000000D02*
X71250000Y-162000000D01*
X70250000Y-160000000D02*
X71250000Y-160000000D01*
X72250000Y-158000000D02*
X70250000Y-160000000D01*
X67250000Y-157050000D02*
X67250000Y-156500000D01*
X77250000Y-157050000D02*
X77250000Y-156500000D01*
X77250000Y-149500000D02*
X77250000Y-150000000D01*
X67250000Y-149500000D02*
X77250000Y-149500000D01*
X67250000Y-150000000D02*
X67250000Y-149500000D01*
X77250000Y-153750000D02*
X77250000Y-152500000D01*
X67250000Y-153750000D02*
X67250000Y-152500000D01*
X67250000Y-157050000D02*
X77250000Y-157050000D01*
D10*
%TO.C,J4*%
X102955000Y-155415000D02*
X102955000Y-150215000D01*
X92735000Y-155415000D02*
X102955000Y-155415000D01*
X90135000Y-150215000D02*
X102955000Y-150215000D01*
X92735000Y-155415000D02*
X92735000Y-152815000D01*
X92735000Y-152815000D02*
X90135000Y-152815000D01*
X90135000Y-152815000D02*
X90135000Y-150215000D01*
X91465000Y-155415000D02*
X90135000Y-155415000D01*
X90135000Y-155415000D02*
X90135000Y-154085000D01*
%TO.C,R36*%
X57620000Y-84196359D02*
X57620000Y-84503641D01*
X58380000Y-84196359D02*
X58380000Y-84503641D01*
%TO.C,R37*%
X58620000Y-84196359D02*
X58620000Y-84503641D01*
X59380000Y-84196359D02*
X59380000Y-84503641D01*
%TO.C,R60*%
X92370000Y-145846359D02*
X92370000Y-146153641D01*
X93130000Y-145846359D02*
X93130000Y-146153641D01*
%TO.C,R61*%
X90370000Y-145846359D02*
X90370000Y-146153641D01*
X91130000Y-145846359D02*
X91130000Y-146153641D01*
%TO.C,R40*%
X62977064Y-66340000D02*
X61522936Y-66340000D01*
X62977064Y-68160000D02*
X61522936Y-68160000D01*
%TO.C,R41*%
X62977064Y-86590000D02*
X61522936Y-86590000D01*
X62977064Y-88410000D02*
X61522936Y-88410000D01*
%TO.C,R46*%
X67846359Y-89120000D02*
X68153641Y-89120000D01*
X67846359Y-89880000D02*
X68153641Y-89880000D01*
%TO.C,R45*%
X67846359Y-86370000D02*
X68153641Y-86370000D01*
X67846359Y-87130000D02*
X68153641Y-87130000D01*
%TO.C,R42*%
X68153641Y-92630000D02*
X67846359Y-92630000D01*
X68153641Y-91870000D02*
X67846359Y-91870000D01*
%TO.C,R3*%
X76870000Y-144153641D02*
X76870000Y-143846359D01*
X77630000Y-144153641D02*
X77630000Y-143846359D01*
%TO.C,R1*%
X49380000Y-145846359D02*
X49380000Y-146153641D01*
X48620000Y-145846359D02*
X48620000Y-146153641D01*
%TO.C,C2*%
X62990000Y-148000000D02*
X62990000Y-152210000D01*
X62990000Y-152210000D02*
X66010000Y-152210000D01*
X66010000Y-152210000D02*
X66010000Y-148000000D01*
%TO.C,C4*%
X91685000Y-72060000D02*
X91685000Y-68150000D01*
X89815000Y-72060000D02*
X91685000Y-72060000D01*
X89815000Y-68150000D02*
X89815000Y-72060000D01*
%TO.C,C10*%
X73815000Y-77690000D02*
X73815000Y-81600000D01*
X75685000Y-77690000D02*
X73815000Y-77690000D01*
X75685000Y-81600000D02*
X75685000Y-77690000D01*
%TO.C,Y1*%
X76500000Y-101100000D02*
X72500000Y-101100000D01*
X76500000Y-104400000D02*
X76500000Y-101100000D01*
%TO.C,X1*%
X87615000Y-83340000D02*
X90215000Y-83340000D01*
X90400000Y-87010000D02*
X87615000Y-87010000D01*
X90400000Y-86810000D02*
X90400000Y-87010000D01*
%TO.C,U4*%
X74610000Y-144900000D02*
X74610000Y-142450000D01*
X71390000Y-143100000D02*
X71390000Y-144900000D01*
%TO.C,U3*%
X66890000Y-122910000D02*
X66890000Y-123610000D01*
X66890000Y-123610000D02*
X67590000Y-123610000D01*
X66890000Y-110090000D02*
X66890000Y-109390000D01*
X66890000Y-109390000D02*
X67590000Y-109390000D01*
X81110000Y-122910000D02*
X81110000Y-123610000D01*
X81110000Y-123610000D02*
X80410000Y-123610000D01*
X81110000Y-110090000D02*
X81110000Y-109390000D01*
X81110000Y-109390000D02*
X80410000Y-109390000D01*
X80410000Y-109390000D02*
X80410000Y-108025000D01*
%TO.C,U2*%
X80890000Y-79910000D02*
X80890000Y-80360000D01*
X80890000Y-80360000D02*
X81340000Y-80360000D01*
X80890000Y-73590000D02*
X80890000Y-73140000D01*
X80890000Y-73140000D02*
X81340000Y-73140000D01*
X88110000Y-79910000D02*
X88110000Y-80360000D01*
X88110000Y-80360000D02*
X87660000Y-80360000D01*
X88110000Y-73590000D02*
X88110000Y-73140000D01*
X88110000Y-73140000D02*
X87660000Y-73140000D01*
X87660000Y-73140000D02*
X87660000Y-71850000D01*
%TO.C,T1*%
X59830000Y-80790000D02*
X59830000Y-82160000D01*
X59830000Y-82160000D02*
X67170000Y-82160000D01*
X67170000Y-82160000D02*
X67170000Y-80790000D01*
X67170000Y-80790000D02*
X68575000Y-80790000D01*
X59830000Y-69240000D02*
X67170000Y-69240000D01*
X67170000Y-69240000D02*
X67170000Y-70620000D01*
X59830000Y-69240000D02*
X59830000Y-70610000D01*
%TO.C,SW1*%
X86750000Y-153000000D02*
X86750000Y-151500000D01*
X85500000Y-149000000D02*
X81000000Y-149000000D01*
X79750000Y-151500000D02*
X79750000Y-153000000D01*
X81000000Y-155500000D02*
X85500000Y-155500000D01*
%TO.C,R59*%
X93370000Y-145836359D02*
X93370000Y-146143641D01*
X94130000Y-145836359D02*
X94130000Y-146143641D01*
%TO.C,R58*%
X91370000Y-145846359D02*
X91370000Y-146153641D01*
X92130000Y-145846359D02*
X92130000Y-146153641D01*
%TO.C,R57*%
X72620000Y-105596359D02*
X72620000Y-105903641D01*
X73380000Y-105596359D02*
X73380000Y-105903641D01*
%TO.C,R56*%
X74903641Y-148120000D02*
X74596359Y-148120000D01*
X74903641Y-148880000D02*
X74596359Y-148880000D01*
%TO.C,R55*%
X70370000Y-148096359D02*
X70370000Y-148403641D01*
X71130000Y-148096359D02*
X71130000Y-148403641D01*
%TO.C,R54*%
X88096359Y-102610000D02*
X88403641Y-102610000D01*
X88096359Y-101850000D02*
X88403641Y-101850000D01*
%TO.C,R53*%
X88096359Y-112630000D02*
X88403641Y-112630000D01*
X88096359Y-111870000D02*
X88403641Y-111870000D01*
%TO.C,R52*%
X91096359Y-102630000D02*
X91403641Y-102630000D01*
X91096359Y-101870000D02*
X91403641Y-101870000D01*
%TO.C,R51*%
X91096359Y-112630000D02*
X91403641Y-112630000D01*
X91096359Y-111870000D02*
X91403641Y-111870000D01*
%TO.C,R50*%
X85403641Y-119120000D02*
X85096359Y-119120000D01*
X85403641Y-119880000D02*
X85096359Y-119880000D01*
%TO.C,R49*%
X69020000Y-106096359D02*
X69020000Y-106403641D01*
X69780000Y-106096359D02*
X69780000Y-106403641D01*
%TO.C,R48*%
X79153641Y-85870000D02*
X78846359Y-85870000D01*
X79153641Y-86630000D02*
X78846359Y-86630000D01*
%TO.C,R47*%
X67846359Y-88380000D02*
X68153641Y-88380000D01*
X67846359Y-87620000D02*
X68153641Y-87620000D01*
%TO.C,R44*%
X79153641Y-88620000D02*
X78846359Y-88620000D01*
X79153641Y-89380000D02*
X78846359Y-89380000D01*
%TO.C,R43*%
X67846359Y-91130000D02*
X68153641Y-91130000D01*
X67846359Y-90370000D02*
X68153641Y-90370000D01*
%TO.C,R39*%
X79153641Y-91120000D02*
X78846359Y-91120000D01*
X79153641Y-91880000D02*
X78846359Y-91880000D01*
%TO.C,R38*%
X67836359Y-93880000D02*
X68143641Y-93880000D01*
X67836359Y-93120000D02*
X68143641Y-93120000D01*
%TO.C,R35*%
X59620000Y-84196359D02*
X59620000Y-84503641D01*
X60380000Y-84196359D02*
X60380000Y-84503641D01*
%TO.C,R34*%
X60620000Y-84196359D02*
X60620000Y-84503641D01*
X61380000Y-84196359D02*
X61380000Y-84503641D01*
%TO.C,R30*%
X91403641Y-78880000D02*
X91096359Y-78880000D01*
X91403641Y-78120000D02*
X91096359Y-78120000D01*
%TO.C,R29*%
X77346359Y-83630000D02*
X77653641Y-83630000D01*
X77346359Y-82870000D02*
X77653641Y-82870000D01*
%TO.C,R28*%
X79346359Y-83630000D02*
X79653641Y-83630000D01*
X79346359Y-82870000D02*
X79653641Y-82870000D01*
%TO.C,R27*%
X80380000Y-81903641D02*
X80380000Y-81596359D01*
X79620000Y-81903641D02*
X79620000Y-81596359D01*
%TO.C,R26*%
X77596359Y-73130000D02*
X77903641Y-73130000D01*
X77596359Y-72370000D02*
X77903641Y-72370000D01*
%TO.C,R25*%
X77903641Y-74380000D02*
X77596359Y-74380000D01*
X77903641Y-73620000D02*
X77596359Y-73620000D01*
%TO.C,R24*%
X77596359Y-75630000D02*
X77903641Y-75630000D01*
X77596359Y-74870000D02*
X77903641Y-74870000D01*
%TO.C,R23*%
X77903641Y-76120000D02*
X77596359Y-76120000D01*
X77903641Y-76880000D02*
X77596359Y-76880000D01*
%TO.C,R22*%
X77596359Y-80880000D02*
X77903641Y-80880000D01*
X77596359Y-80120000D02*
X77903641Y-80120000D01*
%TO.C,R21*%
X77596359Y-81880000D02*
X77903641Y-81880000D01*
X77596359Y-81120000D02*
X77903641Y-81120000D01*
%TO.C,R20*%
X86120000Y-83346359D02*
X86120000Y-83653641D01*
X86880000Y-83346359D02*
X86880000Y-83653641D01*
%TO.C,R19*%
X82120000Y-83346359D02*
X82120000Y-83653641D01*
X82880000Y-83346359D02*
X82880000Y-83653641D01*
%TO.C,R18*%
X91096359Y-77880000D02*
X91403641Y-77880000D01*
X91096359Y-77120000D02*
X91403641Y-77120000D01*
%TO.C,R12*%
X91096359Y-75880000D02*
X91403641Y-75880000D01*
X91096359Y-75120000D02*
X91403641Y-75120000D01*
%TO.C,R11*%
X91096359Y-76880000D02*
X91403641Y-76880000D01*
X91096359Y-76120000D02*
X91403641Y-76120000D01*
%TO.C,R10*%
X87880000Y-70153641D02*
X87880000Y-69846359D01*
X87120000Y-70153641D02*
X87120000Y-69846359D01*
%TO.C,R6*%
X85880000Y-70143641D02*
X85880000Y-69836359D01*
X85120000Y-70143641D02*
X85120000Y-69836359D01*
%TO.C,R5*%
X86880000Y-70153641D02*
X86880000Y-69846359D01*
X86120000Y-70153641D02*
X86120000Y-69846359D01*
%TO.C,R4*%
X82346359Y-95380000D02*
X82653641Y-95380000D01*
X82346359Y-94620000D02*
X82653641Y-94620000D01*
%TO.C,R2*%
X62130000Y-133403641D02*
X62130000Y-133096359D01*
X61370000Y-133403641D02*
X61370000Y-133096359D01*
%TO.C,Q3*%
X65010000Y-138330000D02*
X63550000Y-138330000D01*
X65010000Y-135170000D02*
X62850000Y-135170000D01*
X65010000Y-135170000D02*
X65010000Y-136100000D01*
X65010000Y-138330000D02*
X65010000Y-137400000D01*
%TO.C,Q1*%
X62080000Y-135990000D02*
X62080000Y-137450000D01*
X58920000Y-135990000D02*
X58920000Y-138150000D01*
X58920000Y-135990000D02*
X59850000Y-135990000D01*
X62080000Y-135990000D02*
X61150000Y-135990000D01*
%TO.C,L2*%
X68350378Y-145810000D02*
X69149622Y-145810000D01*
X68350378Y-144690000D02*
X69149622Y-144690000D01*
%TO.C,L1*%
X65440000Y-105050378D02*
X65440000Y-105849622D01*
X66560000Y-105050378D02*
X66560000Y-105849622D01*
%TO.C,JP7*%
X92330000Y-111050000D02*
X91000000Y-111050000D01*
X92330000Y-109720000D02*
X92330000Y-111050000D01*
X89730000Y-111050000D02*
X87130000Y-111050000D01*
X89730000Y-108450000D02*
X89730000Y-111050000D01*
X92330000Y-108450000D02*
X89730000Y-108450000D01*
X87130000Y-111050000D02*
X87130000Y-103310000D01*
X92330000Y-108450000D02*
X92330000Y-103310000D01*
X92330000Y-103310000D02*
X87130000Y-103310000D01*
%TO.C,JP6*%
X69670000Y-88830000D02*
X69670000Y-87500000D01*
X71000000Y-88830000D02*
X69670000Y-88830000D01*
X72270000Y-88830000D02*
X72270000Y-86170000D01*
X72270000Y-86170000D02*
X77410000Y-86170000D01*
X72270000Y-88830000D02*
X77410000Y-88830000D01*
X77410000Y-88830000D02*
X77410000Y-86170000D01*
%TO.C,JP5*%
X69670000Y-91370000D02*
X69670000Y-90040000D01*
X71000000Y-91370000D02*
X69670000Y-91370000D01*
X72270000Y-91370000D02*
X72270000Y-88710000D01*
X72270000Y-88710000D02*
X77410000Y-88710000D01*
X72270000Y-91370000D02*
X77410000Y-91370000D01*
X77410000Y-91370000D02*
X77410000Y-88710000D01*
%TO.C,JP4*%
X69670000Y-93910000D02*
X69670000Y-92580000D01*
X71000000Y-93910000D02*
X69670000Y-93910000D01*
X72270000Y-93910000D02*
X72270000Y-91250000D01*
X72270000Y-91250000D02*
X77410000Y-91250000D01*
X72270000Y-93910000D02*
X77410000Y-93910000D01*
X77410000Y-93910000D02*
X77410000Y-91250000D01*
%TO.C,JP1*%
X81170000Y-88670000D02*
X82500000Y-88670000D01*
X81170000Y-90000000D02*
X81170000Y-88670000D01*
X81170000Y-91270000D02*
X83830000Y-91270000D01*
X83830000Y-91270000D02*
X83830000Y-93870000D01*
X81170000Y-91270000D02*
X81170000Y-93870000D01*
X81170000Y-93870000D02*
X83830000Y-93870000D01*
%TO.C,F1*%
X67040000Y-139729969D02*
X67040000Y-142270031D01*
X70460000Y-139729969D02*
X70460000Y-142270031D01*
%TO.C,D4*%
X86515000Y-120235000D02*
X88800000Y-120235000D01*
X86515000Y-118765000D02*
X86515000Y-120235000D01*
X88800000Y-118765000D02*
X86515000Y-118765000D01*
%TO.C,D3*%
X53985000Y-60765000D02*
X51700000Y-60765000D01*
X53985000Y-62235000D02*
X53985000Y-60765000D01*
X51700000Y-62235000D02*
X53985000Y-62235000D01*
%TO.C,D2*%
X76485000Y-145735000D02*
X76485000Y-143450000D01*
X75015000Y-145735000D02*
X76485000Y-145735000D01*
X75015000Y-143450000D02*
X75015000Y-145735000D01*
%TO.C,D1*%
X46765000Y-144015000D02*
X46765000Y-146300000D01*
X48235000Y-144015000D02*
X46765000Y-144015000D01*
X48235000Y-146300000D02*
X48235000Y-144015000D01*
%TO.C,C32*%
X72110000Y-102857836D02*
X72110000Y-102642164D01*
X71390000Y-102857836D02*
X71390000Y-102642164D01*
%TO.C,C31*%
X77610000Y-102857836D02*
X77610000Y-102642164D01*
X76890000Y-102857836D02*
X76890000Y-102642164D01*
%TO.C,C30*%
X68760000Y-106357836D02*
X68760000Y-106142164D01*
X68040000Y-106357836D02*
X68040000Y-106142164D01*
%TO.C,C29*%
X67760000Y-106357836D02*
X67760000Y-106142164D01*
X67040000Y-106357836D02*
X67040000Y-106142164D01*
%TO.C,C28*%
X83390000Y-110392164D02*
X83390000Y-110607836D01*
X84110000Y-110392164D02*
X84110000Y-110607836D01*
%TO.C,C27*%
X81642164Y-124860000D02*
X81857836Y-124860000D01*
X81642164Y-124140000D02*
X81857836Y-124140000D01*
%TO.C,C26*%
X65390000Y-124392164D02*
X65390000Y-124607836D01*
X66110000Y-124392164D02*
X66110000Y-124607836D01*
%TO.C,C25*%
X64610000Y-111107836D02*
X64610000Y-110892164D01*
X63890000Y-111107836D02*
X63890000Y-110892164D01*
%TO.C,C24*%
X71110000Y-106377836D02*
X71110000Y-106162164D01*
X70390000Y-106377836D02*
X70390000Y-106162164D01*
%TO.C,C23*%
X75692164Y-107110000D02*
X75907836Y-107110000D01*
X75692164Y-106390000D02*
X75907836Y-106390000D01*
%TO.C,C22*%
X77610000Y-106357836D02*
X77610000Y-106142164D01*
X76890000Y-106357836D02*
X76890000Y-106142164D01*
%TO.C,C20*%
X86892164Y-147610000D02*
X87107836Y-147610000D01*
X86892164Y-146890000D02*
X87107836Y-146890000D01*
%TO.C,C16*%
X58360000Y-86242164D02*
X58360000Y-86457836D01*
X57640000Y-86242164D02*
X57640000Y-86457836D01*
%TO.C,C15*%
X70392164Y-72810000D02*
X70607836Y-72810000D01*
X70392164Y-72090000D02*
X70607836Y-72090000D01*
%TO.C,C14*%
X70392164Y-78590000D02*
X70607836Y-78590000D01*
X70392164Y-79310000D02*
X70607836Y-79310000D01*
%TO.C,C13*%
X77857836Y-79140000D02*
X77642164Y-79140000D01*
X77857836Y-79860000D02*
X77642164Y-79860000D01*
%TO.C,C12*%
X75357836Y-73640000D02*
X75142164Y-73640000D01*
X75357836Y-74360000D02*
X75142164Y-74360000D01*
%TO.C,C11*%
X75357836Y-76140000D02*
X75142164Y-76140000D01*
X75357836Y-76860000D02*
X75142164Y-76860000D01*
%TO.C,C9*%
X77857836Y-77140000D02*
X77642164Y-77140000D01*
X77857836Y-77860000D02*
X77642164Y-77860000D01*
%TO.C,C8*%
X91142164Y-79860000D02*
X91357836Y-79860000D01*
X91142164Y-79140000D02*
X91357836Y-79140000D01*
%TO.C,C7*%
X85140000Y-83392164D02*
X85140000Y-83607836D01*
X85860000Y-83392164D02*
X85860000Y-83607836D01*
%TO.C,C6*%
X90390000Y-73642164D02*
X90390000Y-73857836D01*
X91110000Y-73642164D02*
X91110000Y-73857836D01*
%TO.C,C5*%
X77857836Y-78140000D02*
X77642164Y-78140000D01*
X77857836Y-78860000D02*
X77642164Y-78860000D01*
%TO.C,C3*%
X88392164Y-88110000D02*
X88607836Y-88110000D01*
X88392164Y-87390000D02*
X88607836Y-87390000D01*
%TD*%
M02*
